<svg xmlns="http://www.w3.org/2000/svg" width="171.874" height="172" viewBox="0 0 171.874 172">
  <g id="Grupo_9131" data-name="Grupo 9131" transform="translate(-114.141 -204.001)">
    <path id="Trazado_8519" data-name="Trazado 8519" d="M393.55,463.081H344.293l4.985-77.414a2.225,2.225,0,0,1,2.226-2.226h39.819a2.226,2.226,0,0,1,2.227,2.226Zm0,0" transform="translate(-127.063 -99.066)" fill="#99e6fc"/>
    <path id="Trazado_8520" data-name="Trazado 8520" d="M210.613,489H157.738V430.118a2.227,2.227,0,0,1,2.227-2.227h39.819a2.226,2.226,0,0,1,2.226,2.227Zm0,0" transform="translate(-24.069 -123.606)" fill="#bbec6c"/>
    <path id="Trazado_8521" data-name="Trazado 8521" d="M381.865,446.489a8.985,8.985,0,0,1-8.985-8.984V385.667a2.227,2.227,0,0,1,2.228-2.226h-17.46a2.226,2.226,0,0,0-2.226,2.226v77.414h44.272V446.489Zm0,0" transform="translate(-133.207 -99.066)" fill="#62dbfb"/>
    <path id="Trazado_8522" data-name="Trazado 8522" d="M184.671,471.029a9.473,9.473,0,0,1-9.473-9.473V430.118a2.227,2.227,0,0,1,2.227-2.227h-17.46a2.227,2.227,0,0,0-2.227,2.227V489H202.01V471.029Zm0,0" transform="translate(-24.069 -123.606)" fill="#a2e62e"/>
    <path id="Trazado_8523" data-name="Trazado 8523" d="M279.562,205.876l5.51,11.167a2.04,2.04,0,0,0,1.531,1.111l12.323,1.79a2.033,2.033,0,0,1,1.127,3.468l-8.916,8.691a2.037,2.037,0,0,0-.586,1.8l2.107,12.274a2.032,2.032,0,0,1-2.95,2.141l-11.021-5.793a2.031,2.031,0,0,0-1.891,0l-11.023,5.793a2.031,2.031,0,0,1-2.948-2.141l2.1-12.274a2.031,2.031,0,0,0-.584-1.8l-8.918-8.691a2.032,2.032,0,0,1,1.127-3.466l12.323-1.792a2.032,2.032,0,0,0,1.531-1.111l5.51-11.167a2.033,2.033,0,0,1,3.646,0Zm0,0" transform="translate(-77.66 -0.409)" fill="#fc0"/>
    <path id="Trazado_8524" data-name="Trazado 8524" d="M396.1,253.048h-3.713a2.592,2.592,0,0,1,0-5.185H396.1a2.592,2.592,0,1,1,0,5.185Zm0,0" transform="translate(-152.183 -24.215)" fill="#fee45a"/>
    <path id="Trazado_8525" data-name="Trazado 8525" d="M382.407,210.721a2.593,2.593,0,0,1-1.074-4.954l3.382-1.534a2.592,2.592,0,0,1,2.143,4.721l-3.382,1.534a2.548,2.548,0,0,1-1.069.233Zm0,0" transform="translate(-146.673)" fill="#fee45a"/>
    <path id="Trazado_8526" data-name="Trazado 8526" d="M385.785,295.018a2.588,2.588,0,0,1-1.069-.233l-3.382-1.535a2.592,2.592,0,0,1,2.143-4.721l3.382,1.535a2.593,2.593,0,0,1-1.074,4.954Zm0,0" transform="translate(-146.673 -46.538)" fill="#fee45a"/>
    <path id="Trazado_8527" data-name="Trazado 8527" d="M209.419,253.048h-3.713a2.592,2.592,0,1,1,0-5.185h3.713a2.592,2.592,0,1,1,0,5.185Zm0,0" transform="translate(-49.12 -24.215)" fill="#fee45a"/>
    <path id="Trazado_8528" data-name="Trazado 8528" d="M219.806,210.721a2.563,2.563,0,0,1-1.071-.233l-3.38-1.534a2.592,2.592,0,1,1,2.144-4.721l3.38,1.534a2.593,2.593,0,0,1-1.072,4.954Zm0,0" transform="translate(-55.038)" fill="#fee45a"/>
    <path id="Trazado_8529" data-name="Trazado 8529" d="M216.427,295.018a2.593,2.593,0,0,1-1.073-4.954l3.38-1.535a2.592,2.592,0,1,1,2.143,4.721l-3.38,1.535a2.591,2.591,0,0,1-1.071.233Zm0,0" transform="translate(-55.038 -46.538)" fill="#fee45a"/>
    <path id="Trazado_8530" data-name="Trazado 8530" d="M300.852,434.336H256.578V332.973a2.228,2.228,0,0,1,2.227-2.227h39.819a2.228,2.228,0,0,1,2.227,2.227Zm0,0" transform="translate(-78.637 -69.974)" fill="#f37c7c"/>
    <path id="Trazado_8531" data-name="Trazado 8531" d="M284.365,417.4a10.325,10.325,0,0,1-10.326-10.326v-74.1a2.227,2.227,0,0,1,2.227-2.227h-17.46a2.228,2.228,0,0,0-2.227,2.227V434.336h44.274V417.4Zm0,0" transform="translate(-78.637 -69.974)" fill="#ee6161"/>
    <path id="Trazado_8532" data-name="Trazado 8532" d="M281.848,539.633H118.308a4.168,4.168,0,0,0-4.167,4.169v13.889a3.605,3.605,0,0,0,3.606,3.606H282.409a3.605,3.605,0,0,0,3.606-3.606V543.8a4.168,4.168,0,0,0-4.167-4.169Zm0,0" transform="translate(0 -185.296)" fill="#d7d0d6"/>
  </g>
</svg>
