<svg xmlns="http://www.w3.org/2000/svg" width="352" height="335.436" viewBox="0 0 352 335.436">
  <g id="Grupo_9147" data-name="Grupo 9147" transform="translate(-258.837 -159.291)">
    <path id="Trazado_8533" data-name="Trazado 8533" d="M1570.305,1239.937a4.888,4.888,0,0,1-1.184,8.893c-1.631.465-3.416,1-5.343,1.62-23.379,7.5-22.006,36.882-22.826,56.982-1.333,32.656-13,34.656-13,34.656l-36.877-45.1,20.882-56.871,49.762-5.332Z" transform="translate(-971.104 -847.576)" fill="#c2aea9"/>
    <path id="Trazado_8534" data-name="Trazado 8534" d="M735.8,320.936a59.573,59.573,0,0,0,7-8.331c3.332-4.832,5.2-14.5,10.18-16.994s8.647-2.333,10.147,0,.667,11.5-5.5,16.828a113.734,113.734,0,0,1-14,10C743.131,322.769,735.8,320.936,735.8,320.936Z" transform="translate(-375.884 -106.002)" fill="#bedce8"/>
    <path id="Trazado_8535" data-name="Trazado 8535" d="M618.579,330.556s-14.981,1.069-19.191-4.1-5.344-12.189-11.139-14.628-14.4-4.2-9.27-8.629,13.512-6.908,20.792-2.233,7.037,8.043,10.14,12.624,4.463,14.566,4.463,14.566Z" transform="translate(-251.059 -109.667)" fill="#bedce8"/>
    <path id="Trazado_8536" data-name="Trazado 8536" d="M708.939,212.782s4.832-5.165,5-11-4.165-11.5-5-15.662,2.666-11.663,3.5-16.994-6.331-14.662-10.663-6.831-7.831,14.662-7.664,20.493,1.666,8,3.832,15.995.666,12.663,2.833,16.328S708.939,212.782,708.939,212.782Z" transform="translate(-343.025)" fill="#bedce8"/>
    <path id="Trazado_8537" data-name="Trazado 8537" d="M676.742,441.981H672.18c-6.978,0-12.782-4.886-13.325-11.219l-.875-10.214a4.065,4.065,0,0,1,4.267-4.2h24.429a4.065,4.065,0,0,1,4.267,4.2l-.875,10.214C689.525,437.095,683.721,441.981,676.742,441.981Z" transform="translate(-314.545 -202.583)" fill="#faebe6"/>
    <g id="Grupo_9138" data-name="Grupo 9138" transform="translate(320.883 238.732)">
      <g id="Grupo_9132" data-name="Grupo 9132" transform="translate(0 0)">
        <path id="Trazado_8538" data-name="Trazado 8538" d="M741.234,723.867H559.66a8.055,8.055,0,0,1-8.046-8.046V542.2a8.055,8.055,0,0,1,8.046-8.046H741.234a8.055,8.055,0,0,1,8.046,8.046V715.822A8.055,8.055,0,0,1,741.234,723.867ZM559.66,535.483a6.721,6.721,0,0,0-6.713,6.713V715.822a6.721,6.721,0,0,0,6.713,6.713H741.234a6.721,6.721,0,0,0,6.713-6.713V542.2a6.721,6.721,0,0,0-6.713-6.713Z" transform="translate(-551.614 -534.15)" fill="#bca4a5"/>
      </g>
      <g id="Grupo_9133" data-name="Grupo 9133" transform="translate(0.666 24.918)">
        <rect id="Rectángulo_5974" data-name="Rectángulo 5974" width="196.333" height="1.333" fill="#bca4a5"/>
      </g>
      <g id="Grupo_9134" data-name="Grupo 9134" transform="translate(0.666 52.4)">
        <rect id="Rectángulo_5975" data-name="Rectángulo 5975" width="196.333" height="1.333" fill="#bca4a5"/>
      </g>
      <g id="Grupo_9135" data-name="Grupo 9135" transform="translate(0.666 79.883)">
        <rect id="Rectángulo_5976" data-name="Rectángulo 5976" width="196.333" height="1.333" fill="#bca4a5"/>
      </g>
      <g id="Grupo_9136" data-name="Grupo 9136" transform="translate(0.666 106.063)">
        <rect id="Rectángulo_5977" data-name="Rectángulo 5977" width="196.333" height="1.333" fill="#bca4a5"/>
      </g>
      <g id="Grupo_9137" data-name="Grupo 9137" transform="translate(98.167 0.666)">
        <rect id="Rectángulo_5978" data-name="Rectángulo 5978" width="1.333" height="138.961" fill="#bca4a5"/>
      </g>
      <path id="Trazado_8539" data-name="Trazado 8539" d="M1226.175,615.978h-9.828a1.25,1.25,0,0,1-1.25-1.25h0a1.25,1.25,0,0,1,1.25-1.249h9.828a1.249,1.249,0,0,1,1.25,1.249h0A1.25,1.25,0,0,1,1226.175,615.978Z" transform="translate(-1074.491 -596.668)" fill="#bca4a5"/>
      <path id="Trazado_8540" data-name="Trazado 8540" d="M1226.175,751.11h-9.828a1.25,1.25,0,0,1-1.25-1.25h0a1.25,1.25,0,0,1,1.25-1.25h9.828a1.25,1.25,0,0,1,1.25,1.25h0A1.25,1.25,0,0,1,1226.175,751.11Z" transform="translate(-1074.491 -703.162)" fill="#bca4a5"/>
      <path id="Trazado_8541" data-name="Trazado 8541" d="M1226.175,886.242h-9.828a1.25,1.25,0,0,1-1.25-1.25h0a1.25,1.25,0,0,1,1.25-1.25h9.828a1.25,1.25,0,0,1,1.25,1.25h0A1.25,1.25,0,0,1,1226.175,886.242Z" transform="translate(-1074.491 -809.657)" fill="#bca4a5"/>
      <path id="Trazado_8542" data-name="Trazado 8542" d="M1226.175,1005.651h-9.828a1.25,1.25,0,0,1-1.25-1.25h0a1.25,1.25,0,0,1,1.25-1.249h9.828a1.249,1.249,0,0,1,1.25,1.249h0A1.25,1.25,0,0,1,1226.175,1005.651Z" transform="translate(-1074.491 -903.76)" fill="#bca4a5"/>
      <path id="Trazado_8543" data-name="Trazado 8543" d="M763.944,615.978h9.828a1.25,1.25,0,0,0,1.249-1.25h0a1.249,1.249,0,0,0-1.249-1.249h-9.828a1.249,1.249,0,0,0-1.25,1.249h0A1.25,1.25,0,0,0,763.944,615.978Z" transform="translate(-717.962 -596.668)" fill="#bca4a5"/>
      <path id="Trazado_8544" data-name="Trazado 8544" d="M763.944,751.11h9.828a1.25,1.25,0,0,0,1.249-1.25h0a1.25,1.25,0,0,0-1.249-1.25h-9.828a1.25,1.25,0,0,0-1.25,1.25h0A1.25,1.25,0,0,0,763.944,751.11Z" transform="translate(-717.962 -703.162)" fill="#bca4a5"/>
      <path id="Trazado_8545" data-name="Trazado 8545" d="M763.944,886.242h9.828a1.25,1.25,0,0,0,1.249-1.25h0a1.25,1.25,0,0,0-1.249-1.25h-9.828a1.25,1.25,0,0,0-1.25,1.25h0A1.25,1.25,0,0,0,763.944,886.242Z" transform="translate(-717.962 -809.657)" fill="#bca4a5"/>
      <path id="Trazado_8546" data-name="Trazado 8546" d="M763.944,1008.8h9.828a1.25,1.25,0,0,0,1.249-1.25h0a1.25,1.25,0,0,0-1.249-1.25h-9.828a1.25,1.25,0,0,0-1.25,1.25h0A1.25,1.25,0,0,0,763.944,1008.8Z" transform="translate(-717.962 -906.238)" fill="#bca4a5"/>
    </g>
    <path id="Trazado_8547" data-name="Trazado 8547" d="M737.789,230c-.3-3.575-2.041-6.617-3.395-9.862a15.922,15.922,0,0,1-.375-12.149c1.229-3.157,3.181-6.157,2.726-9.684-.054-.419-.721-.425-.667,0,.46,3.567-1.617,6.557-2.8,9.765a15.884,15.884,0,0,0-.4,9.822c.959,3.371,2.983,6.336,3.842,9.741A15.616,15.616,0,0,1,735.2,238.9c-.205.377.37.714.576.336A16.442,16.442,0,0,0,737.789,230Z" transform="translate(-373.114 -30.499)" fill="#a4cdde"/>
    <path id="Trazado_8548" data-name="Trazado 8548" d="M635.513,342.1c-3.877-2.884-5.931-7.482-9.691-10.483a10.753,10.753,0,0,0-4.9-2.306c-1.12-.192-2.266-.191-3.38-.42a18,18,0,0,1-4.127-1.579c-.385-.185-.723.389-.336.575a17.49,17.49,0,0,0,5.779,1.856,11.817,11.817,0,0,1,7.3,3.04c3.321,3.032,5.367,7.178,9.014,9.892C635.521,342.934,635.853,342.355,635.513,342.1Z" transform="translate(-279.036 -132.387)" fill="#a4cdde"/>
    <path id="Trazado_8549" data-name="Trazado 8549" d="M788.575,323.523A20.632,20.632,0,0,1,782.347,333c-2.335,1.988-5.675,3.308-6.344,6.623-.085.419.557.6.642.177.449-2.221,2.2-3.449,3.958-4.665a23.772,23.772,0,0,0,3.753-3.122,21.5,21.5,0,0,0,4.863-8.309C789.349,323.29,788.706,323.115,788.575,323.523Z" transform="translate(-407.561 -129.245)" fill="#a4cdde"/>
    <path id="Trazado_8550" data-name="Trazado 8550" d="M1305.366,768.094c-.053-.268.624-7.856-4.9-12.382s-15.848-3.557-18.937,0-3.151,6.157-5.959,8.022a7.242,7.242,0,0,0-3.089,7.387c.562,3.026,2.059,3.837,2.059,6.364s-3.182,4.212-2.059,7.113,4.773,4.231,6.084,3.192.956-2.162,5.017-1.132,6.317,1.187,8.465.453S1305.366,768.094,1305.366,768.094Z" transform="translate(-798.644 -467.629)" fill="#4e372b"/>
    <path id="Trazado_8551" data-name="Trazado 8551" d="M1313.59,771.108c-3.489,3.953-2.662,15.984-1.679,21.286.368,1.987,5.466,7.991,8.141,8.2,4.106.319,11.205-3.783,12.5-6.648.634-1.4,3.785-15.151,1.962-19.522s-11.314-7.582-15.324-6.758C1315.529,768.418,1319.789,764.084,1313.59,771.108Z" transform="translate(-829.232 -478.941)" fill="#f2b38f"/>
    <path id="Trazado_8552" data-name="Trazado 8552" d="M1350.4,887.734l1.993,10.529,5.3,4.056,7.788-1.185-1.308-19.453s-5.684,2.331-6.693,2.833S1350.4,887.734,1350.4,887.734Z" transform="translate(-860.235 -569.3)" fill="#f2b38f"/>
    <path id="Trazado_8553" data-name="Trazado 8553" d="M1324.23,843.969a.645.645,0,0,0-.444-.354c-.669-.13-.569,1.408-.271,1.69a.416.416,0,0,0,.361.089c.188-.034.429-.148.436-.367a3,3,0,0,0-.031-.93A.775.775,0,0,0,1324.23,843.969Z" transform="translate(-838.868 -539.295)" fill="#4e372b"/>
    <path id="Trazado_8554" data-name="Trazado 8554" d="M1376.7,844.186a1.434,1.434,0,0,0-.153-.815c-.321-.415-.863,0-.977.375a1.859,1.859,0,0,0-.039.711.88.88,0,0,0,.157.5.562.562,0,0,0,.844.031A1.214,1.214,0,0,0,1376.7,844.186Z" transform="translate(-880.032 -538.973)" fill="#4e372b"/>
    <path id="Trazado_8555" data-name="Trazado 8555" d="M1345.53,856.184a2.079,2.079,0,0,1-.866-.933c-.25-.535-.066-.864.087-1.386.224-.761.466-1.517.719-2.268.154-.457-.568-.654-.722-.2-.214.636-.421,1.275-.615,1.917a4.806,4.806,0,0,0-.407,1.6,2.919,2.919,0,0,0,1.426,1.912A.375.375,0,0,0,1345.53,856.184Z" transform="translate(-854.973 -545.231)" fill="#e69f77"/>
    <path id="Trazado_8556" data-name="Trazado 8556" d="M1363.681,905.379a28.69,28.69,0,0,1-7.836,4.151c-.461.136-.157.821.3.686a29.333,29.333,0,0,0,8-4.25C1364.545,905.7,1364.078,905.109,1363.681,905.379Z" transform="translate(-864.348 -587.921)" fill="#e69f77"/>
    <path id="Trazado_8557" data-name="Trazado 8557" d="M1338.677,886.3c.5-.361,6.124-.592,6.24-.158.2.769-1.173,2.14-3.16,2.246C1339.157,888.524,1338.454,886.459,1338.677,886.3Z" transform="translate(-850.968 -572.628)" fill="#fff"/>
    <path id="Trazado_8558" data-name="Trazado 8558" d="M1311.115,772.628c-2.916-2.882-7.925.749-14.162.655a17.93,17.93,0,0,1-4.586-1.4l2.465-3.182a15.8,15.8,0,0,1,1.373-2.558,38.929,38.929,0,0,1,4.679-4.305c.375-.249.562-1.248,1.747-.873s4.69.243,6.8,1.511,7.3,1.671,8.236,2.42a13.275,13.275,0,0,1,2.371,3.12,12.823,12.823,0,0,1,1.186,6.552,57.208,57.208,0,0,1-2.184,10.233,12.623,12.623,0,0,0-.531,2.755s-1.227-.888-1.216-1.925c.042-4.06,1.435-6.42.874-8.442S1316.607,778.056,1311.115,772.628Z" transform="translate(-814.503 -474.097)" fill="#4e372b"/>
    <path id="Trazado_8559" data-name="Trazado 8559" d="M1308.485,805.169a11.039,11.039,0,0,0-3.873,2.522c-2.433,2.153-1.876,6.643-1.876,6.643s-2.523-8.141-2.429-8.421.842-3.449,1.4-3.175,2.827-.662,3.988-.569S1308.485,805.169,1308.485,805.169Z" transform="translate(-820.758 -506.633)" fill="#4e372b"/>
    <path id="Trazado_8560" data-name="Trazado 8560" d="M1326.176,799.923a20.2,20.2,0,0,1-5.314,2.233c-3.362.936-4.594.74-6.411,1.774s-.6-1.5-.6-1.5,4.135-4.313,5.3-4.587,2.472-1.4,3.876-1.116S1326.176,799.923,1326.176,799.923Z" transform="translate(-831.118 -502.315)" fill="#4e372b"/>
    <path id="Trazado_8561" data-name="Trazado 8561" d="M1294.661,943.664s-12.292,5.125-15.068,7.5-1.444,18.261,0,27.036,2.555,13.107,2.61,17.55-1.833,6.776,1.278,7.775,4,1.333,14.218,2,13.44-.333,16.55,0,5-1.444,5.109-4,7.109-40.321,6.665-45.1-4.11-6.331-8.219-8.664a59.322,59.322,0,0,0-9.826-4.1s-3.392,3.658-6.613,3.769S1294.661,943.664,1294.661,943.664Z" transform="translate(-803.158 -618.148)" fill="#fdf7ed"/>
    <path id="Trazado_8562" data-name="Trazado 8562" d="M1305.366,768.094c-.053-.268.624-7.856-4.9-12.382s-15.848-3.557-18.937,0-3.151,6.157-5.959,8.022a7.242,7.242,0,0,0-3.089,7.387c.562,3.026,2.059,3.837,2.059,6.364s-3.182,4.212-2.059,7.113,4.773,4.231,6.084,3.192.956-2.162,5.017-1.132,6.317,1.187,8.465.453S1305.366,768.094,1305.366,768.094Z" transform="translate(-798.644 -467.629)" fill="#4e372b"/>
    <path id="Trazado_8563" data-name="Trazado 8563" d="M1313.59,771.108c-3.489,3.953-2.662,15.984-1.679,21.286.368,1.987,5.466,7.991,8.141,8.2,4.106.319,11.205-3.783,12.5-6.648.634-1.4,3.785-15.151,1.962-19.522s-11.314-7.582-15.324-6.758C1315.529,768.418,1319.789,764.084,1313.59,771.108Z" transform="translate(-829.232 -478.941)" fill="#f2b38f"/>
    <path id="Trazado_8564" data-name="Trazado 8564" d="M1350.4,887.734l1.993,10.529,5.3,4.056,7.788-1.185-1.308-19.453s-5.684,2.331-6.693,2.833S1350.4,887.734,1350.4,887.734Z" transform="translate(-860.235 -569.3)" fill="#f2b38f"/>
    <path id="Trazado_8565" data-name="Trazado 8565" d="M1324.23,843.969a.645.645,0,0,0-.444-.354c-.669-.13-.569,1.408-.271,1.69a.416.416,0,0,0,.361.089c.188-.034.429-.148.436-.367a3,3,0,0,0-.031-.93A.775.775,0,0,0,1324.23,843.969Z" transform="translate(-838.868 -539.295)" fill="#4e372b"/>
    <path id="Trazado_8566" data-name="Trazado 8566" d="M1376.7,844.186a1.434,1.434,0,0,0-.153-.815c-.321-.415-.863,0-.977.375a1.859,1.859,0,0,0-.039.711.88.88,0,0,0,.157.5.562.562,0,0,0,.844.031A1.214,1.214,0,0,0,1376.7,844.186Z" transform="translate(-880.032 -538.973)" fill="#4e372b"/>
    <path id="Trazado_8567" data-name="Trazado 8567" d="M1345.53,856.184a2.079,2.079,0,0,1-.866-.933c-.25-.535-.066-.864.087-1.386.224-.761.466-1.517.719-2.268.154-.457-.568-.654-.722-.2-.214.636-.421,1.275-.615,1.917a4.806,4.806,0,0,0-.407,1.6,2.919,2.919,0,0,0,1.426,1.912A.375.375,0,0,0,1345.53,856.184Z" transform="translate(-854.973 -545.231)" fill="#e69f77"/>
    <path id="Trazado_8568" data-name="Trazado 8568" d="M1363.681,905.379a28.69,28.69,0,0,1-7.836,4.151c-.461.136-.157.821.3.686a29.333,29.333,0,0,0,8-4.25C1364.545,905.7,1364.078,905.109,1363.681,905.379Z" transform="translate(-864.348 -587.921)" fill="#e69f77"/>
    <path id="Trazado_8569" data-name="Trazado 8569" d="M1338.677,886.3c.5-.361,6.124-.592,6.24-.158.2.769-1.173,2.14-3.16,2.246C1339.157,888.524,1338.454,886.459,1338.677,886.3Z" transform="translate(-850.968 -572.628)" fill="#fff"/>
    <path id="Trazado_8570" data-name="Trazado 8570" d="M1311.115,772.628c-2.916-2.882-7.925.749-14.162.655a17.93,17.93,0,0,1-4.586-1.4l2.465-3.182a15.8,15.8,0,0,1,1.373-2.558,38.929,38.929,0,0,1,4.679-4.305c.375-.249.562-1.248,1.747-.873s4.69.243,6.8,1.511,7.3,1.671,8.236,2.42a13.275,13.275,0,0,1,2.371,3.12,12.823,12.823,0,0,1,1.186,6.552,57.208,57.208,0,0,1-2.184,10.233,12.623,12.623,0,0,0-.531,2.755s-1.227-.888-1.216-1.925c.042-4.06,1.435-6.42.874-8.442S1316.607,778.056,1311.115,772.628Z" transform="translate(-814.503 -474.097)" fill="#4e372b"/>
    <path id="Trazado_8571" data-name="Trazado 8571" d="M1308.485,805.169a11.039,11.039,0,0,0-3.873,2.522c-2.433,2.153-1.876,6.643-1.876,6.643s-2.523-8.141-2.429-8.421.842-3.449,1.4-3.175,2.827-.662,3.988-.569S1308.485,805.169,1308.485,805.169Z" transform="translate(-820.758 -506.633)" fill="#4e372b"/>
    <path id="Trazado_8572" data-name="Trazado 8572" d="M1326.176,799.923a20.2,20.2,0,0,1-5.314,2.233c-3.362.936-4.594.74-6.411,1.774s-.6-1.5-.6-1.5,4.135-4.313,5.3-4.587,2.472-1.4,3.876-1.116S1326.176,799.923,1326.176,799.923Z" transform="translate(-831.118 -502.315)" fill="#4e372b"/>
    <path id="Trazado_8573" data-name="Trazado 8573" d="M1294.661,943.664s-12.292,5.125-15.068,7.5-1.444,18.261,0,27.036,2.555,13.107,2.61,17.55-1.833,6.776,1.278,7.775,4,1.333,14.218,2,13.44-.333,16.55,0,5-1.444,5.109-4,7.109-40.321,6.665-45.1-4.11-6.331-8.219-8.664a59.322,59.322,0,0,0-9.826-4.1s-3.392,3.658-6.613,3.769S1294.661,943.664,1294.661,943.664Z" transform="translate(-803.158 -618.148)" fill="#fdf7ed"/>
    <path id="Trazado_8574" data-name="Trazado 8574" d="M1305.366,768.094c-.053-.268.624-7.856-4.9-12.382s-15.848-3.557-18.937,0-3.151,6.157-5.959,8.022a7.242,7.242,0,0,0-3.089,7.387c.562,3.026,2.059,3.837,2.059,6.364s-3.182,4.212-2.059,7.113,4.773,4.231,6.084,3.192.956-2.162,5.017-1.132,6.317,1.187,8.465.453S1305.366,768.094,1305.366,768.094Z" transform="translate(-798.644 -467.629)" fill="#4e372b"/>
    <path id="Trazado_8575" data-name="Trazado 8575" d="M1313.59,771.108c-3.489,3.953-2.662,15.984-1.679,21.286.368,1.987,5.466,7.991,8.141,8.2,4.106.319,11.205-3.783,12.5-6.648.634-1.4,3.785-15.151,1.962-19.522s-11.314-7.582-15.324-6.758C1315.529,768.418,1319.789,764.084,1313.59,771.108Z" transform="translate(-829.232 -478.941)" fill="#f2b38f"/>
    <path id="Trazado_8576" data-name="Trazado 8576" d="M1350.4,887.734l1.993,10.529,5.3,4.056,7.788-1.185-1.308-19.453s-5.684,2.331-6.693,2.833S1350.4,887.734,1350.4,887.734Z" transform="translate(-860.235 -569.3)" fill="#f2b38f"/>
    <path id="Trazado_8577" data-name="Trazado 8577" d="M1324.23,843.969a.645.645,0,0,0-.444-.354c-.669-.13-.569,1.408-.271,1.69a.416.416,0,0,0,.361.089c.188-.034.429-.148.436-.367a3,3,0,0,0-.031-.93A.775.775,0,0,0,1324.23,843.969Z" transform="translate(-838.868 -539.295)" fill="#4e372b"/>
    <path id="Trazado_8578" data-name="Trazado 8578" d="M1376.7,844.186a1.434,1.434,0,0,0-.153-.815c-.321-.415-.863,0-.977.375a1.859,1.859,0,0,0-.039.711.88.88,0,0,0,.157.5.562.562,0,0,0,.844.031A1.214,1.214,0,0,0,1376.7,844.186Z" transform="translate(-880.032 -538.973)" fill="#4e372b"/>
    <path id="Trazado_8579" data-name="Trazado 8579" d="M1345.53,856.184a2.079,2.079,0,0,1-.866-.933c-.25-.535-.066-.864.087-1.386.224-.761.466-1.517.719-2.268.154-.457-.568-.654-.722-.2-.214.636-.421,1.275-.615,1.917a4.806,4.806,0,0,0-.407,1.6,2.919,2.919,0,0,0,1.426,1.912A.375.375,0,0,0,1345.53,856.184Z" transform="translate(-854.973 -545.231)" fill="#e69f77"/>
    <path id="Trazado_8580" data-name="Trazado 8580" d="M1363.681,905.379a28.69,28.69,0,0,1-7.836,4.151c-.461.136-.157.821.3.686a29.333,29.333,0,0,0,8-4.25C1364.545,905.7,1364.078,905.109,1363.681,905.379Z" transform="translate(-864.348 -587.921)" fill="#e69f77"/>
    <path id="Trazado_8581" data-name="Trazado 8581" d="M1338.677,886.3c.5-.361,6.124-.592,6.24-.158.2.769-1.173,2.14-3.16,2.246C1339.157,888.524,1338.454,886.459,1338.677,886.3Z" transform="translate(-850.968 -572.628)" fill="#fff"/>
    <path id="Trazado_8582" data-name="Trazado 8582" d="M1311.115,772.628c-2.916-2.882-7.925.749-14.162.655a17.93,17.93,0,0,1-4.586-1.4l2.465-3.182a15.8,15.8,0,0,1,1.373-2.558,38.929,38.929,0,0,1,4.679-4.305c.375-.249.562-1.248,1.747-.873s4.69.243,6.8,1.511,7.3,1.671,8.236,2.42a13.275,13.275,0,0,1,2.371,3.12,12.823,12.823,0,0,1,1.186,6.552,57.208,57.208,0,0,1-2.184,10.233,12.623,12.623,0,0,0-.531,2.755s-1.227-.888-1.216-1.925c.042-4.06,1.435-6.42.874-8.442S1316.607,778.056,1311.115,772.628Z" transform="translate(-814.503 -474.097)" fill="#4e372b"/>
    <path id="Trazado_8583" data-name="Trazado 8583" d="M1308.485,805.169a11.039,11.039,0,0,0-3.873,2.522c-2.433,2.153-1.876,6.643-1.876,6.643s-2.523-8.141-2.429-8.421.842-3.449,1.4-3.175,2.827-.662,3.988-.569S1308.485,805.169,1308.485,805.169Z" transform="translate(-820.758 -506.633)" fill="#4e372b"/>
    <path id="Trazado_8584" data-name="Trazado 8584" d="M1326.176,799.923a20.2,20.2,0,0,1-5.314,2.233c-3.362.936-4.594.74-6.411,1.774s-.6-1.5-.6-1.5,4.135-4.313,5.3-4.587,2.472-1.4,3.876-1.116S1326.176,799.923,1326.176,799.923Z" transform="translate(-831.118 -502.315)" fill="#4e372b"/>
    <path id="Trazado_8585" data-name="Trazado 8585" d="M1294.661,943.664s-12.292,5.125-15.068,7.5-1.444,18.261,0,27.036,2.555,13.107,2.61,17.55-1.833,6.776,1.278,7.775,4,1.333,14.218,2,13.44-.333,16.55,0,5-1.444,5.109-4,7.109-40.321,6.665-45.1-4.11-6.331-8.219-8.664a59.322,59.322,0,0,0-9.826-4.1s-3.392,3.658-6.613,3.769S1294.661,943.664,1294.661,943.664Z" transform="translate(-803.158 -618.148)" fill="#fdf7ed"/>
    <path id="Trazado_8586" data-name="Trazado 8586" d="M1294.363,973.819c.666-.4,17.772-.169,20.216,3.951s.889,30.723,0,39.2-1.555,15.541-1.555,15.541l-48.036-1.177-12.389-2.943,6.22-50.622Z" transform="translate(-783.162 -641.802)" fill="#955a47"/>
    <path id="Trazado_8587" data-name="Trazado 8587" d="M1305.366,768.094c-.053-.268.624-7.856-4.9-12.382s-15.848-3.557-18.937,0-3.151,6.157-5.959,8.022a7.242,7.242,0,0,0-3.089,7.387c.562,3.026,2.059,3.837,2.059,6.364s-3.182,4.212-2.059,7.113,4.773,4.231,6.084,3.192.956-2.162,5.017-1.132,6.317,1.187,8.465.453S1305.366,768.094,1305.366,768.094Z" transform="translate(-798.644 -467.629)" fill="#2d253e"/>
    <path id="Trazado_8588" data-name="Trazado 8588" d="M1313.59,771.108c-3.489,3.953-2.662,15.984-1.679,21.286.368,1.987,5.466,7.991,8.141,8.2,4.106.319,11.205-3.783,12.5-6.648.634-1.4,3.785-15.151,1.962-19.522s-11.314-7.582-15.324-6.758C1315.529,768.418,1319.789,764.084,1313.59,771.108Z" transform="translate(-829.232 -478.941)" fill="#f2b38f"/>
    <path id="Trazado_8589" data-name="Trazado 8589" d="M1350.4,887.734l1.993,10.529,3.924,6.877,9.164-4.006-1.308-19.453s-5.684,2.331-6.693,2.833S1350.4,887.734,1350.4,887.734Z" transform="translate(-860.235 -569.3)" fill="#f2b38f"/>
    <path id="Trazado_8590" data-name="Trazado 8590" d="M1324.23,843.969a.645.645,0,0,0-.444-.354c-.669-.13-.569,1.408-.271,1.69a.416.416,0,0,0,.361.089c.188-.034.429-.148.436-.367a3,3,0,0,0-.031-.93A.775.775,0,0,0,1324.23,843.969Z" transform="translate(-838.868 -539.295)" fill="#2d253e"/>
    <path id="Trazado_8591" data-name="Trazado 8591" d="M1376.7,844.186a1.434,1.434,0,0,0-.153-.815c-.321-.415-.863,0-.977.375a1.859,1.859,0,0,0-.039.711.88.88,0,0,0,.157.5.562.562,0,0,0,.844.031A1.214,1.214,0,0,0,1376.7,844.186Z" transform="translate(-880.032 -538.973)" fill="#2d253e"/>
    <path id="Trazado_8592" data-name="Trazado 8592" d="M1345.53,856.184a2.079,2.079,0,0,1-.866-.933c-.25-.535-.066-.864.087-1.386.224-.761.466-1.517.719-2.268.154-.457-.568-.654-.722-.2-.214.636-.421,1.275-.615,1.917a4.806,4.806,0,0,0-.407,1.6,2.919,2.919,0,0,0,1.426,1.912A.375.375,0,0,0,1345.53,856.184Z" transform="translate(-854.973 -545.231)" fill="#e69f77"/>
    <path id="Trazado_8593" data-name="Trazado 8593" d="M1363.681,905.379a28.69,28.69,0,0,1-7.836,4.151c-.461.136-.157.821.3.686a29.333,29.333,0,0,0,8-4.25C1364.545,905.7,1364.078,905.109,1363.681,905.379Z" transform="translate(-864.348 -587.921)" fill="#e69f77"/>
    <path id="Trazado_8594" data-name="Trazado 8594" d="M1338.677,886.3c.5-.361,6.124-.592,6.24-.158.2.769-1.173,2.14-3.16,2.246C1339.157,888.524,1338.454,886.459,1338.677,886.3Z" transform="translate(-850.968 -572.628)" fill="#fff"/>
    <path id="Trazado_8595" data-name="Trazado 8595" d="M1311.115,772.628c-2.916-2.882-7.925.749-14.162.655a17.93,17.93,0,0,1-4.586-1.4l2.465-3.182a15.8,15.8,0,0,1,1.373-2.558,38.929,38.929,0,0,1,4.679-4.305c.375-.249.562-1.248,1.747-.873s4.69.243,6.8,1.511,7.3,1.671,8.236,2.42a13.275,13.275,0,0,1,2.371,3.12,12.823,12.823,0,0,1,1.186,6.552,57.208,57.208,0,0,1-2.184,10.233,12.623,12.623,0,0,0-.531,2.755s-1.227-.888-1.216-1.925c.042-4.06,1.435-6.42.874-8.442S1316.607,778.056,1311.115,772.628Z" transform="translate(-814.503 -474.097)" fill="#2d253e"/>
    <path id="Trazado_8596" data-name="Trazado 8596" d="M1308.485,805.169a11.039,11.039,0,0,0-3.873,2.522c-2.433,2.153-1.876,6.643-1.876,6.643s-2.523-8.141-2.429-8.421.842-3.449,1.4-3.175,2.827-.662,3.988-.569S1308.485,805.169,1308.485,805.169Z" transform="translate(-820.758 -506.633)" fill="#2d253e"/>
    <path id="Trazado_8597" data-name="Trazado 8597" d="M1326.176,799.923a20.2,20.2,0,0,1-5.314,2.233c-3.362.936-4.594.74-6.411,1.774s-.6-1.5-.6-1.5,4.135-4.313,5.3-4.587,2.472-1.4,3.876-1.116S1326.176,799.923,1326.176,799.923Z" transform="translate(-831.118 -502.315)" fill="#2d253e"/>
    <path id="Trazado_8598" data-name="Trazado 8598" d="M1294.661,943.664s-12.292,5.125-15.068,7.5-1.444,18.261,0,27.036,2.555,13.107,2.61,17.55-1.833,6.776,1.278,7.775,4,1.333,14.218,2,13.44-.333,16.55,0,5-1.444,5.109-4,7.109-40.321,6.665-45.1-4.11-6.331-8.219-8.664a59.322,59.322,0,0,0-9.826-4.1l-6.809,6.486a2.052,2.052,0,0,1-3.214-.5Z" transform="translate(-803.158 -618.148)" fill="#fdf7ed"/>
    <path id="Trazado_8599" data-name="Trazado 8599" d="M1444.95,979.062s4.866,3.266,6.865,7.82,1.555,30.1.888,34.767-3.332,5.109-8.442,4.776a91.321,91.321,0,0,1-11.885-1.9l1.222-38.869Z" transform="translate(-924.841 -646.044)" fill="#fdf7ed"/>
    <rect id="Rectángulo_5979" data-name="Rectángulo 5979" width="31.371" height="3.443" transform="translate(416.406 380.936)" fill="#b8b8b8"/>
    <path id="Trazado_8600" data-name="Trazado 8600" d="M1177.856,979.062s-2.777,1.266-5.109,7.709c-2.271,6.273-6.114,25.63-8.442,30.428l-13.637,4.163s-5.913,4.014,3.751,4.619c2.922.183,4.742.336,5.925.464-.434.473-.7.757-.7.757s-3.777,3.221-2.888,3.777,13.107,1.888,14.107,1.888,7.78-5.331,10.11-28.324S1177.856,979.062,1177.856,979.062Z" transform="translate(-701.421 -646.044)" fill="#fdf7ed"/>
    <path id="Trazado_8601" data-name="Trazado 8601" d="M1350.176,958.225a23.112,23.112,0,0,1-1.878,2.349q-.233.261-.483.5c-.744.519-1.217.686-2.049-.473-.277-.234-.4-1.134-.51-1.462a14.162,14.162,0,0,1-.892-6.742c.066-.42-.576-.6-.642-.177a12.534,12.534,0,0,0,.271,5.012c.316,1.293.674,3.525,1.622,4.526,1.857,1.962,4.265-1.971,5.137-3.2C1351,958.211,1350.422,957.878,1350.176,958.225Z" transform="translate(-854.864 -624.704)" fill="#f2e6d3"/>
    <path id="Trazado_8602" data-name="Trazado 8602" d="M1393.208,958.168c-1.217,2.3-2.265,4.98-4.051,6.9-.875.942-2.693,3.093-3.748,1.362a15.409,15.409,0,0,1-1.406-3.918.334.334,0,0,0-.643.177c.363,1.344,1.56,6.639,3.944,5.1,3.2-2.061,4.785-6.086,6.479-9.291C1393.984,958.126,1393.409,957.789,1393.208,958.168Z" transform="translate(-886.203 -629.447)" fill="#f2e6d3"/>
    <g id="Grupo_9139" data-name="Grupo 9139" transform="translate(399.754 335.333)">
      <rect id="Rectángulo_5980" data-name="Rectángulo 5980" width="67.145" height="35.822" rx="17.911" transform="translate(0)" fill="#b8b8b8"/>
      <rect id="Rectángulo_5981" data-name="Rectángulo 5981" width="8.164" height="18.161" transform="translate(29.491 29.22)" fill="#b8b8b8"/>
    </g>
    <circle id="Elipse_20" data-name="Elipse 20" cx="1.634" cy="1.634" r="1.634" transform="translate(431.243 348.914) rotate(-70.635)" fill="#a1a1a1"/>
    <path id="Trazado_8603" data-name="Trazado 8603" d="M1480.749,998.213c-3.019,1.289-4.37,4.293-5.128,7.309a48.666,48.666,0,0,0-1.394,11.641.333.333,0,0,0,.667,0,49.083,49.083,0,0,1,1.095-10.278c.707-3.235,1.806-6.691,5.1-8.1C1481.479,998.621,1481.14,998.047,1480.749,998.213Z" transform="translate(-957.823 -661.113)" fill="#f2e6d3"/>
    <path id="Trazado_8604" data-name="Trazado 8604" d="M1471.682,1109.224a16.392,16.392,0,0,0-6.388-4.4c-1.075-.382-4.664-1.526-5.345-.061-.18.386.395.725.575.336.318-.683,2.971-.091,3.35,0a12.209,12.209,0,0,1,2.841,1.069,16.829,16.829,0,0,1,4.5,3.526C1471.505,1110.01,1471.976,1109.538,1471.682,1109.224Z" transform="translate(-946.543 -744.538)" fill="#f2e6d3"/>
    <path id="Trazado_8605" data-name="Trazado 8605" d="M1442.823,1155.118c-3.233-3.18-6.509-6.489-7.956-10.9-.133-.406-.777-.232-.643.177,1.485,4.525,4.806,7.924,8.128,11.191C1442.658,1155.891,1443.129,1155.42,1442.823,1155.118Z" transform="translate(-926.283 -776.021)" fill="#f2e6d3"/>
    <path id="Trazado_8606" data-name="Trazado 8606" d="M1284.119,1019.452a105.732,105.732,0,0,1-2.152-26.425c.019-.429-.648-.428-.667,0a106.469,106.469,0,0,0,2.176,26.6C1283.564,1020.049,1284.207,1019.871,1284.119,1019.452Z" transform="translate(-805.699 -656.797)" fill="#f2e6d3"/>
    <path id="Trazado_8607" data-name="Trazado 8607" d="M1457.459,1113.965a19.93,19.93,0,0,1-6.046,10.542c-.316.291.156.761.471.471a20.55,20.55,0,0,0,6.217-10.836C1458.193,1113.724,1457.55,1113.545,1457.459,1113.965Z" transform="translate(-939.761 -752.169)" fill="#f2e6d3"/>
    <path id="Trazado_8608" data-name="Trazado 8608" d="M1449.219,1145.092a.269.269,0,0,0-.218.166c-.216.462.375,1.029.768.6C1450.112,1145.488,1449.635,1144.917,1449.219,1145.092Z" transform="translate(-937.906 -776.863)" fill="#f2e6d3"/>
    <path id="Trazado_8609" data-name="Trazado 8609" d="M1351.71,995.745a.353.353,0,0,0-.317-.37,5.317,5.317,0,0,0-4.073,1.531c-2.333,2.062-2.758,6.949-2.767,7.282s3.933.278,5.488-1.666C1351.365,1000.867,1351.654,996.891,1351.71,995.745Z" transform="translate(-855.629 -658.883)" fill="#ca5043"/>
    <path id="Trazado_8610" data-name="Trazado 8610" d="M1378.933,995.379a.352.352,0,0,0-.478.279,12.271,12.271,0,0,0,.844,6.626c1.276,2.681,4.444,4.209,5.555,4.676a.351.351,0,0,0,.484-.261,11.407,11.407,0,0,0-.8-6.3C1383.258,997.315,1380.067,995.824,1378.933,995.379Z" transform="translate(-882.246 -658.883)" fill="#ca5043"/>
    <g id="Grupo_9140" data-name="Grupo 9140" transform="translate(487.366 343.672)">
      <path id="Trazado_8611" data-name="Trazado 8611" d="M1353.69,1039.634a15.348,15.348,0,0,0-1.54-6.359c-1.5-2.638-3.916-4.471-4.415-3.8s1.416,3.749,1,4.249-8.843.88-10.544,1.19-.96,3.6.419,5.329,6.793,3.311,10.375,3.895S1353.69,1039.634,1353.69,1039.634Z" transform="translate(-1337.204 -1029.333)" fill="#f2b38f"/>
      <path id="Trazado_8612" data-name="Trazado 8612" d="M1397.495,1075.23l8.849,6.5-4.424,6.415-9.13-8.414,3.724-5.227Z" transform="translate(-1381.01 -1064.929)" fill="#f2b38f"/>
    </g>
    <rect id="Rectángulo_5982" data-name="Rectángulo 5982" width="243.903" height="95.969" transform="translate(311.729 398.708)" fill="#c2aea9"/>
    <path id="Trazado_8613" data-name="Trazado 8613" d="M304.621,1239.807a5.653,5.653,0,0,0,1.308,10.287q1.757.518,3.715,1.141c23.487,7.5,22.107,36.882,22.931,56.982,1.339,32.656,13.056,34.656,13.056,34.656l37.047-45.1L361.7,1240.906l-49.991-5.332Z" transform="translate(-33.902 -848.195)" fill="#c2aea9"/>
    <path id="Rectángulo_5983" data-name="Rectángulo 5983" d="M8,0H345.1A6.9,6.9,0,0,1,352,6.9V9.1a6.9,6.9,0,0,1-6.9,6.9H8A8,8,0,0,1,0,8V8A8,8,0,0,1,8,0Z" transform="translate(258.837 382.713)" fill="#a68e88"/>
    <g id="Grupo_9141" data-name="Grupo 9141" transform="translate(311.694 394.793)">
      <rect id="Rectángulo_5984" data-name="Rectángulo 5984" width="1.333" height="99.875" transform="translate(0 0)" fill="#a68e88"/>
    </g>
    <path id="Trazado_8614" data-name="Trazado 8614" d="M817.848,995.1a13.153,13.153,0,0,0-4.665,9.553c-.492,6.591,2.738,19.1,2.738,19.1s8.369-5.109,9.48-6.886,4.665-20.882,4-21.771S817.848,995.1,817.848,995.1Z" transform="translate(-436.828 -658.371)" fill="#f2b38f"/>
    <path id="Trazado_8615" data-name="Trazado 8615" d="M856.7,977.53c.667,1,6.455-2.878,11.663,6.608,3.127,5.7,1.123,17.551.234,22.216s-8.026,18.328-11.858,26.158.989,25.527-8.016,26.194-23.647-25.86-26.829-38.69.816-34.489,3.149-38.654a16.851,16.851,0,0,1,11.663-7.664C840.543,973.364,856.7,977.53,856.7,977.53Z" transform="translate(-442.806 -641.801)" fill="#ca5043"/>
    <path id="Trazado_8616" data-name="Trazado 8616" d="M1000.2,812.626s2.1,1.924,2.073,2.256a95.355,95.355,0,0,1-1.062,15.626c-1.235,6.707-5.7,8.631-5.7,8.631s-3.836,2.3-4.013,1.62-.874-10.079-.768-11.631,2.385-10.526,2.859-10.939S1000.2,812.626,1000.2,812.626Z" transform="translate(-576.778 -514.879)" fill="#f2b38f"/>
    <path id="Trazado_8617" data-name="Trazado 8617" d="M1054.887,1428.369s-2.737,1.667-4.615,17.636-5.661,36.394-3.594,37.438,5.432,3.691,6.39-.167c1.613-6.49,17.382-51.32,16.171-57.759S1054.887,1428.369,1054.887,1428.369Z" transform="translate(-620.408 -996.095)" fill="#f2b38f"/>
    <path id="Trazado_8618" data-name="Trazado 8618" d="M1041.547,1695.258a22.088,22.088,0,0,0-1.208,6.723c.165,2.744,1.25,3.207,5.251,3.134s13.453.276,13.746-.409-.837-4.889-6.322-6.6A98.422,98.422,0,0,0,1041.547,1695.258Z" transform="translate(-615.874 -1210.462)" fill="#2d253e"/>
    <path id="Trazado_8619" data-name="Trazado 8619" d="M1046.091,1689.117s1.026,2.694,3.137,3.109,4.057-1.492,4.057-1.492l-3.3-3.269Z" transform="translate(-620.418 -1204.321)" fill="#f2b38f"/>
    <g id="Grupo_9142" data-name="Grupo 9142" transform="translate(399.118 427.595)">
      <path id="Trazado_8620" data-name="Trazado 8620" d="M940.261,1429.78s-2.833,1.5-5.665,17.328-7.834,35.989-5.833,37.155,5.2,4.01,6.389.217c2-6.382,20.429-50.185,19.607-56.685S940.261,1429.78,940.261,1429.78Z" transform="translate(-926.709 -1425.344)" fill="#f2b38f"/>
      <path id="Trazado_8621" data-name="Trazado 8621" d="M922.4,1691.172a22.091,22.091,0,0,0-1.609,6.638c0,2.749,1.055,3.277,5.054,3.443s13.412,1.083,13.745.417-.543-4.931-5.915-6.97A98.5,98.5,0,0,0,922.4,1691.172Z" transform="translate(-920.787 -1634.837)" fill="#2d253e"/>
      <path id="Trazado_8622" data-name="Trazado 8622" d="M928.381,1685.911s.862,2.751,2.945,3.292,4.139-1.246,4.139-1.246l-3.1-3.461Z" transform="translate(-926.772 -1629.576)" fill="#f2b38f"/>
    </g>
    <path id="Trazado_8623" data-name="Trazado 8623" d="M857.868,1235.574s1.894,15.308,18.494,17.529,22.66,8.219,22.437,21.549,1.889,31.743-5.11,33.941c-4.11,1.291-6.4.236-13.329-4.173-8.007-5.094-8.664-2.645-18.846-7.144-9.023-3.986-5.646-5.943-13.7-7.221-9.865-1.566-6.887,3.57-13.329-4.019s-12.073-17.585-9.924-22.694S857.868,1235.574,857.868,1235.574Z" transform="translate(-445.469 -848.195)" fill="#ca5043"/>
    <g id="Grupo_9143" data-name="Grupo 9143" transform="translate(416.406 339.061)">
      <path id="Trazado_8624" data-name="Trazado 8624" d="M1010.859,1008.965c-1.477-1.618-7.176-3-8.233,3s1.06,14.272,6.225,24.1a96.861,96.861,0,0,0,9.552,15.162h33.153s-1.461-5.859-2.666-6c-1.95-.224-20.31-1.263-23.309-4.11S1013.9,1012.3,1010.859,1008.965Z" transform="translate(-1002.362 -1007.575)" fill="#f2b38f"/>
      <path id="Trazado_8625" data-name="Trazado 8625" d="M1220.269,1175.206c.96-1.005,2.156-1.212,4.793-1.616,4.892-.749,5.822.874,4.719,1.159a14.776,14.776,0,0,0-3.2,1.159,28.87,28.87,0,0,1,5.707,0c2.594.333,3.577,1.742,3.52,2.95a4.762,4.762,0,0,1-1.458,3.047h-14.387l-.386-5.109A7.215,7.215,0,0,1,1220.269,1175.206Z" transform="translate(-1173.544 -1138.254)" fill="#f2b38f"/>
    </g>
    <path id="Trazado_8626" data-name="Trazado 8626" d="M847.548,780.945c-5.776,8.109-3,16.773-7.22,21.993s-12.663,9.775-13.773,15.884,1.444,11,5.443,12.329l2.888.889s5.293,8.331,12.588,8.442,10.96-9.774,10.96-9.774,9.775-1,11.552-6.887-2.431-15.884-2.438-22.548.092-13.662,2.875-14,5.534-2.2,3.422-5.165C869.874,776.529,853.324,772.836,847.548,780.945Z" transform="translate(-447.2 -486.203)" fill="#814a38"/>
    <path id="Trazado_8627" data-name="Trazado 8627" d="M940.605,1254.684a25.853,25.853,0,0,1-10.063-.019c-.419-.083-.6.559-.177.643a26.829,26.829,0,0,0,10.418.02C941.2,1255.245,941.025,1254.6,940.605,1254.684Z" transform="translate(-529.027 -863.234)" fill="#ba3f32"/>
    <path id="Trazado_8628" data-name="Trazado 8628" d="M1117.273,1379.479a22.079,22.079,0,0,1-11.57,3.851c-.427.018-.43.685,0,.667a22.738,22.738,0,0,0,11.906-3.942C1117.962,1379.815,1117.629,1379.237,1117.273,1379.479Z" transform="translate(-667.144 -961.558)" fill="#ba3f32"/>
    <path id="Trazado_8629" data-name="Trazado 8629" d="M1140.01,1392.862a17.188,17.188,0,0,1-3.813,1.755c-.407.13-.233.774.177.643a17.96,17.96,0,0,0,3.972-1.823C1140.711,1393.213,1140.376,1392.636,1140.01,1392.862Z" transform="translate(-691.246 -972.11)" fill="#ba3f32"/>
    <g id="Grupo_9145" data-name="Grupo 9145" transform="translate(317.455 351.744)">
      <g id="Grupo_9144" data-name="Grupo 9144">
        <rect id="Rectángulo_5985" data-name="Rectángulo 5985" width="5.554" height="18.994" transform="translate(108.106 55.073)" fill="#b8b8b8"/>
        <path id="Trazado_8630" data-name="Trazado 8630" d="M806.282,1480.125,790.4,1470.9h31.768Z" transform="translate(-736.367 -1385.398)" fill="#955a47"/>
        <rect id="Rectángulo_5986" data-name="Rectángulo 5986" width="7.738" height="56.33" transform="translate(66.046 84.952)" fill="#955a47"/>
        <path id="Trazado_8631" data-name="Trazado 8631" d="M535.441,1077.854c-.007,8.954,14.237,60.338,21.846,67.332,8.251,7.584,24.835,8.08,52.16,8.3,26.924.219,47.8-.643,52.65-1.111,9.219-.889,7.553-11.441,2.629-11.526-4.053-.07-30.4.641-37.507-2.914s-12-57.982-19.549-65.535C601,1065.736,535.452,1064.167,535.441,1077.854Z" transform="translate(-535.441 -1067.425)" fill="#fdf7ed"/>
        <path id="Trazado_8632" data-name="Trazado 8632" d="M769.018,1673.286,744.2,1685.909a.969.969,0,0,0,.439,1.833h49.632a.969.969,0,0,0,.439-1.833L769.9,1673.286A.968.968,0,0,0,769.018,1673.286Z" transform="translate(-699.542 -1544.808)" fill="#955a47"/>
        <path id="Trazado_8633" data-name="Trazado 8633" d="M926.933,1289.174c.333.019,33.767-.708,36.433.991s4.665,10.332-2.11,11.04-26.72-.488-33.212,0C923.046,1301.581,922.157,1288.9,926.933,1289.174Z" transform="translate(-841.487 -1242.072)" fill="#fdf7ed"/>
      </g>
      <path id="Trazado_8634" data-name="Trazado 8634" d="M934.171,1302.547c-.507-.409-.545-1.574-.68-2.169q-.245-1.078-.468-2.16c-.319-1.547-.6-3.1-.856-4.658-.069-.422-.712-.243-.642.177.307,1.87.651,3.733,1.05,5.585.221,1.029.264,3,1.125,3.7C934.031,1303.285,934.505,1302.817,934.171,1302.547Z" transform="translate(-847.582 -1245.447)" fill="#f2e6d3"/>
      <path id="Trazado_8635" data-name="Trazado 8635" d="M638.029,1235.553c-1.533,3.1-5.347,2.82-8.293,2.838q-4.455.027-8.91.051-8.983.033-17.965-.1-18.3-.269-36.574-1.222c-.429-.022-.427.645,0,.667q19.6,1.015,39.235,1.257,9.5.114,19,.045c3.112-.019,6.432.267,9.516-.208a5.788,5.788,0,0,0,4.565-2.993C638.794,1235.506,638.22,1235.168,638.029,1235.553Z" transform="translate(-559.498 -1199.789)" fill="#f2e6d3"/>
      <path id="Trazado_8636" data-name="Trazado 8636" d="M854.935,1105.851c-1.458-5.142-3.181-11.854-.537-16.875.2-.379-.375-.716-.575-.336-2.479,4.707-1.261,10.781,0,15.681,1.482,5.739,3.711,11.262,4.778,17.11.077.421.719.243.643-.177C858.287,1115.989,856.391,1110.985,854.935,1105.851Z" transform="translate(-785.218 -1084.013)" fill="#f2e6d3"/>
      <path id="Trazado_8637" data-name="Trazado 8637" d="M901.8,1293.925c-.7,1.267-2.263,3.779-3.9,3.729-1.586-.048-2.684-2.728-3.311-4.013a98.924,98.924,0,0,1-4.3-10.32,105.152,105.152,0,0,1-5.027-20.772c-.058-.423-.7-.243-.643.177a105,105,0,0,0,6.77,25.344c1.306,3.2,2.576,7.2,5.077,9.691,1.091,1.086,1.57,1.087,2.785.174a11.405,11.405,0,0,0,3.126-3.674C902.58,1293.886,902.005,1293.549,901.8,1293.925Z" transform="translate(-810.614 -1221.008)" fill="#f2e6d3"/>
      <path id="Trazado_8638" data-name="Trazado 8638" d="M992.826,1437.089c-7.092.717-14.224.749-21.345.789-7.047.04-14.12-.061-21.028-1.6-.418-.093-.6.549-.177.643,6.757,1.508,13.675,1.661,20.571,1.63,7.332-.034,14.679-.054,21.98-.792C993.249,1437.712,993.253,1437.045,992.826,1437.089Z" transform="translate(-862.174 -1358.1)" fill="#f2e6d3"/>
    </g>
    <g id="Grupo_9146" data-name="Grupo 9146" transform="translate(555.394 394.851)">
      <rect id="Rectángulo_5987" data-name="Rectángulo 5987" width="1.333" height="99.875" fill="#a68e88"/>
    </g>
  </g>
</svg>
