<svg xmlns="http://www.w3.org/2000/svg" width="158.186" height="172" viewBox="0 0 158.186 172">
  <g id="Grupo_9130" data-name="Grupo 9130" transform="translate(-129 -204)">
    <path id="Trazado_8509" data-name="Trazado 8509" d="M361.47,204H288.244a8.785,8.785,0,0,0-8.783,8.785v43.782a1.4,1.4,0,0,0,2.175,1.165L291,251.507H361.47a8.782,8.782,0,0,0,8.783-8.783V212.785A8.783,8.783,0,0,0,361.47,204Zm0,0" transform="translate(-83.067)" fill="#99e6fc"/>
    <path id="Trazado_8510" data-name="Trazado 8510" d="M256.119,428.449a.631.631,0,0,1-.2-.467.646.646,0,0,1,.184-.453l1.265-1.284a11.822,11.822,0,0,0,.52-16.024L256.838,409a1.682,1.682,0,0,1-.049-2.138,13.649,13.649,0,0,0,2.934-8.461,13.668,13.668,0,0,0-13.672-13.67h-14.4a1,1,0,0,1-.966-1.265l.647-2.378a32.253,32.253,0,0,0,1.137-8.507V355.22a7.478,7.478,0,0,0-13.605-4.289l-13.026,18.6a44.348,44.348,0,0,0-22.175,16.015L182,387.813,162.926,400.78v38.4l19.182,7.347.075-.049,2.194,2.194a22.818,22.818,0,0,0,16.139,6.687h49.337a7.1,7.1,0,0,0,5.725-11.313l-.7-.952a1.136,1.136,0,0,1,.266-1.6,8.426,8.426,0,0,0,.973-13.038Zm0,0" transform="translate(-18.73 -79.358)" fill="#f2b48f"/>
    <path id="Trazado_8511" data-name="Trazado 8511" d="M256.605,488.6a7.109,7.109,0,0,0-.691-1.491,7.04,7.04,0,0,1-3.165.753h-49.5a14.5,14.5,0,0,1-14.328-14.542V431.5a9.786,9.786,0,0,0-2.618-6.652c-.929,1.043-1.811,2.136-2.642,3.27L182,430.38l-19.079,12.967v38.4l6.745,2.583,12.437,4.764.075-.049,2.194,2.194a22.818,22.818,0,0,0,16.139,6.687h49.337a7.107,7.107,0,0,0,6.752-9.321Zm0,0" transform="translate(-18.73 -121.924)" fill="#f3a577"/>
    <path id="Trazado_8512" data-name="Trazado 8512" d="M163.275,487.806l.1.072a13.5,13.5,0,0,1-11.156,5.905H132.051a3.05,3.05,0,0,1-3.051-3.05V425.7a3.052,3.052,0,0,1,3.051-3.051h19.281a13.5,13.5,0,0,1,9.884,4.308l2.058,2.213Zm0,0" transform="translate(0 -120.71)" fill="#f37c7c"/>
    <path id="Trazado_8513" data-name="Trazado 8513" d="M163.275,534.043a13.5,13.5,0,0,1-11.053,5.762H132.051A3.051,3.051,0,0,1,129,536.753v15.479a3.052,3.052,0,0,0,3.051,3.052h20.171a13.5,13.5,0,0,0,11.156-5.905l-.1-.073Zm0,0" transform="translate(0 -182.211)" fill="#ee6161"/>
    <path id="Trazado_8514" data-name="Trazado 8514" d="M375.105,241.554l1.176,2.382a1.727,1.727,0,0,0,1.3.943l2.628.382a1.724,1.724,0,0,1,.955,2.939l-1.9,1.855a1.727,1.727,0,0,0-.5,1.526l.45,2.618a1.723,1.723,0,0,1-2.5,1.816l-2.352-1.235a1.719,1.719,0,0,0-1.6,0l-2.352,1.235a1.723,1.723,0,0,1-2.5-1.816l.45-2.618a1.728,1.728,0,0,0-.5-1.526l-1.9-1.855a1.723,1.723,0,0,1,.955-2.939l2.628-.382a1.727,1.727,0,0,0,1.3-.943l1.176-2.382a1.723,1.723,0,0,1,3.09,0Zm0,0" transform="translate(-130.533 -20.203)" fill="#fee45a"/>
    <path id="Trazado_8515" data-name="Trazado 8515" d="M316.917,241.554l1.176,2.382a1.723,1.723,0,0,0,1.3.943l2.628.382a1.723,1.723,0,0,1,.955,2.939l-1.9,1.855a1.722,1.722,0,0,0-.495,1.526l.45,2.618a1.723,1.723,0,0,1-2.5,1.816l-2.352-1.235a1.723,1.723,0,0,0-1.6,0l-2.35,1.235a1.723,1.723,0,0,1-2.5-1.816l.448-2.618a1.723,1.723,0,0,0-.5-1.526l-1.9-1.855a1.723,1.723,0,0,1,.955-2.939l2.628-.382a1.725,1.725,0,0,0,1.3-.943l1.176-2.382a1.723,1.723,0,0,1,3.09,0Zm0,0" transform="translate(-98.407 -20.203)" fill="#fee45a"/>
    <path id="Trazado_8516" data-name="Trazado 8516" d="M428.848,241.554l-1.176,2.382a1.724,1.724,0,0,1-1.3.943l-2.628.382a1.723,1.723,0,0,0-.955,2.939l1.9,1.855a1.718,1.718,0,0,1,.5,1.526l-.45,2.618a1.723,1.723,0,0,0,2.5,1.816l2.352-1.235a1.723,1.723,0,0,1,1.6,0l2.35,1.235a1.723,1.723,0,0,0,2.5-1.816l-.448-2.618a1.722,1.722,0,0,1,.5-1.526L438,248.2a1.723,1.723,0,0,0-.955-2.939l-2.628-.382a1.727,1.727,0,0,1-1.3-.943l-1.176-2.382a1.723,1.723,0,0,0-3.09,0Zm0,0" transform="translate(-161.909 -20.203)" fill="#fee45a"/>
  </g>
</svg>
