<svg xmlns="http://www.w3.org/2000/svg" xmlns:xlink="http://www.w3.org/1999/xlink" width="190" height="190" viewBox="0 0 190 190">
  <defs>
    <clipPath id="clip-path">
      <rect id="SVGID" width="190" height="190" fill="none"/>
    </clipPath>
  </defs>
  <g id="Grupo_9096" data-name="Grupo 9096" transform="translate(-114 -204)">
    <path id="Trazado_8371" data-name="Trazado 8371" d="M149.241,421.1c-2.98-7.206-4.126-22.977,5.567-23.91a1.811,1.811,0,0,0,1.409-1.015c1.049-2.079,4.717-6.8,16.868-6.8,0,0,20.994,0,24.826,11.66a31.018,31.018,0,0,1-.36,20.061Zm0,0" transform="translate(-16.736 -93.671)" fill="#805333"/>
    <path id="Trazado_8372" data-name="Trazado 8372" d="M361.1,421.084c-2.982-7.206-4.128-22.977,5.567-23.91a1.81,1.81,0,0,0,1.409-1.015c1.047-2.1,4.717-6.812,16.868-6.812,0,0,20.994,0,24.826,11.658a31.027,31.027,0,0,1-.359,20.063Zm0,0" transform="translate(-123.788 -93.656)" fill="#805333"/>
    <path id="Trazado_8373" data-name="Trazado 8373" d="M199.782,490.941c0,26.948.047,24.237-.1,24.849a13.431,13.431,0,0,1-26.005,0c-.141-.6-.1,2.253-.1-24.849,4.454,7.235,4.879,13.947,10.054,13.947h6.093c5.175.006,5.6-6.712,10.054-13.947Zm0,0" transform="translate(-30.102 -144.99)" fill="#f9c795"/>
    <path id="Trazado_8374" data-name="Trazado 8374" d="M411.645,490.941c0,26.948.047,24.237-.1,24.849a13.428,13.428,0,0,1-26.005,0c-.141-.6-.1,2.253-.1-24.849,4.454,7.235,4.879,13.947,10.054,13.947h6.093c5.175.006,5.6-6.712,10.054-13.947Zm0,0" transform="translate(-137.156 -144.99)" fill="#f9c795"/>
    <path id="Trazado_8375" data-name="Trazado 8375" d="M222.734,329.723,205.245,342.2a3.274,3.274,0,0,1-5.175-2.652v-9.826l9.825-6.551Zm0,0" transform="translate(-43.491 -60.217)" fill="#e57e25"/>
    <path id="Trazado_8376" data-name="Trazado 8376" d="M388.781,329.723v9.826a3.274,3.274,0,0,1-5.175,2.652l-17.489-12.478,12.839-6.551Zm0,0" transform="translate(-127.394 -60.217)" fill="#e57e25"/>
    <g id="Grupo_9095" data-name="Grupo 9095" transform="translate(114 204)">
      <g id="Grupo_9094" data-name="Grupo 9094" clip-path="url(#clip-path)">
        <path id="Trazado_8377" data-name="Trazado 8377" d="M199.5,443.806c0,5.264-3.8,8.845-7.6,8.091a14.523,14.523,0,0,1-5.5,11.038c-4.371,4.583-4.879,8.711-10.054,8.711h-6.093c-5.668,0-6.242-5.567-11.266-9.892a14.483,14.483,0,0,1-4.29-9.857c-6.377,1.277-10.25-8.542-5.471-14.035a6.037,6.037,0,0,1,4.422-2.243,16.235,16.235,0,0,1,3.078-8.876c1.672-2.249,2.765-3.72,5.471-3.93,4.883-.348,17.326-.348,22.206,0,2.7.211,3.78,1.639,5.47,3.93a16.22,16.22,0,0,1,3.079,8.876,7.415,7.415,0,0,1,6.551,8.188Zm0,0" transform="translate(-130.722 -314.433)" fill="#fdd7ad"/>
        <path id="Trazado_8378" data-name="Trazado 8378" d="M199.218,554.952v.066a6.269,6.269,0,0,1-6.025,6.485H120.154a6.28,6.28,0,0,1-6.027-6.551c.261-10.917,6.091-12.511,6.091-12.511l23.419-6.88c2.947,8.375,23.021,8.516,26.005,0l23.419,6.88s5.6,1.6,6.157,12.511Zm0,0" transform="translate(-114.061 -371.537)" fill="#285680"/>
        <path id="Trazado_8379" data-name="Trazado 8379" d="M199.335,554.133c0,4.062-2.259,7.37-5.109,7.37h-61.9c-2.817,0-5.109-3.309-5.109-7.37a21.409,21.409,0,0,1,3.5-12.839l19.521-5.732c2.947,8.375,23.021,8.516,26.005,0l19.587,5.765c3.361,4.047,3.5,11.989,3.5,12.806Zm0,0" transform="translate(-120.664 -371.537)" fill="#4482c3"/>
        <path id="Trazado_8380" data-name="Trazado 8380" d="M410.948,554.952v.066a6.269,6.269,0,0,1-6.027,6.485H331.882a6.28,6.28,0,0,1-6.025-6.551c.261-10.917,6.091-12.511,6.091-12.511l23.419-6.88c2.947,8.375,23.021,8.516,26,0l23.419,6.88s5.6,1.6,6.157,12.511Zm0,0" transform="translate(-221.048 -371.537)" fill="#285680"/>
      </g>
    </g>
    <path id="Trazado_8381" data-name="Trazado 8381" d="M411.066,554.133c0,4.062-2.259,7.37-5.109,7.37h-61.9c-2.818,0-5.109-3.309-5.109-7.37a21.406,21.406,0,0,1,3.5-12.839l19.521-5.732c2.947,8.375,23.021,8.516,26,0l19.587,5.765c3.361,4.047,3.5,11.989,3.5,12.806Zm0,0" transform="translate(-113.651 -167.537)" fill="#4482c3"/>
    <path id="Trazado_8382" data-name="Trazado 8382" d="M411.366,443.806c0,5.264-3.8,8.845-7.6,8.091a14.521,14.521,0,0,1-5.5,11.038c-4.373,4.583-4.879,8.711-10.054,8.711h-6.093c-5.67,0-6.242-5.567-11.266-9.892a14.5,14.5,0,0,1-4.292-9.857c-6.377,1.277-10.248-8.542-5.468-14.035a6.036,6.036,0,0,1,4.421-2.243,16.221,16.221,0,0,1,3.079-8.876c1.672-2.249,2.765-3.72,5.47-3.93,4.883-.348,17.327-.348,22.206,0,2.7.211,3.78,1.639,5.471,3.93a16.235,16.235,0,0,1,3.078,8.876,7.416,7.416,0,0,1,6.551,8.188Zm0,0" transform="translate(-123.776 -110.433)" fill="#fdd7ad"/>
    <path id="Trazado_8383" data-name="Trazado 8383" d="M180.137,204h117.91a6.537,6.537,0,0,1,6.551,6.551v52.4a6.537,6.537,0,0,1-6.551,6.551H180.137a6.537,6.537,0,0,1-6.551-6.551v-52.4A6.537,6.537,0,0,1,180.137,204Zm0,0" transform="translate(-30.109)" fill="#f29c1f"/>
    <path id="Trazado_8384" data-name="Trazado 8384" d="M301.674,230.412H209.965a3.275,3.275,0,0,1,0-6.549h91.709a3.275,3.275,0,0,1,0,6.549Zm0,0" transform="translate(-46.836 -10.037)" fill="#fff"/>
    <path id="Trazado_8385" data-name="Trazado 8385" d="M301.674,256.895H209.965a3.275,3.275,0,0,1,0-6.551h91.709a3.275,3.275,0,0,1,0,6.551Zm0,0" transform="translate(-46.836 -23.417)" fill="#fff"/>
    <path id="Trazado_8386" data-name="Trazado 8386" d="M301.674,283.379H209.965a3.275,3.275,0,0,1,0-6.551h91.709a3.275,3.275,0,0,1,0,6.551Zm0,0" transform="translate(-46.836 -36.8)" fill="#fff"/>
    <path id="Trazado_8387" data-name="Trazado 8387" d="M242.718,309.86H209.965a3.275,3.275,0,0,1,0-6.551h32.753a3.275,3.275,0,0,1,0,6.551Zm0,0" transform="translate(-46.836 -50.181)" fill="#fff"/>
  </g>
</svg>
