<svg id="Grupo_9149" data-name="Grupo 9149" xmlns="http://www.w3.org/2000/svg" width="211.002" height="211" viewBox="0 0 211.002 211">
  <path id="Trazado_8672" data-name="Trazado 8672" d="M821.077,3691.1a105.5,105.5,0,1,1-105.5-105.5,105.5,105.5,0,0,1,105.5,105.5Zm0,0" transform="translate(-610.077 -3585.596)" fill="#9edcf1"/>
  <path id="Trazado_8673" data-name="Trazado 8673" d="M784.948,3818.344V3830.4a105.408,105.408,0,0,1-103.95,0v-12.053a39.2,39.2,0,0,1,36-39.073q1.588-.13,3.207-.129h25.531a39.148,39.148,0,0,1,39.211,39.2Zm0,0" transform="translate(-627.473 -3633.069)" fill="#cee6ef"/>
  <path id="Trazado_8674" data-name="Trazado 8674" d="M791.458,3818.344V3830.4a104.672,104.672,0,0,1-42.261,13.224q-4.8.447-9.715.448t-9.719-.442a105.092,105.092,0,0,1-22.233-4.484v-20.8a39.208,39.208,0,0,1,39.211-39.2h5.5a39.205,39.205,0,0,1,39.212,39.2Zm0,0" transform="translate(-633.98 -3633.069)" fill="#edf9fe"/>
  <path id="Trazado_8675" data-name="Trazado 8675" d="M690.566,3717.625a12.989,12.989,0,1,1-10.924-12.842,13.008,13.008,0,0,1,10.924,12.842Zm0,0" transform="translate(-623.438 -3614.79)" fill="#d3a489"/>
  <path id="Trazado_8676" data-name="Trazado 8676" d="M756.968,3797.885l-10.523,16.881-10.525-16.881" transform="translate(-640.944 -3637.666)" fill="#f74f4f"/>
  <path id="Trazado_8677" data-name="Trazado 8677" d="M756.422,3852.277q-4.8.447-9.715.448t-9.719-.442l9.719-37.852Zm0,0" transform="translate(-641.206 -3641.725)" fill="#f74f4f"/>
  <path id="Trazado_8678" data-name="Trazado 8678" d="M694.909,3717.679a13.008,13.008,0,0,1-10.924,12.841,48.592,48.592,0,0,1,0-25.683,13.01,13.01,0,0,1,10.924,12.842Zm0,0" transform="translate(-627.782 -3614.844)" fill="#bf8e75"/>
  <path id="Trazado_8679" data-name="Trazado 8679" d="M684.924,3720.341a4.65,4.65,0,1,1-4.651-4.649,4.651,4.651,0,0,1,4.651,4.649Zm0,0" transform="translate(-626.154 -3617.506)" fill="#bf8e75"/>
  <path id="Trazado_8680" data-name="Trazado 8680" d="M742.38,3793.378l-17.652,9.81-5.369-24.976,10.968-6.459" transform="translate(-636.882 -3631.257)" fill="#cee6ef"/>
  <path id="Trazado_8681" data-name="Trazado 8681" d="M749.861,3793.378l17.65,9.81,5.369-24.976-10.966-6.459" transform="translate(-644.364 -3631.257)" fill="#cee6ef"/>
  <path id="Trazado_8682" data-name="Trazado 8682" d="M800.7,3717.625a12.991,12.991,0,1,0,10.925-12.842,13.009,13.009,0,0,0-10.925,12.842Zm0,0" transform="translate(-656.834 -3614.79)" fill="#d3a489"/>
  <path id="Trazado_8683" data-name="Trazado 8683" d="M800.7,3717.679a13.009,13.009,0,0,0,10.925,12.841,48.634,48.634,0,0,0,0-25.683,13.01,13.01,0,0,0-10.925,12.842Zm0,0" transform="translate(-656.834 -3614.844)" fill="#bf8e75"/>
  <path id="Trazado_8684" data-name="Trazado 8684" d="M821.078,3720.341a4.649,4.649,0,1,1-4.649-4.649,4.649,4.649,0,0,1,4.649,4.649Zm0,0" transform="translate(-659.551 -3617.506)" fill="#bf8e75"/>
  <path id="Trazado_8685" data-name="Trazado 8685" d="M782.533,3696.936A48.4,48.4,0,0,1,741.9,3744.71a47.9,47.9,0,0,1-7.768.626,48.4,48.4,0,0,1-48.4-48.4c0-12.647,6.01-31.635,13.952-40.257,8.844-9.6,20.363-8.143,34.447-8.143a47.846,47.846,0,0,1,7.768.625,48.4,48.4,0,0,1,40.632,47.775Zm0,0" transform="translate(-628.635 -3601.015)" fill="#bf8e75"/>
  <path id="Trazado_8686" data-name="Trazado 8686" d="M759.307,3759.131V3776.3a13.988,13.988,0,0,1-27.977,0v-17.165Zm0,0" transform="translate(-639.818 -3628.161)" fill="#bf8e75"/>
  <path id="Trazado_8687" data-name="Trazado 8687" d="M762.032,3780.435v1.088a13.985,13.985,0,0,1-9.852,13.359,13.981,13.981,0,0,1-9.737-11.539q1.4.087,2.819.085a48.383,48.383,0,0,0,16.771-2.994Zm0,0" transform="translate(-642.544 -3633.386)" fill="#d3a489"/>
  <path id="Trazado_8688" data-name="Trazado 8688" d="M787.582,3697.165a48.4,48.4,0,0,1-40.632,47.774,48.4,48.4,0,0,1,0-95.549,48.408,48.408,0,0,1,40.393,42.948c.158,1.589.238,3.2.238,4.826Zm0,0" transform="translate(-633.683 -3601.243)" fill="#d3a489"/>
  <path id="Trazado_8689" data-name="Trazado 8689" d="M745.666,3737.739a24.449,24.449,0,0,1,11.8,3.048,2.153,2.153,0,1,1-2.075,3.772,20.089,20.089,0,0,0-19.45,0,2.152,2.152,0,1,1-2.073-3.772,24.443,24.443,0,0,1,11.8-3.048Zm0,0" transform="translate(-640.167 -3622.914)" fill="#bf8e75"/>
  <path id="Trazado_8690" data-name="Trazado 8690" d="M732.637,3707.176a5.49,5.49,0,1,1-5.49-5.491,5.491,5.491,0,0,1,5.49,5.491Zm0,0" transform="translate(-637.446 -3614.07)" fill="#3d4159"/>
  <path id="Trazado_8691" data-name="Trazado 8691" d="M774.5,3707.176a5.49,5.49,0,1,1-5.489-5.491,5.491,5.491,0,0,1,5.489,5.491Zm0,0" transform="translate(-647.714 -3614.07)" fill="#3d4159"/>
  <path id="Trazado_8692" data-name="Trazado 8692" d="M733.195,3706.911a2.353,2.353,0,1,1-2.354-2.353,2.353,2.353,0,0,1,2.354,2.353Zm0,0" transform="translate(-639.121 -3614.775)" fill="#fff"/>
  <path id="Trazado_8693" data-name="Trazado 8693" d="M775.415,3706.911a2.353,2.353,0,1,1-2.352-2.353,2.351,2.351,0,0,1,2.352,2.353Zm0,0" transform="translate(-649.477 -3614.775)" fill="#fff"/>
  <path id="Trazado_8694" data-name="Trazado 8694" d="M752.8,3725.736H741.82a2.369,2.369,0,1,1,0-4.737H752.8a2.369,2.369,0,0,1,0,4.737Zm0,0" transform="translate(-641.81 -3618.808)" fill="#bf8e75"/>
  <rect id="Rectángulo_5990" data-name="Rectángulo 5990" width="21.1" height="6.46" transform="translate(121.435 183.987)" fill="#cee6ef"/>
  <path id="Trazado_8695" data-name="Trazado 8695" d="M746.111,3630.217a29.339,29.339,0,0,1,27.18,27.8l.138,2.8h8.432l4.544,30.208,11-3.406-1.478-29.6a29.339,29.339,0,0,0-29.41-27.88Zm0,0" transform="translate(-643.444 -3596.521)" fill="#2a2f4f"/>
  <path id="Trazado_8696" data-name="Trazado 8696" d="M797.145,3614.763a29.9,29.9,0,1,1-42.28,42.28Zm0,0" transform="translate(-645.591 -3592.75)" fill="#3d4159"/>
  <path id="Trazado_8697" data-name="Trazado 8697" d="M737.89,3660.814H701.2l-4.543,30.209-11-3.406,1.474-29.6a29.34,29.34,0,0,1,29.412-27.878l52.992.2,7.008,12.611" transform="translate(-628.614 -3596.521)" fill="#3d4159"/>
  <path id="Trazado_8698" data-name="Trazado 8698" d="M736.944,3630.217a29.337,29.337,0,0,0-27.178,27.8l-.14,2.8h-8.432l-4.545,30.208-11-3.406,1.477-29.6a29.338,29.338,0,0,1,29.408-27.88Zm0,0" transform="translate(-628.613 -3596.521)" fill="#2a2f4f"/>
  <path id="Trazado_8699" data-name="Trazado 8699" d="M864.833,3623.783a38.186,38.186,0,1,1-38.186-38.187,38.187,38.187,0,0,1,38.186,38.187Zm0,0" transform="translate(-653.831 -3585.596)" fill="#f74f4f"/>
  <path id="Trazado_8700" data-name="Trazado 8700" d="M852.64,3638.423l-11.349,11.349-28.89-28.888,11.349-11.35Zm0,0" transform="translate(-659.703 -3591.468)" fill="#f2f0ec"/>
  <path id="Trazado_8701" data-name="Trazado 8701" d="M823.75,3649.776,812.4,3638.427l28.89-28.89,11.349,11.349Zm0,0" transform="translate(-659.703 -3591.468)" fill="#f2f0ec"/>
</svg>
