<svg xmlns="http://www.w3.org/2000/svg" xmlns:xlink="http://www.w3.org/1999/xlink" width="191" height="191" viewBox="0 0 191 191">
  <defs>
    <clipPath id="clip-path">
      <rect id="SVGID" width="191" height="191" fill="none"/>
    </clipPath>
  </defs>
  <g id="Grupo_9087" data-name="Grupo 9087" transform="translate(-114 -204)">
    <g id="Grupo_9083" data-name="Grupo 9083" transform="translate(114 204)">
      <g id="Grupo_9082" data-name="Grupo 9082" clip-path="url(#clip-path)">
        <path id="Trazado_8329" data-name="Trazado 8329" d="M302.184,205.565a6.433,6.433,0,0,0-2.99-1.445c-.818-.2,11.172-.132-178.626-.132A6.589,6.589,0,0,0,114,210.556V345.208H304.482V210.556a6.6,6.6,0,0,0-2.3-4.991Zm0,0" transform="translate(-114 -203.987)" fill="#66b8e8"/>
      </g>
    </g>
    <rect id="Rectángulo_5944" data-name="Rectángulo 5944" width="59.115" height="29.557" transform="translate(179.684 355.072)" fill="#9f9f9f"/>
    <path id="Trazado_8330" data-name="Trazado 8330" d="M305.06,568.034a3.285,3.285,0,0,1-3.284,3.284H190.114c-6.853,0-2.693-16.42,9.852-16.42h91.958a13.136,13.136,0,0,1,13.136,13.136Zm0,0" transform="translate(-36.704 -176.836)" fill="#d4d4d4"/>
    <g id="Grupo_9085" data-name="Grupo 9085" transform="translate(114 204)">
      <g id="Grupo_9084" data-name="Grupo 9084" clip-path="url(#clip-path)">
        <path id="Trazado_8331" data-name="Trazado 8331" d="M304.482,468.828v19.7a6.589,6.589,0,0,1-6.569,6.569H120.569A6.589,6.589,0,0,1,114,488.532v-19.7Zm0,0" transform="translate(-114 -337.461)" fill="#d4d4d4"/>
        <path id="Trazado_8332" data-name="Trazado 8332" d="M299.194,204.119C268.455,205.3,114,217.059,114,335.355v-124.8a6.589,6.589,0,0,1,6.569-6.569c189.585,0,177.808-.072,178.626.132Zm0,0" transform="translate(-114 -203.987)" fill="#4eb1e8"/>
      </g>
    </g>
    <path id="Trazado_8333" data-name="Trazado 8333" d="M305.948,491.974a3.284,3.284,0,1,1-3.284-3.283,3.284,3.284,0,0,1,3.284,3.283Zm0,0" transform="translate(-93.422 -143.471)" fill="#9f9f9f"/>
    <path id="Trazado_8334" data-name="Trazado 8334" d="M199.6,283.449v45.978A6.588,6.588,0,0,1,193.03,336H147.051a6.587,6.587,0,0,1-6.567-6.569V283.449Zm0,0" transform="translate(-13.347 -40.038)" fill="#f3d55b"/>
    <path id="Trazado_8335" data-name="Trazado 8335" d="M183.387,329.584a16.443,16.443,0,0,1-16.422-16.422v-6.569a3.284,3.284,0,1,1,6.569,0v6.569a9.852,9.852,0,1,0,19.7,0v-6.569a3.284,3.284,0,0,1,6.569,0v6.569a16.44,16.44,0,0,1-16.42,16.422Zm0,0" transform="translate(-26.692 -50.047)" fill="#7f6e5d"/>
    <path id="Trazado_8336" data-name="Trazado 8336" d="M170.2,309.878h-6.569a3.284,3.284,0,1,1,0-6.569H170.2a3.284,3.284,0,1,1,0,6.569Zm0,0" transform="translate(-23.355 -50.047)" fill="#f29c1f"/>
    <path id="Trazado_8337" data-name="Trazado 8337" d="M223.162,309.878h-6.569a3.284,3.284,0,1,1,0-6.569h6.569a3.284,3.284,0,0,1,0,6.569Zm0,0" transform="translate(-50.047 -50.047)" fill="#f29c1f"/>
    <path id="Trazado_8338" data-name="Trazado 8338" d="M140.484,260.047,156.9,246.91l-15.2-9.13c1.257-1.035-2.323-.723,54.615-.723a3.252,3.252,0,0,1,2.07.723l-15.207,9.13L199.6,260.047Zm0,0" transform="translate(-13.347 -16.637)" fill="#f29c1f"/>
    <path id="Trazado_8339" data-name="Trazado 8339" d="M156.9,247.689l-16.42,13.137V241.121a3.31,3.31,0,0,1,1.215-2.562Zm0,0" transform="translate(-13.347 -17.416)" fill="#f0c419"/>
    <path id="Trazado_8340" data-name="Trazado 8340" d="M242.973,241.121v19.706l-16.422-13.137,15.207-9.13a3.31,3.31,0,0,1,1.215,2.562Zm0,0" transform="translate(-56.72 -17.416)" fill="#f0c419"/>
    <path id="Trazado_8341" data-name="Trazado 8341" d="M193.186,429H166.913a6.568,6.568,0,1,1,0-13.136h26.273a6.568,6.568,0,1,1,0,13.136Zm0,0" transform="translate(-23.355 -106.769)" fill="#ee7536"/>
    <path id="Trazado_8342" data-name="Trazado 8342" d="M378.617,378.391v15.3s-1.575,6.569-13.1,6.569-13.171-6.569-13.171-6.569v-15.3Zm0,0" transform="translate(-120.114 -87.885)" fill="#f9c795"/>
    <path id="Trazado_8343" data-name="Trazado 8343" d="M378.093,428.946a6.52,6.52,0,0,1-6.5,6.569H292.639a6.5,6.5,0,0,1-6.5-6.569c.279-10.946,6.569-12.545,6.569-12.545l26.24-7.16h26.273l26.209,7.16s6.075,1.608,6.666,12.545Zm0,0" transform="translate(-86.748 -103.432)" fill="#285680"/>
    <path id="Trazado_8344" data-name="Trazado 8344" d="M378.154,428.125v.065a6.637,6.637,0,0,1-5.584,7.325H304.916a6.636,6.636,0,0,1-5.583-7.325,20.284,20.284,0,0,1,3.908-12.841l22.332-6.108h26.273l22.4,6.108c1.543,1.643,3.579,5.255,3.908,12.775Zm0,0" transform="translate(-93.376 -103.432)" fill="#4482c3"/>
    <path id="Trazado_8345" data-name="Trazado 8345" d="M375.305,289.7a3.141,3.141,0,0,1-2.984-3.284V273.28c0-10.63-11.738-22.989-26.872-22.989s-26.872,12.359-26.872,22.989v13.137a3,3,0,1,1-5.97,0V273.28c0-15.469,15.655-29.557,32.842-29.557s32.842,14.089,32.842,29.557v13.137a3.144,3.144,0,0,1-2.986,3.284Zm0,0" transform="translate(-100.082 -20.018)" fill="#7f8284"/>
    <path id="Trazado_8346" data-name="Trazado 8346" d="M315.905,316.551h6.569a3.276,3.276,0,0,1,3.283,3.284v13.137a3.276,3.276,0,0,1-3.283,3.284h-6.569a3.277,3.277,0,0,1-3.284-3.284V319.835a3.277,3.277,0,0,1,3.284-3.284Zm0,0" transform="translate(-100.096 -56.72)" fill="#547580"/>
    <path id="Trazado_8347" data-name="Trazado 8347" d="M378.512,296.532v19.706a16.089,16.089,0,0,1-5.352,9.786c-5.65,4.96-5.65,9.919-11.3,9.919h-6.107c-5.651,0-5.651-4.959-11.3-9.919a16.1,16.1,0,0,1-5.354-9.786V296.532a19.705,19.705,0,0,1,39.41,0Zm0,0" transform="translate(-113.441 -36.702)" fill="#fdd7ad"/>
    <path id="Trazado_8348" data-name="Trazado 8348" d="M425.12,336.257h-3.284a3.285,3.285,0,0,1-3.284-3.284V319.835a3.285,3.285,0,0,1,3.284-3.284H428.4a3.285,3.285,0,0,1,3.284,3.284v9.853a6.569,6.569,0,0,1-6.569,6.569Zm0,0" transform="translate(-153.479 -56.72)" fill="#547580"/>
    <path id="Trazado_8349" data-name="Trazado 8349" d="M322.474,366.024H319.19a6.57,6.57,0,0,1-6.569-6.569V346.319a3.284,3.284,0,0,1,6.569,0v13.136h3.284a3.284,3.284,0,0,1,0,6.569Zm0,0" transform="translate(-100.096 -70.067)" fill="#a5a5a4"/>
  </g>
</svg>
