<svg id="Grupo_9148" data-name="Grupo 9148" xmlns="http://www.w3.org/2000/svg" width="211" height="211" viewBox="0 0 211 211">
  <path id="Trazado_8639" data-name="Trazado 8639" d="M435.543,3691.1a105.553,105.553,0,0,1-149.116,96.091h-.005a105.138,105.138,0,0,1-11.63-6.2q-4.231-2.6-8.186-5.59a105.5,105.5,0,1,1,168.938-84.3Zm0,0" transform="translate(-224.543 -3585.596)" fill="#ffe152"/>
  <path id="Trazado_8640" data-name="Trazado 8640" d="M435.543,3691.1a105.553,105.553,0,0,1-149.116,96.091h-.005a105.138,105.138,0,0,1-11.63-6.2q-4.231-2.6-8.186-5.59a105.5,105.5,0,1,1,168.938-84.3Zm0,0" transform="translate(-224.543 -3585.596)" fill="#9edcf1"/>
  <path id="Trazado_8641" data-name="Trazado 8641" d="M399.413,3818.343V3830.4a104.7,104.7,0,0,1-34.578,12.241q-3.987.659-8.062,1.021-2.538.227-5.116.324c-1.4.06-2.808.085-4.219.085q-4.728,0-9.345-.409a104.859,104.859,0,0,1-42.631-13.261v-12.054a39.217,39.217,0,0,1,29.045-37.872c.612-.163,1.227-.314,1.852-.448a38.8,38.8,0,0,1,5.1-.754c1.06-.087,2.127-.128,3.208-.128H360.2a39.175,39.175,0,0,1,8.315.882c.155.03.309.064.46.1.452.1.9.215,1.347.335.013,0,.023,0,.035.009a39.242,39.242,0,0,1,29.054,37.876Zm0,0" transform="translate(-241.938 -3633.069)" fill="#3d4159"/>
  <path id="Trazado_8642" data-name="Trazado 8642" d="M379.864,3780.31l-.1.444-13.586,63.191q-4.612.409-9.335.409t-9.345-.409l-13.586-63.187-.094-.448Zm0,0" transform="translate(-251.347 -3633.356)" fill="#66baed"/>
  <path id="Trazado_8643" data-name="Trazado 8643" d="M371.432,3797.883l-10.525,16.88-10.525-16.88" transform="translate(-255.409 -3637.666)" fill="#f74f4f"/>
  <path id="Trazado_8644" data-name="Trazado 8644" d="M370.886,3852.277q-4.8.445-9.715.448t-9.719-.444l9.719-37.85Zm0,0" transform="translate(-255.672 -3641.725)" fill="#f74f4f"/>
  <path id="Trazado_8645" data-name="Trazado 8645" d="M356.842,3793.378l-17.65,9.808-5.37-24.974,10.967-6.46" transform="translate(-251.347 -3631.257)" fill="#2ba1cf"/>
  <path id="Trazado_8646" data-name="Trazado 8646" d="M364.323,3793.378l17.651,9.808,5.369-24.974-10.968-6.46" transform="translate(-258.828 -3631.257)" fill="#2ba1cf"/>
  <path id="Trazado_8647" data-name="Trazado 8647" d="M400.8,3783.551l-11.412,29.764h5.6l-11.885,28.91q-3.987.659-8.062,1.021-2.538.227-5.116.324l18.8-66.111Zm0,0" transform="translate(-260.201 -3632.656)" fill="#2a2f4f"/>
  <path id="Trazado_8648" data-name="Trazado 8648" d="M317.647,3783.692l11.411,29.764h-5.6l11.885,28.91q3.984.659,8.06,1.021,2.538.227,5.116.324l-18.667-65.677Zm0,0" transform="translate(-247.38 -3632.797)" fill="#2a2f4f"/>
  <path id="Trazado_8649" data-name="Trazado 8649" d="M373.769,3759.129V3776.3a13.988,13.988,0,0,1-27.977,0v-17.167Zm0,0" transform="translate(-254.283 -3628.16)" fill="#eab599"/>
  <path id="Trazado_8650" data-name="Trazado 8650" d="M376.495,3780.435v1.087a13.987,13.987,0,0,1-9.852,13.362,13.981,13.981,0,0,1-9.736-11.539q1.4.085,2.817.085a48.356,48.356,0,0,0,16.771-2.995Zm0,0" transform="translate(-257.009 -3633.386)" fill="#f6caae"/>
  <path id="Trazado_8651" data-name="Trazado 8651" d="M305.03,3717.625a13,13,0,1,1-10.926-12.842,13.011,13.011,0,0,1,10.926,12.842Zm0,0" transform="translate(-237.903 -3614.79)" fill="#f6caae"/>
  <path id="Trazado_8652" data-name="Trazado 8652" d="M309.374,3717.68a13.011,13.011,0,0,1-10.926,12.841,48.653,48.653,0,0,1,0-25.683,13.01,13.01,0,0,1,10.926,12.842Zm0,0" transform="translate(-242.247 -3614.844)" fill="#eab599"/>
  <path id="Trazado_8653" data-name="Trazado 8653" d="M299.388,3720.342a4.649,4.649,0,1,1-4.65-4.649,4.65,4.65,0,0,1,4.65,4.649Zm0,0" transform="translate(-240.62 -3617.506)" fill="#eab599"/>
  <path id="Trazado_8654" data-name="Trazado 8654" d="M415.167,3717.625a13,13,0,1,0,10.924-12.842,13.01,13.01,0,0,0-10.924,12.842Zm0,0" transform="translate(-271.299 -3614.79)" fill="#f6caae"/>
  <path id="Trazado_8655" data-name="Trazado 8655" d="M415.167,3717.68a13.01,13.01,0,0,0,10.924,12.841,48.592,48.592,0,0,0,0-25.683,13.009,13.009,0,0,0-10.924,12.842Zm0,0" transform="translate(-271.299 -3614.844)" fill="#eab599"/>
  <path id="Trazado_8656" data-name="Trazado 8656" d="M397,3672.544v18.43a48.4,48.4,0,0,1-40.633,47.773l-.236.038a47.7,47.7,0,0,1-7.533.586,48.4,48.4,0,0,1-48.395-48.4v-18.43a48.369,48.369,0,0,1,48.395-48.4h.005a48.366,48.366,0,0,1,48.4,48.4Zm0,0" transform="translate(-243.1 -3595.051)" fill="#eab599"/>
  <path id="Trazado_8657" data-name="Trazado 8657" d="M435.542,3720.342a4.649,4.649,0,1,1-4.649-4.649,4.649,4.649,0,0,1,4.649,4.649Zm0,0" transform="translate(-274.016 -3617.506)" fill="#eab599"/>
  <path id="Trazado_8658" data-name="Trazado 8658" d="M401.9,3672.735v18.43a48.4,48.4,0,0,1-40.633,47.773l-.236.038a48.4,48.4,0,0,1-40.857-47.811v-18.43a48.407,48.407,0,0,1,40.864-47.814,48.407,48.407,0,0,1,40.862,47.814Zm0,0" transform="translate(-247.998 -3595.242)" fill="#f6caae"/>
  <path id="Trazado_8659" data-name="Trazado 8659" d="M347.1,3707.175a5.49,5.49,0,1,1-5.491-5.491,5.489,5.489,0,0,1,5.491,5.491Zm0,0" transform="translate(-251.911 -3614.07)" fill="#3d4159"/>
  <path id="Trazado_8660" data-name="Trazado 8660" d="M388.965,3707.175a5.49,5.49,0,1,1-5.491-5.491,5.489,5.489,0,0,1,5.491,5.491Zm0,0" transform="translate(-262.179 -3614.07)" fill="#3d4159"/>
  <path id="Trazado_8661" data-name="Trazado 8661" d="M347.657,3706.911a2.352,2.352,0,1,1-2.352-2.352,2.351,2.351,0,0,1,2.352,2.352Zm0,0" transform="translate(-253.587 -3614.775)" fill="#fff"/>
  <path id="Trazado_8662" data-name="Trazado 8662" d="M389.879,3706.911a2.353,2.353,0,1,1-2.353-2.352,2.352,2.352,0,0,1,2.353,2.352Zm0,0" transform="translate(-263.943 -3614.775)" fill="#fff"/>
  <path id="Trazado_8663" data-name="Trazado 8663" d="M367.263,3722.884h-10.98a2.369,2.369,0,0,1,0-4.738h10.98a2.369,2.369,0,0,1,0,4.738Zm0,0" transform="translate(-256.275 -3618.108)" fill="#eab599"/>
  <path id="Trazado_8664" data-name="Trazado 8664" d="M360.13,3741.974a24.477,24.477,0,0,1-11.8-3.045,2.153,2.153,0,0,1,2.073-3.775,20.09,20.09,0,0,0,19.451,0,2.153,2.153,0,1,1,2.073,3.775,24.47,24.47,0,0,1-11.8,3.045Zm0,0" transform="translate(-254.632 -3622.215)" fill="#eab599"/>
  <path id="Trazado_8665" data-name="Trazado 8665" d="M397,3653.448v18.88h-9.009v-14.785l-65.023-12.083-13.757-2.558v29.426H300.2v-18.88a38.964,38.964,0,0,1,38.962-38.967h18.873c.512,0,1.024.01,1.537.036A38.956,38.956,0,0,1,397,3653.448Zm0,0" transform="translate(-243.1 -3592.681)" fill="#2a2f4f"/>
  <path id="Trazado_8666" data-name="Trazado 8666" d="M404.4,3653.459v18.88h-9.009v-14.785l-65.023-12.083a37.307,37.307,0,0,1,74.032,7.988Zm0,0" transform="translate(-250.499 -3592.692)" fill="#3d4159"/>
  <path id="Trazado_8667" data-name="Trazado 8667" d="M305.937,3803.173v13a5.285,5.285,0,1,1-10.569,0v-13a5.285,5.285,0,0,1,10.569,0Zm0,0" transform="translate(-241.915 -3637.668)" fill="#eab599"/>
  <path id="Trazado_8668" data-name="Trazado 8668" d="M307.217,3803.3v23c0,2.222-1.372-5.881-3.316-5.1a5.283,5.283,0,0,1-3.315-4.9v-13a5.287,5.287,0,0,1,3.315-4.9,5.29,5.29,0,0,1,3.316,4.9Zm0,0" transform="translate(-243.195 -3637.791)" fill="#f6caae"/>
  <path id="Trazado_8669" data-name="Trazado 8669" d="M302.236,3824.253v12.259a10.951,10.951,0,0,1-2.139,6.52,105.285,105.285,0,0,1-19.822-11.791v-6.988a10.98,10.98,0,1,1,21.961,0Zm0,0" transform="translate(-238.213 -3641.441)" fill="#eab599"/>
  <path id="Trazado_8670" data-name="Trazado 8670" d="M304.895,3824.509v12.259a10.951,10.951,0,0,1-2.139,6.52h-.005a105.138,105.138,0,0,1-11.63-6.2c-.005-.108-.005-.211-.005-.319v-12.259a10.988,10.988,0,0,1,6.89-10.193,10.991,10.991,0,0,1,6.89,10.193Zm0,0" transform="translate(-240.872 -3641.697)" fill="#f6caae"/>
  <path id="Trazado_8671" data-name="Trazado 8671" d="M479.3,3623.783A38.186,38.186,0,1,1,441.11,3585.6a38.186,38.186,0,0,1,38.187,38.187Zm0,0" transform="translate(-268.297 -3585.596)" fill="#3fb777"/>
  <rect id="Rect치ngulo_5988" data-name="Rect치ngulo 5988" width="16.05" height="40.857" transform="translate(164.789 17.758)" fill="#f2f0ec"/>
  <rect id="Rect치ngulo_5989" data-name="Rect치ngulo 5989" width="40.857" height="16.05" transform="translate(152.385 30.162)" fill="#f2f0ec"/>
</svg>
