<svg xmlns="http://www.w3.org/2000/svg" width="105.6" height="105.601" viewBox="0 0 105.6 105.601">
  <g id="Grupo_8819" data-name="Grupo 8819" transform="translate(-676.206 -3221.558)">
    <path id="Trazado_7298" data-name="Trazado 7298" d="M311.307,361.533l-5.148-3.082-5.15,3.079" transform="translate(423 2921)" fill="none" stroke="#f78966" stroke-linecap="round" stroke-linejoin="round" stroke-width="2"/>
    <line id="Línea_1125" data-name="Línea 1125" y1="6" transform="translate(729.159 3273.451)" fill="none" stroke="#f78966" stroke-linecap="round" stroke-linejoin="round" stroke-width="2"/>
    <path id="Trazado_7347" data-name="Trazado 7347" d="M358.806,353.358a52.8,52.8,0,1,1-52.8-52.8,52.8,52.8,0,0,1,52.8,52.8" transform="translate(423 2921)" fill="#3fa9f5"/>
    <path id="Trazado_7348" data-name="Trazado 7348" d="M332.018,393.284v6.032a52.377,52.377,0,0,1-17.306,6.127q-1.994.328-4.034.511c-.846.075-1.7.129-2.56.161q-1.05.045-2.112.044-2.366,0-4.676-.2a52.568,52.568,0,0,1-11.314-2.261c-.13-.041-.261-.085-.391-.127a52.545,52.545,0,0,1-9.631-4.25v-6.032A19.626,19.626,0,0,1,294.53,374.33c.306-.083.614-.158.927-.225a19.808,19.808,0,0,1,2.554-.377c.53-.043,1.064-.065,1.605-.065h12.778a19.587,19.587,0,0,1,4.161.442c.078.015.155.033.231.05.226.051.452.108.674.168l.017,0a19.642,19.642,0,0,1,14.541,18.957" transform="translate(423 2921)" fill="#dd3033"/>
    <path id="Trazado_7349" data-name="Trazado 7349" d="M332.018,393.284v6.032a52.377,52.377,0,0,1-17.306,6.127q-1.994.328-4.034.511c-.846.075-1.7.129-2.56.161q-1.05.045-2.112.044-2.366,0-4.676-.2a52.568,52.568,0,0,1-11.314-2.261c-.13-.041-.261-.085-.391-.127V393.284a19.625,19.625,0,0,1,14.537-18.954c.305-.083.613-.158.926-.225a19.808,19.808,0,0,1,2.554-.377c.53-.043,1.064-.065,1.605-.065h3.147a19.587,19.587,0,0,1,4.161.442c.078.015.155.033.231.05.226.051.452.108.674.168l.017,0a19.642,19.642,0,0,1,14.541,18.957" transform="translate(423 2921)" fill="#f74f4f"/>
    <path id="Trazado_7350" data-name="Trazado 7350" d="M285.248,383.389v6.506a2.644,2.644,0,0,1-5.289,0v-6.506a2.644,2.644,0,0,1,5.289,0" transform="translate(423 2921)" fill="#eab599"/>
    <path id="Trazado_7351" data-name="Trazado 7351" d="M285.248,383.389V394.9c0,1.112-.687-2.942-1.659-2.552a2.642,2.642,0,0,1-1.66-2.454v-6.506a2.645,2.645,0,0,1,1.66-2.455,2.65,2.65,0,0,1,1.659,2.455" transform="translate(423 2921)" fill="#f6caae"/>
    <path id="Trazado_7352" data-name="Trazado 7352" d="M285.248,392.051v6.135a5.482,5.482,0,0,1-1.071,3.263,52.723,52.723,0,0,1-9.92-5.9v-3.5a5.5,5.5,0,1,1,10.991,0" transform="translate(423 2921)" fill="#eab599"/>
    <path id="Trazado_7353" data-name="Trazado 7353" d="M285.248,392.051v6.135a5.482,5.482,0,0,1-1.071,3.263h0a52.685,52.685,0,0,1-5.821-3.1c0-.054,0-.106,0-.16v-6.135a5.5,5.5,0,0,1,3.448-5.1,5.5,5.5,0,0,1,3.448,5.1" transform="translate(423 2921)" fill="#f6caae"/>
    <path id="Trazado_7354" data-name="Trazado 7354" d="M317.524,374.105l-.047.223-6.8,31.625q-2.307.2-4.672.2t-4.677-.2l-6.8-31.624-.047-.224Z" transform="translate(423 2921)" fill="#f2f0ec"/>
    <path id="Trazado_7355" data-name="Trazado 7355" d="M306,381.7,297.17,386.6l-2.688-12.5,5.489-3.233" transform="translate(423 2921)" fill="#d8d5d0"/>
    <path id="Trazado_7356" data-name="Trazado 7356" d="M306,381.7l8.833,4.909,2.688-12.5-5.489-3.233" transform="translate(423 2921)" fill="#d8d5d0"/>
    <path id="Trazado_7357" data-name="Trazado 7357" d="M279.628,368.932V339.341a26.378,26.378,0,1,1,52.755,0v29.591" transform="translate(423 2921)" fill="#ffe152"/>
    <path id="Trazado_7358" data-name="Trazado 7358" d="M290.479,340.5c0,10.467,6.129,22.576,9.495,28.437H279.627V339.341a26.362,26.362,0,0,1,26.185-26.375c-8.11.2-15.333,13.213-15.333,27.531" transform="translate(423 2921)" fill="#e8c934"/>
    <path id="Trazado_7359" data-name="Trazado 7359" d="M313.006,366.105V374.7a7,7,0,1,1-14,0v-8.591Z" transform="translate(423 2921)" fill="#eab599"/>
    <path id="Trazado_7360" data-name="Trazado 7360" d="M313.006,374.152v.544a7,7,0,0,1-4.93,6.687,7,7,0,0,1-4.873-5.775q.7.043,1.41.043a24.2,24.2,0,0,0,8.393-1.5" transform="translate(423 2921)" fill="#f6caae"/>
    <path id="Trazado_7361" data-name="Trazado 7361" d="M286.8,352.025a6.5,6.5,0,1,1-5.467-6.427,6.511,6.511,0,0,1,5.467,6.427" transform="translate(423 2921)" fill="#f6caae"/>
    <path id="Trazado_7362" data-name="Trazado 7362" d="M286.8,352.025a6.511,6.511,0,0,1-5.467,6.427,24.309,24.309,0,0,1,0-12.854,6.511,6.511,0,0,1,5.467,6.427" transform="translate(423 2921)" fill="#eab599"/>
    <path id="Trazado_7363" data-name="Trazado 7363" d="M282.618,352.025a2.327,2.327,0,1,1-2.327-2.327,2.327,2.327,0,0,1,2.327,2.327" transform="translate(423 2921)" fill="#eab599"/>
    <path id="Trazado_7364" data-name="Trazado 7364" d="M322.721,343.712V366.09a24.126,24.126,0,0,1-12.829,6.383l-.119.02a23.74,23.74,0,0,1-3.769.293,24.222,24.222,0,0,1-24.221-24.221v-9.224a24.342,24.342,0,0,1,.248-3.479,15.349,15.349,0,0,0,19.29-1.24,13.722,13.722,0,0,0,3.64-5.688,15.991,15.991,0,0,0,5,9.979,17.88,17.88,0,0,0,12.76,4.8" transform="translate(423 2921)" fill="#eab599"/>
    <path id="Trazado_7365" data-name="Trazado 7365" d="M322.721,343.712V366.09a24.126,24.126,0,0,1-12.829,6.383l-.119.02a24.226,24.226,0,0,1-20.448-23.928v-9.224c0-.246,0-.489.014-.733a15.183,15.183,0,0,0,11.982-3.986,13.722,13.722,0,0,0,3.64-5.688,15.991,15.991,0,0,0,5,9.979,17.88,17.88,0,0,0,12.76,4.8" transform="translate(423 2921)" fill="#f6caae"/>
    <path id="Trazado_7366" data-name="Trazado 7366" d="M319.013,346.52a4.023,4.023,0,1,0-8.045,0" transform="translate(423 2921)" fill="#eab599"/>
    <path id="Trazado_7367" data-name="Trazado 7367" d="M301.046,346.52a4.023,4.023,0,0,0-8.046,0" transform="translate(423 2921)" fill="#eab599"/>
    <path id="Trazado_7368" data-name="Trazado 7368" d="M299.771,348.232a2.748,2.748,0,1,1-2.748-2.747,2.748,2.748,0,0,1,2.748,2.747" transform="translate(423 2921)" fill="#3d4159"/>
    <path id="Trazado_7369" data-name="Trazado 7369" d="M317.738,348.232a2.748,2.748,0,1,1-2.748-2.747,2.748,2.748,0,0,1,2.748,2.747" transform="translate(423 2921)" fill="#3d4159"/>
    <path id="Trazado_7370" data-name="Trazado 7370" d="M308.754,355.15h-5.495a1.186,1.186,0,1,1,0-2.371h5.495a1.186,1.186,0,0,1,0,2.371" transform="translate(423 2921)" fill="#eab599"/>
    <path id="Trazado_7371" data-name="Trazado 7371" d="M306.006,362.649a12.234,12.234,0,0,1-5.9-1.524,1.078,1.078,0,0,1,1.038-1.889,10.053,10.053,0,0,0,9.735,0,1.078,1.078,0,0,1,1.038,1.889,12.235,12.235,0,0,1-5.906,1.524" transform="translate(423 2921)" fill="#eab599"/>
    <path id="Trazado_7372" data-name="Trazado 7372" d="M299.21,347.747a1.177,1.177,0,1,1-1.177-1.177,1.178,1.178,0,0,1,1.177,1.177" transform="translate(423 2921)" fill="#fff"/>
    <path id="Trazado_7373" data-name="Trazado 7373" d="M317.313,347.747a1.177,1.177,0,1,1-1.177-1.177,1.178,1.178,0,0,1,1.177,1.177" transform="translate(423 2921)" fill="#fff"/>
    <path id="Trazado_7374" data-name="Trazado 7374" d="M322.492,354.924a3.017,3.017,0,1,1-3.017-3.017,3.016,3.016,0,0,1,3.017,3.017" transform="translate(423 2921)" fill="#eab599"/>
    <path id="Trazado_7375" data-name="Trazado 7375" d="M295.554,354.924a3.017,3.017,0,1,1-3.017-3.017,3.017,3.017,0,0,1,3.017,3.017" transform="translate(423 2921)" fill="#eab599"/>
  </g>
</svg>
