<svg xmlns="http://www.w3.org/2000/svg" xmlns:xlink="http://www.w3.org/1999/xlink" width="564.782" height="359.415" viewBox="0 0 564.782 359.415">
  <defs>
    <clipPath id="clip-path">
      <rect id="Rectángulo_5886" data-name="Rectángulo 5886" width="564.782" height="359.415" fill="none"/>
    </clipPath>
    <clipPath id="clip-path-2">
      <rect id="Rectángulo_5821" data-name="Rectángulo 5821" width="349.825" height="29.909" transform="translate(122.89 309.185)" fill="none"/>
    </clipPath>
    <clipPath id="clip-path-3">
      <path id="Trazado_7847" data-name="Trazado 7847" d="M123.406,321.895c0,4.794-9.17,7.192,49.842,9.356,27.369,1.005-3.7,7.364,29.774,7.364,20.1,0,139.868,1.243,181.053-.275,6.422-.237,12.618-5.83,18.559-6.112,48.387-2.308,70.081-6.076,70.081-10.333,0-7.02-75.814-12.71-181.459-12.71s-167.85,5.69-167.85,12.71" fill="none"/>
    </clipPath>
    <linearGradient id="linear-gradient" x1="-0.319" y1="1.638" x2="-0.316" y2="1.638" gradientUnits="objectBoundingBox">
      <stop offset="0" stop-color="#fff"/>
      <stop offset="0.354" stop-color="#e8f5ff"/>
      <stop offset="0.702" stop-color="#daefff"/>
      <stop offset="1" stop-color="#d6edff"/>
    </linearGradient>
    <clipPath id="clip-path-4">
      <rect id="Rectángulo_5823" data-name="Rectángulo 5823" width="118.121" height="37.104" transform="translate(220.386 277.25)" fill="none"/>
    </clipPath>
    <clipPath id="clip-path-5">
      <rect id="Rectángulo_5825" data-name="Rectángulo 5825" width="353.905" height="229.652" transform="translate(101.227 53.209)" fill="none"/>
    </clipPath>
    <clipPath id="clip-path-6">
      <rect id="Rectángulo_5828" data-name="Rectángulo 5828" width="182.456" height="64.753" transform="translate(122.697 175.705)" fill="none"/>
    </clipPath>
    <clipPath id="clip-path-7">
      <rect id="Rectángulo_5829" data-name="Rectángulo 5829" width="244.632" height="101.503" transform="translate(203.49 39.341)" fill="none"/>
    </clipPath>
    <clipPath id="clip-path-8">
      <rect id="Rectángulo_5830" data-name="Rectángulo 5830" width="326.765" height="150.665" transform="translate(122.697 89.839)" fill="none"/>
    </clipPath>
    <clipPath id="clip-path-9">
      <rect id="Rectángulo_5831" data-name="Rectángulo 5831" width="254.011" height="256.765" transform="translate(161.618 25.79)" fill="none"/>
    </clipPath>
    <clipPath id="clip-path-10">
      <rect id="Rectángulo_5836" data-name="Rectángulo 5836" width="162.628" height="226.937" transform="translate(34.089 99.226)" fill="none"/>
    </clipPath>
    <clipPath id="clip-path-11">
      <rect id="Rectángulo_5838" data-name="Rectángulo 5838" width="21.801" height="26.45" transform="translate(162.693 112.108)" fill="none"/>
    </clipPath>
    <clipPath id="clip-path-12">
      <rect id="Rectángulo_5839" data-name="Rectángulo 5839" width="103.342" height="22.992" transform="translate(57.642 98.838)" fill="none"/>
    </clipPath>
    <clipPath id="clip-path-13">
      <rect id="Rectángulo_5841" data-name="Rectángulo 5841" width="101.521" height="4.91" transform="translate(57.642 115.099)" fill="none"/>
    </clipPath>
    <clipPath id="clip-path-14">
      <rect id="Rectángulo_5842" data-name="Rectángulo 5842" width="31.326" height="12.041" transform="translate(67.872 88.361)" fill="none"/>
    </clipPath>
    <clipPath id="clip-path-15">
      <rect id="Rectángulo_5843" data-name="Rectángulo 5843" width="205.083" height="37.075" transform="translate(216.996 79.47)" fill="none"/>
    </clipPath>
    <clipPath id="clip-path-16">
      <rect id="Rectángulo_5844" data-name="Rectángulo 5844" width="204.378" height="23.93" transform="translate(258.143 274.027)" fill="none"/>
    </clipPath>
    <clipPath id="clip-path-17">
      <rect id="Rectángulo_5845" data-name="Rectángulo 5845" width="176.405" height="108.328" transform="translate(286.339 188.738)" fill="none"/>
    </clipPath>
    <clipPath id="clip-path-18">
      <rect id="Rectángulo_5846" data-name="Rectángulo 5846" width="2.798" height="0.111" transform="translate(158.82 25.679)" fill="none"/>
    </clipPath>
    <clipPath id="clip-path-19">
      <rect id="Rectángulo_5847" data-name="Rectángulo 5847" width="18.27" height="25.306" transform="translate(520.074 316.982)" fill="none"/>
    </clipPath>
    <clipPath id="clip-path-20">
      <rect id="Rectángulo_5848" data-name="Rectángulo 5848" width="12.229" height="20.046" transform="translate(523.253 319.694)" fill="none"/>
    </clipPath>
    <clipPath id="clip-path-21">
      <rect id="Rectángulo_5849" data-name="Rectángulo 5849" width="21.578" height="22.057" transform="translate(543.204 317.984)" fill="none"/>
    </clipPath>
    <clipPath id="clip-path-22">
      <rect id="Rectángulo_5850" data-name="Rectángulo 5850" width="15.673" height="17.485" transform="translate(545.489 320.131)" fill="none"/>
    </clipPath>
    <clipPath id="clip-path-23">
      <rect id="Rectángulo_5851" data-name="Rectángulo 5851" width="15.926" height="56.065" transform="translate(534.691 290.146)" fill="none"/>
    </clipPath>
    <clipPath id="clip-path-24">
      <rect id="Rectángulo_5852" data-name="Rectángulo 5852" width="5.865" height="44.271" transform="translate(537.415 296.789)" fill="none"/>
    </clipPath>
    <clipPath id="clip-path-25">
      <rect id="Rectángulo_5854" data-name="Rectángulo 5854" width="134.961" height="5.976" transform="translate(375.328 337.125)" fill="none"/>
    </clipPath>
    <clipPath id="clip-path-26">
      <path id="Trazado_7977" data-name="Trazado 7977" d="M376.251,340.341c-3.161.17-1.318,2.923,57.342,2.124,4.023-.055,10.843.8,15.385.609,31.282-1.3,61.311.292,61.311-2.292,0-2.272-54.649-5.432-77.348-2.424-9.224,1.222-49.166,1.577-56.69,1.983" fill="none"/>
    </clipPath>
    <linearGradient id="linear-gradient-2" x1="-2.719" y1="3.003" x2="-2.712" y2="3.003" xlink:href="#linear-gradient"/>
    <clipPath id="clip-path-27">
      <rect id="Rectángulo_5855" data-name="Rectángulo 5855" width="3.884" height="5.629" transform="translate(392.831 333.308)" fill="none"/>
    </clipPath>
    <clipPath id="clip-path-28">
      <rect id="Rectángulo_5856" data-name="Rectángulo 5856" width="11.189" height="4.919" transform="translate(380.843 337.829)" fill="none"/>
    </clipPath>
    <clipPath id="clip-path-29">
      <rect id="Rectángulo_5857" data-name="Rectángulo 5857" width="11.161" height="1.071" transform="translate(380.853 341.677)" fill="none"/>
    </clipPath>
    <clipPath id="clip-path-30">
      <rect id="Rectángulo_5858" data-name="Rectángulo 5858" width="11.289" height="34.709" transform="translate(402.896 261.256)" fill="none"/>
    </clipPath>
    <clipPath id="clip-path-31">
      <rect id="Rectángulo_5859" data-name="Rectángulo 5859" width="3.811" height="6.035" transform="translate(432.882 331.611)" fill="none"/>
    </clipPath>
    <clipPath id="clip-path-32">
      <rect id="Rectángulo_5860" data-name="Rectángulo 5860" width="9.607" height="5.186" transform="translate(424.526 336.449)" fill="none"/>
    </clipPath>
    <clipPath id="clip-path-33">
      <rect id="Rectángulo_5861" data-name="Rectángulo 5861" width="9.508" height="1.368" transform="translate(424.625 340.267)" fill="none"/>
    </clipPath>
    <clipPath id="clip-path-34">
      <rect id="Rectángulo_5862" data-name="Rectángulo 5862" width="22.733" height="69.856" transform="translate(410.276 263.914)" fill="none"/>
    </clipPath>
    <clipPath id="clip-path-35">
      <rect id="Rectángulo_5863" data-name="Rectángulo 5863" width="35.002" height="82.862" transform="translate(392.298 251.371)" fill="none"/>
    </clipPath>
    <clipPath id="clip-path-36">
      <rect id="Rectángulo_5864" data-name="Rectángulo 5864" width="37.079" height="8.556" transform="translate(369.281 197.255)" fill="none"/>
    </clipPath>
    <clipPath id="clip-path-37">
      <rect id="Rectángulo_5868" data-name="Rectángulo 5868" width="82.949" height="15.094" transform="translate(373.835 193.97)" fill="none"/>
    </clipPath>
    <clipPath id="clip-path-38">
      <rect id="Rectángulo_5870" data-name="Rectángulo 5870" width="65.386" height="13.364" transform="translate(309.138 187.582)" fill="none"/>
    </clipPath>
    <clipPath id="clip-path-39">
      <rect id="Rectángulo_5871" data-name="Rectángulo 5871" width="18.22" height="57.1" transform="translate(395.337 201.394)" fill="none"/>
    </clipPath>
    <clipPath id="clip-path-40">
      <rect id="Rectángulo_5872" data-name="Rectángulo 5872" width="21.948" height="54.254" transform="translate(401.955 200.446)" fill="none"/>
    </clipPath>
    <clipPath id="clip-path-41">
      <rect id="Rectángulo_5873" data-name="Rectángulo 5873" width="1.25" height="1.158" transform="translate(413.768 240.782)" fill="none"/>
    </clipPath>
    <clipPath id="clip-path-42">
      <rect id="Rectángulo_5874" data-name="Rectángulo 5874" width="1.25" height="1.16" transform="translate(410.464 232.357)" fill="none"/>
    </clipPath>
    <clipPath id="clip-path-43">
      <rect id="Rectángulo_5875" data-name="Rectángulo 5875" width="1.25" height="1.158" transform="translate(411.68 248.245)" fill="none"/>
    </clipPath>
    <clipPath id="clip-path-44">
      <rect id="Rectángulo_5876" data-name="Rectángulo 5876" width="10.814" height="6.072" transform="translate(408.129 193.637)" fill="none"/>
    </clipPath>
    <clipPath id="clip-path-45">
      <rect id="Rectángulo_5877" data-name="Rectángulo 5877" width="13.547" height="23.112" transform="translate(403.805 175.688)" fill="none"/>
    </clipPath>
    <clipPath id="clip-path-46">
      <rect id="Rectángulo_5878" data-name="Rectángulo 5878" width="3.463" height="6.458" transform="translate(403.402 179.504)" fill="none"/>
    </clipPath>
    <clipPath id="clip-path-47">
      <rect id="Rectángulo_5879" data-name="Rectángulo 5879" width="10.673" height="16.429" transform="translate(410.779 173.02)" fill="none"/>
    </clipPath>
    <clipPath id="clip-path-48">
      <rect id="Rectángulo_5880" data-name="Rectángulo 5880" width="25.661" height="24.013" transform="translate(30.633 312.85)" fill="none"/>
    </clipPath>
    <clipPath id="clip-path-49">
      <rect id="Rectángulo_5881" data-name="Rectángulo 5881" width="18.921" height="18.962" transform="translate(33.123 315.194)" fill="none"/>
    </clipPath>
    <clipPath id="clip-path-50">
      <rect id="Rectángulo_5882" data-name="Rectángulo 5882" width="24.612" height="19.311" transform="translate(0 326.231)" fill="none"/>
    </clipPath>
    <clipPath id="clip-path-51">
      <rect id="Rectángulo_5883" data-name="Rectángulo 5883" width="18.265" height="13.836" transform="translate(4.05 329.287)" fill="none"/>
    </clipPath>
    <clipPath id="clip-path-52">
      <rect id="Rectángulo_5884" data-name="Rectángulo 5884" width="27.358" height="71.757" transform="translate(19.9 279.367)" fill="none"/>
    </clipPath>
    <clipPath id="clip-path-53">
      <rect id="Rectángulo_5885" data-name="Rectángulo 5885" width="17.637" height="56.795" transform="translate(24.825 287.272)" fill="none"/>
    </clipPath>
  </defs>
  <g id="Grupo_8986" data-name="Grupo 8986" transform="translate(-446 -4309)">
    <g id="Grupo_8985" data-name="Grupo 8985" transform="translate(446 4309)">
      <g id="Grupo_8984" data-name="Grupo 8984" clip-path="url(#clip-path)">
        <path id="Trazado_7823" data-name="Trazado 7823" d="M113.45,61.305,103.041,76.014c-.03-.066-.069-.127-.1-.194-.972-2.208-1.723-4.464-2.541-6.665a.645.645,0,0,0-.02-.361,10.583,10.583,0,0,1-.724-5.634c.294-1.388.857-2.691,1.117-4.093.78-4.221-.178-8.578-3.627-11.333-.653-.521-1.478.482-.82,1,3.734,2.984,3.989,7.92,2.646,12.213a13.147,13.147,0,0,0-.629,3.422,19.346,19.346,0,0,0-3.853-5.213c-.609-.575-1.428.43-.823,1.006,4.869,4.608,5.807,11.233,8.5,17.082l-.019.026a13.366,13.366,0,0,0-3.5-1.352c-3.071-.717-7.289-.052-9-3.368-.377-.734-1.6-.3-1.222.443,1.417,2.748,4.022,3.423,6.9,3.767a17.839,17.839,0,0,1,6.018,1.642L92.4,91.051c-3.181-2.978-8.626-2.069-11.627-15.076-1.348-5.832-3.923-19.432-6.345-22.488-2.476-2.753-7.156-9.485-4.761-12.74,3.97-5.394,10.941,1.147,15.192.513,15.416-2.288,24.047,10.508,26.365,15.948a22.981,22.981,0,0,0,2.226,4.1" fill="#ffd4b3"/>
        <path id="Trazado_7824" data-name="Trazado 7824" d="M102.148,77.275l-.8,1.132a17.815,17.815,0,0,0-6.019-1.642c-2.879-.344-5.484-1.019-6.9-3.767-.38-.743.845-1.177,1.222-.443,1.707,3.315,5.924,2.65,8.995,3.368a13.338,13.338,0,0,1,3.5,1.352" fill="#fff"/>
        <path id="Trazado_7825" data-name="Trazado 7825" d="M100.775,59.067c-.26,1.4-.823,2.7-1.116,4.093a10.57,10.57,0,0,0,.723,5.633.649.649,0,0,1,.02.362c.818,2.2,1.569,4.456,2.541,6.665.029.067.068.128.1.194l-.874,1.235c-2.691-5.849-3.629-12.474-8.5-17.082-.6-.576.214-1.582.823-1.006a19.346,19.346,0,0,1,3.853,5.213,13.189,13.189,0,0,1,.629-3.422c1.343-4.293,1.088-9.229-2.646-12.213-.658-.523.167-1.526.82-1,3.449,2.754,4.408,7.112,3.627,11.333" fill="#fff"/>
        <path id="Trazado_7826" data-name="Trazado 7826" d="M452.223,81.426l4.52-17.444c.052.052.109.1.161.147,1.692,1.721,3.193,3.564,4.737,5.332a.656.656,0,0,0,.147.331,10.568,10.568,0,0,1,2.674,5.011c.218,1.4.153,2.82.406,4.223.767,4.224,3.208,7.959,7.408,9.312a.649.649,0,0,0,.412-1.231c-4.55-1.466-6.538-5.991-6.8-10.482a13.144,13.144,0,0,0-.625-3.423,19.357,19.357,0,0,0,5.452,3.51c.772.322,1.182-.909.412-1.233-6.186-2.583-9.411-8.445-14-12.961l.008-.031a13.335,13.335,0,0,0,3.755.022c3.126-.417,6.834-2.534,9.605-.039.613.553,1.605-.287.986-.846-2.3-2.068-4.974-1.776-7.789-1.077a17.822,17.822,0,0,1-6.209.6l3.885-14.994c4.03,1.658,8.8-1.122,16.216,9.977,3.327,4.976,10.555,16.78,13.9,18.779,3.291,1.7,10.053,6.333,8.967,10.225-1.8,6.451-10.637,2.806-14.388,4.905-13.6,7.6-26.21-1.3-30.306-5.568a22.92,22.92,0,0,0-3.533-3.042" fill="#ffd4b3"/>
        <path id="Trazado_7827" data-name="Trazado 7827" d="M457.131,62.486l.348-1.343a17.822,17.822,0,0,0,6.209-.6c2.815-.7,5.491-.991,7.789,1.077.619.56-.373,1.4-.985.847-2.771-2.5-6.479-.379-9.606.039a13.335,13.335,0,0,1-3.755-.023" fill="#fff"/>
        <path id="Trazado_7828" data-name="Trazado 7828" d="M464.868,79.026c-.254-1.4-.189-2.821-.407-4.224a10.568,10.568,0,0,0-2.673-5.01.66.66,0,0,1-.147-.331c-1.544-1.768-3.046-3.612-4.737-5.332-.052-.053-.109-.1-.161-.147l.379-1.464c4.59,4.515,7.815,10.377,14,12.961.77.324.36,1.555-.412,1.232a19.34,19.34,0,0,1-5.452-3.509,13.144,13.144,0,0,1,.625,3.423c.266,4.491,2.254,9.015,6.8,10.482a.649.649,0,0,1-.411,1.23c-4.2-1.353-6.642-5.087-7.408-9.311" fill="#fff"/>
        <path id="Trazado_7829" data-name="Trazado 7829" d="M104.53,185.169c-.33.075-.661.149-.99.227a.643.643,0,0,0-.361-.026,10.552,10.552,0,0,1-5.679.019c-1.34-.464-2.564-1.185-3.924-1.617-4.09-1.3-8.533-.89-11.7,2.192-.6.583.3,1.525.9.938,3.424-3.334,8.354-2.974,12.447-1.108a13.2,13.2,0,0,0,3.318,1.049,19.384,19.384,0,0,0-5.654,3.175c-.646.533.25,1.471.9.941,3.171-2.608,6.912-3.658,10.745-4.528v19.6c-6.719.6-16.956,1.485-19.762,3.189-3.041,2.115-10.3,5.924-13.233,3.142-4.859-4.609,2.5-10.715,2.4-15.012-.356-15.58,13.414-22.554,19.1-24.179,7.152-2.041,10.255-5.987,11.5-9.813Z" fill="#ffd4b3"/>
        <path id="Trazado_7830" data-name="Trazado 7830" d="M97.5,185.388a10.562,10.562,0,0,0,5.679-.018.634.634,0,0,1,.361.025c.329-.078.66-.152.99-.227v1.262c-3.833.87-7.574,1.92-10.745,4.528-.647.53-1.543-.407-.9-.941a19.385,19.385,0,0,1,5.654-3.175,13.163,13.163,0,0,1-3.318-1.049c-4.093-1.866-9.023-2.226-12.447,1.109-.6.587-1.493-.356-.9-.939,3.163-3.081,7.606-3.491,11.7-2.191,1.36.432,2.584,1.153,3.924,1.616" fill="#fff"/>
        <path id="Trazado_7831" data-name="Trazado 7831" d="M51.632,51.373c15.5-1.665,23.6,11.47,25.7,17C82.157,81.107,92.207,79.79,96.211,78.823c2-.482,5.054-.144,8.319.987v32.453c-.913-.788-1.834-1.564-2.763-2.309a35.463,35.463,0,0,0-8.031-4.791c-.663-.289-1.337-.544-2.018-.779a.631.631,0,0,0-.307-.16c-.254-.056-.5-.122-.742-.189-.121-.04-.245-.079-.368-.118-7.858-2.541-8.384-12.1-3.951-18.334.478-.674-.485-1.547-.972-.865a15.867,15.867,0,0,0-2.972,12.194,10.774,10.774,0,0,0,3.07,5.648c-.6-.167-1.208-.339-1.8-.522-3.291-1.01-6.148-3.867-8.651-6.144a30.93,30.93,0,0,1-3.367-3.567.524.524,0,0,0-.029-.064,12.432,12.432,0,0,0-1.359-1.856,20.958,20.958,0,0,1-1.96-3.773c-.882-2.246-1.541-4.53-2.269-6.763a.645.645,0,0,0-.006-.361,10.572,10.572,0,0,1-.5-5.658c.349-1.375.965-2.654,1.281-4.044.951-4.186.168-8.58-3.167-11.471-.631-.547-1.5.422-.86.972,3.611,3.132,3.667,8.074,2.152,12.309a13.146,13.146,0,0,0-.767,3.4,19.355,19.355,0,0,0-3.64-5.366c-.584-.6-1.444.373-.862.973,4.679,4.8,5.349,11.46,7.8,17.413a.207.207,0,0,1,.02.046,13.384,13.384,0,0,0-3.487-1.515c-3.04-.841-7.281-.347-8.853-3.729-.347-.748-1.588-.364-1.239.394,1.306,2.8,3.881,3.582,6.745,4.042,3.288.529,6.268,1.5,8.46,3.817a32.131,32.131,0,0,0,3.8,4.577,42.819,42.819,0,0,0,7.339,6.17c2.732,1.744,6.1,2.366,9.21,3.173a12.786,12.786,0,0,0,1.563.458,33.119,33.119,0,0,1,8.129,4.166,42.534,42.534,0,0,1,4.22,3.408,14.445,14.445,0,0,0-9.991,1.548,13.6,13.6,0,0,0-3.225,2.513c-1.4,1.441-2.281,3.3-3.892,4.543-3.535,2.739-7.319-.653-10.327-2.389-.725-.419-1.306.743-.584,1.161,2.573,1.483,4.888,3.536,8.012,3.511,3.887-.029,5.492-3.461,7.763-5.961a12.426,12.426,0,0,1,13.395-3.159v10.872c-5.949,4.045-12.872,6.245-19.489,5.674-24.565-2.121-22.7-19.527-26.642-28.122-2.508-5.467-9.388-2.164-12.251-17.336-1.11-5.883-3.135-19.575-5.433-22.726-2.362-2.851-6.768-9.766-4.243-12.921,4.185-5.229,10.886,1.587,15.16,1.125" fill="#b3deff"/>
        <path id="Trazado_7832" data-name="Trazado 7832" d="M76.276,97.043c2.193,2.01,4.642,4.149,7.4,4.994.6.184,1.2.356,1.8.522a10.767,10.767,0,0,1-3.07-5.647,12.746,12.746,0,0,1-.242-2.323c-.3.094-.611.2-.97.315a27.577,27.577,0,0,0-4.918,2.139" fill="#225d6b"/>
        <path id="Trazado_7833" data-name="Trazado 7833" d="M96.182,95.117a42.735,42.735,0,0,0,8.348.317v16.829c-.913-.788-1.834-1.564-2.763-2.31a35.481,35.481,0,0,0-8.031-4.79c-.663-.289-1.337-.544-2.018-.779a.632.632,0,0,0-.307-.161c-.254-.055-.5-.121-.742-.188l-.368-.118c-4.651-1.5-6.717-5.468-6.722-9.746a10.48,10.48,0,0,1,3.718-.289c2.965.127,5.948.831,8.885,1.235" fill="#225d6b"/>
        <path id="Trazado_7834" data-name="Trazado 7834" d="M89.467,105.008a13.019,13.019,0,0,0,1.563.458,33.123,33.123,0,0,1,8.13,4.165,42.784,42.784,0,0,1,4.219,3.408,14.451,14.451,0,0,0-9.991,1.549,13.64,13.64,0,0,0-3.225,2.513c-1.4,1.441-2.281,3.3-3.891,4.542-3.536,2.74-7.319-.652-10.327-2.388-.725-.419-1.307.743-.585,1.16,2.573,1.484,4.888,3.537,8.013,3.511,3.887-.028,5.492-3.46,7.762-5.96a12.426,12.426,0,0,1,13.395-3.159v10.871c-5.948,4.045-12.872,6.246-19.489,5.674C66.73,129.77,63.1,119.7,60.814,111.11c3.673-3.8,7.313-7.634,11.3-11.113a25.226,25.226,0,0,1,2.97-2.238,37.944,37.944,0,0,0,5.173,4.075c2.733,1.745,6.1,2.367,9.21,3.174" fill="#225d6b"/>
        <path id="Trazado_7835" data-name="Trazado 7835" d="M66.816,69.808c-.316,1.39-.932,2.67-1.281,4.045a10.573,10.573,0,0,0,.5,5.658.635.635,0,0,1,.005.361c.729,2.233,1.388,4.517,2.27,6.762a21.06,21.06,0,0,0,1.959,3.774,12.429,12.429,0,0,1,1.36,1.855.635.635,0,0,1,.028.065,31.011,31.011,0,0,0,3.368,3.566c2.5,2.277,5.36,5.135,8.65,6.144.6.184,1.2.356,1.805.522A10.778,10.778,0,0,1,82.4,96.912a15.873,15.873,0,0,1,2.973-12.194c.487-.681,1.449.192.972.866-4.433,6.233-3.907,15.793,3.951,18.333l.368.119c.242.067.488.133.741.188a.638.638,0,0,1,.308.16c.681.236,1.355.491,2.018.779a35.456,35.456,0,0,1,8.03,4.791c.93.745,1.851,1.521,2.764,2.309v2.545a12.423,12.423,0,0,0-13.395,3.158c-2.271,2.5-3.876,5.932-7.763,5.961-3.124.026-5.44-2.027-8.013-3.511-.721-.418-.14-1.58.585-1.16,3.008,1.735,6.792,5.127,10.327,2.388,1.611-1.246,2.495-3.1,3.891-4.543a13.621,13.621,0,0,1,3.226-2.512,14.445,14.445,0,0,1,9.991-1.549,42.794,42.794,0,0,0-4.22-3.408,33.137,33.137,0,0,0-8.129-4.166,12.851,12.851,0,0,1-1.564-.457c-3.109-.807-6.477-1.43-9.21-3.174a42.8,42.8,0,0,1-7.338-6.169,32.317,32.317,0,0,1-3.8-4.577c-2.192-2.321-5.172-3.288-8.46-3.818-2.863-.46-5.438-1.239-6.744-4.041-.35-.759.892-1.142,1.239-.394,1.572,3.381,5.813,2.888,8.852,3.728A13.425,13.425,0,0,1,67.5,88.079a.23.23,0,0,0-.02-.046c-2.454-5.953-3.124-12.612-7.8-17.413-.582-.6.277-1.572.862-.973a19.391,19.391,0,0,1,3.64,5.366,13.155,13.155,0,0,1,.767-3.4c1.514-4.235,1.459-9.177-2.152-12.309-.637-.549.229-1.518.86-.972,3.335,2.892,4.117,7.285,3.167,11.471" fill="#fff"/>
        <path id="Trazado_7836" data-name="Trazado 7836" d="M104.53,105.788v16.33c-1.048-.479-2.084-.968-3.121-1.438a.656.656,0,0,0-.271-.24,10.563,10.563,0,0,1-4.51-3.45c-.78-1.185-1.309-2.5-2.122-3.675-2.449-3.525-6.219-5.91-10.6-5.4a.649.649,0,0,0,.137,1.291c4.748-.553,8.435,2.739,10.539,6.714a13.181,13.181,0,0,0,1.989,2.857,19.372,19.372,0,0,0-6.417-.933c-.837.028-.7,1.318.136,1.292,5.242-.168,9.67,2.24,14.245,4.353v3.5c-2.5,1.754-4.917,4.777-8.272,3.719-.788-.248-1.341.927-.546,1.18,2.95.927,5.262-.449,7.533-2.252.425-.336.853-.653,1.285-.957v14.606c-2.762.277-6.4-.344-12.091-3.865-5.091-3.147-16.565-10.889-20.44-11.318-3.7-.18-11.776-1.592-12.4-5.584-1.039-6.617,8.515-6.966,11.056-10.433,9.224-12.562,24.389-9.686,29.884-7.506a23.439,23.439,0,0,0,3.992,1.205" fill="#ffd4b3"/>
        <path id="Trazado_7837" data-name="Trazado 7837" d="M104.53,126.992v1.69c-.432.3-.86.621-1.285.957-2.271,1.8-4.583,3.179-7.533,2.252-.795-.253-.242-1.428.546-1.18,3.355,1.058,5.767-1.965,8.272-3.719" fill="#fff"/>
        <path id="Trazado_7838" data-name="Trazado 7838" d="M94.506,113.315c.813,1.172,1.343,2.489,2.122,3.675a10.575,10.575,0,0,0,4.511,3.45.633.633,0,0,1,.27.24c1.038.47,2.073.959,3.121,1.437v1.373c-4.575-2.113-9-4.521-14.244-4.353-.835.025-.973-1.265-.136-1.293a19.414,19.414,0,0,1,6.416.933,13.147,13.147,0,0,1-1.988-2.856c-2.105-3.975-5.791-7.268-10.54-6.715a.649.649,0,0,1-.137-1.291c4.386-.511,8.156,1.875,10.6,5.4" fill="#fff"/>
        <path id="Trazado_7839" data-name="Trazado 7839" d="M514.518,35.967c-7.811,13.486-23.2,12.269-28.9,10.695-13.126-3.631-18,5.257-19.586,9.058-.793,1.9-2.869,4.164-5.71,6.13L434.14,42.679c1.174-.271,2.345-.556,3.495-.866a35.446,35.446,0,0,0,8.609-3.649c.625-.364,1.229-.758,1.821-1.168a.633.633,0,0,0,.311-.154c.194-.171.393-.331.59-.486.1-.075.209-.151.313-.228,6.692-4.839,14.716.383,17.127,7.642.262.784,1.534.523,1.272-.272a15.864,15.864,0,0,0-8.083-9.6,10.772,10.772,0,0,0-6.371-.859c.491-.389.987-.775,1.488-1.148,2.758-2.058,6.752-2.676,10.067-3.35a30.942,30.942,0,0,1,4.867-.61.53.53,0,0,0,.069.015,12.444,12.444,0,0,0,2.3,0,20.971,20.971,0,0,1,4.2.648c2.333.615,4.565,1.432,6.8,2.164a.653.653,0,0,0,.295.209,10.57,10.57,0,0,1,4.858,2.941c.9,1.1,1.572,2.348,2.507,3.424,2.816,3.239,6.823,5.2,11.126,4.221a.65.65,0,0,0-.276-1.269c-4.66,1.064-8.681-1.811-11.2-5.535a13.174,13.174,0,0,0-2.286-2.624,19.376,19.376,0,0,0,6.48.233c.828-.118.551-1.386-.276-1.271-6.638.94-12.406-2.453-18.66-3.99a.268.268,0,0,1-.049-.011,13.4,13.4,0,0,0,3.283-1.919c2.474-1.956,4.581-5.67,8.238-4.94.808.162,1.232-1.067.414-1.233-3.033-.6-5.183,1.016-7.246,3.055-2.369,2.34-4.91,4.173-8.077,4.571a32.233,32.233,0,0,0-5.937.36,42.762,42.762,0,0,0-9.312,2.277c-3.022,1.174-5.514,3.524-8,5.556a12.893,12.893,0,0,0-1.292.991,33.158,33.158,0,0,1-8.164,4.1,42.762,42.762,0,0,1-5.242,1.391,14.446,14.446,0,0,0,4.652-8.976,13.632,13.632,0,0,0-.122-4.087c-.338-1.978-1.313-3.787-1.367-5.823-.121-4.471,4.851-5.52,8.028-6.922.767-.337.172-1.492-.591-1.157-2.717,1.2-5.741,1.855-7.566,4.391-2.273,3.154-.452,6.476.224,9.785a12.426,12.426,0,0,1-5.365,12.674l-8.771-6.422c.25-7.19,2.564-14.076,6.934-19.077,16.223-18.568,29.165-6.781,38.429-4.884,5.892,1.2,7.292-6.3,21.225.356,5.4,2.579,17.646,9.034,21.546,9.041,3.7-.222,11.878.308,12.932,4.209,1.747,6.466-7.711,7.846-9.863,11.568" fill="#b3deff"/>
        <path id="Trazado_7840" data-name="Trazado 7840" d="M463.11,28.872c-2.918.582-6.09,1.294-8.4,3.017-.5.373-1,.759-1.487,1.148a10.78,10.78,0,0,1,6.371.858,12.82,12.82,0,0,1,2.017,1.177c.1-.3.2-.609.318-.968a27.518,27.518,0,0,0,1.18-5.232" fill="#225d6b"/>
        <path id="Trazado_7841" data-name="Trazado 7841" d="M452.9,46.072a42.762,42.762,0,0,0-5.187,6.548L434.14,42.679c1.174-.271,2.345-.556,3.495-.865a35.449,35.449,0,0,0,8.609-3.65c.625-.364,1.229-.758,1.821-1.168a.639.639,0,0,0,.311-.153c.194-.172.393-.332.59-.487.105-.075.209-.151.313-.227,3.96-2.866,8.38-2.191,11.834.332a10.48,10.48,0,0,1-1.963,3.172c-1.854,2.316-4.184,4.308-6.245,6.439" fill="#225d6b"/>
        <path id="Trazado_7842" data-name="Trazado 7842" d="M448.891,34.81a12.871,12.871,0,0,0-1.293.991,33.134,33.134,0,0,1-8.163,4.1,42.762,42.762,0,0,1-5.242,1.391,14.453,14.453,0,0,0,4.652-8.976,13.632,13.632,0,0,0-.122-4.087c-.339-1.978-1.313-3.787-1.367-5.823-.122-4.471,4.85-5.52,8.028-6.922.766-.337.172-1.493-.591-1.157-2.717,1.2-5.741,1.855-7.567,4.391-2.273,3.154-.452,6.476.225,9.785a12.424,12.424,0,0,1-5.365,12.673l-8.772-6.422c.251-7.189,2.565-14.075,6.935-19.077C442.343,1.837,452.61,4.862,460.894,8.087c.895,5.207,1.84,10.409,2.291,15.682a25.364,25.364,0,0,1,.052,3.718,38.037,38.037,0,0,0-6.345,1.766c-3.021,1.175-5.513,3.525-8,5.557" fill="#225d6b"/>
        <path id="Trazado_7843" data-name="Trazado 7843" d="M490.674,37.328c-.935-1.076-1.6-2.329-2.507-3.423a10.572,10.572,0,0,0-4.858-2.942.645.645,0,0,1-.295-.209c-2.232-.731-4.464-1.549-6.8-2.164a21.043,21.043,0,0,0-4.2-.648,12.357,12.357,0,0,1-2.3,0,.53.53,0,0,1-.069-.015,30.942,30.942,0,0,0-4.867.61c-3.315.675-7.309,1.292-10.067,3.351-.5.373-1,.759-1.488,1.147a10.772,10.772,0,0,1,6.371.859,15.867,15.867,0,0,1,8.083,9.6c.262.8-1.01,1.057-1.272.273-2.411-7.259-10.435-12.482-17.127-7.642l-.313.227c-.2.155-.4.315-.59.487a.639.639,0,0,1-.311.153c-.592.41-1.2.8-1.821,1.168a35.449,35.449,0,0,1-8.609,3.65c-1.15.309-2.321.594-3.495.865l-2.054-1.5A12.425,12.425,0,0,0,437.451,28.5c-.676-3.31-2.5-6.632-.224-9.785,1.825-2.536,4.849-3.192,7.566-4.391.763-.336,1.358.82.591,1.157-3.177,1.4-8.149,2.45-8.028,6.921.054,2.036,1.029,3.846,1.367,5.823a13.64,13.64,0,0,1,.122,4.088,14.448,14.448,0,0,1-4.652,8.976,42.587,42.587,0,0,0,5.242-1.392,33.119,33.119,0,0,0,8.164-4.1,12.6,12.6,0,0,1,1.292-.991c2.488-2.032,4.98-4.382,8-5.557a42.817,42.817,0,0,1,9.312-2.276,32.234,32.234,0,0,1,5.937-.361c3.167-.4,5.708-2.23,8.077-4.571,2.063-2.039,4.213-3.656,7.246-3.054.818.166.394,1.394-.414,1.232-3.657-.729-5.764,2.985-8.238,4.94a13.433,13.433,0,0,1-3.283,1.92.261.261,0,0,0,.05.01c6.253,1.537,12.021,4.93,18.659,3.991.827-.115,1.1,1.152.276,1.27a19.349,19.349,0,0,1-6.48-.233,13.17,13.17,0,0,1,2.286,2.624c2.522,3.725,6.543,6.6,11.2,5.536a.649.649,0,0,1,.276,1.268c-4.3.983-8.31-.981-11.126-4.221" fill="#fff"/>
        <path id="Trazado_7844" data-name="Trazado 7844" d="M439.364,46.5l-13.176-9.646c1.005-.563,2.011-1.11,3-1.669a.646.646,0,0,0,.353-.077,10.564,10.564,0,0,1,5.449-1.6c1.416.071,2.792.422,4.218.458,4.291.107,8.443-1.526,10.622-5.367a.649.649,0,0,0-1.123-.651c-2.359,4.157-7.193,5.187-11.644,4.536a13.2,13.2,0,0,0-3.479-.083,19.366,19.366,0,0,0,4.543-4.625c.472-.692-.65-1.343-1.123-.654-2.961,4.329-7.52,6.478-11.928,8.922l-2.826-2.069c.065-3.058-.95-6.79,1.886-8.872.665-.489.044-1.63-.629-1.137-2.491,1.832-2.747,4.511-2.633,7.408.02.542.023,1.074.013,1.6l-11.785-8.628c1.408-2.392,4.057-4.96,10.26-7.473,5.548-2.249,18.572-6.933,21.207-9.806C442.9,4.193,448.814-1.49,452.4.365c5.952,3.07.59,10.985,1.886,15.084,4.687,14.863-6.591,25.4-11.6,28.546a23.464,23.464,0,0,0-3.33,2.509" fill="#ffd4b3"/>
        <path id="Trazado_7845" data-name="Trazado 7845" d="M422.254,33.977l-1.364-1c.01-.528.008-1.06-.013-1.6-.113-2.9.143-5.576,2.634-7.408.673-.492,1.294.648.629,1.137-2.836,2.083-1.822,5.815-1.886,8.872" fill="#fff"/>
        <path id="Trazado_7846" data-name="Trazado 7846" d="M439.212,33.969c-1.426-.036-2.8-.387-4.219-.458a10.563,10.563,0,0,0-5.448,1.6.644.644,0,0,1-.353.076c-.993.56-2,1.106-3,1.669l-1.108-.811c4.408-2.443,8.967-4.592,11.928-8.921.473-.689,1.6-.039,1.123.653a19.393,19.393,0,0,1-4.544,4.626,13.167,13.167,0,0,1,3.48.083c4.451.65,9.285-.379,11.644-4.537a.65.65,0,0,1,1.123.652c-2.179,3.84-6.331,5.473-10.622,5.367" fill="#fff"/>
        <g id="Grupo_8833" data-name="Grupo 8833" style="mix-blend-mode: multiply;isolation: isolate">
          <g id="Grupo_8832" data-name="Grupo 8832">
            <g id="Grupo_8831" data-name="Grupo 8831" clip-path="url(#clip-path-2)">
              <g id="Grupo_8830" data-name="Grupo 8830">
                <g id="Grupo_8829" data-name="Grupo 8829" clip-path="url(#clip-path-3)">
                  <rect id="Rectángulo_5820" data-name="Rectángulo 5820" width="358.479" height="30.673" transform="translate(114.236 309.185)" fill="url(#linear-gradient)"/>
                </g>
              </g>
            </g>
          </g>
        </g>
        <path id="Trazado_7848" data-name="Trazado 7848" d="M221.593,314.354H337.728c-12.6,0-30.337-37.1-30.337-37.1H254.967s-17.579,37.1-33.374,37.1" fill="#fff"/>
        <path id="Trazado_7849" data-name="Trazado 7849" d="M183.589,319.138a9.291,9.291,0,0,0,9.292,9.291H358.067a9.289,9.289,0,1,0,0-18.579H192.881a9.292,9.292,0,0,0-9.292,9.288" fill="#fff"/>
        <path id="Rectángulo_5822" data-name="Rectángulo 5822" d="M7.594,0H346.312A7.593,7.593,0,0,1,353.9,7.593V222.06a7.593,7.593,0,0,1-7.593,7.593H7.594A7.594,7.594,0,0,1,0,222.059V7.594A7.594,7.594,0,0,1,7.594,0Z" transform="translate(101.227 53.209)" fill="#fff"/>
        <g id="Grupo_8836" data-name="Grupo 8836" style="mix-blend-mode: multiply;isolation: isolate">
          <g id="Grupo_8835" data-name="Grupo 8835">
            <g id="Grupo_8834" data-name="Grupo 8834" clip-path="url(#clip-path-4)">
              <path id="Trazado_7850" data-name="Trazado 7850" d="M221.593,314.354H337.728c-12.6,0-30.337-37.1-30.337-37.1H254.967s-17.579,37.1-33.374,37.1" fill="#003aa3"/>
            </g>
          </g>
        </g>
        <path id="Trazado_7851" data-name="Trazado 7851" d="M183.589,319.138a9.291,9.291,0,0,0,9.292,9.291H358.067a9.289,9.289,0,1,0,0-18.579H192.881a9.292,9.292,0,0,0-9.292,9.288" fill="#003aa3"/>
        <g id="Grupo_8839" data-name="Grupo 8839" style="mix-blend-mode: multiply;isolation: isolate">
          <g id="Grupo_8838" data-name="Grupo 8838">
            <g id="Grupo_8837" data-name="Grupo 8837" clip-path="url(#clip-path-5)">
              <path id="Rectángulo_5824" data-name="Rectángulo 5824" d="M7.594,0H346.312A7.593,7.593,0,0,1,353.9,7.593V222.06a7.593,7.593,0,0,1-7.593,7.593H7.594A7.594,7.594,0,0,1,0,222.059V7.594A7.594,7.594,0,0,1,7.594,0Z" transform="translate(101.227 53.209)" fill="#bec3ce"/>
            </g>
          </g>
        </g>
        <path id="Trazado_7852" data-name="Trazado 7852" d="M101.227,247.738v7.594h353.9V33.271a7.593,7.593,0,0,0-7.593-7.592H108.821a7.6,7.6,0,0,0-7.594,7.592Z" fill="#151a23"/>
        <path id="Trazado_7853" data-name="Trazado 7853" d="M227.555,314.354H343.688c-12.6,0-30.336-37.1-30.336-37.1H260.929s-17.582,37.1-33.374,37.1" fill="#64bdff"/>
        <path id="Trazado_7854" data-name="Trazado 7854" d="M260.929,277.25h52.424s1.338,3.016,4.519,8.64c-7.247,1.455-39.021,1.22-47.657,1.722-5.024.3-11.126.2-15.266,10.014-1.005,2.374-4.042,8.8-.442,9.284,4.038.533,76.655,1.975,79.873,2.359,3.19,3.072,6.387,5.085,9.309,5.085H227.555c15.792,0,33.374-37.1,33.374-37.1" fill="#003aa3"/>
        <path id="Trazado_7855" data-name="Trazado 7855" d="M193.525,319.138a9.293,9.293,0,0,0,9.294,9.291H368a9.289,9.289,0,0,0,0-18.579H202.819a9.294,9.294,0,0,0-9.294,9.288" fill="#64bdff"/>
        <path id="Trazado_7856" data-name="Trazado 7856" d="M110.025,275.272a7.593,7.593,0,0,0,7.594,7.59H456.338a7.591,7.591,0,0,0,7.591-7.59L462,61.012c0-4.193-1.466-7.8-5.658-7.8H117.619a7.6,7.6,0,0,0-7.594,7.593Z" fill="#64bdff"/>
        <path id="Trazado_7857" data-name="Trazado 7857" d="M108.883,247.783v7.55H463.078V33.272a7.592,7.592,0,0,0-7.591-7.593H116.769a7.936,7.936,0,0,0-7.886,7.694Z" fill="#0f3871"/>
        <rect id="Rectángulo_5826" data-name="Rectángulo 5826" width="325.073" height="201.348" transform="translate(123.593 39.156)" fill="#fff"/>
        <rect id="Rectángulo_5827" data-name="Rectángulo 5827" width="324.972" height="201.302" transform="translate(123.594 39.156)" fill="#44526b"/>
        <g id="Grupo_8842" data-name="Grupo 8842" opacity="0.1">
          <g id="Grupo_8841" data-name="Grupo 8841">
            <g id="Grupo_8840" data-name="Grupo 8840" clip-path="url(#clip-path-6)">
              <path id="Trazado_7858" data-name="Trazado 7858" d="M122.7,182.813v-7.107q15.237,5.406,30.475,10.814l151.981,53.938H285.125Q203.913,211.634,122.7,182.813" fill="#e2ffff"/>
            </g>
          </g>
        </g>
        <g id="Grupo_8845" data-name="Grupo 8845" opacity="0.1">
          <g id="Grupo_8844" data-name="Grupo 8844">
            <g id="Grupo_8843" data-name="Grupo 8843" clip-path="url(#clip-path-7)">
              <path id="Trazado_7859" data-name="Trazado 7859" d="M203.49,39.341H448.122v101.5L203.49,39.341" fill="#e2ffff"/>
            </g>
          </g>
        </g>
        <g id="Grupo_8848" data-name="Grupo 8848" opacity="0.1">
          <g id="Grupo_8847" data-name="Grupo 8847">
            <g id="Grupo_8846" data-name="Grupo 8846" clip-path="url(#clip-path-8)">
              <path id="Trazado_7860" data-name="Trazado 7860" d="M122.7,146.7V89.84q6.342,2.223,12.687,4.45L447.7,203.837c.553.194,1.15.363,1.762.521V240.5H390.133L122.7,146.7" fill="#e2ffff"/>
            </g>
          </g>
        </g>
        <path id="Trazado_7861" data-name="Trazado 7861" d="M87.961,218.154c.017,1.362-1.649,2.486-3.725,2.512s-3.77-1.057-3.787-2.417,1.652-2.487,3.724-2.512,3.77,1.057,3.788,2.417" fill="#fbda70"/>
        <g id="Grupo_8851" data-name="Grupo 8851" style="mix-blend-mode: multiply;isolation: isolate">
          <g id="Grupo_8850" data-name="Grupo 8850">
            <g id="Grupo_8849" data-name="Grupo 8849" clip-path="url(#clip-path-9)">
              <path id="Trazado_7862" data-name="Trazado 7862" d="M389.462,101.779H374.67V94.53h.1V38.672a10.952,10.952,0,0,0-12.957-10.81H282.027s-102.1-1.628-120.409-2.072c9.246,1.191,10.038,12.143,10.038,12.143.016.244.033.489.033.738h0V94.53h.061v51.027c-.037.565-.062,1.134-.062,1.709s.025,1.143.062,1.709v.069h0c0,17.121,5,24.391,16.762,24.391l46.2-.833-1.5,109.953H415.629V127.948a26.169,26.169,0,0,0-26.167-26.169" fill="#aacaf9"/>
            </g>
          </g>
        </g>
        <path id="Trazado_7863" data-name="Trazado 7863" d="M302.907,161.689H199.81l19.967-71.435h83.13Z" fill="#7189ad"/>
        <rect id="Rectángulo_5832" data-name="Rectángulo 5832" width="218.175" height="168.613" transform="translate(244.346 116.201)" fill="#fff"/>
        <path id="Trazado_7864" data-name="Trazado 7864" d="M293.319,26.186H162.748s-.088-10.071,11.2-10.071H293.319Z" fill="#7189ad"/>
        <rect id="Rectángulo_5833" data-name="Rectángulo 5833" width="165.713" height="226.937" transform="translate(25.267 102.226)" fill="#7b4d42"/>
        <rect id="Rectángulo_5834" data-name="Rectángulo 5834" width="165.713" height="226.937" transform="translate(25.267 102.226)" fill="#0f3871"/>
        <g id="Grupo_8854" data-name="Grupo 8854" style="mix-blend-mode: multiply;isolation: isolate">
          <g id="Grupo_8853" data-name="Grupo 8853">
            <g id="Grupo_8852" data-name="Grupo 8852" clip-path="url(#clip-path-10)">
              <rect id="Rectángulo_5835" data-name="Rectángulo 5835" width="162.628" height="226.937" transform="translate(34.088 99.226)" fill="#aacaf9"/>
            </g>
          </g>
        </g>
        <rect id="Rectángulo_5837" data-name="Rectángulo 5837" width="162.628" height="226.937" transform="translate(27.088 102.226)" fill="#b3deff"/>
        <path id="Trazado_7865" data-name="Trazado 7865" d="M185.981,322.071,33.5,321.464V113.446l130.862-1.215,21.619,21.009Z" fill="#0f3871"/>
        <path id="Trazado_7866" data-name="Trazado 7866" d="M193.143,317.7l-156.732-.607L32.162,112.108H162.416l22.226,21.615Z" fill="#fff"/>
        <path id="Trazado_7867" data-name="Trazado 7867" d="M90.444,189.533a2.41,2.41,0,0,1-2.491,2.321H55.421a2.327,2.327,0,1,1,0-4.643H87.953a2.411,2.411,0,0,1,2.491,2.322" fill="#5e98ff"/>
        <path id="Trazado_7868" data-name="Trazado 7868" d="M119.376,196.148a1.616,1.616,0,0,1-1.67,1.557H54.738a1.561,1.561,0,1,1,0-3.114h62.968a1.616,1.616,0,0,1,1.67,1.557" fill="#bcbcbc"/>
        <path id="Trazado_7869" data-name="Trazado 7869" d="M119.376,201.611a1.616,1.616,0,0,1-1.67,1.557H54.738a1.561,1.561,0,1,1,0-3.114h62.968a1.616,1.616,0,0,1,1.67,1.557" fill="#bcbcbc"/>
        <path id="Trazado_7870" data-name="Trazado 7870" d="M76.539,207.026a1.617,1.617,0,0,1-1.67,1.558H54.738a1.561,1.561,0,1,1,0-3.115H74.869a1.617,1.617,0,0,1,1.67,1.557" fill="#bcbcbc"/>
        <path id="Trazado_7871" data-name="Trazado 7871" d="M90.444,220.16a2.41,2.41,0,0,1-2.491,2.321H55.421a2.327,2.327,0,1,1,0-4.642H87.953a2.41,2.41,0,0,1,2.491,2.321" fill="#5e98ff"/>
        <path id="Trazado_7872" data-name="Trazado 7872" d="M119.376,226.775a1.617,1.617,0,0,1-1.67,1.558H54.738a1.561,1.561,0,1,1,0-3.115h62.968a1.617,1.617,0,0,1,1.67,1.557" fill="#bcbcbc"/>
        <path id="Trazado_7873" data-name="Trazado 7873" d="M119.376,232.238a1.616,1.616,0,0,1-1.67,1.557H54.738a1.561,1.561,0,1,1,0-3.114h62.968a1.617,1.617,0,0,1,1.67,1.557" fill="#bcbcbc"/>
        <path id="Trazado_7874" data-name="Trazado 7874" d="M76.539,237.654a1.616,1.616,0,0,1-1.67,1.556H54.738a1.561,1.561,0,1,1,0-3.114H74.869a1.617,1.617,0,0,1,1.67,1.558" fill="#bcbcbc"/>
        <path id="Trazado_7875" data-name="Trazado 7875" d="M90.444,252.408a2.41,2.41,0,0,1-2.491,2.322H55.421a2.327,2.327,0,1,1,0-4.643H87.953a2.41,2.41,0,0,1,2.491,2.321" fill="#5e98ff"/>
        <path id="Trazado_7876" data-name="Trazado 7876" d="M119.376,259.024a1.616,1.616,0,0,1-1.67,1.557H54.738a1.561,1.561,0,1,1,0-3.114h62.968a1.615,1.615,0,0,1,1.67,1.557" fill="#bcbcbc"/>
        <path id="Trazado_7877" data-name="Trazado 7877" d="M119.376,264.486a1.616,1.616,0,0,1-1.67,1.558H54.738a1.561,1.561,0,1,1,0-3.115h62.968a1.617,1.617,0,0,1,1.67,1.557" fill="#bcbcbc"/>
        <path id="Trazado_7878" data-name="Trazado 7878" d="M76.539,269.9a1.617,1.617,0,0,1-1.67,1.557H54.738a1.56,1.56,0,1,1,0-3.113H74.869a1.616,1.616,0,0,1,1.67,1.556" fill="#bcbcbc"/>
        <g id="Grupo_8857" data-name="Grupo 8857" style="mix-blend-mode: multiply;isolation: isolate">
          <g id="Grupo_8856" data-name="Grupo 8856">
            <g id="Grupo_8855" data-name="Grupo 8855" clip-path="url(#clip-path-11)">
              <path id="Trazado_7879" data-name="Trazado 7879" d="M184.494,133.681l-19.676,4.877-2.125-26.45Z" fill="#d7c4a6"/>
            </g>
          </g>
        </g>
        <path id="Trazado_7880" data-name="Trazado 7880" d="M184.643,133.723l-22.475.114.249-21.729Z" fill="#5e98ff"/>
        <path id="Trazado_7881" data-name="Trazado 7881" d="M133.693,153.673h21.354v21.354H133.693Zm18.357,3H136.691V172.03H152.05Z" fill="#5e98ff"/>
        <path id="Trazado_7882" data-name="Trazado 7882" d="M154.213,174.193H134.527V154.509h19.686Zm-18.356-1.329h17.028V155.835H135.857Z" fill="#5e98ff"/>
        <path id="Trazado_7883" data-name="Trazado 7883" d="M136.742,163.865l2.12-2.12,4.337,4.338,6.474-8.374,2.372,1.833-8.557,11.067Z" fill="#5e98ff"/>
        <path id="Trazado_7884" data-name="Trazado 7884" d="M143.408,169.348l-5.484-5.484.939-.938,4.418,4.416,6.543-8.463,1.051.812Z" fill="#5e98ff"/>
        <path id="Trazado_7885" data-name="Trazado 7885" d="M134.354,186.006h21.355v21.355H134.354Zm18.357,3H137.353v15.36h15.358Z" fill="#5e98ff"/>
        <path id="Trazado_7886" data-name="Trazado 7886" d="M154.874,206.526H135.189V186.841h19.685ZM136.518,205.2h17.027v-17.03H136.518Z" fill="#5e98ff"/>
        <path id="Trazado_7887" data-name="Trazado 7887" d="M137.4,196.2l2.12-2.12,4.337,4.336,6.474-8.374,2.371,1.836-8.557,11.067Z" fill="#5e98ff"/>
        <path id="Trazado_7888" data-name="Trazado 7888" d="M144.068,201.681l-5.484-5.483.94-.94,4.417,4.417,6.543-8.463,1.05.813Z" fill="#5e98ff"/>
        <path id="Trazado_7889" data-name="Trazado 7889" d="M135.144,217.059H156.5v21.353H135.144Zm18.357,3H138.143v15.36H153.5Z" fill="#5e98ff"/>
        <path id="Trazado_7890" data-name="Trazado 7890" d="M155.665,237.579H135.98V217.894h19.685Zm-18.356-1.329h17.027V219.222H137.309Z" fill="#5e98ff"/>
        <path id="Trazado_7891" data-name="Trazado 7891" d="M138.194,227.248l2.121-2.117,4.337,4.336,6.473-8.374,2.371,1.835-8.556,11.066Z" fill="#5e98ff"/>
        <path id="Trazado_7892" data-name="Trazado 7892" d="M138.832,259.384l2.12-2.117,4.338,4.336,6.473-8.374,2.371,1.835-8.556,11.066Z" fill="#5e98ff"/>
        <path id="Trazado_7893" data-name="Trazado 7893" d="M144.859,232.734l-5.484-5.487.939-.935,4.417,4.414,6.544-8.462,1.05.814Z" fill="#5e98ff"/>
        <path id="Trazado_7894" data-name="Trazado 7894" d="M135.806,248.874H157.16v21.353H135.806Zm18.356,3H138.8v15.358h15.359Z" fill="#5e98ff"/>
        <path id="Trazado_7895" data-name="Trazado 7895" d="M156.326,269.394H136.64V249.709h19.686Zm-18.357-1.329H155V251.039H137.969Z" fill="#5e98ff"/>
        <g id="Grupo_8860" data-name="Grupo 8860" style="mix-blend-mode: multiply;isolation: isolate">
          <g id="Grupo_8859" data-name="Grupo 8859">
            <g id="Grupo_8858" data-name="Grupo 8858" clip-path="url(#clip-path-12)">
              <path id="Trazado_7896" data-name="Trazado 7896" d="M160.984,112.912v8.918L59.463,120.616l-1.821-.607,1.821-7.1a12.253,12.253,0,0,1,12.252-12.253l75.194-1.821c6.768,0,14.075,7.307,14.075,14.074" fill="#b4d0d3"/>
            </g>
          </g>
        </g>
        <path id="Trazado_7897" data-name="Trazado 7897" d="M146.909,98.838c-23.947,0-24.93-6.659-25.258-7.838a13.758,13.758,0,0,0-26.468-.1c-.347,1.208-2.339,7.939-25.289,7.939A12.251,12.251,0,0,0,57.642,111.09v8.919H159.163V111.09a12.253,12.253,0,0,0-12.254-12.252M108.4,84.2a5.375,5.375,0,1,1-5.375,5.375A5.373,5.373,0,0,1,108.4,84.2" fill="#ffd4b3"/>
        <path id="Trazado_7898" data-name="Trazado 7898" d="M146.909,98.838c-23.948,0-24.93-6.659-25.258-7.838a13.756,13.756,0,0,0-12.592-10.022c.036.175.065-.256.083-.077,5.434.5,8.216,4.522,9.516,7.858,1.579,4.048,2.8,8.044,9.245,9.713,4.264,1.1,8.429,1.96,20.877,3.724.664.1,5.193,1.136,5.193,5.855,0,9.212,1.562,11.958-4.25,11.958h9.44V111.09a12.253,12.253,0,0,0-12.254-12.252" fill="#ffd4b3"/>
        <g id="Grupo_8863" data-name="Grupo 8863" style="mix-blend-mode: multiply;isolation: isolate">
          <g id="Grupo_8862" data-name="Grupo 8862">
            <g id="Grupo_8861" data-name="Grupo 8861" clip-path="url(#clip-path-13)">
              <rect id="Rectángulo_5840" data-name="Rectángulo 5840" width="101.521" height="4.909" transform="translate(57.642 115.1)" fill="#e5a67c"/>
            </g>
          </g>
        </g>
        <g id="Grupo_8867" data-name="Grupo 8867" style="mix-blend-mode: multiply;isolation: isolate">
          <g id="Grupo_8866" data-name="Grupo 8866">
            <g id="Grupo_8865" data-name="Grupo 8865" clip-path="url(#clip-path-14)">
              <path id="Trazado_7899" data-name="Trazado 7899" d="M92.4,95.6c-9.652,5.16-24.524,4.552-24.524,4.552,1.333,0,17.22,1.414,25.53-2.416,6.734-3.1,6.576-9.371,4.622-9.371-1.333,0-.879,4.7-5.628,7.235" fill="#e5a67c"/>
            </g>
          </g>
        </g>
        <path id="Trazado_7900" data-name="Trazado 7900" d="M90.444,156.8a2.411,2.411,0,0,1-2.491,2.322H55.421a2.327,2.327,0,1,1,0-4.643H87.953a2.41,2.41,0,0,1,2.491,2.321" fill="#5e98ff"/>
        <path id="Trazado_7901" data-name="Trazado 7901" d="M119.376,163.419a1.616,1.616,0,0,1-1.67,1.557H54.738a1.561,1.561,0,1,1,0-3.114h62.968a1.616,1.616,0,0,1,1.67,1.557" fill="#bcbcbc"/>
        <path id="Trazado_7902" data-name="Trazado 7902" d="M119.376,168.882a1.617,1.617,0,0,1-1.67,1.558H54.738a1.561,1.561,0,1,1,0-3.115h62.968a1.616,1.616,0,0,1,1.67,1.557" fill="#bcbcbc"/>
        <path id="Trazado_7903" data-name="Trazado 7903" d="M76.539,174.3a1.617,1.617,0,0,1-1.67,1.557H54.738a1.561,1.561,0,1,1,0-3.114H74.869a1.617,1.617,0,0,1,1.67,1.557" fill="#bcbcbc"/>
        <path id="Trazado_7904" data-name="Trazado 7904" d="M421.658,26.925A10.957,10.957,0,0,0,408.7,16.115H173.948a10.99,10.99,0,0,1,9.033,10.81h0V82.784h.061V133.81c-.037.565-.062,1.134-.062,1.709s.025,1.144.062,1.709v.069h.005c0,17.121,5,24.392,16.762,24.392,11.429,0,16.811-7.271,16.811-24.464V116.2l204.942-2.253.1-31.164Z" fill="#fff"/>
        <path id="Trazado_7905" data-name="Trazado 7905" d="M289,108.927a2.323,2.323,0,0,1-2.4,2.238H204.286a2.244,2.244,0,1,1,0-4.477H286.6a2.323,2.323,0,0,1,2.4,2.239" fill="#bcbcbc"/>
        <path id="Trazado_7906" data-name="Trazado 7906" d="M289,116.78a2.324,2.324,0,0,1-2.4,2.24H204.286a2.244,2.244,0,1,1,0-4.478H286.6a2.323,2.323,0,0,1,2.4,2.238" fill="#bcbcbc"/>
        <path id="Trazado_7907" data-name="Trazado 7907" d="M216.542,122.328H204.287a2.244,2.244,0,1,0,0,4.476h12.255Z" fill="#bcbcbc"/>
        <path id="Trazado_7908" data-name="Trazado 7908" d="M255.621,99.415a3.465,3.465,0,0,1-3.581,3.338H205.27a3.345,3.345,0,1,1,0-6.674h46.77a3.464,3.464,0,0,1,3.581,3.336" fill="#5e98ff"/>
        <g id="Grupo_8870" data-name="Grupo 8870" style="mix-blend-mode: multiply;isolation: isolate">
          <g id="Grupo_8869" data-name="Grupo 8869">
            <g id="Grupo_8868" data-name="Grupo 8868" clip-path="url(#clip-path-15)">
              <path id="Trazado_7909" data-name="Trazado 7909" d="M241.18,88.429c-14.559,0-20.283.249-24.184,15.632l32.382,3.594v8.89l172.7-1.764V79.47s-.809,8.959-24.14,8.959Z" fill="#ccd9f2"/>
            </g>
          </g>
        </g>
        <path id="Trazado_7910" data-name="Trazado 7910" d="M288.232,94.333h30.7v30.7h-30.7Zm26.391,4.313H292.542v22.08h22.081Z" fill="#5e98ff"/>
        <path id="Trazado_7911" data-name="Trazado 7911" d="M317.733,123.835h-28.3v-28.3h28.3Zm-26.391-1.911h24.48V97.446h-24.48Z" fill="#5e98ff"/>
        <path id="Trazado_7912" data-name="Trazado 7912" d="M374.585,116.2c0,14.452,47.317,26.17,61.769,26.17a26.17,26.17,0,0,0,0-52.339c-14.452,0-61.769,11.715-61.769,26.169" fill="#fff"/>
        <path id="Trazado_7913" data-name="Trazado 7913" d="M244.346,131.168H400.752l35.6-41.136H229.545l6.76,7.3c8.1,7.564,8.041,18.874,8.041,18.874Z" fill="#fff"/>
        <path id="Trazado_7914" data-name="Trazado 7914" d="M216.631,108.838c0,9.925-.01,13.837-.01,13.837,6.7,0,24.681,4.862,27.772-.568,0,0-.032-10.039-.032-13.269,0-9.927-3.564-17.972-13.492-17.972s-14.238,8.045-14.238,17.972" fill="#7189ad"/>
        <path id="Trazado_7915" data-name="Trazado 7915" d="M262.828,194.421h33.858v33.858H262.828Zm29.107,4.753H267.582v24.353h24.353Z" fill="#5e98ff"/>
        <path id="Trazado_7916" data-name="Trazado 7916" d="M295.365,226.957H264.151V195.746h31.214Zm-29.106-2.106h27v-27h-27Z" fill="#5e98ff"/>
        <path id="Trazado_7917" data-name="Trazado 7917" d="M267.662,210.58l3.361-3.361L277.9,214.1l10.265-13.277,3.76,2.907-13.568,17.548Z" fill="#5e98ff"/>
        <path id="Trazado_7918" data-name="Trazado 7918" d="M278.231,219.276l-8.7-8.7,1.488-1.488,7.006,7L288.4,202.676l1.666,1.288Z" fill="#5e98ff"/>
        <path id="Trazado_7919" data-name="Trazado 7919" d="M378.209,200.816a3.036,3.036,0,0,1-3.137,2.924H319.288a2.931,2.931,0,1,1,0-5.847h55.784a3.036,3.036,0,0,1,3.137,2.923" fill="#5e98ff"/>
        <path id="Trazado_7920" data-name="Trazado 7920" d="M424,209.148a2.036,2.036,0,0,1-2.1,1.962H318.427a1.966,1.966,0,1,1,0-3.923H421.9a2.035,2.035,0,0,1,2.1,1.961" fill="#bcbcbc"/>
        <path id="Trazado_7921" data-name="Trazado 7921" d="M424,216.028a2.036,2.036,0,0,1-2.1,1.962H318.427a1.966,1.966,0,1,1,0-3.923H421.9a2.035,2.035,0,0,1,2.1,1.961" fill="#bcbcbc"/>
        <path id="Trazado_7922" data-name="Trazado 7922" d="M352.9,222.848a2.036,2.036,0,0,1-2.1,1.961H318.427a1.966,1.966,0,1,1,0-3.922H350.8a2.036,2.036,0,0,1,2.1,1.961" fill="#bcbcbc"/>
        <path id="Trazado_7923" data-name="Trazado 7923" d="M262.828,150.177h33.858v33.858H262.828Zm29.107,4.752H267.582v24.353h24.353Z" fill="#5e98ff"/>
        <path id="Trazado_7924" data-name="Trazado 7924" d="M295.365,182.712H264.151V151.5h31.214Zm-29.106-2.106h27v-27h-27Z" fill="#5e98ff"/>
        <path id="Trazado_7925" data-name="Trazado 7925" d="M267.662,166.335l3.361-3.361,6.878,6.877,10.265-13.277,3.76,2.907-13.568,17.548Z" fill="#5e98ff"/>
        <path id="Trazado_7926" data-name="Trazado 7926" d="M278.231,175.031l-8.7-8.7,1.488-1.488,7.006,7L288.4,158.431l1.666,1.288Z" fill="#5e98ff"/>
        <path id="Trazado_7927" data-name="Trazado 7927" d="M378.209,156.571a3.036,3.036,0,0,1-3.137,2.924H319.288a2.931,2.931,0,1,1,0-5.847h55.784a3.036,3.036,0,0,1,3.137,2.923" fill="#5e98ff"/>
        <path id="Trazado_7928" data-name="Trazado 7928" d="M424,164.9a2.035,2.035,0,0,1-2.1,1.961H318.427a1.966,1.966,0,1,1,0-3.922H421.9A2.035,2.035,0,0,1,424,164.9" fill="#bcbcbc"/>
        <path id="Trazado_7929" data-name="Trazado 7929" d="M424,171.783a2.035,2.035,0,0,1-2.1,1.961H318.427a1.966,1.966,0,1,1,0-3.922H421.9a2.035,2.035,0,0,1,2.1,1.961" fill="#bcbcbc"/>
        <path id="Trazado_7930" data-name="Trazado 7930" d="M352.9,178.6a2.036,2.036,0,0,1-2.1,1.961H318.427a1.966,1.966,0,1,1,0-3.922H350.8a2.036,2.036,0,0,1,2.1,1.961" fill="#bcbcbc"/>
        <path id="Trazado_7931" data-name="Trazado 7931" d="M262.828,105.906h33.858v33.859H262.828Zm29.107,4.753H267.582v24.354h24.353Z" fill="#5e98ff"/>
        <path id="Trazado_7932" data-name="Trazado 7932" d="M295.365,138.441H264.151V107.23h31.214Zm-29.106-2.106h27v-27h-27Z" fill="#5e98ff"/>
        <path id="Trazado_7933" data-name="Trazado 7933" d="M267.662,122.065l3.361-3.361,6.878,6.877L288.166,112.3l3.76,2.907-13.568,17.548Z" fill="#5e98ff"/>
        <path id="Trazado_7934" data-name="Trazado 7934" d="M278.231,130.76l-8.7-8.7,1.488-1.487,7.006,7L288.4,114.16l1.666,1.288Z" fill="#5e98ff"/>
        <path id="Trazado_7935" data-name="Trazado 7935" d="M378.209,112.3a3.036,3.036,0,0,1-3.137,2.924H319.288a2.931,2.931,0,1,1,0-5.847h55.784a3.036,3.036,0,0,1,3.137,2.923" fill="#5e98ff"/>
        <path id="Trazado_7936" data-name="Trazado 7936" d="M424,120.633a2.036,2.036,0,0,1-2.1,1.962H318.427a1.966,1.966,0,1,1,0-3.923H421.9a2.035,2.035,0,0,1,2.1,1.961" fill="#bcbcbc"/>
        <path id="Trazado_7937" data-name="Trazado 7937" d="M424,127.512a2.036,2.036,0,0,1-2.1,1.962H318.427a1.966,1.966,0,1,1,0-3.923H421.9a2.035,2.035,0,0,1,2.1,1.961" fill="#bcbcbc"/>
        <path id="Trazado_7938" data-name="Trazado 7938" d="M352.9,134.333a2.036,2.036,0,0,1-2.1,1.961H318.427a1.966,1.966,0,1,1,0-3.922H350.8a2.036,2.036,0,0,1,2.1,1.961" fill="#bcbcbc"/>
        <path id="Trazado_7939" data-name="Trazado 7939" d="M378.209,244.227a3.036,3.036,0,0,1-3.137,2.924H319.288a2.931,2.931,0,1,1,0-5.847h55.784a3.036,3.036,0,0,1,3.137,2.923" fill="#5e98ff"/>
        <path id="Trazado_7940" data-name="Trazado 7940" d="M424,252.559a2.036,2.036,0,0,1-2.1,1.962H318.427a1.966,1.966,0,1,1,0-3.923H421.9a2.035,2.035,0,0,1,2.1,1.961" fill="#bcbcbc"/>
        <path id="Trazado_7941" data-name="Trazado 7941" d="M424,259.439a2.036,2.036,0,0,1-2.1,1.962H318.427a1.966,1.966,0,1,1,0-3.923H421.9a2.035,2.035,0,0,1,2.1,1.961" fill="#bcbcbc"/>
        <path id="Trazado_7942" data-name="Trazado 7942" d="M352.9,266.259a2.036,2.036,0,0,1-2.1,1.961H318.427a1.966,1.966,0,1,1,0-3.922H350.8a2.036,2.036,0,0,1,2.1,1.961" fill="#bcbcbc"/>
        <path id="Trazado_7943" data-name="Trazado 7943" d="M262.828,237.832h33.858v33.859H262.828Zm29.107,4.753H267.582v24.353h24.353Z" fill="#5e98ff"/>
        <path id="Trazado_7944" data-name="Trazado 7944" d="M295.365,270.367H264.151V239.156h31.214Zm-29.106-2.106h27v-27h-27Z" fill="#5e98ff"/>
        <path id="Trazado_7945" data-name="Trazado 7945" d="M267.662,253.991l3.361-3.361,6.878,6.877,10.265-13.277,3.76,2.907-13.568,17.548Z" fill="#5e98ff"/>
        <path id="Trazado_7946" data-name="Trazado 7946" d="M278.231,262.687l-8.7-8.7,1.488-1.488,7.006,7L288.4,246.087l1.666,1.288Z" fill="#5e98ff"/>
        <path id="Trazado_7947" data-name="Trazado 7947" d="M361.163,42.165h30.7v30.7h-30.7Zm26.391,4.309H365.473V68.555h22.081Z" fill="#5e98ff"/>
        <path id="Trazado_7948" data-name="Trazado 7948" d="M390.664,71.665h-28.3v-28.3h28.3Zm-26.39-1.909h24.48V45.275h-24.48Z" fill="#5e98ff"/>
        <path id="Trazado_7949" data-name="Trazado 7949" d="M365.546,56.816l3.048-3.047L374.83,60l9.308-12.038,3.409,2.636-12.3,15.91Z" fill="#5e98ff"/>
        <path id="Trazado_7950" data-name="Trazado 7950" d="M375.129,64.7l-7.884-7.884,1.349-1.35,6.353,6.35,9.406-12.168,1.511,1.168Z" fill="#5e98ff"/>
        <path id="Trazado_7951" data-name="Trazado 7951" d="M275.4,46.664A3.465,3.465,0,0,1,271.824,50h-63.68a3.346,3.346,0,1,1,0-6.675h63.68a3.465,3.465,0,0,1,3.581,3.337" fill="#5e98ff"/>
        <path id="Trazado_7952" data-name="Trazado 7952" d="M327.679,56.176a2.323,2.323,0,0,1-2.4,2.239H207.16a2.244,2.244,0,1,1,0-4.478H325.278a2.324,2.324,0,0,1,2.4,2.239" fill="#bcbcbc"/>
        <path id="Trazado_7953" data-name="Trazado 7953" d="M327.679,64.029a2.324,2.324,0,0,1-2.4,2.239H207.16a2.244,2.244,0,1,1,0-4.478H325.278a2.324,2.324,0,0,1,2.4,2.239" fill="#bcbcbc"/>
        <path id="Trazado_7954" data-name="Trazado 7954" d="M246.514,71.815a2.325,2.325,0,0,1-2.4,2.239H207.16a2.244,2.244,0,1,1,0-4.478h36.953a2.325,2.325,0,0,1,2.4,2.239" fill="#bcbcbc"/>
        <path id="Trazado_7955" data-name="Trazado 7955" d="M272.017,284.083h0a13.874,13.874,0,1,0-13.873,13.876,13.875,13.875,0,0,0,13.873-13.876" fill="#fff"/>
        <g id="Grupo_8873" data-name="Grupo 8873" style="mix-blend-mode: multiply;isolation: isolate">
          <g id="Grupo_8872" data-name="Grupo 8872">
            <g id="Grupo_8871" data-name="Grupo 8871" clip-path="url(#clip-path-16)">
              <path id="Trazado_7956" data-name="Trazado 7956" d="M462.521,293V274.027s-.808,8.96-24.14,8.96l-171.194,4.48s1.32,8.882-9.044,10.491Z" fill="#ccd9f2"/>
            </g>
          </g>
        </g>
        <path id="Trazado_7957" data-name="Trazado 7957" d="M440.787,283.929H413.055c0,.052-.008.1-.008.153H272.017a13.877,13.877,0,0,1-13.873,13.875H462.522a13.876,13.876,0,0,0,13.873-13.876c0-.051-35.608-.1-35.608-.153" fill="#7189ad"/>
        <g id="Grupo_8876" data-name="Grupo 8876" style="mix-blend-mode: multiply;isolation: isolate">
          <g id="Grupo_8875" data-name="Grupo 8875">
            <g id="Grupo_8874" data-name="Grupo 8874" clip-path="url(#clip-path-17)">
              <path id="Trazado_7958" data-name="Trazado 7958" d="M386.979,221.373l8.976-.46-1.126-2.033-10.9-1.08,0,.031-.931-.092,3.656,3.634h.327" fill="#bec3ce"/>
              <path id="Trazado_7959" data-name="Trazado 7959" d="M403,219.689l.471.668,2.083-.415Z" fill="#bec3ce"/>
              <path id="Trazado_7960" data-name="Trazado 7960" d="M441.421,225.4a6.7,6.7,0,0,0-1.091-2.009l22.414,2.221v-22.9L431.367,199.6c.01-.093.02-.168.028-.213a3.591,3.591,0,0,0,.053-.548,4,4,0,0,0-.02-.546l.118-.068c-.317-8.057-7.416-5.329-9.821-8.214a.322.322,0,0,0-.1-.09c-.01-.005-.017,0-.026,0a.06.06,0,0,0-.048.008.087.087,0,0,0-.021.025.256.256,0,0,0-.03.064c0,.015-.009.03-.013.048a1.089,1.089,0,0,0-.019.122l-.006.051c-.015.177-.019.411-.027.664,0,.021,0,.042,0,.064l-.031-.006a4.252,4.252,0,0,1-.414-.1,2.909,2.909,0,0,1-1.246-.72c-1.15-1.118-3.085-.916-3.406.092a1.943,1.943,0,0,0,.281,1.55,4.334,4.334,0,0,0-2.528,3.088,3.781,3.781,0,0,0,.063,1.711.674.674,0,0,0-.133.258c-.1.333-.176.677-.243,1.024l-27.586-2.733-.076.767.073-.738-64.7-6.411-18.207,6.774a2.906,2.906,0,0,0-.4-.081l-15.4-.544c-.686,0-1.128,1.524-1.137,1.806a8.632,8.632,0,0,0,.631,1.981l15.339,2.515a2.7,2.7,0,0,0,.392,0l16.532,10.228v0l51.457,5.1,7.3,8.6c1.214,2.064,5.361,6.948,8.378,5.975.3-.01.615-.027,1.03-.054l11.179-.078a13.237,13.237,0,0,1,2.812.025c.843,1.894,2.631,4.719,4.786,5.753l2.083,30.143c.178,2.226.465,8.3.465,8.3a.169.169,0,0,0,.071.069.445.445,0,0,0,.044.02.67.67,0,0,0,.091.035c.022.006.051.011.076.017s.074.016.118.022.071.008.106.012l.144.013.134.006.169,0h.159l.191,0,.187-.007.121,0-4.138,21.7h14.13l2.9-5.564,1.535,5.564h15.151l-2.715-20.23h.016l.08-.449c1.394-.1.753-7.706.988-9.07Zm-54.443-4.024c-.109,0-.22,0-.327,0L383,217.738l.93.093,0-.031,10.9,1.079,1.126,2.033Zm16.495-1.014-.471-.669,2.554.253c-.758.151-1.489.3-2.083.416m10.481,7.838a14.277,14.277,0,0,1-1.152-1.976c-.2-.5,1.407-2.469,1.407-2.469a9.457,9.457,0,0,1-2.051-1.052c-.474-.7.748-3.3.748-3.3a3.839,3.839,0,0,1,3.192-2.032l.308,1.272,0,.217.075.1c.519,2.137,1.267,5.2,2.079,8.5Zm9.761,18.416c.048,2.692.131,7.047.217,11.381a.489.489,0,0,0,.01.52c.121,6.121.247,12.066.291,13.071-.137-1.913-1.7-24.547-1.737-24.706a53.314,53.314,0,0,0-3.1-8.966l1.76-.018c1.125,4.458,2,7.8,2.087,7.752,0,0,.794-3.352,1.848-7.794l1.993-.021c-1.071,2.505-2.212,5.415-3.369,8.781m10.2-24.791a9.452,9.452,0,0,1-2.05,1.052s1.6,1.966,1.406,2.469a13.984,13.984,0,0,1-.658,1.319,5.722,5.722,0,0,0-2.45-1.065l-2.243.36c.662-2.782,1.262-5.3,1.7-7.1l0,0v-.006c.136-.569.258-1.073.357-1.483a5.362,5.362,0,0,1,2.72,1.593s1.7,2.165,1.221,2.863" fill="#bec3ce"/>
              <path id="Trazado_7961" data-name="Trazado 7961" d="M424.233,271.584c.005.056.007.089.007.089" fill="#bec3ce"/>
              <path id="Trazado_7962" data-name="Trazado 7962" d="M416.483,218.953l-.075-.1,0-.217-.308-1.272a3.836,3.836,0,0,0-3.192,2.032s-1.222,2.6-.748,3.3a9.446,9.446,0,0,0,2.051,1.051s-1.6,1.967-1.408,2.47a14.443,14.443,0,0,0,1.152,1.976l4.609-.74c-.812-3.3-1.56-6.368-2.079-8.5" fill="#bec3ce"/>
              <path id="Trazado_7963" data-name="Trazado 7963" d="M433.913,221.821c.474-.7-1.221-2.863-1.221-2.863a5.362,5.362,0,0,0-2.72-1.593c-.1.41-.221.914-.357,1.483v.006l0,0c-.433,1.8-1.033,4.317-1.7,7.1l2.243-.36a5.722,5.722,0,0,1,2.45,1.065,13.984,13.984,0,0,0,.658-1.319c.2-.5-1.406-2.469-1.406-2.469a9.452,9.452,0,0,0,2.05-1.052" fill="#bec3ce"/>
              <path id="Trazado_7964" data-name="Trazado 7964" d="M419.4,237.912a53.314,53.314,0,0,1,3.1,8.966c.039.159,1.6,22.793,1.736,24.706-.043-1.005-.169-6.95-.29-13.071a.528.528,0,0,1-.08-.267.535.535,0,0,1,.069-.253c-.085-4.334-.168-8.689-.217-11.381,1.158-3.366,2.3-6.276,3.37-8.782l-1.993.021c-1.054,4.443-1.848,7.795-1.848,7.795-.085.052-.962-3.295-2.087-7.753Z" fill="#bec3ce"/>
            </g>
          </g>
        </g>
        <g id="Grupo_8879" data-name="Grupo 8879" style="mix-blend-mode: multiply;isolation: isolate">
          <g id="Grupo_8878" data-name="Grupo 8878">
            <g id="Grupo_8877" data-name="Grupo 8877" clip-path="url(#clip-path-18)">
              <path id="Trazado_7965" data-name="Trazado 7965" d="M161.618,25.79a12.929,12.929,0,0,0-1.675-.111c-2.026,0-1.22.041,1.675.111" fill="#aacaf9"/>
            </g>
          </g>
        </g>
        <path id="Trazado_7966" data-name="Trazado 7966" d="M525.621,336.619c2.168,4.5,6.865,8.422,10.305,5.669,3.247-2.6,2.99-10.088.614-14.4-5.592-10.162-16.466-10.9-16.466-10.9,2.672,5.543,3.379,15.138,5.547,19.637" fill="#ffd4b3"/>
        <g id="Grupo_8882" data-name="Grupo 8882" style="mix-blend-mode: multiply;isolation: isolate">
          <g id="Grupo_8881" data-name="Grupo 8881">
            <g id="Grupo_8880" data-name="Grupo 8880" clip-path="url(#clip-path-19)">
              <path id="Trazado_7967" data-name="Trazado 7967" d="M535.926,342.288c3.248-2.6,2.99-10.088.615-14.4-5.593-10.162-16.467-10.9-16.467-10.9,13.92,11.472,15.852,25.306,15.852,25.306" fill="#ffd4b3"/>
            </g>
          </g>
        </g>
        <g id="Grupo_8885" data-name="Grupo 8885" style="mix-blend-mode: multiply;isolation: isolate">
          <g id="Grupo_8884" data-name="Grupo 8884">
            <g id="Grupo_8883" data-name="Grupo 8883" clip-path="url(#clip-path-20)">
              <path id="Trazado_7968" data-name="Trazado 7968" d="M535.482,339.74s-.1-.344-.285-.966c-.088-.312-.2-.691-.357-1.117s-.306-.927-.525-1.446l-.327-.825c-.117-.284-.253-.57-.385-.87-.258-.608-.58-1.218-.9-1.873-.677-1.28-1.472-2.635-2.366-3.985a73.475,73.475,0,0,0-4.927-6.452l-2.154-2.512s.869.877,2.233,2.375a54.891,54.891,0,0,1,5.033,6.351,40.2,40.2,0,0,1,2.356,4.055c.316.671.629,1.3.876,1.919.127.309.257.6.368.894s.211.576.309.845c.2.533.347,1.043.485,1.481s.243.823.32,1.142c.16.633.248.984.248.984" fill="#ffd4b3"/>
            </g>
          </g>
        </g>
        <path id="Trazado_7969" data-name="Trazado 7969" d="M531.312,330.747c.413,9.687,4.481,19.342,10.53,15.464,5.711-3.661,9.457-18.348,8.671-27.771-1.85-22.181-15.822-28.294-15.822-28.294.509,11.935-3.791,30.913-3.379,40.6" fill="#ffd4b3"/>
        <path id="Trazado_7970" data-name="Trazado 7970" d="M555.753,336.343c-2.951,4.028-8.283,7.031-11.165,3.7-2.72-3.146-1.1-10.464,2.019-14.276,7.349-8.974,18.175-7.721,18.175-7.721-3.636,4.964-6.078,14.27-9.029,18.3" fill="#ffd4b3"/>
        <g id="Grupo_8888" data-name="Grupo 8888" style="mix-blend-mode: multiply;isolation: isolate">
          <g id="Grupo_8887" data-name="Grupo 8887">
            <g id="Grupo_8886" data-name="Grupo 8886" clip-path="url(#clip-path-21)">
              <path id="Trazado_7971" data-name="Trazado 7971" d="M544.588,340.041c-2.72-3.146-1.1-10.464,2.019-14.276,7.349-8.974,18.175-7.721,18.175-7.721-15.776,8.746-20.194,22-20.194,22" fill="#ffd4b3"/>
            </g>
          </g>
        </g>
        <g id="Grupo_8891" data-name="Grupo 8891" style="mix-blend-mode: multiply;isolation: isolate">
          <g id="Grupo_8890" data-name="Grupo 8890">
            <g id="Grupo_8889" data-name="Grupo 8889" clip-path="url(#clip-path-22)">
              <path id="Trazado_7972" data-name="Trazado 7972" d="M545.489,337.616l.456-.9c.144-.292.324-.644.554-1.035s.47-.855.78-1.326q.227-.359.472-.751c.166-.259.352-.514.537-.785.364-.552.792-1.092,1.228-1.678.9-1.136,1.927-2.323,3.052-3.488a73.491,73.491,0,0,1,6.02-5.447l2.575-2.078s-1.015.7-2.629,1.929a55.1,55.1,0,0,0-6.1,5.329,40.139,40.139,0,0,0-3.055,3.558c-.432.6-.854,1.159-1.211,1.728-.181.28-.362.544-.525.811s-.311.528-.457.775c-.3.487-.531.962-.747,1.368s-.388.765-.522,1.065l-.423.922" fill="#ffd4b3"/>
            </g>
          </g>
        </g>
        <path id="Trazado_7973" data-name="Trazado 7973" d="M541.842,346.211c5.711-3.661,9.457-18.348,8.67-27.771-1.849-22.181-15.821-28.294-15.821-28.294,12.144,28.31,7.151,56.065,7.151,56.065" fill="#ffd4b3"/>
        <g id="Grupo_8894" data-name="Grupo 8894" style="mix-blend-mode: multiply;isolation: isolate">
          <g id="Grupo_8893" data-name="Grupo 8893">
            <g id="Grupo_8892" data-name="Grupo 8892" clip-path="url(#clip-path-23)">
              <path id="Trazado_7974" data-name="Trazado 7974" d="M541.842,346.211c5.711-3.661,9.457-18.348,8.67-27.771-1.849-22.181-15.821-28.294-15.821-28.294,12.144,28.31,7.151,56.065,7.151,56.065" fill="#ffd4b3"/>
            </g>
          </g>
        </g>
        <g id="Grupo_8897" data-name="Grupo 8897" style="mix-blend-mode: multiply;isolation: isolate">
          <g id="Grupo_8896" data-name="Grupo 8896">
            <g id="Grupo_8895" data-name="Grupo 8895" clip-path="url(#clip-path-24)">
              <path id="Trazado_7975" data-name="Trazado 7975" d="M542.646,341.06s.053-.713.15-2c.054-.646.111-1.432.138-2.329s.1-1.934.094-3.039c.006-.556.012-1.139.018-1.746s-.024-1.217-.035-1.859c-.009-1.295-.1-2.619-.171-4.032-.2-2.784-.508-5.761-.954-8.774-.912-6.008-2.107-11.056-2.993-14.676-.913-3.591-1.477-5.814-1.477-5.814s.67,2.082,1.656,5.582a120.552,120.552,0,0,1,3.189,14.525c.45,3.037.742,6.068.9,8.9.052,1.441.124,2.792.111,4.113,0,.656.012,1.281,0,1.9s-.037,1.212-.054,1.779c-.019,1.125-.11,2.178-.166,3.09s-.128,1.706-.2,2.36c-.135,1.3-.209,2.022-.209,2.022" fill="#ffd4b3"/>
            </g>
          </g>
        </g>
        <path id="Trazado_7976" data-name="Trazado 7976" d="M562.04,348.654c-.09-3.935.956-6.344-3.766-7.309-1.394-.285-3.376,1.5-6.369.188-4.264-4.251-4.255-7.324-8.753-7.324-5.219,0-8.373,5.207-8.373,11.18a12.442,12.442,0,0,0,.055,3.265Z" fill="#0086ff"/>
        <g id="Grupo_8902" data-name="Grupo 8902" style="mix-blend-mode: multiply;isolation: isolate">
          <g id="Grupo_8901" data-name="Grupo 8901">
            <g id="Grupo_8900" data-name="Grupo 8900" clip-path="url(#clip-path-25)">
              <g id="Grupo_8899" data-name="Grupo 8899">
                <g id="Grupo_8898" data-name="Grupo 8898" clip-path="url(#clip-path-26)">
                  <rect id="Rectángulo_5853" data-name="Rectángulo 5853" width="137.199" height="8.016" transform="translate(373.09 335.35)" fill="url(#linear-gradient-2)"/>
                </g>
              </g>
            </g>
          </g>
        </g>
        <path id="Trazado_7978" data-name="Trazado 7978" d="M393.489,293.872c-.17,3.364,2.028,1.09,4.395,1.744l1.548,4.244c2.366.653,4.041-5.4,4.949-8.45l15.76-30.766c.906-3.051-2.741-8.619-5.109-9.273l-4.576,1.974c-2.365-.654-8.953.207-9.861,3.261Z" fill="#0f3871"/>
        <path id="Trazado_7979" data-name="Trazado 7979" d="M392.831,338.888l3.59.114.295-5.582-3.588-.113Z" fill="#fdc8a8"/>
        <g id="Grupo_8905" data-name="Grupo 8905" style="mix-blend-mode: multiply;isolation: isolate">
          <g id="Grupo_8904" data-name="Grupo 8904">
            <g id="Grupo_8903" data-name="Grupo 8903" clip-path="url(#clip-path-27)">
              <path id="Trazado_7980" data-name="Trazado 7980" d="M396.715,333.42l-.1,1.94a1.4,1.4,0,0,0-.671-.069c-.941.132-1.765.241-2.092,1.205a2.954,2.954,0,0,0,.263,1.7c.076.245.153.489.223.737l-1.506-.049.3-5.581Z" fill="#fdc8a8"/>
            </g>
          </g>
        </g>
        <path id="Trazado_7981" data-name="Trazado 7981" d="M380.887,341.934c-.05-.059-.034-.221-.044-.661-.012-.621,4.3-1.691,6.958-2.279a5.388,5.388,0,0,0,1.922-.831c.331-.341.112-.306.356-.211.746.284,1.347-.105,1.953-.122l-.021,4.669c-3.641.105-9.232.221-10.419.248-.735.019-.731-.281-.739-.652a.578.578,0,0,1,.034-.161" fill="#0f3871"/>
        <g id="Grupo_8908" data-name="Grupo 8908" style="mix-blend-mode: multiply;isolation: isolate">
          <g id="Grupo_8907" data-name="Grupo 8907">
            <g id="Grupo_8906" data-name="Grupo 8906" clip-path="url(#clip-path-28)">
              <path id="Trazado_7982" data-name="Trazado 7982" d="M380.887,341.934c-.05-.059-.034-.221-.044-.661-.012-.621,4.3-1.691,6.958-2.279a5.388,5.388,0,0,0,1.922-.831c.331-.341.112-.306.356-.211.746.284,1.22-.1,1.953-.122l-.021,4.669c-3.641.105-9.232.221-10.419.248-.735.019-.731-.281-.739-.652a.578.578,0,0,1,.034-.161" fill="#c591a5"/>
            </g>
          </g>
        </g>
        <path id="Trazado_7983" data-name="Trazado 7983" d="M392.016,341.637l-.007.862c-3.642.105-9.232.219-10.418.248-.736.019-.73-.28-.738-.652a.658.658,0,0,1,.029-.144Z" fill="#0f3871"/>
        <g id="Grupo_8911" data-name="Grupo 8911" style="mix-blend-mode: multiply;isolation: isolate">
          <g id="Grupo_8910" data-name="Grupo 8910">
            <g id="Grupo_8909" data-name="Grupo 8909" clip-path="url(#clip-path-29)">
              <path id="Trazado_7984" data-name="Trazado 7984" d="M392.014,341.677l0,.822c-3.641.105-9.232.221-10.419.248-.734.019-.731-.28-.739-.652a.447.447,0,0,1,.024-.105Z" fill="#db967f"/>
            </g>
          </g>
        </g>
        <path id="Trazado_7985" data-name="Trazado 7985" d="M382.936,342.035c0,.373,0,.672.735.655,1.747-.043,13.047-.27,13.607-.384.309-.065.723-.322.715-.694a.691.691,0,0,0-.736-.654l-13.607.383a.71.71,0,0,0-.714.694" fill="#0f3871"/>
        <path id="Trazado_7986" data-name="Trazado 7986" d="M397.99,341.34c.028.238-4.638.3-14.857.569-.243.005-.2,0-.213-.694-.007-.624,4.3-1.693,6.958-2.279a5.359,5.359,0,0,0,1.921-.832c.335-.34.115-.3.358-.211,4.648,1.77,4.3-.658,5.048-.4.889.312.734,3.432.785,3.845" fill="#0f3871"/>
        <path id="Trazado_7987" data-name="Trazado 7987" d="M391.474,339.624c.021.042.1.05.172.02s.112-.1.087-.14l-.574-1.12c-.021-.045-.1-.055-.171-.023s-.112.1-.087.143Z" fill="#0f3871"/>
        <path id="Trazado_7988" data-name="Trazado 7988" d="M390.4,339.674c.013.035.085.045.16.02s.125-.076.113-.115l-.352-.924c-.011-.037-.085-.046-.161-.022s-.123.078-.109.114Z" fill="#0f3871"/>
        <path id="Trazado_7989" data-name="Trazado 7989" d="M389.479,339.523c.006.022.073.022.15,0s.131-.061.126-.084l-.2-.585c-.005-.024-.076-.025-.152,0s-.131.059-.125.085Z" fill="#0f3871"/>
        <path id="Trazado_7990" data-name="Trazado 7990" d="M398.286,289.636l1.123-.026c2.48-.064,3.817,1.605,3.636,5.111l-5.4,36.992-.534,3.09-4.81-.743,1.015-38.9c.181-3.505,2.491-5.469,4.973-5.528" fill="#0f3871"/>
        <g id="Grupo_8914" data-name="Grupo 8914" style="mix-blend-mode: multiply;isolation: isolate">
          <g id="Grupo_8913" data-name="Grupo 8913">
            <g id="Grupo_8912" data-name="Grupo 8912" clip-path="url(#clip-path-30)">
              <path id="Trazado_7991" data-name="Trazado 7991" d="M412.09,261.256l2.1,11.333-9.8,18.82c-.368,1.241-.866,2.974-1.485,4.556-.035-1.508,2.942-12.36,6.209-20.907,2.812-7.356,1.742-13,2.985-13.8" fill="#f48baa"/>
            </g>
          </g>
        </g>
        <path id="Trazado_7992" data-name="Trazado 7992" d="M419.258,296.827c.6,3.144,4.978-.4,7.565-.873l1.172-.215c2.586-.471,3.637-3.32,3.04-6.466L426.678,256.8c-.6-3.142-2.078-8.7-4.667-8.227l-3.443,3.819c-2.583.471-9.494,6.191-8.9,9.336Z" fill="#0f3871"/>
        <path id="Trazado_7993" data-name="Trazado 7993" d="M433.6,337.646l3.56-.5-.719-5.535-3.561.5Z" fill="#fdc8a8"/>
        <g id="Grupo_8917" data-name="Grupo 8917" style="mix-blend-mode: multiply;isolation: isolate">
          <g id="Grupo_8916" data-name="Grupo 8916">
            <g id="Grupo_8915" data-name="Grupo 8915" clip-path="url(#clip-path-31)">
              <path id="Trazado_7994" data-name="Trazado 7994" d="M436.443,331.611l.25,1.922a1.44,1.44,0,0,0-.676.048c-.9.289-1.694.539-1.844,1.541a2.964,2.964,0,0,0,.569,1.629c.121.228.241.454.354.686l-1.494.209-.72-5.537Z" fill="#fdc8a8"/>
            </g>
          </g>
        </g>
        <path id="Trazado_7995" data-name="Trazado 7995" d="M424.635,340.846a2.285,2.285,0,0,1-.108-.654c-.075-.616,3.462-1.8,5.657-2.463a3.911,3.911,0,0,0,1.54-.881c.243-.347.063-.3.278-.22.665.261,1.133-.144,1.645-.178l.486,4.63c-3.079.213-7.808.49-8.811.552-.623.039-.652-.256-.7-.625a.661.661,0,0,1,.009-.161" fill="#0f3871"/>
        <g id="Grupo_8920" data-name="Grupo 8920" style="mix-blend-mode: multiply;isolation: isolate">
          <g id="Grupo_8919" data-name="Grupo 8919">
            <g id="Grupo_8918" data-name="Grupo 8918" clip-path="url(#clip-path-32)">
              <path id="Trazado_7996" data-name="Trazado 7996" d="M424.635,340.846a2.285,2.285,0,0,1-.108-.654c-.075-.616,3.462-1.8,5.657-2.463a3.911,3.911,0,0,0,1.54-.881c.243-.347.063-.3.278-.22.665.261,1.025-.136,1.645-.178l.486,4.63c-3.079.213-7.808.49-8.811.552-.623.039-.652-.256-.7-.625a.661.661,0,0,1,.009-.161" fill="#c591a5"/>
            </g>
          </g>
        </g>
        <path id="Trazado_7997" data-name="Trazado 7997" d="M434.042,340.226l.089.853c-3.078.213-7.806.49-8.809.553-.622.038-.651-.257-.7-.625a.531.531,0,0,1,.01-.145Z" fill="#0f3871"/>
        <g id="Grupo_8923" data-name="Grupo 8923" style="mix-blend-mode: multiply;isolation: isolate">
          <g id="Grupo_8922" data-name="Grupo 8922">
            <g id="Grupo_8921" data-name="Grupo 8921" clip-path="url(#clip-path-33)">
              <path id="Trazado_7998" data-name="Trazado 7998" d="M434.047,340.267l.085.813c-3.078.212-7.807.489-8.81.552-.623.038-.652-.257-.7-.625a.357.357,0,0,1,.007-.1Z" fill="#db967f"/>
            </g>
          </g>
        </g>
        <path id="Trazado_7999" data-name="Trazado 7999" d="M427.543,340.8c.046.37.072.668.6.635,1.259-.073,9.409-.5,9.8-.625a.668.668,0,0,0,.445-.7.656.656,0,0,0-.6-.635l-9.8.626a.573.573,0,0,0-.444.7" fill="#0f3871"/>
        <path id="Trazado_8000" data-name="Trazado 8000" d="M438.362,339.845c.047.236-3.323.38-10.689.831-.174.01-.143,0-.224-.685-.075-.616,2.929-1.756,4.79-2.387a3.086,3.086,0,0,0,1.3-.858c.205-.345.051-.3.236-.218,3.552,1.676,3.041-.729,3.61-.484.676.295.894,3.391.974,3.8" fill="#0f3871"/>
        <path id="Trazado_8001" data-name="Trazado 8001" d="M433.467,338.26a.084.084,0,0,0,.126.017.123.123,0,0,0,.05-.142l-.534-1.1a.084.084,0,0,0-.127-.021.123.123,0,0,0-.05.143Z" fill="#0f3871"/>
        <path id="Trazado_8002" data-name="Trazado 8002" d="M432.41,338.47c.014.036.066.043.118.017s.083-.078.067-.113l-.35-.913c-.012-.036-.066-.046-.118-.018s-.082.078-.068.115Z" fill="#0f3871"/>
        <path id="Trazado_8003" data-name="Trazado 8003" d="M431.511,338.618c.008.023.056.023.108,0s.092-.062.084-.084l-.2-.578c-.006-.023-.059-.023-.11,0s-.089.061-.083.085Z" fill="#0f3871"/>
        <path id="Trazado_8004" data-name="Trazado 8004" d="M433.019,337.163a.083.083,0,0,0,.092-.093.145.145,0,0,0-.122-.11l-1.474-.118a.08.08,0,0,0-.094.09.137.137,0,0,0,.122.111Z" fill="#0f3871"/>
        <path id="Trazado_8005" data-name="Trazado 8005" d="M432.163,337.617a.077.077,0,0,0,.086-.088.115.115,0,0,0-.1-.109l-1.267-.137a.082.082,0,0,0-.087.09.117.117,0,0,0,.1.107Z" fill="#0f3871"/>
        <path id="Trazado_8006" data-name="Trazado 8006" d="M431.411,338.087a.078.078,0,0,0,.1-.073.113.113,0,0,0-.079-.122l-1.227-.311a.083.083,0,0,0-.1.076.113.113,0,0,0,.079.12Z" fill="#0f3871"/>
        <path id="Trazado_8007" data-name="Trazado 8007" d="M425.162,289.466l1.146-.341c2.525-.762,4.374.46,5.191,3.873l5.032,37.01.336,3.117-5.147.646-12.462-36.944c-.815-3.412,3.376-6.6,5.9-7.361" fill="#0f3871"/>
        <g id="Grupo_8926" data-name="Grupo 8926" style="mix-blend-mode: multiply;isolation: isolate">
          <g id="Grupo_8925" data-name="Grupo 8925">
            <g id="Grupo_8924" data-name="Grupo 8924" clip-path="url(#clip-path-34)">
              <path id="Trazado_8008" data-name="Trazado 8008" d="M410.276,263.914c.279.074,8.385,23.537,8.941,25.818.912,3.732,11.825,38.049,13.791,43.877l-1.289.161-11.632-34.936a12.523,12.523,0,0,1-.83-2.007l-7.241-26.239Z" fill="#f48baa"/>
            </g>
          </g>
        </g>
        <g id="Grupo_8929" data-name="Grupo 8929" style="mix-blend-mode: multiply;isolation: isolate">
          <g id="Grupo_8928" data-name="Grupo 8928">
            <g id="Grupo_8927" data-name="Grupo 8927" clip-path="url(#clip-path-35)">
              <path id="Trazado_8009" data-name="Trazado 8009" d="M393.313,295.164a7.628,7.628,0,0,1,.177-1.286v-.006l7.105-37.266c.908-3.054,7.5-3.915,9.861-3.261l4.576-1.974a3.069,3.069,0,0,1,1.793,2.005,10.414,10.414,0,0,1,3.6-.721l1.19.051c1.814.082,4.611,4.174,5.682,6.219l-.185,1.027s-8.751.318-14.054-2.242c0,0-.262.766-5.739,2.157-3.708.943-10.038,30.791-10.573,33.758-2.033,11.29-2.192,30.742-2.269,40.608l-2.183-.173Z" fill="#f48baa"/>
            </g>
          </g>
        </g>
        <path id="Trazado_8010" data-name="Trazado 8010" d="M358.44,183.975c1.353-5.786-5.912-4.773-6.229-.993-.118,1.4,3.6,9.325,3.6,9.325l4.615-1.178s-2.417-5.327-1.99-7.154" fill="#fdc8a8"/>
        <path id="Trazado_8011" data-name="Trazado 8011" d="M360.638,188.665l19.544,19.427a8.062,8.062,0,0,0-2.738,5.361c-2.989,3.134-8.169-2.872-9.55-5.221l-13.058-15.38c-.521-.9,2.3-3.538,4.348-4.48,1.366-.626,1.454.293,1.454.293" fill="#0f3871"/>
        <path id="Trazado_8012" data-name="Trazado 8012" d="M381.7,204.286l10.585-.587c3.157-.4,11.578-3.076,14.3-1.222l-5.51,16.383c-2.1-3.957-9.644-5.159-12.6-4.785l-11.179.077c-1.023.069-1.438.072-2.528.059l-.911-9.738a76.983,76.983,0,0,0,7.837-.187" fill="#0f3871"/>
        <g id="Grupo_8932" data-name="Grupo 8932" style="mix-blend-mode: multiply;isolation: isolate">
          <g id="Grupo_8931" data-name="Grupo 8931">
            <g id="Grupo_8930" data-name="Grupo 8930" clip-path="url(#clip-path-36)">
              <path id="Trazado_8013" data-name="Trazado 8013" d="M392.024,204.854c-6.451.339-13.8,1.562-15.643.589-1.976-1.045-7.076-8.1-7.1-8.188l7.29,7.249,15.715-.8c.852-.188,3.769-.748,5.661-1.146,6.7-1.409,8.332-.219,8.332-.219,1.239,1.535-12.094,2.406-14.255,2.52" fill="#f48baa"/>
            </g>
          </g>
        </g>
        <path id="Trazado_8014" data-name="Trazado 8014" d="M482.7,211.24c2.305.23,4.312-1.013,4.5-2.773l1.515-15.273c.166-1.765-1.555-3.38-3.866-3.6l-15.54-1.553c-2.3-.226-4.312,1.029-4.483,2.8l-1.521,15.248c-.191,1.768,1.557,3.378,3.857,3.61Z" fill="#5e98ff"/>
        <path id="Trazado_8015" data-name="Trazado 8015" d="M373.835,200.915l82.25,8.149,2.232-22.68-82.225-8.149Z" fill="#ffd4b3"/>
        <rect id="Rectángulo_5865" data-name="Rectángulo 5865" width="22.794" height="65.012" transform="translate(309.142 194.537) rotate(-84.341)" fill="#ffd4b3"/>
        <rect id="Rectángulo_5866" data-name="Rectángulo 5866" width="6.701" height="65.012" transform="translate(310.731 178.522) rotate(-84.341)" fill="#ffe2cf"/>
        <path id="Trazado_8016" data-name="Trazado 8016" d="M375.429,184.9l82.238,8.15.651-6.671-82.225-8.148Z" fill="#ffe2cf"/>
        <g id="Grupo_8935" data-name="Grupo 8935" style="mix-blend-mode: multiply;isolation: isolate">
          <g id="Grupo_8934" data-name="Grupo 8934">
            <g id="Grupo_8933" data-name="Grupo 8933" clip-path="url(#clip-path-37)">
              <rect id="Rectángulo_5867" data-name="Rectángulo 5867" width="6.977" height="82.656" transform="translate(373.837 200.899) rotate(-84.319)" fill="#e5a67c"/>
            </g>
          </g>
        </g>
        <g id="Grupo_8938" data-name="Grupo 8938" style="mix-blend-mode: multiply;isolation: isolate">
          <g id="Grupo_8937" data-name="Grupo 8937">
            <g id="Grupo_8936" data-name="Grupo 8936" clip-path="url(#clip-path-38)">
              <rect id="Rectángulo_5869" data-name="Rectángulo 5869" width="6.988" height="65.006" transform="matrix(0.099, -0.995, 0.995, 0.099, 309.144, 194.535)" fill="#e5a67c"/>
            </g>
          </g>
        </g>
        <path id="Trazado_8017" data-name="Trazado 8017" d="M287.094,180.894l24.3-9.041-2.251,22.682Z" fill="#e5caa3"/>
        <path id="Trazado_8018" data-name="Trazado 8018" d="M287.094,180.894l24.3-9.041-.662,6.668Z" fill="#fff"/>
        <path id="Trazado_8019" data-name="Trazado 8019" d="M309.829,187.583l-22.735-6.688,23.637-2.373" fill="#f9ecd7"/>
        <path id="Trazado_8020" data-name="Trazado 8020" d="M459.27,211.85a3.33,3.33,0,0,0,3.743-2.855l2.1-21.083a3.452,3.452,0,0,0-6.853-.679l-2.094,21.082a3.326,3.326,0,0,0,3.107,3.535" fill="#f2ebdd"/>
        <path id="Trazado_8021" data-name="Trazado 8021" d="M466.124,212.536a3.339,3.339,0,0,0,3.745-2.861l2.1-21.074a3.455,3.455,0,0,0-6.858-.69l-2.1,21.084a3.344,3.344,0,0,0,3.111,3.541" fill="#f2ebdd"/>
        <path id="Trazado_8022" data-name="Trazado 8022" d="M276.876,181.789a8.638,8.638,0,0,1-.631-1.98c.009-.282.451-1.809,1.136-1.806l15.4.544a2.893,2.893,0,0,1-.569,5.758Z" fill="#283042"/>
        <path id="Trazado_8023" data-name="Trazado 8023" d="M406.043,202.087l-.946,14.938,7.769,12.639,6.876-12.639V201.648Z" fill="#f2ebdd"/>
        <path id="Trazado_8024" data-name="Trazado 8024" d="M419.128,201.394h0a19.558,19.558,0,0,1,1.566,7.433c.03,1.69-7.829,20.838-7.829,20.838-1.055.2-2.272-9-3.067-9.508-1.644-1.057-.639-5.782-2.012-7.15-2.814-2.8-1.17-7.9-1.975-11.613-7.7.463-8.035,1.68-8.961,2.918a6.243,6.243,0,0,0-1.513,4.794L398.161,250c.178,2.226.466,8.3.466,8.3.4.86,13.091-1.2,15.518-3.506,0,0,1.441,3.506,12.986,4.73,1.486.156.814-7.7,1.053-9.086l3.143-41.921c-1.383-4.3-7.916-7.118-12.2-7.118" fill="#0f3871"/>
        <g id="Grupo_8941" data-name="Grupo 8941" style="mix-blend-mode: multiply;isolation: isolate">
          <g id="Grupo_8940" data-name="Grupo 8940">
            <g id="Grupo_8939" data-name="Grupo 8939" clip-path="url(#clip-path-39)">
              <path id="Trazado_8025" data-name="Trazado 8025" d="M397.393,203.71c1-1.016,1-1.674,8.418-2.317a11.343,11.343,0,0,1,.189,1.326c-.653.467-2,.07-2.825.174-2.639.334-5.452.081-5.278,3.205.233,4.226-.079,13.724.33,17.915.8,8.224,2.215,24.71,2.27,26.5.048,1.606.088,3.734,1.458,4.815,2.45,1.936,10.631-.491,11.6-.1-3.415,2.122-14.552,3.871-14.93,3.066,0,0-.288-6.073-.466-8.3l-2.824-40.889c0-2.8.661-3.986,2.056-5.4" fill="#f48baa"/>
            </g>
          </g>
        </g>
        <path id="Trazado_8026" data-name="Trazado 8026" d="M414.139,254.7c.005.056.007.089.007.089s0-.037-.007-.089" fill="#fdc8a8"/>
        <path id="Trazado_8027" data-name="Trazado 8027" d="M402.812,202.513A3.836,3.836,0,0,1,406,200.481c1.433,5.923,6.925,28.415,7.145,28.281,0,0,5.344-22.562,6.729-28.281a5.364,5.364,0,0,1,2.719,1.592s1.7,2.166,1.222,2.864a9.52,9.52,0,0,1-2.05,1.052s1.6,1.966,1.406,2.469c-.695,1.774-5.007,8.043-9.555,21.269.12,6.608.442,23.228.518,24.973-.136-1.914-1.7-24.547-1.736-24.707-2.925-11.792-8.907-18.649-9.7-20.657-.2-.5,1.408-2.47,1.408-2.47a9.446,9.446,0,0,1-2.051-1.051c-.474-.7.748-3.3.748-3.3" fill="#0f3871"/>
        <g id="Grupo_8944" data-name="Grupo 8944" style="mix-blend-mode: multiply;isolation: isolate">
          <g id="Grupo_8943" data-name="Grupo 8943">
            <g id="Grupo_8942" data-name="Grupo 8942" clip-path="url(#clip-path-40)">
              <path id="Trazado_8028" data-name="Trazado 8028" d="M402.812,202.513A3.836,3.836,0,0,1,406,200.481c1.433,5.923,6.925,28.415,7.145,28.281,0,0,5.344-22.562,6.729-28.281a5.364,5.364,0,0,1,2.719,1.592s1.7,2.166,1.222,2.864a9.52,9.52,0,0,1-2.05,1.052s1.6,1.966,1.406,2.469c-.695,1.774-5.007,8.043-9.555,21.269.12,6.608.442,23.228.518,24.973-.136-1.914-1.7-24.547-1.736-24.707-2.925-11.792-8.907-18.649-9.7-20.657-.2-.5,1.408-2.47,1.408-2.47a9.446,9.446,0,0,1-2.051-1.051c-.474-.7.748-3.3.748-3.3" fill="#f48baa"/>
            </g>
          </g>
        </g>
        <path id="Trazado_8029" data-name="Trazado 8029" d="M418.753,202.887c-.153,1.8-2.436,2.556-5.412,2.281l-.25.491c-2.974-.263-5.26-1.943-5.11-3.744l1.625-13.6c.153-1.8,2.2-3.082,5.177-2.814s4.292,1.867,4.142,3.678Z" fill="#fdc8a8"/>
        <path id="Trazado_8030" data-name="Trazado 8030" d="M419.521,201.97l-5.216,6.245-1.768-3.622,7.008-5.376Z" fill="#bac8e2"/>
        <path id="Trazado_8031" data-name="Trazado 8031" d="M419.521,201.97l-5.216,5.6-1.876-3.162,7.116-5.836Z" fill="#f2ebdd"/>
        <path id="Trazado_8032" data-name="Trazado 8032" d="M406.314,201.97l5.216,6.822,1.149-4.359-6.388-5.216Z" fill="#bac8e2"/>
        <path id="Trazado_8033" data-name="Trazado 8033" d="M406.314,201.97l5.216,5.6,1.134-3.355-6.373-5.643Z" fill="#f2ebdd"/>
        <g id="Grupo_8947" data-name="Grupo 8947" style="mix-blend-mode: multiply;isolation: isolate">
          <g id="Grupo_8946" data-name="Grupo 8946">
            <g id="Grupo_8945" data-name="Grupo 8945" clip-path="url(#clip-path-41)">
              <path id="Trazado_8034" data-name="Trazado 8034" d="M415.018,241.362a.627.627,0,1,1-.624-.58.6.6,0,0,1,.624.58" fill="#f48baa"/>
            </g>
          </g>
        </g>
        <g id="Grupo_8950" data-name="Grupo 8950" style="mix-blend-mode: multiply;isolation: isolate">
          <g id="Grupo_8949" data-name="Grupo 8949">
            <g id="Grupo_8948" data-name="Grupo 8948" clip-path="url(#clip-path-42)">
              <path id="Trazado_8035" data-name="Trazado 8035" d="M411.714,232.938a.627.627,0,1,1-.625-.581.6.6,0,0,1,.625.581" fill="#f48baa"/>
            </g>
          </g>
        </g>
        <g id="Grupo_8953" data-name="Grupo 8953" style="mix-blend-mode: multiply;isolation: isolate">
          <g id="Grupo_8952" data-name="Grupo 8952">
            <g id="Grupo_8951" data-name="Grupo 8951" clip-path="url(#clip-path-43)">
              <path id="Trazado_8036" data-name="Trazado 8036" d="M412.93,248.825a.627.627,0,1,1-.627-.579.6.6,0,0,1,.627.579" fill="#f48baa"/>
            </g>
          </g>
        </g>
        <path id="Trazado_8037" data-name="Trazado 8037" d="M385.915,190.874c1-5.857-6.187-4.411-6.278-.618-.033,1.4,4.157,9.092,4.157,9.092l4.536-1.453s-2.732-5.171-2.415-7.021" fill="#fdc8a8"/>
        <path id="Trazado_8038" data-name="Trazado 8038" d="M430.63,213.675c-4.6,6.624-10.309,7.2-12.758,7.262l-10.425.111c-3.2.186-7.633-.8-10.37-.854L393.8,211.83c2.824,1.337,2.658.594,3.68.506l22.589-3.624c1.351-.035,3.725,2.3,5.146,2.19Z" fill="#0f3871"/>
        <g id="Grupo_8956" data-name="Grupo 8956" style="mix-blend-mode: multiply;isolation: isolate">
          <g id="Grupo_8955" data-name="Grupo 8955">
            <g id="Grupo_8954" data-name="Grupo 8954" clip-path="url(#clip-path-44)">
              <path id="Trazado_8039" data-name="Trazado 8039" d="M408.645,194.6l10.3-.96-.065,2.212c-2.389,1.663-6.15,3.746-7.295,3.855-1.058.1-3.478-1.445-3.453-2.044Z" fill="#fdc8a8"/>
            </g>
          </g>
        </g>
        <path id="Trazado_8040" data-name="Trazado 8040" d="M405.746,183.247l-1.157-.523c-.96-.425-1.736.116-1.845,1.218-.186,1.887,1.376,2.017,1.32,3.495l2.407-.316Z" fill="#fdc8a8"/>
        <path id="Trazado_8041" data-name="Trazado 8041" d="M419.218,186.46l1.238-.286c1.026-.227,1.677.456,1.569,1.558-.189,1.886-1.671,1.637-2.074,3.274l-2.206-.893Z" fill="#fdc8a8"/>
        <path id="Trazado_8042" data-name="Trazado 8042" d="M404.426,192.1c.828,2.6,3.009,6.3,4.822,6.7,2.033.442,8.16-2.489,9.108-4.255,2.617-4.879,4.382-18.065-5.339-18.533-2.593-.123-7.007-1.632-8.441,3.119-.911,3.023-1.08,10.036-.15,12.971" fill="#fdc8a8"/>
        <g id="Grupo_8959" data-name="Grupo 8959" style="mix-blend-mode: multiply;isolation: isolate">
          <g id="Grupo_8958" data-name="Grupo 8958">
            <g id="Grupo_8957" data-name="Grupo 8957" clip-path="url(#clip-path-45)">
              <path id="Trazado_8043" data-name="Trazado 8043" d="M404.426,192.1c-.93-2.935-.761-9.948.15-12.971,1.434-4.751,5.848-3.242,8.441-3.119a8.5,8.5,0,0,1,4.335,1.28,2.069,2.069,0,0,0-.272.167,18.448,18.448,0,0,0-4.241,4.28c-.091.129-.449-.38-.492-.254a10.585,10.585,0,0,1-2.9,1.258c-.9.122-4.319-.922-4.7.559a15.185,15.185,0,0,0-.143,8.006c1.671,5.819,4.646,7.492,4.646,7.492-1.813-.4-3.994-4.1-4.822-6.7" fill="#fdc8a8"/>
            </g>
          </g>
        </g>
        <path id="Trazado_8044" data-name="Trazado 8044" d="M404.169,192.032c-.748,2.18,2.685,7.829,4.741,8.282,2.3.5,9.538-3.068,10.2-5.241,1.216-3.965,1.132-4.606.007-4.583-.731.014-2.683,2.878-4.488,3.167-1.29.207-.762-2.249-4.98-2.015-3.1.173-2.552.748-3.376,1.215-1.239.7-1.709-1.988-2.108-.825" fill="#0f3871"/>
        <path id="Trazado_8045" data-name="Trazado 8045" d="M411.631,173.124c-.7-.84.394,3.71-1.608,2.318-.9-.623-3.053-.04-4.209,2.044l9.023,2.358c.566.007,1.134.016,1.7.042a2.957,2.957,0,0,1,2.654,2.683c.756-.392,1.514-.779,2.259-1.232-.317-8.056-7.416-5.329-9.821-8.213" fill="#0f3871"/>
        <path id="Trazado_8046" data-name="Trazado 8046" d="M406.238,173.337c-.318,1.008.554,2.369,1.946,3.042s3.815-.626,4.136-1.634-1.284-.146-2.676-1.5c-1.151-1.119-3.085-.917-3.406.091" fill="#0f3871"/>
        <path id="Trazado_8047" data-name="Trazado 8047" d="M406.469,181.661c-2.2-.159-2.564,4.3-2.564,4.3-.615-.09-.729-3.4.016-6.017.467-1.64,4.138,1.83,2.548,1.716" fill="#0f3871"/>
        <g id="Grupo_8962" data-name="Grupo 8962" style="mix-blend-mode: multiply;isolation: isolate">
          <g id="Grupo_8961" data-name="Grupo 8961">
            <g id="Grupo_8960" data-name="Grupo 8960" clip-path="url(#clip-path-46)">
              <path id="Trazado_8048" data-name="Trazado 8048" d="M406.469,181.661c-2.2-.159-2.564,4.3-2.564,4.3-.615-.09-.729-3.4.016-6.017.467-1.64,4.138,1.83,2.548,1.716" fill="#f48baa"/>
            </g>
          </g>
        </g>
        <path id="Trazado_8049" data-name="Trazado 8049" d="M403.991,177.976c-.26,1.482.145,3.135,2.506,4.091,4.237,1.716,5.261-1.131,11.145.372.505.129-.4,1.363,1.2,2.774,1.633,1.44,1.112,4.237,1.112,4.237.857.011,1.233-6.294,1.349-6.95.558-3.175-2.863-6.761-7.641-8.008s-9.108.31-9.669,3.484" fill="#0f3871"/>
        <g id="Grupo_8965" data-name="Grupo 8965" style="mix-blend-mode: multiply;isolation: isolate">
          <g id="Grupo_8964" data-name="Grupo 8964">
            <g id="Grupo_8963" data-name="Grupo 8963" clip-path="url(#clip-path-47)">
              <path id="Trazado_8050" data-name="Trazado 8050" d="M419.978,187.622a64.3,64.3,0,0,0,.53-6.459c-.133-2.029-.257-3.441-2.132-4.543-.908-.533-3.625-.844-4.644-1a5.259,5.259,0,0,1-2.953-1.685,3.91,3.91,0,0,0,.556.141c.023-.709,0-1.307.3-.954,2.4,2.884,9.5.156,9.821,8.213-.039.024-.078.045-.118.069a4.088,4.088,0,0,1-.033,1.094c-.116.655-.492,6.96-1.349,6.949a14.85,14.85,0,0,0,.026-1.827" fill="#f48baa"/>
            </g>
          </g>
        </g>
        <path id="Trazado_8051" data-name="Trazado 8051" d="M387.647,195.34l12.7,18.026c-3.226,1.53-.789,6.316-.789,6.316-4,2.541-7.82-4.033-8.633-6.5l-9.046-16.335c-.3-.95,1.9-1.428,4.314-2.011,1.61-.388,1.452.508,1.452.508" fill="#0f3871"/>
        <path id="Trazado_8052" data-name="Trazado 8052" d="M44.892,333.331c-3.607,4.409-9.865,7.505-12.944,3.532-2.906-3.75-.619-11.987,3.17-16.14,8.919-9.774,21.175-7.686,21.175-7.686-4.445,5.432-7.794,15.885-11.4,20.294" fill="#ffd4b3"/>
        <g id="Grupo_8968" data-name="Grupo 8968" style="mix-blend-mode: multiply;isolation: isolate">
          <g id="Grupo_8967" data-name="Grupo 8967">
            <g id="Grupo_8966" data-name="Grupo 8966" clip-path="url(#clip-path-48)">
              <path id="Trazado_8053" data-name="Trazado 8053" d="M31.949,336.863c-2.907-3.75-.619-11.987,3.17-16.14,8.919-9.774,21.175-7.686,21.175-7.686-18.5,9-24.345,23.826-24.345,23.826" fill="#ffd4b3"/>
            </g>
          </g>
        </g>
        <g id="Grupo_8971" data-name="Grupo 8971" style="mix-blend-mode: multiply;isolation: isolate">
          <g id="Grupo_8970" data-name="Grupo 8970">
            <g id="Grupo_8969" data-name="Grupo 8969" clip-path="url(#clip-path-49)">
              <path id="Trazado_8054" data-name="Trazado 8054" d="M33.123,334.156s.2-.354.574-.995c.181-.323.409-.712.695-1.144s.587-.945.969-1.463l.583-.827c.206-.284.433-.564.66-.862.448-.606.968-1.195,1.5-1.836,1.092-1.239,2.337-2.528,3.69-3.787a83.38,83.38,0,0,1,7.189-5.838l3.06-2.21s-1.2.741-3.112,2.037a62.8,62.8,0,0,0-7.28,5.7,45.9,45.9,0,0,0-3.7,3.867c-.529.659-1.043,1.269-1.484,1.894-.224.309-.446.6-.648.892s-.387.583-.568.856c-.37.535-.663,1.063-.934,1.512s-.49.848-.66,1.181l-.538,1.025" fill="#ffd4b3"/>
            </g>
          </g>
        </g>
        <path id="Trazado_8055" data-name="Trazado 8055" d="M40.151,334.056c-3.048,12.66-10.14,24.115-15.812,17.068-5.355-6.652-5.583-27.239-2.191-39.432,7.982-28.7,25.11-32.326,25.11-32.326-3.755,15.6-4.06,42.029-7.107,54.69" fill="#ffd4b3"/>
        <path id="Trazado_8056" data-name="Trazado 8056" d="M11.229,345.7c3.5,3.447,9.463,4.786,12.258-.156,2.638-4.666.281-12.4-3.386-15.531C11.47,322.638,0,328.323,0,328.323c4.316,4.247,7.727,13.928,11.229,17.376" fill="#ffd4b3"/>
        <g id="Grupo_8974" data-name="Grupo 8974" style="mix-blend-mode: multiply;isolation: isolate">
          <g id="Grupo_8973" data-name="Grupo 8973">
            <g id="Grupo_8972" data-name="Grupo 8972" clip-path="url(#clip-path-50)">
              <path id="Trazado_8057" data-name="Trazado 8057" d="M23.487,345.543c2.638-4.666.281-12.4-3.386-15.531C11.47,322.639,0,328.323,0,328.323c17.623,3.8,23.487,17.22,23.487,17.22" fill="#ffd4b3"/>
            </g>
          </g>
        </g>
        <g id="Grupo_8977" data-name="Grupo 8977" style="mix-blend-mode: multiply;isolation: isolate">
          <g id="Grupo_8976" data-name="Grupo 8976">
            <g id="Grupo_8975" data-name="Grupo 8975" clip-path="url(#clip-path-51)">
              <path id="Trazado_8058" data-name="Trazado 8058" d="M22.315,343.124l-.565-.847c-.178-.277-.4-.608-.682-.965s-.576-.792-.947-1.209l-.569-.675c-.2-.23-.421-.449-.642-.687-.437-.487-.941-.937-1.458-1.435a34.76,34.76,0,0,0-3.564-2.789,53.9,53.9,0,0,0-6.9-3.864L4.05,329.288s1.146.408,2.977,1.173a40.714,40.714,0,0,1,6.987,3.7,30.086,30.086,0,0,1,3.573,2.868c.514.519,1.013.991,1.443,1.5.218.249.435.48.631.721l.556.707c.362.439.651.891.916,1.27s.482.722.651,1.012l.531.889" fill="#ffd4b3"/>
            </g>
          </g>
        </g>
        <path id="Trazado_8059" data-name="Trazado 8059" d="M24.339,351.124c-5.354-6.652-5.583-27.239-2.191-39.431,7.982-28.7,25.111-32.326,25.111-32.326-21.037,33.517-22.92,71.757-22.92,71.757" fill="#ffd4b3"/>
        <g id="Grupo_8980" data-name="Grupo 8980" style="mix-blend-mode: multiply;isolation: isolate">
          <g id="Grupo_8979" data-name="Grupo 8979">
            <g id="Grupo_8978" data-name="Grupo 8978" clip-path="url(#clip-path-52)">
              <path id="Trazado_8060" data-name="Trazado 8060" d="M24.339,351.124c-5.354-6.652-5.583-27.239-2.191-39.431,7.982-28.7,25.111-32.326,25.111-32.326-21.037,33.517-22.92,71.757-22.92,71.757" fill="#ffd4b3"/>
            </g>
          </g>
        </g>
        <g id="Grupo_8983" data-name="Grupo 8983" style="mix-blend-mode: multiply;isolation: isolate">
          <g id="Grupo_8982" data-name="Grupo 8982">
            <g id="Grupo_8981" data-name="Grupo 8981" clip-path="url(#clip-path-53)">
              <path id="Trazado_8061" data-name="Trazado 8061" d="M24.825,344.067s.132-.958.369-2.691c.113-.871.26-1.926.469-3.12s.407-2.585.708-4.043q.214-1.1.448-2.311c.161-.8.351-1.6.535-2.443.356-1.707.814-3.427,1.268-5.271.961-3.613,2.1-7.445,3.4-11.281,2.618-7.643,5.293-13.929,7.243-18.427,1.973-4.452,3.193-7.208,3.193-7.208s-1.3,2.536-3.33,6.845a178.627,178.627,0,0,0-7.42,18.164c-1.311,3.867-2.445,7.776-3.382,11.47-.442,1.887-.884,3.648-1.222,5.4-.175.866-.356,1.688-.507,2.5s-.283,1.612-.416,2.366c-.28,1.491-.461,2.912-.642,4.133s-.315,2.294-.41,3.181c-.2,1.761-.308,2.736-.308,2.736" fill="#ffd4b3"/>
            </g>
          </g>
        </g>
        <path id="Trazado_8062" data-name="Trazado 8062" d="M47.292,359.415c-.141-5.415-.571-9.939-8.009-11.267-2.2-.392-6.29.236-7.955,1.468-6.716-5.85-10.937-10.079-18.022-10.079-8.22,0-11.374,7.165-11.374,15.385a14.889,14.889,0,0,0,.691,4.493Z" fill="#0086ff"/>
      </g>
    </g>
  </g>
</svg>
