<svg xmlns="http://www.w3.org/2000/svg" xmlns:xlink="http://www.w3.org/1999/xlink" width="406.176" height="308" viewBox="0 0 406.176 308">
  <defs>
    <clipPath id="clip-path">
      <path id="SVGID" d="M195.22,96.443s21.334-35.1,67.18-46.906S378.861,31.978,404.6,73.209s-9.577,74.623-3.718,117.162S439,271.66,410.616,301.535s-189.223,42.938-245.86,6.155S78.672,223.43,93.6,185.5s67.579-45.848,82.558-60.271S188.031,105.931,195.22,96.443Z" transform="translate(-89.746 -40.887)" fill="#dbdeff"/>
    </clipPath>
    <clipPath id="clip-path-2">
      <path id="SVGID-2" data-name="SVGID" d="M440.271,108.888c-9.115-3.108-23.915,3.7-34.944,10.111,4.315-17.77,5.782-35.5-6.379-54.976-7.658-12.266-19.29-20.374-33.059-25.4l.513-17.682s-25.23-12.824-44.365-6.015c-9.472,3.371-19.553,11.247-27.323,18.342a285,285,0,0,0-37.97,7.085c-45.846,11.809-67.18,46.906-67.18,46.906-7.188,9.488-4.085,14.364-19.064,28.788a27.25,27.25,0,0,1-2.809,2.328,38.623,38.623,0,0,0-10.382-10.932c-13.192-8.6-35.377,3.486-53.237,15.485S70.184,154.5,72.816,181.864a49.3,49.3,0,0,0,12.9,29.244c6.6,29.688,33.121,61.244,73.388,87.4,56.637,36.783,217.476,23.72,245.86-6.155,28.188-29.669-3.425-68.091-9.6-110.285,10.72-5.664,37.99-19.7,51.979-23.476,17.654-4.767,31.369-9.532,31.369-21.53S456.238,114.331,440.271,108.888Z" transform="translate(-72.531 -12.931)" fill="none"/>
    </clipPath>
  </defs>
  <g id="Grupo_9128" data-name="Grupo 9128" transform="translate(-72.531 -12.931)">
    <g id="Grupo_9107" data-name="Grupo 9107" transform="translate(84.09 31.702)">
      <path id="SVGID-3" data-name="SVGID" d="M195.22,96.443s21.334-35.1,67.18-46.906S378.861,31.978,404.6,73.209s-9.577,74.623-3.718,117.162S439,271.66,410.616,301.535s-189.223,42.938-245.86,6.155S78.672,223.43,93.6,185.5s67.579-45.848,82.558-60.271S188.031,105.931,195.22,96.443Z" transform="translate(-89.746 -40.887)" fill="#dbdeff"/>
      <g id="Grupo_9106" data-name="Grupo 9106" transform="translate(0)" clip-path="url(#clip-path)">
        <g id="Grupo_9098" data-name="Grupo 9098" transform="translate(-30.842 9.111)">
          <path id="Trazado_8405" data-name="Trazado 8405" d="M43.811,362.764c.6-1.231,383.261-105.17,383.261-105.17l3.763,63.089-7.43,85.008-325.217,46.4Z" transform="translate(-43.811 -121.201)" fill="#e6e7ff"/>
          <path id="Trazado_8406" data-name="Trazado 8406" d="M212.012,267.583l266.657-67.707L477.2,147.919Z" transform="translate(-99.076 -85.165)" fill="#e6e7ff"/>
          <path id="Trazado_8407" data-name="Trazado 8407" d="M61.937,198.1,369.967,90.019,150.059,54.457Z" transform="translate(-49.767 -54.457)" fill="#e6e7ff"/>
        </g>
        <g id="Grupo_9102" data-name="Grupo 9102" transform="translate(68.571 -9.813)">
          <g id="Grupo_9099" data-name="Grupo 9099" transform="translate(0 22.414)">
            <path id="Trazado_8408" data-name="Trazado 8408" d="M191.872,144.112V63.354l74.663-3.7v74.78Zm1.759-79.084V142.11l71.144-9.22V61.5Z" transform="translate(-191.872 -59.656)" fill="#cfd5ff"/>
          </g>
          <g id="Grupo_9100" data-name="Grupo 9100" transform="translate(81.022)">
            <path id="Trazado_8409" data-name="Trazado 8409" d="M312.542,93.7V27.918l33.207-1.645V89.4Zm1.76-64.113V91.7l29.688-3.847V28.121Z" transform="translate(-312.542 -26.273)" fill="#cfd5ff"/>
          </g>
          <g id="Grupo_9101" data-name="Grupo 9101" transform="translate(81.025 80.402)">
            <path id="Trazado_8410" data-name="Trazado 8410" d="M312.547,195.133V150.328l33.2-4.309v44.814Zm1.759-43.26v41.258l29.681-3.844V148.021Z" transform="translate(-312.547 -146.019)" fill="#cfd5ff"/>
          </g>
        </g>
        <g id="Grupo_9103" data-name="Grupo 9103" transform="translate(265.32 140.313)">
          <path id="Trazado_8411" data-name="Trazado 8411" d="M498.943,388.708s-23.189-51.163-9.969-60.355,21.942-6,19.964-22.915-2.56-47.126,11.689-52.277,23.1-6.595,18.675,13.362-13.368,36.8,1.145,45.061,24.387,40.778,6,65.711S509.65,404.126,498.943,388.708Z" transform="translate(-484.9 -249.862)" fill="#ffd88c"/>
          <path id="Trazado_8412" data-name="Trazado 8412" d="M545.007,419.111c-12.5-33.715-6.571-120.5-6.508-121.37l1.315.093c-.061.87-5.973,87.369,6.43,120.819Z" transform="translate(-502.031 -265.593)" fill="#fff"/>
        </g>
        <g id="Grupo_9104" data-name="Grupo 9104" transform="translate(32.852 96.057)">
          <path id="Trazado_8413" data-name="Trazado 8413" d="M180.6,197.079s13.607-19.669,23.23-10.857-1.612,19.56-4,37.506,11.234,27.811,8.171,39.9-14.343,70.724-34.917,74.939S139.76,322,138.74,297.052s10.082-20.434,17.2-44.2S164.769,212.06,180.6,197.079Z" transform="translate(-138.674 -183.95)" fill="#ffd88c"/>
          <path id="Trazado_8414" data-name="Trazado 8414" d="M172.325,364.649h-.046a.659.659,0,0,1-.613-.7c3.824-56.5,29.27-138.343,29.527-139.164a.66.66,0,0,1,1.259.394c-.256.818-25.656,82.512-29.471,138.859A.659.659,0,0,1,172.325,364.649Z" transform="translate(-149.514 -197.214)" fill="#fff"/>
        </g>
        <g id="Grupo_9105" data-name="Grupo 9105" transform="translate(71.155 137.122)">
          <path id="Trazado_8415" data-name="Trazado 8415" d="M196.754,351.906s-5.759-31.254,9.905-41.972,23.153-9.01,28.941-27.907,16-36.543,27.575-36.911,8.852,19.041,2.723,35.89,4.123,21.385,5.976,31.883-16.53,16.871-20.955,32.239,2.833,22.356-8.8,27.883S196.377,385.531,196.754,351.906Z" transform="translate(-195.72 -245.11)" fill="#fff"/>
          <path id="Trazado_8416" data-name="Trazado 8416" d="M221.672,405.572a.58.58,0,0,1-.089-.006.658.658,0,0,1-.565-.741c4.713-35.025,33.766-89.027,34.06-89.568a.659.659,0,1,1,1.16.627c-.292.539-29.231,54.331-33.913,89.116A.66.66,0,0,1,221.672,405.572Z" transform="translate(-204.03 -268.044)" fill="#cfd4ff"/>
        </g>
      </g>
    </g>
    <g id="Grupo_9127" data-name="Grupo 9127" transform="translate(72.531 12.931)">
      <g id="Grupo_9126" data-name="Grupo 9126" clip-path="url(#clip-path-2)">
        <g id="Grupo_9120" data-name="Grupo 9120" transform="translate(171.2 8.278)">
          <g id="Grupo_9110" data-name="Grupo 9110" transform="translate(95.386 77.468)">
            <path id="Trazado_8417" data-name="Trazado 8417" d="M477.336,140.637s8.79,5.784,11.968,16.224,4.977,79.208,4.977,79.208-14.037,2.517-22.1-12.246S477.336,140.637,477.336,140.637Z" transform="translate(-469.57 -140.637)" fill="#fff3db"/>
            <path id="Trazado_8418" data-name="Trazado 8418" d="M489.935,249.034s7.4-4.323,9.305-1.939.341,11.471.341,11.471l-.811,12.246s-7.019,2.935-11.331.162S479.722,254.038,489.935,249.034Z" transform="translate(-474.06 -175.38)" fill="#fff3db"/>
            <path id="Trazado_8419" data-name="Trazado 8419" d="M576.278,203.508a11.09,11.09,0,0,1-2.6,2.718c-1.3.8-12.875,2.779-14.5,2.867a88.339,88.339,0,0,0-11.582,2.277c-10.1,10.809-36.885,39.382-39.224,41.238a37.768,37.768,0,0,1-7.053,4.115c-11.143.968-12.189-7.774-8.276-12.242,1.364-1.566,6.438-5.752,12.594-10.65h.009c11.477-9.129,26.709-20.72,28.6-22.329,2.207-1.873,4.9-5.541,6.587-7.168l.035-.035c.51-.492.923-.792,1.2-.792Z" transform="translate(-476.6 -161.294)" fill="#feb7ab"/>
            <rect id="Rect치ngulo_5962" data-name="Rect치ngulo 5962" width="98.593" height="2.897" transform="translate(34.331 39.317)" fill="#684d53"/>
            <g id="Grupo_9109" data-name="Grupo 9109" transform="translate(73.636 20.013)">
              <path id="Trazado_8420" data-name="Trazado 8420" d="M630.79,190.793l-48.511,0a5.432,5.432,0,0,1,1.452-3.36c1.354-1.275,2.384-1.785,3.4-2.805a18.406,18.406,0,0,0,2.463-2.893c.686-1.02.431-2.128,1.706-3.236s7.916-2.638,10.809-3.236c2.427-.5,7.9.018,11.055.546.615.105,1.134.211,1.539.308a16.436,16.436,0,0,1,6.806,3.571c1.794,1.618,2.982,1.609,4.178,4.09a12.988,12.988,0,0,0,2.893,4.08C629.427,188.8,630.79,190.793,630.79,190.793Z" transform="translate(-580.238 -171.96)" fill="#ffae1b"/>
              <path id="Trazado_8421" data-name="Trazado 8421" d="M638.9,191.159H606.97c.387-.712.914-1.451,1.468-1.575,1.108-.254,3.667.686,3.667.686v-1.706l-1.284-1.442-.088-1.943s.933-1.126.6-1.882a18.2,18.2,0,0,0-2.919-2.885l12.867-4.238c.615.105,1.134.211,1.539.307a16.436,16.436,0,0,1,6.806,3.571c1.794,1.618,2.982,1.609,4.178,4.09a12.987,12.987,0,0,0,2.893,4.08C637.54,189.163,638.9,191.159,638.9,191.159Z" transform="translate(-588.351 -172.326)" fill="#ff9000"/>
              <rect id="Rect치ngulo_5963" data-name="Rect치ngulo 5963" width="55.037" height="0.936" transform="translate(0 18.367)" fill="#fff"/>
              <g id="Grupo_9108" data-name="Grupo 9108" transform="translate(9.413)">
                <path id="Trazado_8422" data-name="Trazado 8422" d="M623.255,181.41c-2.146.581-4.749,2.1-6.974,2.744a4.76,4.76,0,0,1-2.814.149c-2.472-.844-6.217-5.611-10.131-4.846s-7.748,3.149-9.023,1.188-2.128-3.738,1.961-5.356,7.573-2.56,16.086-2.128c0,0,.105.017.29.044,1.812.254,11.582,1.767,13.579,4.467C628.444,180.645,626.4,180.566,623.255,181.41Z" transform="translate(-593.259 -171.302)" fill="#fff2cf"/>
                <path id="Trazado_8423" data-name="Trazado 8423" d="M630.274,181.483c-2.146.581-4.749,2.1-6.974,2.744a5.423,5.423,0,0,1-3.782-1.5,13.226,13.226,0,0,0-3.94-2.717c-1.037-.457-.941-.457-.2-1.178s-.756-1.592-.756-1.592,2.752-2.313,5.048-3.966c1.812.254,11.582,1.767,13.579,4.467C635.463,180.718,633.423,180.639,630.274,181.483Z" transform="translate(-600.278 -171.375)" fill="#ffd877"/>
                <path id="Trazado_8424" data-name="Trazado 8424" d="M622.429,173.54c0,1.715-2.972,3.1-6.631,3.1-2.577,0-4.82-.686-5.919-1.7a1.9,1.9,0,0,1-.721-1.407c0-1.706,2.973-3.1,6.64-3.1a12.932,12.932,0,0,1,3.562.484C621.206,171.482,622.429,172.441,622.429,173.54Z" transform="translate(-598.483 -170.444)" fill="#ff9b44"/>
                <path id="Trazado_8425" data-name="Trazado 8425" d="M620.09,172.348c0,1.715-2.973,3.1-6.641,3.1a12.3,12.3,0,0,1-3.57-.492,1.9,1.9,0,0,1-.721-1.407c0-1.706,2.973-3.1,6.64-3.1a12.907,12.907,0,0,1,3.562.484A1.939,1.939,0,0,1,620.09,172.348Z" transform="translate(-598.483 -170.445)" fill="#ffc244"/>
                <path id="Trazado_8426" data-name="Trazado 8426" d="M617.3,172.038c.047.339-.387.679-.969.76s-1.091-.13-1.138-.469.387-.68.968-.76S617.248,171.7,617.3,172.038Z" transform="translate(-600.463 -170.808)" fill="#fff"/>
                <path id="Trazado_8427" data-name="Trazado 8427" d="M608.644,179.009c0,.187-.219.338-.489.338s-.489-.152-.489-.338.219-.338.489-.338S608.644,178.822,608.644,179.009Z" transform="translate(-597.993 -173.147)" fill="#fff3db"/>
              </g>
            </g>
          </g>
          <g id="Grupo_9113" data-name="Grupo 9113" transform="translate(73.954)">
            <g id="Grupo_9111" data-name="Grupo 9111">
              <path id="Trazado_8428" data-name="Trazado 8428" d="M473.259,49.389c-1.249,11.8-7.035,24.854-9.3,37.79-1.011,5.761-1.741,12.339-3.395,18.152-2.049,7.247-5.523,13.28-12.752,14.986,0,0,5.154-9.084.431-17.7s-10.844-27.677-10.053-40.279a203.216,203.216,0,0,0-.079-21.45c-.1-2.032-.22-3.747-.291-4.987-.105-1.372-.167-2.172-.167-2.172s3.72-10.325,16.314-8.17a27.942,27.942,0,0,1,3.412.809C467.965,29.583,474.394,38.695,473.259,49.389Z" transform="translate(-437.65 -25.26)" fill="#5a2030"/>
              <path id="Trazado_8429" data-name="Trazado 8429" d="M464.248,64.55a109.341,109.341,0,0,0-4.837,30.807c.053,3.825,1.082,8.355,1.372,12.822-2.049,7.247-5.523,13.28-12.752,14.986,0,0,5.154-9.084.431-17.7s-10.844-27.677-10.053-40.279a203.233,203.233,0,0,0-.079-21.45c1.17-4.16,2.014-6.93,2.014-6.93s12.858-6.464,18.346,0A29.217,29.217,0,0,1,464.248,64.55Z" transform="translate(-437.874 -28.108)" fill="#352543"/>
            </g>
            <g id="Grupo_9112" data-name="Grupo 9112" transform="translate(4.353 8.626)">
              <path id="Trazado_8430" data-name="Trazado 8430" d="M460.9,48.122c.088,4.072-2.172,7.7-5.778,8.715-4.354,1.223-9.023-1.812-10.51-6.8a1.485,1.485,0,0,1-.061-.185c-1.434-5.1.976-10.237,5.373-11.477s9.138,1.891,10.571,6.992A10.42,10.42,0,0,1,460.9,48.122Z" transform="translate(-444.132 -38.106)" fill="#ffae1b"/>
              <path id="Trazado_8431" data-name="Trazado 8431" d="M461.126,49.568c.088,4.072-2.172,7.7-5.778,8.715-4.354,1.223-9.023-1.812-10.51-6.8-.088-4.072,2.182-7.7,5.778-8.706C454.971,41.556,459.632,44.581,461.126,49.568Z" transform="translate(-444.364 -39.552)" fill="#db7500"/>
            </g>
          </g>
          <g id="Grupo_9114" data-name="Grupo 9114" transform="translate(22.979 68.331)">
            <path id="Trazado_8432" data-name="Trazado 8432" d="M460.961,346.549s-68.334-9.665-91.305-17.2c-4.476-1.468-7.229-2.85-7.423-4.072-1.011-6.358-.308-23.649.457-31.942.132-1.478.264-2.665.4-3.465.124-.739.528-2.594,1.135-5.25.326-1.433.712-3.1,1.152-4.952,1.416-6.033,3.333-14.027,5.277-22.25,4.213-17.756,8.61-36.577,8.61-39.039,0-2.3-4.257-19.286-8.082-36.26-.572-2.524-1.126-5.039-1.662-7.511-3.069-14.185-5.32-26.788-3.869-28.741,2.735-3.7,21.362-13.341,28.539-16.973,1.75-.88,2.814-1.407,2.814-1.407s13.245-1.029,16.807,0c1.777.5,8.4,2.19,14.775,3.984.281.079.563.158.835.238,6.086,1.732,11.749,3.535,12.489,4.459a49.55,49.55,0,0,1,2.7,6.095c2.568,6.4,6.411,16.876,9.454,27.017,2.515,8.319,4.476,16.419,4.758,21.828a18.563,18.563,0,0,1-.061,3.1c-.528,4.415-6.1,19.515-8.848,26.955-.756,2.04-1.3,3.509-1.468,4.019-.774,2.384,4.186,39.153,9.463,61.958.66,2.841,1.2,5.9,1.645,9.076C462.658,318.5,460.961,346.549,460.961,346.549Z" transform="translate(-361.73 -127.028)" fill="#fff"/>
            <path id="Trazado_8433" data-name="Trazado 8433" d="M474.312,144.433c-.845,6.4-2.339,18.152-2.339,18.152s-2.577-.722-7,.492-11.574,8.8-11.574,8.8l-1.249.836,7.59-13.386s2.735-12.6,2.621-16.683c-.061-2.146-2.155-5.893-4.072-9.006.281.079.563.158.835.238,6.086,1.732,11.749,3.535,12.489,4.459A49.545,49.545,0,0,1,474.312,144.433Z" transform="translate(-391.439 -129.201)" fill="#fff3db"/>
            <path id="Trazado_8434" data-name="Trazado 8434" d="M420.244,177.233s16.527-1.061,22.6.868l-1.758-2.383s-23.15-4.878-25.192-1.985-.88,3.373-.88,3.373Z" transform="translate(-379.129 -142.072)" fill="#fff3db"/>
            <path id="Trazado_8435" data-name="Trazado 8435" d="M446.877,150.913c-1.8,4.31-5.083,10.9-5.083,10.9s-24.466-1.82-28.7-9.085-5.136-18.953-3.43-23.833c1.75-.88,2.814-1.407,2.814-1.407s13.245-1.029,16.807,0c1.855.528,8.988,2.339,15.61,4.221a13.238,13.238,0,0,1,1.152,3.535C446.886,140.017,448.688,146.6,446.877,150.913Z" transform="translate(-377.214 -127.028)" fill="#feb7ab"/>
            <path id="Trazado_8436" data-name="Trazado 8436" d="M451.215,168.9l4.5,6.669-1.688.225Z" transform="translate(-391.132 -140.785)" fill="#ff837a"/>
            <path id="Trazado_8437" data-name="Trazado 8437" d="M450.445,135.242a13.239,13.239,0,0,0-1.152-3.535c-6.622-1.882-13.755-3.694-15.61-4.221a27.512,27.512,0,0,0-6.264-.457c-2.768,5.2-5.189,11.176-5.189,11.176s18.229,6.687,29.816,7.928C452.011,142.515,451.009,138.467,450.445,135.242Z" transform="translate(-381.608 -127.028)" fill="#ff837a"/>
            <path id="Trazado_8438" data-name="Trazado 8438" d="M420.455,181.146l-6.358.572-.994-4.934-.7-3.491-1.029-5.075-2.5-12.374,6.015.343,2.163,9.7,1.284,5.769,1.117,4.978Z" transform="translate(-377.22 -136.496)" fill="#952232"/>
            <path id="Trazado_8439" data-name="Trazado 8439" d="M422.525,191.319l-6.358.572-.994-4.934c1.556-.088,4.142-.132,6.35-.15Z" transform="translate(-379.29 -146.669)" fill="#3f2746"/>
            <path id="Trazado_8440" data-name="Trazado 8440" d="M419.558,176.571l-5.936,1.636-1.029-5.075,5.681-2.331Z" transform="translate(-378.442 -141.41)" fill="#3f2746"/>
            <path id="Trazado_8441" data-name="Trazado 8441" d="M410.975,127.618c-.226.34-1.583,6.469,1.244,14.639s14.428,14.541,26.3,18.059l-.964,2.367s-21.266-4.652-28.73.567c0,0-13.117-19.746-4.184-34.838Z" transform="translate(-374.806 -127.222)" fill="#fff"/>
            <path id="Trazado_8442" data-name="Trazado 8442" d="M460.961,421.243s-68.334-9.665-91.305-17.2c-4.476-1.468-7.229-2.85-7.423-4.072-1.011-6.358-.308-23.649.457-31.942.132-1.478.264-2.665.4-3.465.124-.739.528-2.594,1.135-5.25.326-1.433.712-3.1,1.152-4.952l94.173,16.552C462.658,393.2,460.961,421.243,460.961,421.243Z" transform="translate(-361.73 -201.721)" fill="#3f3f3f"/>
            <path id="Trazado_8443" data-name="Trazado 8443" d="M459.972,206.126c-.528,4.415-6.1,19.515-8.848,26.955l-7.159,9.982s-9.191-1.029-14.977,0-24.854,13.957-24.854,13.957,4.767,5.1,6.807,9.534-1.7,15.311-1.7,15.311,3.984,1.495,8.513,8.856S420.141,304,400.732,307.4c-15.4,2.7-29.954-6.833-35.293-10.87,1.4-6.113,3.887-16.464,6.429-27.2l11.5-34.105,15.32,10.219-15.32-16.34-9.876-35.751-1.1.677c-.572-2.524-1.126-5.039-1.662-7.511,2.893-15.091,8.918-39.593,12.814-7.466,5.277,43.568,51.572,35.407,51.572,35.407l-8.513,11.231s6.473-1.021,16-8.171c7.15-5.365,14.3-11.679,17.43-14.5A18.57,18.57,0,0,1,459.972,206.126Z" transform="translate(-362.949 -138.944)" fill="#fff3db"/>
            <path id="Trazado_8444" data-name="Trazado 8444" d="M485.546,177.408h-5.9l-1.4-3.826-7-19.093.616-3.36.58-3.21,2.2,4.907,9.454,21.142Z" transform="translate(-397.714 -133.892)" fill="#952232"/>
            <path id="Trazado_8445" data-name="Trazado 8445" d="M474.942,152.826a10.451,10.451,0,0,1-1.275.264l-1.5-1.961.581-3.21Z" transform="translate(-398.015 -133.892)" fill="#3f2746"/>
            <path id="Trazado_8446" data-name="Trazado 8446" d="M488.972,189.966h-5.9l-1.4-3.826c1.7.088,3.975.246,5.848.387Z" transform="translate(-401.139 -146.45)" fill="#3f2746"/>
            <path id="Trazado_8447" data-name="Trazado 8447" d="M453.393,165.258s12.539-21,1.758-32.911c0,0,6.048,1.683,8.1,2.319,0,0,6.369,12.009,3.2,25.145,0,0-10.9,3.177-13.059,11.007l-1.248.637A16.147,16.147,0,0,1,453.393,165.258Z" transform="translate(-391.437 -128.775)" fill="#fff"/>
            <path id="Trazado_8448" data-name="Trazado 8448" d="M461.43,366.594s-68.334-9.665-91.3-17.2c-2.155-7.756-6.068-23.209-6.965-36.014.132-1.478.264-2.665.4-3.465.853-5.277,16.174-66.892,16.174-71.491,0,0,20.087,1.53,14.81-49.2,0,0,37.43-2.743,59.988.1,3.052,10.114,5.3,19.9,4.7,24.932-.677,5.629-9.534,28.591-10.316,30.975s4.186,39.153,9.463,61.958S461.43,366.594,461.43,366.594Z" transform="translate(-362.2 -147.072)" fill="#ff6948"/>
            <path id="Trazado_8449" data-name="Trazado 8449" d="M400.732,326.845c19.41-3.4,21.556-9.322,17.026-16.683s-8.513-8.856-8.513-8.856,3.747-10.888,1.7-15.311-6.807-9.534-6.807-9.534S423.2,263.524,428.989,262.5s14.977,0,14.977,0l7.151-9.97c2.419-6.548,7.03-19.041,8.461-24.952l0-.02c.057-.237.108-.461.154-.675.011-.048.02-.095.03-.141.037-.176.069-.342.1-.5.009-.046.018-.095.026-.14.033-.191.06-.373.081-.536.032-.27.053-.561.069-.857.007-.118.011-.239.015-.361.007-.191.009-.389.009-.59,0-.14,0-.278,0-.423-.005-.281-.017-.573-.032-.872-3.131,2.823-10.28,9.138-17.43,14.5-9.524,7.15-16,8.171-16,8.171l8.513-11.231s-23.864,4.206-39.278-9.546c-1.516,17.738-7.942,23.1-11.989,24.7l14.839,15.827-15.32-10.219-11.494,34.079c-2.549,10.747-5.034,21.11-6.438,27.228C370.777,320.011,385.332,329.544,400.732,326.845Z" transform="translate(-362.949 -158.384)" fill="#511237"/>
            <path id="Trazado_8450" data-name="Trazado 8450" d="M468.562,147.976a41.2,41.2,0,0,0-3.84-13.31c-2.051-.637-8.1-2.319-8.1-2.319,3.932,4.346,4.755,9.9,4.223,15.2A30.655,30.655,0,0,0,468.562,147.976Z" transform="translate(-392.909 -128.775)" fill="#fff3db"/>
          </g>
          <g id="Grupo_9115" data-name="Grupo 9115" transform="translate(46.699 5.471)">
            <path id="Trazado_8451" data-name="Trazado 8451" d="M398.724,76.408s-5.05,23.263,2.894,41.647c0,0-3.838-22.7.861-39.6Z" transform="translate(-397.086 -47.536)" fill="#5a2030"/>
            <path id="Trazado_8452" data-name="Trazado 8452" d="M441.211,117.7c-.429.6-1.051,11.2-1.051,11.2s-7.376,7.717-17.929,6.242v-7.83Z" transform="translate(-405.329 -61.105)" fill="#ff837a"/>
            <path id="Trazado_8453" data-name="Trazado 8453" d="M434.048,96.544c-.1.193-.2.387-.307.58-3.94,7.256-13.4,13.693-16.886,12.691-3.571-1.02-14.124-10.554-15.654-15.654a20.153,20.153,0,0,1-.747-3.9,52.819,52.819,0,0,1,.4-10.4c.342-3.747-1.364-15.83-1.364-15.83,4.09-11.741,10.22-11.406,19.067-13.79S437.795,61.3,438.815,71.014A45.064,45.064,0,0,1,434.048,96.544Z" transform="translate(-397.859 -38.847)" fill="#feb7ab"/>
            <path id="Trazado_8454" data-name="Trazado 8454" d="M420.455,105.41l1.191-2.383-.284,2.383Z" transform="translate(-404.746 -56.282)" fill="#ff837a"/>
            <path id="Trazado_8455" data-name="Trazado 8455" d="M432.754,78.136c-21.5-1.09-26.375-11.715-27.4-17.659a15.044,15.044,0,0,1-.22-3.976.027.027,0,0,1,.009-.017v-.009a6.1,6.1,0,0,1,.844-1.926c.721-.924,1.83-.651,3.008,5.927a18.236,18.236,0,0,0,3.228,7.651c6.358,8.68,18.979,9.516,18.979,9.516a1.774,1.774,0,0,0,.2.061l1.1.352C432.587,78.083,432.675,78.109,432.754,78.136Z" transform="translate(-399.696 -40.226)" fill="#5a2030"/>
            <path id="Trazado_8456" data-name="Trazado 8456" d="M442.144,72.944a30.567,30.567,0,0,1-9.375-1.627c-.079-.026-.167-.053-.255-.079l-1.1-.352a1.777,1.777,0,0,1-.2-.061c-6.455-2.1-13.9-5.576-18.979-9.516a20.73,20.73,0,0,1-4.7-4.82,14.7,14.7,0,0,1-2.1-4.872,11.08,11.08,0,0,1-.281-1.953v-.009a13.028,13.028,0,0,1,2.832-8.821c10.676-9.85,20.57-8.61,28.134-3.72,7.95,5.145,13.323,14.326,14.309,18.926C452.354,65,449.408,72.5,442.144,72.944Z" transform="translate(-399.71 -33.408)" fill="#5a2030"/>
            <path id="Trazado_8457" data-name="Trazado 8457" d="M454.117,92.846s3.291-5.56,6.468-3.064-.794,11.007-6.581,13.05Z" transform="translate(-415.769 -51.719)" fill="#feb7ab"/>
            <path id="Trazado_8458" data-name="Trazado 8458" d="M450.3,89.147s4.652,18.043-1.362,31.434c0,0,8.851-13.391,5.107-32.342Z" transform="translate(-414.103 -51.424)" fill="#5a2030"/>
            <path id="Trazado_8459" data-name="Trazado 8459" d="M405.105,63.822a4.621,4.621,0,0,0-2.656.792c-1.425.914-2.955,6.253-2.955,6.253a16.669,16.669,0,0,1-2.383-6.878v-.026a10.958,10.958,0,0,1,.4-4.222,16.634,16.634,0,0,1,6.464-8.513l.053.555v.009Z" transform="translate(-397.059 -39.263)" fill="#5a2030"/>
            <path id="Trazado_8460" data-name="Trazado 8460" d="M404.806,69.982a.658.658,0,0,1-.606-.4l-1.391-3.234a.659.659,0,1,1,1.211-.521l1.391,3.234a.659.659,0,0,1-.606.92Z" transform="translate(-398.93 -43.929)" fill="#ffae1b"/>
            <path id="Trazado_8461" data-name="Trazado 8461" d="M402.6,72.822a.659.659,0,0,1-.566-.321l-1.811-3.018a.66.66,0,0,1,1.131-.679l1.81,3.019a.659.659,0,0,1-.226.9A.651.651,0,0,1,402.6,72.822Z" transform="translate(-398.069 -44.933)" fill="#ffae1b"/>
            <path id="Trazado_8462" data-name="Trazado 8462" d="M434.964,95.509a.182.182,0,0,0-.079,0l-.04.011c-.025.006-.05.011-.075.019a.366.366,0,0,0-.126.087l-.062.055-.059.052a1.569,1.569,0,0,0-.844-.609,3.291,3.291,0,0,0-1.438-.2,7.764,7.764,0,0,0-1.549.306c-.356.1-.859.2-.958.618a0,0,0,0,0,0,0,4.972,4.972,0,0,1,2.371-.559,3.814,3.814,0,0,1,1.152.19,1.856,1.856,0,0,1,.963.592.183.183,0,0,0,.314,0l.015-.007s.026-.015.011,0,0,0,.007,0l.018,0a.216.216,0,0,0,.064-.024c.047-.029.091-.064.136-.1l.064-.046a.379.379,0,0,0,.114-.1c.013-.021.023-.044.035-.065a.271.271,0,0,0,.042-.115A.111.111,0,0,0,434.964,95.509Z" transform="translate(-407.795 -53.617)" fill="#5a2030"/>
            <path id="Trazado_8463" data-name="Trazado 8463" d="M410.157,94.176a.179.179,0,0,1,.077.013l.038.015c.023.01.048.019.071.03a.377.377,0,0,1,.112.1l.054.064.051.06a1.568,1.568,0,0,1,.923-.479,3.283,3.283,0,0,1,1.452.013,7.757,7.757,0,0,1,1.488.529c.336.156.82.325.857.752,0,0,0,0-.005,0a4.969,4.969,0,0,0-2.263-.9,3.8,3.8,0,0,0-1.167.019,1.862,1.862,0,0,0-1.039.445.183.183,0,0,1-.311-.046l-.013-.009s-.023-.019-.011-.007,0,0-.007,0l-.017-.007a.186.186,0,0,1-.06-.033c-.042-.035-.081-.077-.121-.114l-.057-.054a.386.386,0,0,1-.1-.115c-.01-.022-.017-.046-.025-.069a.284.284,0,0,1-.026-.12A.112.112,0,0,1,410.157,94.176Z" transform="translate(-401.33 -53.287)" fill="#5a2030"/>
            <path id="Trazado_8464" data-name="Trazado 8464" d="M415.722,85.671a4.853,4.853,0,0,0-2.821-1.228,5.252,5.252,0,0,0-1.568.091,2.315,2.315,0,0,0-1.389.663.142.142,0,0,0,.122.212,9.507,9.507,0,0,0,1.311-.4,5.344,5.344,0,0,1,1.481-.152,5.518,5.518,0,0,1,2.81.882C415.71,85.769,415.76,85.7,415.722,85.671Z" transform="translate(-401.285 -50.169)" fill="#5a2030"/>
          </g>
          <g id="Grupo_9119" data-name="Grupo 9119" transform="translate(0 86.231)">
            <path id="Trazado_8465" data-name="Trazado 8465" d="M389.474,281.259c-1.231,5.831-11.073,6.816-14.59,6.983s-13.676-1.02-16.094-2.04c-1.214-.51-2.313-2.428-3.1-4.213a31.3,31.3,0,0,1-1.284-3.448,50.634,50.634,0,0,1-8.584-10.421c-11.442-17.712-18.31-44.052-18.31-44.052l2.418-6.244,24.475-63.2c15.153-5.62,18.213,15.654,16.683,21.274-1.319,4.837-19.049,41.985-23.947,52.213l-1.249,2.594c1.574,9.911,13.579,37.623,17.29,46.048l2.11-.431s18.223-.633,23.06,2.709h.017A2.117,2.117,0,0,1,389.474,281.259Z" transform="translate(-327.507 -153.688)" fill="#feb7ab"/>
            <path id="Trazado_8466" data-name="Trazado 8466" d="M398.434,337.256c-1.231,5.831-11.073,6.816-14.59,6.983s-13.676-1.02-16.094-2.04c-1.214-.51-2.313-2.428-3.1-4.213a31.292,31.292,0,0,1-1.284-3.448,50.634,50.634,0,0,1-8.584-10.421,51.22,51.22,0,0,0,9.2,8.437c2.445,1.495,26.388,1.3,33.327,2.477h.017A2.117,2.117,0,0,1,398.434,337.256Z" transform="translate(-336.467 -209.685)" fill="#ff837a"/>
            <path id="Trazado_8467" data-name="Trazado 8467" d="M372.262,175.9c-1.319,4.837-19.049,41.985-23.948,52.213C343.97,224.8,337,220.02,331.1,217.822l24.475-63.2C370.732,149,373.792,170.278,372.262,175.9Z" transform="translate(-328.688 -153.687)" fill="#fff"/>
            <path id="Trazado_8468" data-name="Trazado 8468" d="M373.851,194.255l-10.623,14.721-6.606,11.71a95.647,95.647,0,0,0-5.139-10.859c1.778,3.951,2.867,10.191,3.536,14.969-3.7-2.229-13.068-2.373-13.068-2.373l11.234,6.98a8.482,8.482,0,0,0,2.325-.841c.189,1.528.315,2.588.4,2.883a4,4,0,0,0,.518.464c.67-1.409,1.375-2.894,2.107-4.438a17.989,17.989,0,0,0-.318-1.786L371.4,199.8C372.339,197.724,373.165,195.854,373.851,194.255Z" transform="translate(-332.253 -167.016)" fill="#fff3db"/>
            <path id="Trazado_8469" data-name="Trazado 8469" d="M352.641,243.975a20.923,20.923,0,0,1-6.754,13.1,25.844,25.844,0,0,0-11.3-5.946,24.986,24.986,0,0,0-7.08-.694s.334-10.721,3.571-16.508c0,0,15.487,1.785,21.617,8.892A9.463,9.463,0,0,1,352.641,243.975Z" transform="translate(-327.507 -180.05)" fill="#fff"/>
            <path id="Trazado_8470" data-name="Trazado 8470" d="M356.106,246.351a20.923,20.923,0,0,1-6.754,13.1,25.844,25.844,0,0,0-11.3-5.946c2.981-.307,6.947-.563,8.32-.009,2.295.933,4.934-.342,5.022-3.658s-3.571-8.68-3.571-8.68S353.327,243.149,356.106,246.351Z" transform="translate(-330.971 -182.425)" fill="#fff3db"/>
            <g id="Grupo_9118" data-name="Grupo 9118" transform="translate(19.629 103.166)">
              <g id="Grupo_9116" data-name="Grupo 9116" transform="translate(0 17.712)">
                <path id="Trazado_8471" data-name="Trazado 8471" d="M412.236,337.86a.869.869,0,0,1-.246.554c-.633.712-2.472,1.363-5.206,1.917A124.771,124.771,0,0,1,384.489,342c-1.082,0-2.155-.009-3.21-.026-13.816-.238-24.537-1.987-24.537-4.116s10.642-3.861,24.387-4.116c1.1-.017,2.225-.026,3.36-.026a128,128,0,0,1,21.819,1.583,23.958,23.958,0,0,1,4.248,1.135l.009.009C411.646,336.884,412.236,337.358,412.236,337.86Z" transform="translate(-356.742 -333.718)" fill="#fff"/>
                <path id="Trazado_8472" data-name="Trazado 8472" d="M418.234,339.355c.067-.025.132-.052.2-.078.1-.042.2-.083.293-.124q.205-.094.381-.189c.057-.031.107-.062.158-.093.079-.047.154-.095.223-.142.04-.029.081-.057.117-.086a1.96,1.96,0,0,0,.254-.228.868.868,0,0,0,.246-.554c0-.5-.59-.976-1.671-1.416l-.009-.009c-.253-.1-.535-.2-.84-.3l-.05-.015q-.437-.141-.941-.275l-.068-.017c-.33-.087-.677-.172-1.046-.255-.107-.024-.227-.047-.337-.071-.274-.058-.547-.118-.84-.174l-.126-.026,0,0a127.367,127.367,0,0,0-21.815-1.585c-1.135,0-2.261.009-3.36.026l-8.311,3.923a55.357,55.357,0,0,0,8.461,4.309c1.056.017,2.128.026,3.21.026a124.261,124.261,0,0,0,22.283-1.676l.011,0a25.623,25.623,0,0,0,3.133-.812l.083-.028C418,339.445,418.116,339.4,418.234,339.355Z" transform="translate(-364.609 -333.718)" fill="#fff3db"/>
                <path id="Trazado_8473" data-name="Trazado 8473" d="M393.942,336.383c-7.726,0-14.357.582-17.261,1.414,3.066-.652,9.292-1.1,16.49-1.1,10.231,0,18.526.9,18.526,2.014s-8.294,2.014-18.526,2.014c-7.605,0-14.134-.5-16.987-1.211,2.572.917,9.541,1.576,17.757,1.576,10.4,0,18.832-1.053,18.832-2.353S404.344,336.383,393.942,336.383Z" transform="translate(-363.13 -334.594)" fill="#efd6a5"/>
              </g>
              <g id="Grupo_9117" data-name="Grupo 9117" transform="translate(9.313)">
                <path id="Trazado_8474" data-name="Trazado 8474" d="M405.571,309.44c0,.193-.228.387-.651.563a9.046,9.046,0,0,1-1.689.492,110.009,110.009,0,0,1-30.28,0c-1.407-.3-2.243-.633-2.331-.994a.151.151,0,0,1-.009-.062c0-1.161,7.827-2.1,17.475-2.1S405.571,308.279,405.571,309.44Z" transform="translate(-370.613 -307.338)" fill="#fff"/>
                <path id="Trazado_8475" data-name="Trazado 8475" d="M404.925,310.308a9.049,9.049,0,0,1-1.689.492,110.009,110.009,0,0,1-30.28,0c-1.407-.3-2.243-.633-2.331-.994,2.058-.888,8.812-1.539,16.833-1.539C396.94,308.268,404.652,309.174,404.925,310.308Z" transform="translate(-370.617 -307.644)" fill="#fff3db"/>
                <path id="Trazado_8476" data-name="Trazado 8476" d="M416.8,318.647a4.412,4.412,0,1,1-4.413,4.412,4.418,4.418,0,0,1,4.413-4.412Zm0-1.723a6.135,6.135,0,1,0,6.135,6.135,6.135,6.135,0,0,0-6.135-6.135Z" transform="translate(-383.773 -310.488)" fill="#fff3db"/>
                <path id="Trazado_8477" data-name="Trazado 8477" d="M405.562,310.468v.027c-.923,12.172-6.244,18.908-6.244,18.908,0,1.117-4.644,2.022-10.5,2.084-.237.009-.483.009-.73.009-1.082,0-2.128-.026-3.113-.088-1.4-.07-2.682-.193-3.8-.352-2.621-.387-4.309-.985-4.309-1.653,0,0-5.339-6.746-6.253-18.935Z" transform="translate(-370.613 -308.366)" fill="#fff"/>
                <path id="Trazado_8478" data-name="Trazado 8478" d="M404.371,311.521a110.017,110.017,0,0,1-30.28,0,109.116,109.116,0,0,1,30.28,0Z" transform="translate(-371.756 -308.366)" fill="#703a36"/>
                <path id="Trazado_8479" data-name="Trazado 8479" d="M414.471,310.508c-.923,12.172-6.244,18.908-6.244,18.908,0,1.117-4.644,2.022-10.5,2.084a44.266,44.266,0,0,0,8.689-18.117S413.794,312.346,414.471,310.508Z" transform="translate(-379.521 -308.38)" fill="#fff3db"/>
              </g>
            </g>
          </g>
        </g>
        <g id="Grupo_9121" data-name="Grupo 9121" transform="translate(76.225 262.691)">
          <path id="Trazado_8480" data-name="Trazado 8480" d="M422.341,446.383c0,8.821-7.572,17.017-20.535,23.78C380.532,481.3,344.756,488.6,304.2,488.6c-65.247,0-118.147-18.9-118.147-42.214,0-7.519,5.506-14.582,15.154-20.685,20.254-12.858,58.791-21.53,102.993-21.53C369.451,404.169,422.341,423.068,422.341,446.383Z" transform="translate(-186.057 -404.169)" fill="#d3bdff"/>
          <path id="Trazado_8481" data-name="Trazado 8481" d="M416.959,450.994c0,7.519-5.505,14.582-15.153,20.685-21.274,11.134-57.05,18.434-97.6,18.434-65.247,0-118.147-18.9-118.147-42.214,0-7.519,5.506-14.582,15.154-20.685,21.274-11.134,57.05-18.434,97.6-18.434C364.06,408.78,416.959,427.68,416.959,450.994Z" transform="translate(-186.057 -405.684)" fill="#f2ebff"/>
        </g>
        <g id="Grupo_9125" data-name="Grupo 9125" transform="translate(7.944 106.609)">
          <g id="Grupo_9122" data-name="Grupo 9122">
            <path id="Trazado_8482" data-name="Trazado 8482" d="M178.877,191.756v.026c-.079,9.613-3.3,20.263-5.505,23.06,0,0-10.14-8.539-16.964-8.848s-36.9-3.966-36.9-3.966a55.857,55.857,0,0,1,3.553-10.246v-.009c2.472-5.417,6.385-11.627,12.189-14.924,11.715-6.667,32.628-7.476,40.05,1.319C177.963,181.326,178.913,186.374,178.877,191.756Z" transform="translate(-95.909 -171.71)" fill="#5a2030"/>
            <path id="Trazado_8483" data-name="Trazado 8483" d="M167.333,301.135l.617,19.972-40.063-3.187,2.038-7.507,4.826-27.76Z" transform="translate(-98.664 -208.162)" fill="#feb7ab"/>
            <path id="Trazado_8484" data-name="Trazado 8484" d="M177.376,311.752l.326,10.558c-3.6-1.006-11.011-3.531-14.277-7.856-4.421-5.837-5.523-17.277-5.523-17.277Z" transform="translate(-108.525 -212.933)" fill="#ff837a"/>
            <path id="Trazado_8485" data-name="Trazado 8485" d="M192.951,246.725c-.784-2.008-4.309-3.052-6.929-5.276h-.009a7.967,7.967,0,0,1-2.539-3.581c-1.689-5.1-6.074-20.287-12.048-26.236-5.582-5.557-26.844-3.784-36.71,5.026l9.667,41.385s9.108,19.764,14.976,24.125,18.337,2.846,18.358,2.844c.831-.271,1.663-.545,2.481-.823,5.259-1.79,9.988-3.67,10.728-4.8C192.681,276.711,194.06,249.585,192.951,246.725Z" transform="translate(-100.907 -183.783)" fill="#feb7ab"/>
            <path id="Trazado_8486" data-name="Trazado 8486" d="M130.309,244.114a36.92,36.92,0,0,0,15.6-17.132c5.416-12.127,7.123-16.03,11.514-15.177,0,0-2.452-27.717-49.471-.718,0,0-20.9,1.554-23.326,22.207s12.263,38.624,18.669,41.985a109.533,109.533,0,0,1,12.33,7.737s.9-4.075,4.246-5.881,7.312-5.846,7.217-8.909,6.864-14.858,6.864-14.858Z" transform="translate(-84.363 -180.765)" fill="#5a2030"/>
            <path id="Trazado_8487" data-name="Trazado 8487" d="M154.015,263.406s-11.531-3.9-12.3,4.127,9.559,11.221,19.1,11.331Z" transform="translate(-103.192 -201.527)" fill="#feb7ab"/>
            <path id="Trazado_8488" data-name="Trazado 8488" d="M154,249.68s3.438,17.563,14.054,19.449c0,0-7.766-14.349-8.226-23.73S152.292,243.868,154,249.68Z" transform="translate(-107.155 -194.492)" fill="#5a2030"/>
            <path id="Trazado_8489" data-name="Trazado 8489" d="M197.586,249.689c.634,1.544.652,3,.04,3.25s-1.62-.8-2.254-2.341-.651-3-.04-3.25S196.953,248.146,197.586,249.689Z" transform="translate(-120.677 -196.55)" fill="#5a2030"/>
            <path id="Trazado_8490" data-name="Trazado 8490" d="M192.1,238.642a2.784,2.784,0,0,0-1.7-.4,4.243,4.243,0,0,0-1.813.487,3.521,3.521,0,0,0-1.935,2.549.1.1,0,0,0,.184.071,5.433,5.433,0,0,1,1.969-2.122,3.9,3.9,0,0,1,1.565-.463,5.778,5.778,0,0,1,.814,0c.279.017.553.1.832.1A.128.128,0,0,0,192.1,238.642Z" transform="translate(-117.971 -193.569)" fill="#5a2030"/>
          </g>
          <g id="Grupo_9123" data-name="Grupo 9123" transform="translate(7.466 104.922)">
            <path id="Trazado_8491" data-name="Trazado 8491" d="M192.823,356.208s-3.3,4.092-2.445,8.746-15.209-14.4-15.209-14.4h13.337Z" transform="translate(-121.665 -335.394)" fill="#5bb4ae"/>
            <path id="Trazado_8492" data-name="Trazado 8492" d="M112.893,340.06l6.638-12.085s40,2.526,48,5.093l11.912,18.227s-12.593-5.788-23.316-3.915S112.893,340.06,112.893,340.06Z" transform="translate(-101.203 -327.975)" fill="#6fded6"/>
            <path id="Trazado_8493" data-name="Trazado 8493" d="M192.109,418.469s-.879-.246-2.471-.712c-1.83-.528-4.6-1.337-8.047-2.4-4.063-1.258-9.076-2.85-14.582-4.705-23.974-8.082-57.508-21.2-64.772-33.376-11.574-19.4-4.767-32.338-4.767-32.338s29.743-8.557,41.184-5.672l.686.193s.009,0,.035.017c10.905,3.465,33,25.065,40.482,40.781C187.342,396,192.109,418.469,192.109,418.469Z" transform="translate(-95.482 -331.489)" fill="#66cbc4"/>
            <path id="Trazado_8494" data-name="Trazado 8494" d="M220.138,428.708c-1.83-.528-4.6-1.338-8.047-2.4-4.063-1.258-9.076-2.85-14.582-4.705l-9.2-49.6Z" transform="translate(-125.982 -342.44)" fill="#5bb4ae"/>
            <path id="Trazado_8495" data-name="Trazado 8495" d="M181.591,415.356c-6.86-2.12-16.393-5.2-26.516-8.883-21.978-8.02-46.717-18.943-52.838-29.2-11.574-19.4-4.767-32.338-4.767-32.338s2.761-.792,6.921-1.82c9.5-2.331,26.3-5.858,34.263-3.852l.686.193s.009,0,.035.017c.66.273,11.407,4.916,17.669,19.762C162,370.961,175.514,401.6,181.591,415.356Z" transform="translate(-95.482 -331.489)" fill="#66cbc4"/>
          </g>
          <g id="Grupo_9124" data-name="Grupo 9124" transform="translate(111.357 163.42)">
            <path id="Trazado_8496" data-name="Trazado 8496" d="M391.718,428.9l-18.724,7.652a49.439,49.439,0,0,1,2.031,6.6,2.2,2.2,0,0,1,.018.624,11.833,11.833,0,0,1-.73,1.644c-1.213,2.472-3.72,7.141-5.672,10.738-1.5,2.779-2.682,4.916-2.682,4.916s-33.129,1.134-37.218,0-54.923,6.358-54.923,6.358l-8.566-7.08-2.049-1.7-3.175-2.621-7.221-5.98-2.594-2.146s51.518-3.852,73.311-12.023c0,0,.712-.228,1.882-.606a.027.027,0,0,1,.017-.009c4.266-1.372,14.59-4.626,19.208-5.514,5.9-1.135,43.569-5,45.16-4.538s2.04,3.633,2.04,3.633Z" transform="translate(-250.213 -418.414)" fill="#feb7ab"/>
            <path id="Trazado_8497" data-name="Trazado 8497" d="M358.548,433.88s14.639-11.422,16.341-12.009,17.362-4.9,20.426-6.771c0,0,3.218,9.095-11.064,10.1l1.873,2.212Z" transform="translate(-285.808 -415.099)" fill="#feb7ab"/>
            <path id="Trazado_8498" data-name="Trazado 8498" d="M376,468.8c-1.5,2.779-2.682,4.916-2.682,4.916s-33.129,1.134-37.218,0-54.923,6.358-54.923,6.358L272.61,473c20.606-1.953,60.314-5.637,60.314-5.637s41.844-5.743,42.891-2.946A13.069,13.069,0,0,1,376,468.8Z" transform="translate(-257.572 -431.049)" fill="#ff837a"/>
            <path id="Trazado_8499" data-name="Trazado 8499" d="M294.582,470.2l-26.577,3.254-3.175-2.621C273.246,470.567,294.582,470.2,294.582,470.2Z" transform="translate(-255.016 -433.203)" fill="#ff837a"/>
            <path id="Trazado_8500" data-name="Trazado 8500" d="M431.464,452.576a11.848,11.848,0,0,1-.731,1.644l-8.8-.457,9.516-1.812A2.2,2.2,0,0,1,431.464,452.576Z" transform="translate(-306.633 -427.208)" fill="#ff837a"/>
            <path id="Trazado_8501" data-name="Trazado 8501" d="M451.245,430.181l-18.724,7.652-1.135-2.938s17.255-5.839,18.5-5.813C450.462,429.091,450.928,429.618,451.245,430.181Z" transform="translate(-309.741 -419.693)" fill="#ff837a"/>
          </g>
        </g>
      </g>
    </g>
    <path id="Trazado_8502" data-name="Trazado 8502" d="M413.752,115.981s3.653,3.92,15.208.136" transform="translate(-112.113 -33.859)" fill="#fff"/>
  </g>
</svg>
