<svg xmlns="http://www.w3.org/2000/svg" width="133.696" height="136" viewBox="0 0 133.696 136">
  <g id="Grupo_9097" data-name="Grupo 9097" transform="translate(-117.246 -204)">
    <path id="Trazado_8390" data-name="Trazado 8390" d="M354.755,542.441v14.937a1.194,1.194,0,0,1-1.935.945l-17.726-13.577Zm0,0" transform="translate(-140.696 -218.581)" fill="#ff5364"/>
    <path id="Trazado_8391" data-name="Trazado 8391" d="M325.527,380.541a16.947,16.947,0,0,1,.6-3.793,8.991,8.991,0,0,1,6.35-6.065l13.8-3.972h18.439l13.8,3.972a8.989,8.989,0,0,1,6.35,6.065,17.021,17.021,0,0,1,.6,3.84,4.412,4.412,0,0,1-4.241,4.564H355.492Zm0,0" transform="translate(-134.517 -105.086)" fill="#4482c3"/>
    <path id="Trazado_8392" data-name="Trazado 8392" d="M177.178,380.541a16.947,16.947,0,0,0-.6-3.793,8.991,8.991,0,0,0-6.35-6.065l-13.8-3.972H137.995l-13.8,3.972a8.989,8.989,0,0,0-6.35,6.065,17.021,17.021,0,0,0-.6,3.84,4.412,4.412,0,0,0,4.241,4.564h25.723Zm0,0" transform="translate(0 -105.086)" fill="#5ba593"/>
    <path id="Trazado_8393" data-name="Trazado 8393" d="M402.541,336.383v10.741s-1.105,4.611-9.2,4.611-9.242-4.611-9.242-4.611V336.383Zm0,0" transform="translate(-172.348 -85.499)" fill="#f9c795"/>
    <path id="Trazado_8394" data-name="Trazado 8394" d="M388.846,236.269a2.3,2.3,0,0,1-2.3-2.3v-9.219c0-7.462-8.054-16.136-18.439-16.136s-18.441,8.674-18.441,16.136v9.219a2.3,2.3,0,1,1-4.609,0v-9.219c0-9.792,9.857-20.746,23.05-20.746s23.049,10.954,23.049,20.746v9.219a2.3,2.3,0,0,1-2.3,2.3Zm0,0" transform="translate(-147.127)" fill="#7f8284"/>
    <rect id="Rectángulo_5960" data-name="Rectángulo 5960" width="9.22" height="13.83" transform="translate(197.924 229.355)" fill="#547580"/>
    <path id="Trazado_8395" data-name="Trazado 8395" d="M398.746,250.373V264.2a11.3,11.3,0,0,1-3.758,6.868c-3.965,3.481-3.965,6.961-7.93,6.961h-4.287c-3.965,0-3.965-3.481-7.928-6.961a11.285,11.285,0,0,1-3.757-6.868v-13.83a13.83,13.83,0,1,1,27.66,0Zm0,0" transform="translate(-163.942 -21.018)" fill="#fdd7ad"/>
    <path id="Trazado_8396" data-name="Trazado 8396" d="M453.8,289.424h-4.609v-13.83h9.219v9.22a4.61,4.61,0,0,1-4.61,4.61Zm0,0" transform="translate(-214.383 -46.239)" fill="#547580"/>
    <path id="Trazado_8397" data-name="Trazado 8397" d="M351.967,317.764H349.66a4.61,4.61,0,0,1-4.609-4.611v-9.219a2.3,2.3,0,1,1,4.609,0v9.219h2.306a2.306,2.306,0,0,1,0,4.611Zm0,0" transform="translate(-147.127 -63.053)" fill="#464f5d"/>
    <path id="Trazado_8398" data-name="Trazado 8398" d="M206.635,405.762h64.218a4.761,4.761,0,0,1,4.772,4.771V451.7a4.761,4.761,0,0,1-4.772,4.771H206.635a4.762,4.762,0,0,1-4.772-4.771V410.533a4.761,4.761,0,0,1,4.772-4.771Zm0,0" transform="translate(-54.65 -130.307)" fill="#fb7b76"/>
    <path id="Trazado_8399" data-name="Trazado 8399" d="M291.07,441.431a9.641,9.641,0,0,1-2.783,6.789l-14.02,14.2a2.306,2.306,0,0,1-3.28,0l-13.647-13.83c-6.162-6.238-2.264-16.777,6.333-16.777,4.535,0,6.611,2.72,8.953,5.092l2.247-2.273a9.48,9.48,0,0,1,16.2,6.8Zm0,0" transform="translate(-88.537 -147.13)" fill="#fff"/>
    <path id="Trazado_8400" data-name="Trazado 8400" d="M194.271,336.383v10.741s-1.107,4.611-9.2,4.611-9.243-4.611-9.243-4.611V336.383Zm0,0" transform="translate(-37.837 -85.499)" fill="#f9c795"/>
    <path id="Trazado_8401" data-name="Trazado 8401" d="M151.308,245.85c-2.1-5.07-2.9-16.135,3.918-16.827a1.261,1.261,0,0,0,.992-.714c.754-1.455,3.319-4.782,11.871-4.782,0,0,14.775,0,17.471,8.205a21.829,21.829,0,0,1-.253,14.118Zm0,0" transform="translate(-21.036 -12.611)" fill="#805333"/>
    <path id="Trazado_8402" data-name="Trazado 8402" d="M186.629,271.094c0,3.7-2.677,6.224-5.348,5.694a10.193,10.193,0,0,1-3.02,6.938c-3.964,3.481-3.964,6.961-7.928,6.961h-4.287c-3.965,0-3.965-3.481-7.929-6.961a10.2,10.2,0,0,1-3.02-6.938c-2.678.53-5.347-1.989-5.347-5.694a5.275,5.275,0,0,1,4.609-5.762,11.406,11.406,0,0,1,2.167-6.246c1.176-1.584,1.946-2.619,3.85-2.767,3.436-.243,12.193-.243,15.628,0,1.9.148,2.659,1.152,3.849,2.767a11.408,11.408,0,0,1,2.166,6.246,5.3,5.3,0,0,1,4.611,5.762Zm0,0" transform="translate(-20.974 -33.672)" fill="#fdd7ad"/>
  </g>
</svg>
