<svg xmlns="http://www.w3.org/2000/svg" xmlns:xlink="http://www.w3.org/1999/xlink" width="191" height="191" viewBox="0 0 191 191">
  <defs>
    <clipPath id="clip-path">
      <rect id="SVGID" width="191" height="191" fill="none"/>
    </clipPath>
  </defs>
  <g id="Grupo_9092" data-name="Grupo 9092" transform="translate(-114 -204)">
    <g id="Grupo_9091" data-name="Grupo 9091" transform="translate(114 204)">
      <g id="Grupo_9090" data-name="Grupo 9090" clip-path="url(#clip-path)">
        <path id="Trazado_8356" data-name="Trazado 8356" d="M300.455,336.626l-37.475,14.16a6.012,6.012,0,0,0-3.359,8.527l5.1,9.485,21.209,39.287,7.508,13.929a6.622,6.622,0,0,0,5.8,3.293h2.47A3.2,3.2,0,0,0,305,422.246v-82.79a3.291,3.291,0,0,0-4.545-2.831Zm0,0" transform="translate(-114 -270.532)" fill="#3b97d3"/>
        <path id="Trazado_8357" data-name="Trazado 8357" d="M159.379,361.042l-33.821,67.342a6.508,6.508,0,0,1-5.8,3.525h-2.47A3.294,3.294,0,0,1,114,428.616V339.7a3.316,3.316,0,0,1,4.545-3.062l37.475,15.213a6.668,6.668,0,0,1,3.359,9.188Zm0,0" transform="translate(-114 -270.547)" fill="#894b9d"/>
        <path id="Trazado_8358" data-name="Trazado 8358" d="M277.142,457a9.33,9.33,0,0,1-15.444,7.016l-4.084-3.558a8.762,8.762,0,0,1,3.029,6.653,8.871,8.871,0,0,1-15.114,6.257,7.28,7.28,0,0,1,1.679,4.578,6.99,6.99,0,0,1-11.92,4.939l-2.339-2.3a7.576,7.576,0,0,1,1.681,4.743,7.475,7.475,0,0,1-11.988,5.959c-11.712-9.091-10.162-8.265-10.867-8.593,2.862-6.2,3.787-7.576,3.787-9.682a6.612,6.612,0,0,0-12.612-2.767,10.718,10.718,0,0,0,1.449-4.972,8.233,8.233,0,0,0-15.675-3.525,14.05,14.05,0,0,0,2.108-6.355,8.233,8.233,0,0,0-15.709-3.458l-2.207,4.809a7.381,7.381,0,0,0,.562-2.767,7.186,7.186,0,0,0-13.7-3.029l-2.634,5.729-11.427-5.435,26.444-52.656a53.815,53.815,0,0,0,17.057,5.3c3.655,0,10.768-2.535,18.41-2.833l-7.772,17.191a8.486,8.486,0,0,0,3.919,11.1h.033a8.469,8.469,0,0,0,10.142-2.009l15.18-16.892c48.146,42.481,45.077,39.741,45.479,40.208A9.159,9.159,0,0,1,277.142,457Zm0,0" transform="translate(-129.94 -301.798)" fill="#f9c795"/>
      </g>
    </g>
    <line id="Línea_1158" data-name="Línea 1158" x1="3.688" y1="3.26" transform="translate(209.5 309.38)" fill="#894b9d"/>
    <path id="Trazado_8359" data-name="Trazado 8359" d="M183.318,502.684c0,1.871-.4,2.5-4.315,10.9a7.183,7.183,0,0,1-13.041-6.025l3.656-7.9a7.186,7.186,0,0,1,13.7,3.029Zm0,0" transform="translate(-25.783 -146.51)" fill="#fdd7ad"/>
    <path id="Trazado_8360" data-name="Trazado 8360" d="M214.132,504.46a13.728,13.728,0,0,1-2.108,6.355.122.122,0,0,0-.033.066l-4.117,8.99a8.237,8.237,0,1,1-15.114-6.553L198.423,501a8.233,8.233,0,0,1,15.709,3.458Zm0,0" transform="translate(-39.242 -146.869)" fill="#fdd7ad"/>
    <path id="Trazado_8361" data-name="Trazado 8361" d="M242.941,524.328c0,2.351-.5,2.868-4.544,11.722h-.033a8.233,8.233,0,1,1-15.248-6.191l4.117-8.99a.122.122,0,0,1,.033-.066,8.233,8.233,0,0,1,15.675,3.525Zm0,0" transform="translate(-54.483 -156.858)" fill="#fdd7ad"/>
    <path id="Trazado_8362" data-name="Trazado 8362" d="M268.621,541.541c0,2.1-.556,2.768-4.708,11.691a6.617,6.617,0,0,1-12.021-5.534c.787-1.7.573-1.218.989-2.174h.033l3.095-6.75a6.612,6.612,0,0,1,12.612,2.767Zm0,0" transform="translate(-69.001 -166.332)" fill="#fdd7ad"/>
    <path id="Trazado_8363" data-name="Trazado 8363" d="M355.809,432.364l-27.267,11.294c-.4-.467,2.635,2.266-45.479-40.208l-15.18,16.892a8.469,8.469,0,0,1-10.142,2.009h-.033a8.486,8.486,0,0,1-3.919-11.1c11.854-26.191,10.883-24.732,12.612-26.115a45.837,45.837,0,0,0,27.432-.46c.329.134.519.262,16.07,11.426a13.124,13.124,0,0,0,12.283,1.615l12.414-4.644Zm0,0" transform="translate(-69.875 -90.811)" fill="#fdd7ad"/>
    <path id="Trazado_8364" data-name="Trazado 8364" d="M305.517,250.1a46.1,46.1,0,1,1-46.1-46.1,46.1,46.1,0,0,1,46.1,46.1Zm0,0" transform="translate(-49.913 0)" fill="#f0c419"/>
    <path id="Trazado_8365" data-name="Trazado 8365" d="M305.621,250.1c0,25.461-16.218,46.1-36.224,46.1s-36.224-20.642-36.224-46.1S249.39,204,269.4,204s36.224,20.642,36.224,46.1Zm0,0" transform="translate(-59.896 0)" fill="#f3d55b"/>
    <path id="Trazado_8366" data-name="Trazado 8366" d="M279.449,256.931a6.586,6.586,0,1,1-6.586-6.587,6.586,6.586,0,0,1,6.586,6.587Zm0,0" transform="translate(-76.535 -23.293)" fill="#f29c1f"/>
    <path id="Trazado_8367" data-name="Trazado 8367" d="M332.414,256.931a6.586,6.586,0,1,1-6.585-6.587,6.586,6.586,0,0,1,6.585,6.587Zm0,0" transform="translate(-103.156 -23.293)" fill="#f29c1f"/>
    <path id="Trazado_8368" data-name="Trazado 8368" d="M304.991,309.93a.833.833,0,0,1,.836.861,16.485,16.485,0,0,1-32.93,0,.827.827,0,0,1,.842-.861Zm0,0" transform="translate(-79.862 -53.241)" fill="#f29c1f"/>
  </g>
</svg>
