<svg id="Grupo_8826" data-name="Grupo 8826" xmlns="http://www.w3.org/2000/svg" xmlns:xlink="http://www.w3.org/1999/xlink" width="665.514" height="643.784" viewBox="0 0 665.514 643.784">
  <defs>
    <clipPath id="clip-path">
      <rect id="Rectángulo_5818" data-name="Rectángulo 5818" width="665.514" height="643.784" fill="none"/>
    </clipPath>
  </defs>
  <path id="Trazado_7556" data-name="Trazado 7556" d="M553.608,503.179l3.441,5.577h-6.554" transform="translate(50.794 46.428)" fill="none" stroke="#f78966" stroke-linecap="round" stroke-linejoin="round" stroke-width="2"/>
  <line id="Línea_1130" data-name="Línea 1130" x1="514.556" transform="translate(73.706 555.185)" fill="none" stroke="#f78966" stroke-linecap="round" stroke-linejoin="round" stroke-width="2" stroke-dasharray="11.926 11.926"/>
  <path id="Trazado_7557" data-name="Trazado 7557" d="M62.07,508.757H55.516l3.441-5.577" transform="translate(5.122 46.428)" fill="none" stroke="#f78966" stroke-linecap="round" stroke-linejoin="round" stroke-width="2"/>
  <line id="Línea_1131" data-name="Línea 1131" y1="415.718" x2="256.462" transform="translate(70.918 122.804)" fill="none" stroke="#f78966" stroke-linecap="round" stroke-linejoin="round" stroke-width="2" stroke-dasharray="11.925 11.925"/>
  <path id="Trazado_7558" data-name="Trazado 7558" d="M302.855,107.826l3.441-5.577,3.441,5.577" transform="translate(27.944 9.435)" fill="none" stroke="#f78966" stroke-linecap="round" stroke-linejoin="round" stroke-width="2"/>
  <line id="Línea_1132" data-name="Línea 1132" x2="256.462" y2="415.719" transform="translate(344.52 128.346)" fill="none" stroke="#f78966" stroke-linecap="round" stroke-linejoin="round" stroke-width="2" stroke-dasharray="11.925 11.925"/>
  <line id="Línea_1133" data-name="Línea 1133" x1="5.623" y1="3.366" transform="translate(602.22 551.819)" fill="none" stroke="#f78966" stroke-linecap="round" stroke-linejoin="round" stroke-width="2"/>
  <line id="Línea_1134" data-name="Línea 1134" x1="245.089" y1="146.694" transform="translate(345.731 398.302)" fill="none" stroke="#f78966" stroke-linecap="round" stroke-linejoin="round" stroke-width="2" stroke-dasharray="12.163 12.163"/>
  <path id="Trazado_7559" data-name="Trazado 7559" d="M312.257,361.817l-5.623-3.366-5.625,3.363" transform="translate(27.774 33.074)" fill="none" stroke="#f78966" stroke-linecap="round" stroke-linejoin="round" stroke-width="2"/>
  <line id="Línea_1135" data-name="Línea 1135" x1="245.398" y2="146.699" transform="translate(71.971 401.712)" fill="none" stroke="#f78966" stroke-linecap="round" stroke-linejoin="round" stroke-width="2" stroke-dasharray="12.175 12.175"/>
  <line id="Línea_1136" data-name="Línea 1136" x1="5.625" y2="3.363" transform="translate(60.638 551.822)" fill="none" stroke="#f78966" stroke-linecap="round" stroke-linejoin="round" stroke-width="2"/>
  <line id="Línea_1137" data-name="Línea 1137" y1="6.554" transform="translate(334.408 384.972)" fill="none" stroke="#f78966" stroke-linecap="round" stroke-linejoin="round" stroke-width="2"/>
  <line id="Línea_1138" data-name="Línea 1138" y1="247.683" transform="translate(334.408 124.587)" fill="none" stroke="#f78966" stroke-linecap="round" stroke-linejoin="round" stroke-width="2" stroke-dasharray="11.629 11.629"/>
  <line id="Línea_1139" data-name="Línea 1139" y1="6.554" transform="translate(334.408 111.683)" fill="none" stroke="#f78966" stroke-linecap="round" stroke-linejoin="round" stroke-width="2"/>
  <path id="Trazado_7560" data-name="Trazado 7560" d="M275,434.554h-8.083V420.518H275v2.439H269.9v3.081h4.752v2.439H269.9V432.1H275Z" transform="translate(24.629 38.801)" fill="#4384cd"/>
  <rect id="Rectángulo_5802" data-name="Rectángulo 5802" width="2.928" height="14.938" transform="translate(302.329 458.417)" fill="#4384cd"/>
  <g id="Grupo_8825" data-name="Grupo 8825">
    <g id="Grupo_8824" data-name="Grupo 8824" clip-path="url(#clip-path)">
      <path id="Trazado_7561" data-name="Trazado 7561" d="M291.373,434.484q-5.012,0-5.011-5.5a5.866,5.866,0,0,1,1.363-4.18,5.115,5.115,0,0,1,3.907-1.446,7.453,7.453,0,0,1,3.341.73l-.864,2.266q-.691-.279-1.287-.455a4.118,4.118,0,0,0-1.191-.178q-2.284,0-2.284,3.244,0,3.149,2.284,3.149a5.2,5.2,0,0,0,1.565-.225,5.656,5.656,0,0,0,1.44-.706v2.506a4.729,4.729,0,0,1-1.435.624,8.1,8.1,0,0,1-1.828.173" transform="translate(26.423 39.063)" fill="#4384cd"/>
      <rect id="Rectángulo_5803" data-name="Rectángulo 5803" width="2.928" height="14.938" transform="translate(323.546 458.417)" fill="#4384cd"/>
      <path id="Trazado_7562" data-name="Trazado 7562" d="M301.594,421.123q0-1.43,1.593-1.431t1.594,1.431a1.4,1.4,0,0,1-.4,1.062,1.677,1.677,0,0,1-1.2.378q-1.593,0-1.593-1.44m3.052,13.507h-2.928V423.9h2.928Z" transform="translate(27.828 38.725)" fill="#4384cd"/>
      <path id="Trazado_7563" data-name="Trazado 7563" d="M312.113,434.484a5.54,5.54,0,0,1-4.051-1.43A5.416,5.416,0,0,1,306.6,429a5.959,5.959,0,0,1,1.349-4.171,4.8,4.8,0,0,1,3.729-1.473,4.729,4.729,0,0,1,3.543,1.3,4.906,4.906,0,0,1,1.267,3.582v1.42H309.57a2.818,2.818,0,0,0,.739,1.95,2.6,2.6,0,0,0,1.939.7,8.06,8.06,0,0,0,1.834-.2,9.208,9.208,0,0,0,1.8-.643v2.265a6.888,6.888,0,0,1-1.642.571,10.288,10.288,0,0,1-2.131.187m-.413-9.043a1.859,1.859,0,0,0-1.459.591,2.732,2.732,0,0,0-.605,1.674h4.109a2.445,2.445,0,0,0-.566-1.674,1.921,1.921,0,0,0-1.479-.591" transform="translate(28.29 39.063)" fill="#4384cd"/>
      <path id="Trazado_7564" data-name="Trazado 7564" d="M327.743,434.292h-2.928v-6.269a3.011,3.011,0,0,0-.413-1.742,1.5,1.5,0,0,0-1.315-.581,1.978,1.978,0,0,0-1.776.821,5.088,5.088,0,0,0-.547,2.721v5.05h-2.927V423.559h2.237l.393,1.373h.163a3.1,3.1,0,0,1,1.349-1.176,4.6,4.6,0,0,1,1.954-.4,3.753,3.753,0,0,1,2.841,1.014,4.063,4.063,0,0,1,.97,2.923Z" transform="translate(29.327 39.063)" fill="#4384cd"/>
      <path id="Trazado_7565" data-name="Trazado 7565" d="M334.279,432.327a6.347,6.347,0,0,0,1.843-.336v2.179a6.562,6.562,0,0,1-2.687.49,3.292,3.292,0,0,1-2.559-.888,3.867,3.867,0,0,1-.8-2.664v-5.175h-1.4V424.7l1.613-.98.844-2.265H333v2.285h3v2.2h-3v5.175a1.144,1.144,0,0,0,.351.922,1.385,1.385,0,0,0,.926.3" transform="translate(30.326 38.887)" fill="#4384cd"/>
      <path id="Trazado_7566" data-name="Trazado 7566" d="M342.393,434.484a5.541,5.541,0,0,1-4.051-1.43A5.415,5.415,0,0,1,336.882,429a5.959,5.959,0,0,1,1.349-4.171,4.8,4.8,0,0,1,3.729-1.473,4.73,4.73,0,0,1,3.543,1.3,4.906,4.906,0,0,1,1.267,3.582v1.42h-6.922a2.818,2.818,0,0,0,.739,1.95,2.6,2.6,0,0,0,1.939.7,8.06,8.06,0,0,0,1.834-.2,9.21,9.21,0,0,0,1.8-.643v2.265a6.888,6.888,0,0,1-1.642.571,10.289,10.289,0,0,1-2.131.187m-.413-9.043a1.859,1.859,0,0,0-1.459.591,2.732,2.732,0,0,0-.605,1.674h4.109a2.445,2.445,0,0,0-.566-1.674,1.921,1.921,0,0,0-1.479-.591" transform="translate(31.084 39.063)" fill="#4384cd"/>
      <path id="Trazado_7567" data-name="Trazado 7567" d="M0,586.261V572.226H2.976V583.8H8.669v2.458Z" transform="translate(0 52.799)" fill="#4384cd"/>
      <path id="Trazado_7568" data-name="Trazado 7568" d="M19.767,580.614a5.765,5.765,0,0,1-1.383,4.1,5.011,5.011,0,0,1-3.849,1.478,5.385,5.385,0,0,1-2.726-.676,4.5,4.5,0,0,1-1.814-1.944,6.527,6.527,0,0,1-.634-2.957,5.734,5.734,0,0,1,1.372-4.089,5.041,5.041,0,0,1,3.86-1.459,5.418,5.418,0,0,1,2.726.672,4.489,4.489,0,0,1,1.814,1.93,6.466,6.466,0,0,1,.634,2.947m-7.421,0a4.5,4.5,0,0,0,.523,2.409,1.87,1.87,0,0,0,1.7.816,1.841,1.841,0,0,0,1.685-.812,4.571,4.571,0,0,0,.513-2.414,4.423,4.423,0,0,0-.519-2.39,1.873,1.873,0,0,0-1.7-.8,1.867,1.867,0,0,0-1.689.792,4.424,4.424,0,0,0-.519,2.4" transform="translate(0.864 53.061)" fill="#4384cd"/>
      <path id="Trazado_7569" data-name="Trazado 7569" d="M28.646,582.813a2.956,2.956,0,0,1-1.147,2.515,5.672,5.672,0,0,1-3.432.864,10.849,10.849,0,0,1-2-.158,7.545,7.545,0,0,1-1.546-.466v-2.418a10.238,10.238,0,0,0,1.839.642,7.4,7.4,0,0,0,1.8.26q1.593,0,1.593-.922a.768.768,0,0,0-.211-.561,3.046,3.046,0,0,0-.73-.489q-.518-.274-1.382-.639a8.655,8.655,0,0,1-1.82-.96,2.687,2.687,0,0,1-.844-1.013,3.331,3.331,0,0,1-.264-1.407,2.546,2.546,0,0,1,1.109-2.212,5.4,5.4,0,0,1,3.144-.783,8.926,8.926,0,0,1,3.774.845l-.884,2.111a15.945,15.945,0,0,0-1.507-.566,4.727,4.727,0,0,0-1.431-.221q-1.3,0-1.3.7a.824.824,0,0,0,.417.682,11.265,11.265,0,0,0,1.83.854,8.488,8.488,0,0,1,1.843.951,2.815,2.815,0,0,1,.864,1.017,3.129,3.129,0,0,1,.279,1.373" transform="translate(1.892 53.061)" fill="#4384cd"/>
      <path id="Trazado_7570" data-name="Trazado 7570" d="M42.269,582.813a2.956,2.956,0,0,1-1.147,2.515,5.672,5.672,0,0,1-3.432.864,10.849,10.849,0,0,1-2-.158,7.545,7.545,0,0,1-1.546-.466v-2.418a10.238,10.238,0,0,0,1.839.642,7.4,7.4,0,0,0,1.8.26q1.593,0,1.593-.922a.768.768,0,0,0-.211-.561,3.046,3.046,0,0,0-.73-.489q-.518-.274-1.382-.639a8.655,8.655,0,0,1-1.82-.96,2.687,2.687,0,0,1-.844-1.013,3.331,3.331,0,0,1-.264-1.407,2.546,2.546,0,0,1,1.109-2.212,5.4,5.4,0,0,1,3.144-.783,8.926,8.926,0,0,1,3.774.845l-.884,2.111a15.944,15.944,0,0,0-1.507-.566,4.727,4.727,0,0,0-1.431-.221q-1.3,0-1.3.7a.824.824,0,0,0,.417.682,11.264,11.264,0,0,0,1.83.854,8.488,8.488,0,0,1,1.843.951,2.815,2.815,0,0,1,.864,1.017,3.129,3.129,0,0,1,.279,1.373" transform="translate(3.149 53.061)" fill="#4384cd"/>
      <path id="Trazado_7571" data-name="Trazado 7571" d="M43.559,572.831q0-1.431,1.594-1.431t1.594,1.431a1.4,1.4,0,0,1-.4,1.061,1.677,1.677,0,0,1-1.195.379q-1.594,0-1.594-1.44m3.053,13.507H43.684V575.605h2.928Z" transform="translate(4.019 52.723)" fill="#4384cd"/>
      <path id="Trazado_7572" data-name="Trazado 7572" d="M56.709,582.813a2.956,2.956,0,0,1-1.147,2.515,5.672,5.672,0,0,1-3.432.864,10.849,10.849,0,0,1-2-.158,7.545,7.545,0,0,1-1.546-.466v-2.418a10.238,10.238,0,0,0,1.839.642,7.4,7.4,0,0,0,1.8.26q1.593,0,1.593-.922a.768.768,0,0,0-.211-.561,3.046,3.046,0,0,0-.73-.489q-.518-.274-1.382-.639a8.655,8.655,0,0,1-1.82-.96,2.687,2.687,0,0,1-.844-1.013,3.331,3.331,0,0,1-.264-1.407,2.546,2.546,0,0,1,1.109-2.212,5.4,5.4,0,0,1,3.144-.783,8.926,8.926,0,0,1,3.774.845l-.884,2.111a15.946,15.946,0,0,0-1.507-.566,4.727,4.727,0,0,0-1.431-.221q-1.3,0-1.3.7a.824.824,0,0,0,.417.682,11.264,11.264,0,0,0,1.83.854,8.488,8.488,0,0,1,1.843.951,2.815,2.815,0,0,1,.864,1.017,3.129,3.129,0,0,1,.279,1.373" transform="translate(4.481 53.061)" fill="#4384cd"/>
      <path id="Trazado_7573" data-name="Trazado 7573" d="M62.727,584.035a6.347,6.347,0,0,0,1.843-.336v2.179a6.562,6.562,0,0,1-2.687.491,3.29,3.29,0,0,1-2.559-.888,3.867,3.867,0,0,1-.8-2.664v-5.175h-1.4V576.4l1.613-.98.844-2.265H61.45v2.285h3v2.2h-3v5.175a1.144,1.144,0,0,0,.351.922,1.384,1.384,0,0,0,.926.3" transform="translate(5.27 52.885)" fill="#4384cd"/>
      <path id="Trazado_7574" data-name="Trazado 7574" d="M70.84,586.191a5.54,5.54,0,0,1-4.051-1.43,5.416,5.416,0,0,1-1.459-4.051,5.957,5.957,0,0,1,1.349-4.171,4.8,4.8,0,0,1,3.729-1.473,4.73,4.73,0,0,1,3.543,1.3,4.906,4.906,0,0,1,1.267,3.582v1.42H68.3a2.819,2.819,0,0,0,.739,1.95,2.6,2.6,0,0,0,1.939.7,8.057,8.057,0,0,0,1.834-.2,9.205,9.205,0,0,0,1.8-.643v2.265a6.893,6.893,0,0,1-1.642.571,10.372,10.372,0,0,1-2.131.187m-.413-9.043a1.855,1.855,0,0,0-1.459.591,2.732,2.732,0,0,0-.605,1.674h4.109a2.444,2.444,0,0,0-.566-1.674,1.917,1.917,0,0,0-1.479-.591" transform="translate(6.028 53.061)" fill="#4384cd"/>
      <path id="Trazado_7575" data-name="Trazado 7575" d="M86.171,586H83.242v-6.269a3.149,3.149,0,0,0-.389-1.742,1.365,1.365,0,0,0-1.223-.581,1.771,1.771,0,0,0-1.632.826,5.409,5.409,0,0,0-.509,2.716V586H76.561V575.267H78.8l.393,1.373h.164a2.958,2.958,0,0,1,1.247-1.157,4.051,4.051,0,0,1,1.872-.418,3.371,3.371,0,0,1,3.264,1.575H86a2.894,2.894,0,0,1,1.271-1.162,4.241,4.241,0,0,1,1.9-.413,3.745,3.745,0,0,1,2.76.936,4.112,4.112,0,0,1,.936,3v7H89.925v-6.269a3.158,3.158,0,0,0-.389-1.742,1.368,1.368,0,0,0-1.224-.581,1.825,1.825,0,0,0-1.608.768,4.36,4.36,0,0,0-.533,2.438Z" transform="translate(7.064 53.061)" fill="#4384cd"/>
      <path id="Trazado_7576" data-name="Trazado 7576" d="M101.112,586l-.567-1.459h-.076a4.314,4.314,0,0,1-1.522,1.291,4.909,4.909,0,0,1-2.04.361,3.3,3.3,0,0,1-2.434-.884,3.392,3.392,0,0,1-.888-2.515,2.833,2.833,0,0,1,1.2-2.52,6.929,6.929,0,0,1,3.6-.9l1.863-.057v-.471a1.46,1.46,0,0,0-1.671-1.632,7.6,7.6,0,0,0-3.024.778l-.97-1.978a8.727,8.727,0,0,1,4.109-.97,5.118,5.118,0,0,1,3.312.941,3.473,3.473,0,0,1,1.152,2.861V586Zm-.863-4.973-1.134.038a3.625,3.625,0,0,0-1.9.461,1.446,1.446,0,0,0-.626,1.287q0,1.239,1.421,1.239a2.247,2.247,0,0,0,1.627-.586,2.056,2.056,0,0,0,.611-1.554Z" transform="translate(8.635 53.059)" fill="#4384cd"/>
      <path id="Trazado_7577" data-name="Trazado 7577" d="M112.652,582.813a2.956,2.956,0,0,1-1.147,2.515,5.672,5.672,0,0,1-3.432.864,10.849,10.849,0,0,1-2-.158,7.545,7.545,0,0,1-1.546-.466v-2.418a10.238,10.238,0,0,0,1.839.642,7.4,7.4,0,0,0,1.8.26q1.593,0,1.593-.922a.768.768,0,0,0-.211-.561,3.046,3.046,0,0,0-.73-.489q-.518-.274-1.382-.639a8.655,8.655,0,0,1-1.82-.96,2.687,2.687,0,0,1-.844-1.013,3.331,3.331,0,0,1-.264-1.407,2.546,2.546,0,0,1,1.109-2.212,5.4,5.4,0,0,1,3.144-.783,8.926,8.926,0,0,1,3.774.845l-.884,2.111a15.945,15.945,0,0,0-1.507-.566,4.727,4.727,0,0,0-1.431-.221q-1.3,0-1.3.7a.824.824,0,0,0,.417.682,11.265,11.265,0,0,0,1.83.854,8.488,8.488,0,0,1,1.843.951,2.815,2.815,0,0,1,.864,1.017,3.129,3.129,0,0,1,.279,1.373" transform="translate(9.643 53.061)" fill="#4384cd"/>
      <path id="Trazado_7578" data-name="Trazado 7578" d="M519.713,586.261V572.226h2.976V583.8h5.693v2.458Z" transform="translate(47.954 52.799)" fill="#4384cd"/>
      <path id="Trazado_7579" data-name="Trazado 7579" d="M536.547,586l-.567-1.459H535.9a4.343,4.343,0,0,1-1.522,1.291,4.913,4.913,0,0,1-2.04.361,3.3,3.3,0,0,1-2.434-.884,3.393,3.393,0,0,1-.888-2.515,2.833,2.833,0,0,1,1.195-2.52,6.933,6.933,0,0,1,3.606-.9l1.862-.057v-.471a1.46,1.46,0,0,0-1.67-1.632,7.6,7.6,0,0,0-3.024.778l-.97-1.978a8.724,8.724,0,0,1,4.109-.97,5.118,5.118,0,0,1,3.312.941,3.474,3.474,0,0,1,1.152,2.861V586Zm-.864-4.973-1.133.038a3.632,3.632,0,0,0-1.9.461,1.445,1.445,0,0,0-.625,1.287q0,1.239,1.421,1.239a2.246,2.246,0,0,0,1.626-.586,2.056,2.056,0,0,0,.611-1.554Z" transform="translate(48.813 53.059)" fill="#4384cd"/>
      <path id="Trazado_7580" data-name="Trazado 7580" d="M554.684,575.266v1.489l-1.68.432a2.922,2.922,0,0,1,.461,1.613,3.258,3.258,0,0,1-1.2,2.692,5.22,5.22,0,0,1-3.346.964l-.528-.028-.432-.048a.971.971,0,0,0-.451.768q0,.634,1.613.633h1.824a4.164,4.164,0,0,1,2.691.758,2.71,2.71,0,0,1,.927,2.227,3.3,3.3,0,0,1-1.57,2.919,8.171,8.171,0,0,1-4.507,1.038,6.241,6.241,0,0,1-3.433-.783,2.482,2.482,0,0,1-1.185-2.193,2.3,2.3,0,0,1,.605-1.622,3.425,3.425,0,0,1,1.776-.932,1.951,1.951,0,0,1-.787-.629,1.543,1.543,0,0,1,.02-1.949,4.111,4.111,0,0,1,1.027-.8,2.871,2.871,0,0,1-1.339-1.171,3.56,3.56,0,0,1-.495-1.9,3.352,3.352,0,0,1,1.142-2.717,4.942,4.942,0,0,1,3.265-.96,8.49,8.49,0,0,1,1.069.081q.619.082.793.12Zm-8.285,12.25a1.06,1.06,0,0,0,.581.95,3.193,3.193,0,0,0,1.627.346,5.759,5.759,0,0,0,2.467-.432,1.316,1.316,0,0,0,.892-1.181.838.838,0,0,0-.528-.836,4.342,4.342,0,0,0-1.632-.23h-1.517a2.294,2.294,0,0,0-1.349.38,1.166,1.166,0,0,0-.543,1m1.066-8.736a2.189,2.189,0,0,0,.4,1.383,1.451,1.451,0,0,0,1.216.508,1.418,1.418,0,0,0,1.209-.508,2.249,2.249,0,0,0,.385-1.383q0-1.94-1.594-1.939-1.614,0-1.613,1.939" transform="translate(50.182 53.061)" fill="#4384cd"/>
      <path id="Trazado_7581" data-name="Trazado 7581" d="M560.3,586.191a5.54,5.54,0,0,1-4.051-1.43,5.415,5.415,0,0,1-1.459-4.051,5.957,5.957,0,0,1,1.348-4.171,4.8,4.8,0,0,1,3.73-1.473,4.73,4.73,0,0,1,3.543,1.3,4.906,4.906,0,0,1,1.267,3.582v1.42h-6.922a2.819,2.819,0,0,0,.739,1.95,2.6,2.6,0,0,0,1.939.7,8.057,8.057,0,0,0,1.834-.2,9.232,9.232,0,0,0,1.8-.643v2.265a6.893,6.893,0,0,1-1.642.571,10.372,10.372,0,0,1-2.131.187m-.413-9.043a1.855,1.855,0,0,0-1.459.591,2.732,2.732,0,0,0-.605,1.674h4.109a2.445,2.445,0,0,0-.566-1.674,1.917,1.917,0,0,0-1.479-.591" transform="translate(51.19 53.061)" fill="#4384cd"/>
      <path id="Trazado_7582" data-name="Trazado 7582" d="M575.93,586H573v-6.269a3.009,3.009,0,0,0-.413-1.742,1.5,1.5,0,0,0-1.315-.581,1.977,1.977,0,0,0-1.776.82,5.092,5.092,0,0,0-.547,2.722V586h-2.927V575.267h2.237l.393,1.373h.163a3.088,3.088,0,0,1,1.349-1.176,4.6,4.6,0,0,1,1.954-.4,3.75,3.75,0,0,1,2.841,1.014,4.063,4.063,0,0,1,.97,2.923Z" transform="translate(52.227 53.061)" fill="#4384cd"/>
      <path id="Trazado_7583" data-name="Trazado 7583" d="M582.466,584.035a6.348,6.348,0,0,0,1.843-.336v2.179a6.562,6.562,0,0,1-2.687.491,3.29,3.29,0,0,1-2.559-.888,3.867,3.867,0,0,1-.8-2.664v-5.175h-1.4V576.4l1.613-.98.844-2.265h1.872v2.285h3v2.2h-3v5.175a1.147,1.147,0,0,0,.349.922,1.388,1.388,0,0,0,.927.3" transform="translate(53.227 52.885)" fill="#4384cd"/>
      <path id="Trazado_7584" data-name="Trazado 7584" d="M590.58,586.191a5.54,5.54,0,0,1-4.051-1.43,5.415,5.415,0,0,1-1.459-4.051,5.957,5.957,0,0,1,1.348-4.171,4.8,4.8,0,0,1,3.73-1.473,4.73,4.73,0,0,1,3.543,1.3,4.906,4.906,0,0,1,1.267,3.582v1.42h-6.922a2.819,2.819,0,0,0,.739,1.95,2.6,2.6,0,0,0,1.939.7,8.057,8.057,0,0,0,1.834-.2,9.229,9.229,0,0,0,1.8-.643v2.265a6.892,6.892,0,0,1-1.642.571,10.371,10.371,0,0,1-2.131.187m-.413-9.043a1.855,1.855,0,0,0-1.459.591,2.732,2.732,0,0,0-.605,1.674h4.109a2.444,2.444,0,0,0-.566-1.674,1.917,1.917,0,0,0-1.479-.591" transform="translate(53.984 53.061)" fill="#4384cd"/>
      <path id="Trazado_7585" data-name="Trazado 7585" d="M249.053,14.861V.826h2.976V12.4h5.693v2.458Z" transform="translate(22.98 0.076)" fill="#4384cd"/>
      <path id="Trazado_7586" data-name="Trazado 7586" d="M265.887,14.6l-.567-1.459h-.076a4.325,4.325,0,0,1-1.522,1.291,4.91,4.91,0,0,1-2.04.36,3.3,3.3,0,0,1-2.434-.884,3.393,3.393,0,0,1-.888-2.515,2.831,2.831,0,0,1,1.2-2.52,6.926,6.926,0,0,1,3.6-.9l1.862-.057V7.449a1.46,1.46,0,0,0-1.67-1.632,7.61,7.61,0,0,0-3.025.778l-.97-1.978a8.724,8.724,0,0,1,4.109-.97,5.117,5.117,0,0,1,3.312.942,3.473,3.473,0,0,1,1.152,2.861V14.6Zm-.864-4.973-1.133.038a3.632,3.632,0,0,0-1.9.461,1.447,1.447,0,0,0-.625,1.287q0,1.239,1.421,1.239a2.249,2.249,0,0,0,1.628-.587,2.056,2.056,0,0,0,.609-1.554Z" transform="translate(23.839 0.337)" fill="#4384cd"/>
      <path id="Trazado_7587" data-name="Trazado 7587" d="M279.472,14.791a5.54,5.54,0,0,1-4.051-1.43,5.415,5.415,0,0,1-1.459-4.051,5.957,5.957,0,0,1,1.349-4.171,4.8,4.8,0,0,1,3.729-1.473,4.73,4.73,0,0,1,3.543,1.3,4.906,4.906,0,0,1,1.267,3.582v1.42h-6.922a2.819,2.819,0,0,0,.739,1.95,2.6,2.6,0,0,0,1.939.7,8.06,8.06,0,0,0,1.834-.2,9.21,9.21,0,0,0,1.8-.643v2.265a6.888,6.888,0,0,1-1.642.571,10.366,10.366,0,0,1-2.131.187m-.413-9.043a1.856,1.856,0,0,0-1.459.591,2.732,2.732,0,0,0-.605,1.674H281.1a2.445,2.445,0,0,0-.566-1.674,1.917,1.917,0,0,0-1.479-.591" transform="translate(25.278 0.338)" fill="#4384cd"/>
      <path id="Trazado_7588" data-name="Trazado 7588" d="M292.737,11.412a2.956,2.956,0,0,1-1.147,2.515,5.671,5.671,0,0,1-3.432.864,10.855,10.855,0,0,1-2-.158,7.571,7.571,0,0,1-1.546-.466V11.749a10.264,10.264,0,0,0,1.839.642,7.4,7.4,0,0,0,1.8.26q1.593,0,1.593-.922a.768.768,0,0,0-.211-.561,3.045,3.045,0,0,0-.73-.489q-.518-.274-1.382-.639a8.656,8.656,0,0,1-1.82-.96,2.7,2.7,0,0,1-.844-1.013A3.33,3.33,0,0,1,284.6,6.66,2.546,2.546,0,0,1,285.7,4.448a5.4,5.4,0,0,1,3.144-.783,8.925,8.925,0,0,1,3.774.845l-.884,2.111a15.923,15.923,0,0,0-1.507-.566,4.726,4.726,0,0,0-1.431-.221q-1.3,0-1.3.7a.824.824,0,0,0,.417.682,11.266,11.266,0,0,0,1.83.854,8.488,8.488,0,0,1,1.843.951,2.8,2.8,0,0,1,.864,1.017,3.129,3.129,0,0,1,.279,1.373" transform="translate(26.26 0.338)" fill="#4384cd"/>
      <path id="Trazado_7589" data-name="Trazado 7589" d="M298.754,12.635A6.347,6.347,0,0,0,300.6,12.3v2.179a6.562,6.562,0,0,1-2.687.49,3.292,3.292,0,0,1-2.559-.888,3.866,3.866,0,0,1-.8-2.664V6.241h-1.4V5l1.613-.98.844-2.265h1.872V4.043h3v2.2h-3v5.175a1.143,1.143,0,0,0,.351.922,1.385,1.385,0,0,0,.926.3" transform="translate(27.049 0.162)" fill="#4384cd"/>
      <path id="Trazado_7590" data-name="Trazado 7590" d="M307.944,3.665a4.7,4.7,0,0,1,.989.086L308.712,6.5a3.333,3.333,0,0,0-.864-.1,3.105,3.105,0,0,0-2.183.72,2.6,2.6,0,0,0-.783,2.016V14.6h-2.927V3.867h2.217l.431,1.8h.144A4.043,4.043,0,0,1,306.1,4.217a3.327,3.327,0,0,1,1.848-.552" transform="translate(27.861 0.338)" fill="#4384cd"/>
      <path id="Trazado_7591" data-name="Trazado 7591" d="M317,14.6l-.567-1.459h-.077a4.325,4.325,0,0,1-1.522,1.291,4.911,4.911,0,0,1-2.04.36,3.3,3.3,0,0,1-2.434-.884,3.392,3.392,0,0,1-.888-2.515,2.831,2.831,0,0,1,1.2-2.52,6.926,6.926,0,0,1,3.6-.9l1.862-.057V7.449a1.46,1.46,0,0,0-1.67-1.632,7.61,7.61,0,0,0-3.025.778l-.97-1.978a8.725,8.725,0,0,1,4.109-.97,5.117,5.117,0,0,1,3.312.942,3.473,3.473,0,0,1,1.152,2.861V14.6Zm-.864-4.973-1.133.038a3.632,3.632,0,0,0-1.9.461,1.448,1.448,0,0,0-.625,1.287q0,1.239,1.421,1.239a2.249,2.249,0,0,0,1.627-.587,2.056,2.056,0,0,0,.609-1.554Z" transform="translate(28.555 0.337)" fill="#4384cd"/>
      <path id="Trazado_7592" data-name="Trazado 7592" d="M325.613,12.635a6.346,6.346,0,0,0,1.843-.336v2.179a6.562,6.562,0,0,1-2.687.49,3.292,3.292,0,0,1-2.559-.888,3.867,3.867,0,0,1-.8-2.664V6.241h-1.4V5l1.613-.98.844-2.265h1.872V4.043h3v2.2h-3v5.175a1.144,1.144,0,0,0,.351.922,1.385,1.385,0,0,0,.926.3" transform="translate(29.527 0.162)" fill="#4384cd"/>
      <path id="Trazado_7593" data-name="Trazado 7593" d="M333.726,14.791a5.54,5.54,0,0,1-4.051-1.43,5.415,5.415,0,0,1-1.459-4.051,5.957,5.957,0,0,1,1.349-4.171,4.8,4.8,0,0,1,3.729-1.473,4.73,4.73,0,0,1,3.543,1.3A4.906,4.906,0,0,1,338.1,8.542v1.42h-6.922a2.819,2.819,0,0,0,.739,1.95,2.6,2.6,0,0,0,1.939.7,8.059,8.059,0,0,0,1.834-.2,9.21,9.21,0,0,0,1.8-.643v2.265a6.888,6.888,0,0,1-1.642.571,10.367,10.367,0,0,1-2.131.187m-.413-9.043a1.855,1.855,0,0,0-1.459.591,2.732,2.732,0,0,0-.605,1.674h4.109a2.445,2.445,0,0,0-.566-1.674,1.917,1.917,0,0,0-1.479-.591" transform="translate(30.284 0.338)" fill="#4384cd"/>
      <path id="Trazado_7594" data-name="Trazado 7594" d="M348.913,3.866V5.355l-1.68.431a2.922,2.922,0,0,1,.461,1.613,3.258,3.258,0,0,1-1.2,2.692,5.216,5.216,0,0,1-3.346.964l-.528-.028-.433-.048a.974.974,0,0,0-.451.768q0,.634,1.613.634h1.824a4.165,4.165,0,0,1,2.692.758,2.713,2.713,0,0,1,.926,2.227,3.3,3.3,0,0,1-1.57,2.919,8.17,8.17,0,0,1-4.507,1.038,6.233,6.233,0,0,1-3.432-.783,2.483,2.483,0,0,1-1.186-2.193,2.3,2.3,0,0,1,.605-1.622,3.429,3.429,0,0,1,1.776-.932,1.951,1.951,0,0,1-.787-.629,1.543,1.543,0,0,1,.02-1.949,4.11,4.11,0,0,1,1.027-.8,2.876,2.876,0,0,1-1.339-1.171,3.561,3.561,0,0,1-.495-1.9,3.351,3.351,0,0,1,1.143-2.716,4.943,4.943,0,0,1,3.265-.96,8.508,8.508,0,0,1,1.07.081q.618.082.792.12Zm-8.285,12.25a1.062,1.062,0,0,0,.581.95,3.2,3.2,0,0,0,1.628.346,5.759,5.759,0,0,0,2.467-.433A1.316,1.316,0,0,0,346.2,15.8a.837.837,0,0,0-.528-.836,4.343,4.343,0,0,0-1.632-.23H342.52a2.294,2.294,0,0,0-1.349.38,1.168,1.168,0,0,0-.543,1m1.066-8.736a2.189,2.189,0,0,0,.4,1.383,1.448,1.448,0,0,0,1.215.508,1.418,1.418,0,0,0,1.209-.508A2.249,2.249,0,0,0,344.9,7.38q0-1.94-1.594-1.939-1.614,0-1.613,1.939" transform="translate(31.196 0.338)" fill="#4384cd"/>
      <path id="Trazado_7595" data-name="Trazado 7595" d="M349.5,1.43Q349.5,0,351.1,0t1.594,1.43a1.4,1.4,0,0,1-.4,1.062,1.676,1.676,0,0,1-1.195.379q-1.594,0-1.594-1.441m3.053,13.508h-2.928V4.205h2.928Z" transform="translate(32.249 0)" fill="#4384cd"/>
      <path id="Trazado_7596" data-name="Trazado 7596" d="M361.986,14.6l-.567-1.459h-.076a4.325,4.325,0,0,1-1.522,1.291,4.91,4.91,0,0,1-2.04.36,3.3,3.3,0,0,1-2.434-.884,3.393,3.393,0,0,1-.888-2.515,2.831,2.831,0,0,1,1.2-2.52,6.926,6.926,0,0,1,3.6-.9l1.862-.057V7.449a1.46,1.46,0,0,0-1.67-1.632,7.61,7.61,0,0,0-3.025.778l-.97-1.978a8.724,8.724,0,0,1,4.109-.97,5.117,5.117,0,0,1,3.312.942,3.473,3.473,0,0,1,1.152,2.861V14.6Zm-.864-4.973-1.133.038a3.632,3.632,0,0,0-1.9.461,1.448,1.448,0,0,0-.625,1.287q0,1.239,1.421,1.239a2.249,2.249,0,0,0,1.628-.587,2.056,2.056,0,0,0,.609-1.554Z" transform="translate(32.706 0.337)" fill="#4384cd"/>
      <path id="Trazado_7597" data-name="Trazado 7597" d="M262.825,36.73a3.489,3.489,0,0,1-2.972-1.469,6.754,6.754,0,0,1-1.079-4.071,6.76,6.76,0,0,1,1.1-4.113A3.571,3.571,0,0,1,262.9,25.6a3.5,3.5,0,0,1,3.091,1.575h.1a11.953,11.953,0,0,1-.221-2.141V21.6h2.937V36.538H266.56l-.567-1.392h-.125a3.353,3.353,0,0,1-3.043,1.584m1.027-2.333a1.981,1.981,0,0,0,1.646-.653,3.787,3.787,0,0,0,.571-2.217V31.21a4.382,4.382,0,0,0-.533-2.477,1.978,1.978,0,0,0-1.732-.748,1.718,1.718,0,0,0-1.522.83,4.433,4.433,0,0,0-.543,2.415,4.2,4.2,0,0,0,.547,2.376,1.79,1.79,0,0,0,1.565.792" transform="translate(23.877 1.993)" fill="#4384cd"/>
      <path id="Trazado_7598" data-name="Trazado 7598" d="M275.674,36.391a5.54,5.54,0,0,1-4.051-1.43,5.415,5.415,0,0,1-1.459-4.051,5.957,5.957,0,0,1,1.349-4.171,4.8,4.8,0,0,1,3.729-1.473,4.73,4.73,0,0,1,3.543,1.3,4.906,4.906,0,0,1,1.267,3.582v1.42h-6.922a2.819,2.819,0,0,0,.74,1.95,2.6,2.6,0,0,0,1.939.7,8.059,8.059,0,0,0,1.834-.2,9.21,9.21,0,0,0,1.8-.643v2.265a6.889,6.889,0,0,1-1.642.571,10.366,10.366,0,0,1-2.131.187m-.413-9.043a1.855,1.855,0,0,0-1.459.591,2.732,2.732,0,0,0-.605,1.674h4.109a2.445,2.445,0,0,0-.566-1.674,1.917,1.917,0,0,0-1.479-.591" transform="translate(24.928 2.331)" fill="#4384cd"/>
      <path id="Trazado_7599" data-name="Trazado 7599" d="M293.615,33.012a2.956,2.956,0,0,1-1.147,2.515,5.671,5.671,0,0,1-3.432.864,10.854,10.854,0,0,1-2-.158,7.571,7.571,0,0,1-1.546-.466V33.349a10.262,10.262,0,0,0,1.839.642,7.4,7.4,0,0,0,1.8.26q1.593,0,1.593-.922a.768.768,0,0,0-.211-.561,3.047,3.047,0,0,0-.73-.489q-.518-.274-1.382-.639a8.653,8.653,0,0,1-1.82-.96,2.7,2.7,0,0,1-.844-1.013,3.33,3.33,0,0,1-.264-1.407,2.547,2.547,0,0,1,1.109-2.212,5.4,5.4,0,0,1,3.144-.783,8.925,8.925,0,0,1,3.774.845l-.884,2.111a15.928,15.928,0,0,0-1.507-.566,4.725,4.725,0,0,0-1.431-.221q-1.3,0-1.3.7a.824.824,0,0,0,.417.682,11.262,11.262,0,0,0,1.83.854,8.488,8.488,0,0,1,1.843.951,2.8,2.8,0,0,1,.864,1.017,3.129,3.129,0,0,1,.279,1.373" transform="translate(26.341 2.331)" fill="#4384cd"/>
      <path id="Trazado_7600" data-name="Trazado 7600" d="M299.933,36.391a5.54,5.54,0,0,1-4.051-1.43,5.415,5.415,0,0,1-1.459-4.051,5.957,5.957,0,0,1,1.349-4.171,4.8,4.8,0,0,1,3.729-1.473,4.73,4.73,0,0,1,3.543,1.3,4.906,4.906,0,0,1,1.267,3.582v1.42h-6.922a2.819,2.819,0,0,0,.739,1.95,2.6,2.6,0,0,0,1.939.7,8.059,8.059,0,0,0,1.834-.2,9.211,9.211,0,0,0,1.8-.643v2.265a6.889,6.889,0,0,1-1.642.571,10.366,10.366,0,0,1-2.131.187m-.413-9.043a1.856,1.856,0,0,0-1.459.591,2.733,2.733,0,0,0-.605,1.674h4.109A2.445,2.445,0,0,0,301,27.939a1.917,1.917,0,0,0-1.479-.591" transform="translate(27.166 2.331)" fill="#4384cd"/>
      <path id="Trazado_7601" data-name="Trazado 7601" d="M311.644,25.265a4.7,4.7,0,0,1,.989.086l-.221,2.746a3.333,3.333,0,0,0-.864-.1,3.106,3.106,0,0,0-2.183.72,2.6,2.6,0,0,0-.783,2.016V36.2h-2.927V25.467h2.217l.431,1.8h.144a4.043,4.043,0,0,1,1.349-1.455,3.327,3.327,0,0,1,1.848-.552" transform="translate(28.203 2.331)" fill="#4384cd"/>
      <path id="Trazado_7602" data-name="Trazado 7602" d="M316.511,36.183,312.422,25.45h3.063l2.073,6.115a10.927,10.927,0,0,1,.433,2.2h.057a9.583,9.583,0,0,1,.433-2.2l2.063-6.115h3.063l-4.089,10.733Z" transform="translate(28.827 2.348)" fill="#4384cd"/>
      <path id="Trazado_7603" data-name="Trazado 7603" d="M323.953,23.031q0-1.432,1.594-1.431t1.594,1.431a1.4,1.4,0,0,1-.4,1.061,1.676,1.676,0,0,1-1.195.379q-1.594,0-1.594-1.44m3.053,13.507h-2.928V25.805h2.928Z" transform="translate(29.891 1.993)" fill="#4384cd"/>
      <path id="Trazado_7604" data-name="Trazado 7604" d="M333.974,36.392q-5.014,0-5.012-5.5a5.869,5.869,0,0,1,1.363-4.181,5.117,5.117,0,0,1,3.908-1.445,7.452,7.452,0,0,1,3.34.73l-.864,2.266q-.691-.279-1.286-.457a4.166,4.166,0,0,0-1.191-.177q-2.286,0-2.284,3.244,0,3.149,2.284,3.149A5.236,5.236,0,0,0,335.8,33.8a5.658,5.658,0,0,0,1.44-.706V35.6a4.729,4.729,0,0,1-1.435.624,8.085,8.085,0,0,1-1.827.173" transform="translate(30.353 2.331)" fill="#4384cd"/>
      <path id="Trazado_7605" data-name="Trazado 7605" d="M338.7,23.031q0-1.432,1.594-1.431t1.594,1.431a1.4,1.4,0,0,1-.4,1.061,1.676,1.676,0,0,1-1.195.379q-1.594,0-1.594-1.44m3.053,13.507h-2.928V25.805h2.928Z" transform="translate(31.252 1.993)" fill="#4384cd"/>
      <path id="Trazado_7606" data-name="Trazado 7606" d="M354.117,30.814a5.765,5.765,0,0,1-1.383,4.1,5.011,5.011,0,0,1-3.849,1.478,5.388,5.388,0,0,1-2.726-.676,4.5,4.5,0,0,1-1.814-1.944,6.528,6.528,0,0,1-.633-2.957,5.739,5.739,0,0,1,1.372-4.089,5.041,5.041,0,0,1,3.86-1.459,5.419,5.419,0,0,1,2.726.672,4.489,4.489,0,0,1,1.814,1.93,6.465,6.465,0,0,1,.634,2.947m-7.421,0a4.507,4.507,0,0,0,.523,2.41,1.87,1.87,0,0,0,1.7.816,1.841,1.841,0,0,0,1.685-.812,4.571,4.571,0,0,0,.513-2.414,4.423,4.423,0,0,0-.519-2.39,2.2,2.2,0,0,0-3.388-.005,4.424,4.424,0,0,0-.519,2.4" transform="translate(31.714 2.331)" fill="#4384cd"/>
      <path id="Trazado_7607" data-name="Trazado 7607" d="M368.55,358.23a57.672,57.672,0,1,1-57.672-57.672A57.672,57.672,0,0,1,368.55,358.23" transform="translate(23.363 27.732)" fill="#3fa9f5"/>
      <path id="Trazado_7608" data-name="Trazado 7608" d="M336.818,395.093v6.589a57.211,57.211,0,0,1-18.9,6.692c-1.452.239-2.921.428-4.406.558-.924.082-1.858.141-2.8.176-.765.034-1.535.048-2.307.048q-2.584,0-5.107-.224a57.416,57.416,0,0,1-12.358-2.47c-.142-.045-.285-.092-.427-.139a57.246,57.246,0,0,1-10.52-4.642v-6.589a21.436,21.436,0,0,1,15.877-20.7c.334-.09.671-.173,1.013-.246a21.65,21.65,0,0,1,2.79-.412c.579-.047,1.162-.07,1.753-.07h13.957a21.394,21.394,0,0,1,4.545.482c.085.016.169.036.252.055.247.057.494.118.736.185l.019,0a21.455,21.455,0,0,1,15.883,20.706" transform="translate(25.835 34.478)" fill="#dd3033"/>
      <path id="Trazado_7609" data-name="Trazado 7609" d="M335.93,395.093v6.589a57.21,57.21,0,0,1-18.9,6.692c-1.452.239-2.921.428-4.406.558-.924.082-1.858.141-2.8.176-.765.034-1.535.048-2.307.048q-2.584,0-5.107-.224a57.416,57.416,0,0,1-12.358-2.47c-.142-.045-.285-.092-.427-.139V395.093a21.436,21.436,0,0,1,15.878-20.7c.333-.09.67-.173,1.012-.246a21.649,21.649,0,0,1,2.79-.412c.579-.047,1.162-.07,1.753-.07h3.437a21.394,21.394,0,0,1,4.545.482c.085.016.169.036.252.055.247.057.494.118.736.185l.019,0a21.454,21.454,0,0,1,15.883,20.706" transform="translate(26.724 34.478)" fill="#f74f4f"/>
      <path id="Trazado_7610" data-name="Trazado 7610" d="M285.736,383.633v7.106a2.888,2.888,0,0,1-5.777,0v-7.106a2.888,2.888,0,0,1,5.777,0" transform="translate(25.832 35.131)" fill="#eab599"/>
      <path id="Trazado_7611" data-name="Trazado 7611" d="M285.554,383.616V396.19c0,1.215-.75-3.213-1.812-2.787a2.886,2.886,0,0,1-1.813-2.68v-7.106a1.867,1.867,0,1,1,3.625,0" transform="translate(26.014 35.149)" fill="#f6caae"/>
      <path id="Trazado_7612" data-name="Trazado 7612" d="M286.262,392.558v6.7a5.987,5.987,0,0,1-1.17,3.564,57.588,57.588,0,0,1-10.835-6.444v-3.821a6,6,0,1,1,12.005,0" transform="translate(25.306 35.667)" fill="#eab599"/>
      <path id="Trazado_7613" data-name="Trazado 7613" d="M285.884,392.522v6.7a5.987,5.987,0,0,1-1.17,3.564h0a57.373,57.373,0,0,1-6.358-3.39c0-.059,0-.115,0-.174v-6.7a6.007,6.007,0,0,1,3.766-5.573,6.009,6.009,0,0,1,3.766,5.573" transform="translate(25.683 35.704)" fill="#f6caae"/>
      <path id="Trazado_7614" data-name="Trazado 7614" d="M319.65,374.105l-.051.242-7.427,34.544q-2.52.223-5.1.224t-5.109-.224l-7.426-34.542-.051-.245Z" transform="translate(27.172 34.519)" fill="#f2f0ec"/>
      <path id="Trazado_7615" data-name="Trazado 7615" d="M307.066,382.694l-9.648,5.362L294.482,374.4l6-3.531" transform="translate(27.172 34.22)" fill="#d8d5d0"/>
      <path id="Trazado_7616" data-name="Trazado 7616" d="M306,382.694l9.648,5.362,2.936-13.652-6-3.531" transform="translate(28.235 34.22)" fill="#d8d5d0"/>
      <path id="Trazado_7617" data-name="Trazado 7617" d="M279.628,374.1V341.775a28.811,28.811,0,1,1,57.623,0V374.1" transform="translate(25.801 28.877)" fill="#ffe152"/>
      <path id="Trazado_7618" data-name="Trazado 7618" d="M291.48,343.036c0,11.433,6.695,24.66,10.371,31.061H279.627V341.775a28.8,28.8,0,0,1,28.6-28.81c-8.858.221-16.748,14.432-16.748,30.071" transform="translate(25.801 28.877)" fill="#e8c934"/>
      <path id="Trazado_7619" data-name="Trazado 7619" d="M314.3,366.105v9.384a7.646,7.646,0,0,1-15.292,0v-9.384Z" transform="translate(27.589 33.78)" fill="#eab599"/>
      <path id="Trazado_7620" data-name="Trazado 7620" d="M313.911,374.151v.6a7.643,7.643,0,0,1-5.385,7.3,7.643,7.643,0,0,1-5.323-6.308q.767.047,1.54.047a26.432,26.432,0,0,0,9.167-1.637" transform="translate(27.976 34.523)" fill="#f6caae"/>
      <path id="Trazado_7621" data-name="Trazado 7621" d="M288,352.626a7.112,7.112,0,0,1-5.971,7.02,7.229,7.229,0,0,1-1.139.091A7.111,7.111,0,1,1,288,352.626" transform="translate(25.262 31.881)" fill="#f6caae"/>
      <path id="Trazado_7622" data-name="Trazado 7622" d="M287.386,352.618a7.112,7.112,0,0,1-5.971,7.02,26.553,26.553,0,0,1,0-14.04,7.112,7.112,0,0,1,5.971,7.02" transform="translate(25.879 31.888)" fill="#eab599"/>
      <path id="Trazado_7623" data-name="Trazado 7623" d="M283.047,352.24a2.542,2.542,0,1,1-2.542-2.543,2.542,2.542,0,0,1,2.542,2.543" transform="translate(25.648 32.266)" fill="#eab599"/>
      <path id="Trazado_7624" data-name="Trazado 7624" d="M326.5,345.075v24.443a26.361,26.361,0,0,1-14.013,6.973l-.13.021a25.929,25.929,0,0,1-4.117.32,26.456,26.456,0,0,1-26.456-26.455V340.3a26.6,26.6,0,0,1,.271-3.8,16.764,16.764,0,0,0,21.07-1.354,14.991,14.991,0,0,0,3.976-6.212,17.466,17.466,0,0,0,5.461,10.9,19.525,19.525,0,0,0,13.937,5.242" transform="translate(26 30.351)" fill="#eab599"/>
      <path id="Trazado_7625" data-name="Trazado 7625" d="M325.8,345.075v24.443a26.361,26.361,0,0,1-14.013,6.973l-.13.021a26.46,26.46,0,0,1-22.335-26.135V340.3c0-.268.005-.533.015-.8a16.58,16.58,0,0,0,13.088-4.354,14.992,14.992,0,0,0,3.976-6.212,17.466,17.466,0,0,0,5.461,10.9,19.525,19.525,0,0,0,13.937,5.242" transform="translate(26.696 30.351)" fill="#f6caae"/>
      <path id="Trazado_7626" data-name="Trazado 7626" d="M319.755,346.891a4.394,4.394,0,1,0-8.787,0" transform="translate(28.693 31.602)" fill="#eab599"/>
      <path id="Trazado_7627" data-name="Trazado 7627" d="M301.788,346.891a4.394,4.394,0,0,0-8.788,0" transform="translate(27.035 31.602)" fill="#eab599"/>
      <path id="Trazado_7628" data-name="Trazado 7628" d="M300.278,348.486a3,3,0,1,1-3-3,3,3,0,0,1,3,3" transform="translate(27.153 31.878)" fill="#3d4159"/>
      <path id="Trazado_7629" data-name="Trazado 7629" d="M318.245,348.486a3,3,0,1,1-3-3,3,3,0,0,1,3,3" transform="translate(28.81 31.878)" fill="#3d4159"/>
      <path id="Trazado_7630" data-name="Trazado 7630" d="M309.37,355.369h-6a1.295,1.295,0,1,1,0-2.59h6a1.295,1.295,0,0,1,0,2.59" transform="translate(27.872 32.551)" fill="#eab599"/>
      <path id="Trazado_7631" data-name="Trazado 7631" d="M306.6,362.976a13.375,13.375,0,0,1-6.45-1.665,1.177,1.177,0,0,1,1.134-2.063,10.98,10.98,0,0,0,10.633,0,1.177,1.177,0,0,1,1.134,2.063,13.377,13.377,0,0,1-6.451,1.665" transform="translate(27.639 33.134)" fill="#eab599"/>
      <path id="Trazado_7632" data-name="Trazado 7632" d="M299.427,347.856a1.286,1.286,0,1,1-1.286-1.286,1.287,1.287,0,0,1,1.286,1.286" transform="translate(27.391 31.978)" fill="#fff"/>
      <path id="Trazado_7633" data-name="Trazado 7633" d="M317.53,347.856a1.286,1.286,0,1,1-1.286-1.286,1.287,1.287,0,0,1,1.286,1.286" transform="translate(29.061 31.978)" fill="#fff"/>
      <path id="Trazado_7634" data-name="Trazado 7634" d="M323.049,355.2a3.3,3.3,0,1,1-3.3-3.3,3.294,3.294,0,0,1,3.3,3.3" transform="translate(29.199 32.47)" fill="#eab599"/>
      <path id="Trazado_7635" data-name="Trazado 7635" d="M296.111,355.2a3.3,3.3,0,1,1-3.3-3.3,3.3,3.3,0,0,1,3.3,3.3" transform="translate(26.714 32.47)" fill="#eab599"/>
      <path id="Trazado_7636" data-name="Trazado 7636" d="M619.039,513.158a57.634,57.634,0,0,1-40.185,54.97,56.555,56.555,0,0,1-8.314,1.975.2.2,0,0,1-.038.005q-2.1.334-4.236.515-.457.039-.915.071-.647.043-1.3.073-1.334.064-2.683.063-1.384,0-2.749-.067c-.412-.018-.825-.042-1.236-.072-.308-.022-.614-.043-.921-.069-1.461-.121-2.909-.3-4.337-.532-.683-.11-1.363-.23-2.036-.365a56.852,56.852,0,0,1-8.5-2.38q-2.384-.868-4.666-1.94-.777-.364-1.544-.755-1.969-1-3.848-2.138a57.673,57.673,0,1,1,87.513-49.355" transform="translate(46.476 42.028)" fill="#3fa9f5"/>
      <path id="Trazado_7637" data-name="Trazado 7637" d="M549.669,525.325v39.4a56.856,56.856,0,0,1-8.5-2.38q-2.384-.868-4.666-1.94-.777-.364-1.544-.756-1.969-.995-3.848-2.138a57.843,57.843,0,0,1-22.883-25.951v-6.234a15.634,15.634,0,0,1,11.579-15.1c.245-.065.489-.127.74-.178a15.123,15.123,0,0,1,2.034-.3c.422-.032.848-.051,1.278-.051h10.18a15.5,15.5,0,0,1,3.315.354c.061.011.122.025.184.039.179.04.36.084.536.132l.014,0a15.646,15.646,0,0,1,11.585,15.1" transform="translate(46.894 47.029)" fill="#cf3242"/>
      <path id="Trazado_7638" data-name="Trazado 7638" d="M549.1,525.325v39.4a56.854,56.854,0,0,1-8.5-2.38q-2.384-.868-4.666-1.94-.777-.364-1.544-.756-1.969-.995-3.848-2.138a57.961,57.961,0,0,1-16.174-14.586v-17.6a15.633,15.633,0,0,1,11.579-15.1c.245-.065.49-.127.739-.178a15.134,15.134,0,0,1,2.033-.3c.422-.032.848-.051,1.279-.051h3.471a15.5,15.5,0,0,1,3.315.354c.061.011.122.025.184.039.179.04.36.084.536.132l.014,0a15.646,15.646,0,0,1,11.585,15.1" transform="translate(47.46 47.029)" fill="#ed6e6f"/>
      <path id="Trazado_7639" data-name="Trazado 7639" d="M537.149,510.018l-.037.177-4.676,21.749a4.548,4.548,0,0,1-4.425,3.607h-.079a4.545,4.545,0,0,1-4.425-3.607L518.83,510.2l-.037-.179Z" transform="translate(47.869 47.059)" fill="#f2f0ec"/>
      <path id="Trazado_7640" data-name="Trazado 7640" d="M527.971,516.282l-7.038,3.911-2.14-9.958,4.372-2.574" transform="translate(47.869 46.842)" fill="#d8d5d0"/>
      <path id="Trazado_7641" data-name="Trazado 7641" d="M527.2,516.282l7.037,3.911,2.14-9.958L532,507.66" transform="translate(48.644 46.842)" fill="#d8d5d0"/>
      <path id="Trazado_7642" data-name="Trazado 7642" d="M507.96,510.013V486.439a21.013,21.013,0,1,1,42.025,0v23.573" transform="translate(46.869 42.945)" fill="#cc7a3b"/>
      <path id="Trazado_7643" data-name="Trazado 7643" d="M516.6,487.359c0,8.337,4.883,17.984,7.564,22.653H507.959V486.438a21,21,0,0,1,20.86-21.012c-6.461.162-12.216,10.526-12.216,21.933" transform="translate(46.869 42.945)" fill="#a35418"/>
      <path id="Trazado_7644" data-name="Trazado 7644" d="M533.244,504.182v6.845a5.577,5.577,0,0,1-11.153,0v-6.845Z" transform="translate(48.173 46.521)" fill="#eab599"/>
      <path id="Trazado_7645" data-name="Trazado 7645" d="M532.962,510.051v.434a4.032,4.032,0,1,1-7.809.726c.371.023.747.035,1.123.035a19.145,19.145,0,0,0,3.1-.249,18.945,18.945,0,0,0,3.589-.946" transform="translate(48.456 47.062)" fill="#f6caae"/>
      <path id="Trazado_7646" data-name="Trazado 7646" d="M514.068,494.351a5.186,5.186,0,0,1-4.356,5.12,5.076,5.076,0,0,1-.831.068,5.187,5.187,0,0,1,0-10.373,5.076,5.076,0,0,1,.831.068,5.185,5.185,0,0,1,4.356,5.118" transform="translate(46.476 45.135)" fill="#f6caae"/>
      <path id="Trazado_7647" data-name="Trazado 7647" d="M513.618,494.345a5.186,5.186,0,0,1-4.356,5.119,19.384,19.384,0,0,1,0-10.238,5.185,5.185,0,0,1,4.356,5.118" transform="translate(46.926 45.141)" fill="#eab599"/>
      <path id="Trazado_7648" data-name="Trazado 7648" d="M510.453,494.07a1.854,1.854,0,1,1-1.854-1.853,1.854,1.854,0,0,1,1.854,1.853" transform="translate(46.757 45.417)" fill="#eab599"/>
      <path id="Trazado_7649" data-name="Trazado 7649" d="M542.143,488.845v17.827a19.22,19.22,0,0,1-10.219,5.086l-.1.016a19.309,19.309,0,0,1-22.3-19.062v-7.348a19.478,19.478,0,0,1,.2-2.771A12.229,12.229,0,0,0,525.1,481.6a10.922,10.922,0,0,0,2.9-4.531,12.738,12.738,0,0,0,3.983,7.948,14.241,14.241,0,0,0,10.165,3.823" transform="translate(47.014 44.019)" fill="#eab599"/>
      <path id="Trazado_7650" data-name="Trazado 7650" d="M541.635,488.845v17.827a19.22,19.22,0,0,1-10.219,5.086l-.095.016a19.3,19.3,0,0,1-16.289-19.062v-7.348c0-.2,0-.39.011-.583a12.092,12.092,0,0,0,9.545-3.177,10.92,10.92,0,0,0,2.9-4.53,12.737,12.737,0,0,0,3.983,7.948,14.241,14.241,0,0,0,10.165,3.823" transform="translate(47.522 44.019)" fill="#f6caae"/>
      <path id="Trazado_7651" data-name="Trazado 7651" d="M537.227,490.17a3.205,3.205,0,1,0-6.411,0" transform="translate(48.978 44.932)" fill="#eab599"/>
      <path id="Trazado_7652" data-name="Trazado 7652" d="M524.122,490.17a3.2,3.2,0,1,0-6.409,0" transform="translate(47.769 44.932)" fill="#eab599"/>
      <path id="Trazado_7653" data-name="Trazado 7653" d="M523.02,491.333a2.189,2.189,0,1,1-2.189-2.189,2.189,2.189,0,0,1,2.189,2.189" transform="translate(47.855 45.133)" fill="#3d4159"/>
      <path id="Trazado_7654" data-name="Trazado 7654" d="M536.124,491.333a2.188,2.188,0,1,1-2.188-2.189,2.188,2.188,0,0,1,2.188,2.189" transform="translate(49.064 45.133)" fill="#3d4159"/>
      <path id="Trazado_7655" data-name="Trazado 7655" d="M529.652,496.354h-4.378a.944.944,0,1,1,0-1.888h4.378a.944.944,0,0,1,0,1.888" transform="translate(48.38 45.624)" fill="#eab599"/>
      <path id="Trazado_7656" data-name="Trazado 7656" d="M527.633,501.9a9.747,9.747,0,0,1-4.7-1.216.858.858,0,1,1,.827-1.5,8.01,8.01,0,0,0,7.755,0,.858.858,0,1,1,.827,1.5,9.747,9.747,0,0,1-4.7,1.216" transform="translate(48.209 46.05)" fill="#eab599"/>
      <path id="Trazado_7657" data-name="Trazado 7657" d="M522.4,490.873a.939.939,0,1,1-.938-.938.938.938,0,0,1,.938.938" transform="translate(48.029 45.206)" fill="#fff"/>
      <path id="Trazado_7658" data-name="Trazado 7658" d="M535.6,490.873a.938.938,0,1,1-.937-.938.937.937,0,0,1,.937.938" transform="translate(49.247 45.206)" fill="#fff"/>
      <path id="Trazado_7659" data-name="Trazado 7659" d="M539.628,496.232a2.4,2.4,0,1,1-2.4-2.4,2.4,2.4,0,0,1,2.4,2.4" transform="translate(49.348 45.565)" fill="#eab599"/>
      <path id="Trazado_7660" data-name="Trazado 7660" d="M519.98,496.232a2.4,2.4,0,1,1-2.4-2.4,2.4,2.4,0,0,1,2.4,2.4" transform="translate(47.535 45.565)" fill="#eab599"/>
      <path id="Trazado_7661" data-name="Trazado 7661" d="M608.219,524.951v7.219a57.9,57.9,0,0,1-28.051,28.338A57.533,57.533,0,0,1,564.9,565.2a.214.214,0,0,1-.038,0V524.951a16.35,16.35,0,0,1,15.017-16.3c.443-.038.887-.053,1.337-.053h10.65a16.325,16.325,0,0,1,16.358,16.35" transform="translate(52.119 46.928)" fill="#bfd5de"/>
      <path id="Trazado_7662" data-name="Trazado 7662" d="M607.513,524.951v7.219a57.9,57.9,0,0,1-28.051,28.338,57.086,57.086,0,0,1-6.958,2.719V524.951a16.354,16.354,0,0,1,16.356-16.35h2.3a16.352,16.352,0,0,1,16.356,16.35" transform="translate(52.825 46.928)" fill="#dde8ed"/>
      <path id="Trazado_7663" data-name="Trazado 7663" d="M570.97,492.546a5.425,5.425,0,1,1-4.557-5.357,5.426,5.426,0,0,1,4.557,5.357" transform="translate(51.682 44.946)" fill="#d3a489"/>
      <path id="Trazado_7664" data-name="Trazado 7664" d="M589.468,514l-4.39,7.042L580.687,514" transform="translate(53.58 47.427)" fill="#f74f4f"/>
      <path id="Trazado_7665" data-name="Trazado 7665" d="M591.112,540.494l-5.906,7.454-5.908-7.454,5.908-21.724Z" transform="translate(53.452 47.867)" fill="#f74f4f"/>
      <path id="Trazado_7666" data-name="Trazado 7666" d="M570.5,492.541a5.426,5.426,0,0,1-4.557,5.356,20.291,20.291,0,0,1,0-10.713,5.426,5.426,0,0,1,4.557,5.357" transform="translate(52.153 44.952)" fill="#bf8e75"/>
      <path id="Trazado_7667" data-name="Trazado 7667" d="M567.189,492.252a1.939,1.939,0,1,1-1.94-1.939,1.94,1.94,0,0,1,1.94,1.939" transform="translate(51.976 45.241)" fill="#bf8e75"/>
      <path id="Trazado_7668" data-name="Trazado 7668" d="M585.516,515.491l-7.362,4.092-2.24-10.418,4.574-2.695" transform="translate(53.139 46.732)" fill="#bfd5de"/>
      <path id="Trazado_7669" data-name="Trazado 7669" d="M584.705,515.491l7.363,4.092,2.24-10.418-4.576-2.695" transform="translate(53.951 46.732)" fill="#bfd5de"/>
      <path id="Trazado_7670" data-name="Trazado 7670" d="M599.36,492.546a5.425,5.425,0,1,0,4.557-5.357,5.427,5.427,0,0,0-4.557,5.357" transform="translate(55.303 44.946)" fill="#d3a489"/>
      <path id="Trazado_7671" data-name="Trazado 7671" d="M599.36,492.541a5.427,5.427,0,0,0,4.557,5.356,20.291,20.291,0,0,0,0-10.713,5.427,5.427,0,0,0-4.557,5.357" transform="translate(55.303 44.952)" fill="#bf8e75"/>
      <path id="Trazado_7672" data-name="Trazado 7672" d="M606.431,492.252a1.939,1.939,0,1,1-1.94-1.939,1.939,1.939,0,0,1,1.94,1.939" transform="translate(55.597 45.241)" fill="#bf8e75"/>
      <path id="Trazado_7673" data-name="Trazado 7673" d="M606.6,491.156a20.189,20.189,0,0,1-16.949,19.927,19.9,19.9,0,0,1-3.24.26,20.187,20.187,0,0,1-20.188-20.187c0-5.276,1.832-13.2,5.146-16.793,3.689-4.005,9.167-3.4,15.043-3.4a20.185,20.185,0,0,1,20.188,20.19" transform="translate(52.245 43.453)" fill="#bf8e75"/>
      <path id="Trazado_7674" data-name="Trazado 7674" d="M591.035,502.832v7.161a5.835,5.835,0,0,1-11.67,0v-7.161Z" transform="translate(53.458 46.396)" fill="#bf8e75"/>
      <path id="Trazado_7675" data-name="Trazado 7675" d="M590.739,508.972v.454a4.218,4.218,0,1,1-8.17.759c.389.023.781.036,1.175.036a20.18,20.18,0,0,0,6.995-1.25" transform="translate(53.753 46.963)" fill="#d3a489"/>
      <path id="Trazado_7676" data-name="Trazado 7676" d="M606.053,491.131A20.189,20.189,0,0,1,589.1,511.059a20.19,20.19,0,0,1,0-39.856,20.175,20.175,0,0,1,16.949,19.928" transform="translate(52.793 43.478)" fill="#d3a489"/>
      <path id="Trazado_7677" data-name="Trazado 7677" d="M585.162,498.8a10.191,10.191,0,0,1-4.922-1.271.9.9,0,1,1,.865-1.573,8.383,8.383,0,0,0,8.113,0,.9.9,0,0,1,.865,1.573,10.2,10.2,0,0,1-4.922,1.271" transform="translate(53.496 45.751)" fill="#bf8e75"/>
      <path id="Trazado_7678" data-name="Trazado 7678" d="M581.158,488.566a2.29,2.29,0,1,1-2.29-2.291,2.29,2.29,0,0,1,2.29,2.291" transform="translate(53.201 44.868)" fill="#3d4159"/>
      <path id="Trazado_7679" data-name="Trazado 7679" d="M593.223,488.566a2.29,2.29,0,1,1-2.289-2.291,2.289,2.289,0,0,1,2.289,2.291" transform="translate(54.314 44.868)" fill="#3d4159"/>
      <path id="Trazado_7680" data-name="Trazado 7680" d="M580.509,488.085a.981.981,0,1,1-.981-.981.982.982,0,0,1,.981.981" transform="translate(53.382 44.945)" fill="#fff"/>
      <path id="Trazado_7681" data-name="Trazado 7681" d="M592.677,488.085a.981.981,0,1,1-.981-.981.982.982,0,0,1,.981.981" transform="translate(54.505 44.945)" fill="#fff"/>
      <path id="Trazado_7682" data-name="Trazado 7682" d="M587.274,493.818h-4.581a.988.988,0,0,1,0-1.976h4.581a.988.988,0,0,1,0,1.976" transform="translate(53.674 45.382)" fill="#bf8e75"/>
      <rect id="Rectángulo_5804" data-name="Rectángulo 5804" width="8.801" height="2.694" transform="translate(645.304 571.343)" fill="#bfd5de"/>
      <path id="Trazado_7683" data-name="Trazado 7683" d="M583.625,465.688a12.234,12.234,0,0,1,11.337,11.6l.059,1.168h3.517l1.9,12.6,4.59-1.421-.617-12.346a12.235,12.235,0,0,0-12.267-11.628Z" transform="translate(53.851 42.966)" fill="#2a2f4f"/>
      <path id="Trazado_7684" data-name="Trazado 7684" d="M603.785,461.223a12.47,12.47,0,0,1-17.636,17.636Z" transform="translate(54.084 42.557)" fill="#3d4159"/>
      <path id="Trazado_7685" data-name="Trazado 7685" d="M587.989,478.45h-15.3l-1.9,12.6-4.59-1.42.615-12.347a12.238,12.238,0,0,1,12.268-11.628l22.1.083L604.109,471" transform="translate(52.243 42.966)" fill="#3d4159"/>
      <path id="Trazado_7686" data-name="Trazado 7686" d="M587.6,465.688a12.233,12.233,0,0,0-11.337,11.6l-.059,1.168h-3.517l-1.9,12.6-4.59-1.421.616-12.346a12.236,12.236,0,0,1,12.267-11.628Z" transform="translate(52.243 42.966)" fill="#2a2f4f"/>
      <path id="Trazado_7687" data-name="Trazado 7687" d="M583.006,553.722v4.324a57.825,57.825,0,0,1-48.894,0v-4.322a18.446,18.446,0,0,1,13.663-17.815c.287-.078.577-.149.871-.212a18.219,18.219,0,0,1,2.4-.353c.5-.04,1-.061,1.509-.061h12.01a18.462,18.462,0,0,1,3.912.414c.073.014.146.031.216.048.212.048.424.1.632.157l.018,0a18.461,18.461,0,0,1,13.664,17.817" transform="translate(49.282 49.39)" fill="#3d4159"/>
      <path id="Trazado_7688" data-name="Trazado 7688" d="M568.235,535.66l-.045.209-5.882,27.356c-.3.026-.609.05-.916.071q-.647.043-1.3.073-1.335.064-2.683.063-1.384,0-2.749-.067c-.412-.018-.825-.042-1.237-.072-.308-.022-.615-.043-.921-.069l-5.88-27.353-.045-.212Z" transform="translate(50.433 49.425)" fill="#66baed"/>
      <path id="Trazado_7689" data-name="Trazado 7689" d="M561.862,541.373l-4.951,7.94-4.949-7.94" transform="translate(50.929 49.952)" fill="#3d4159"/>
      <path id="Trazado_7690" data-name="Trazado 7690" d="M560.815,562.272c-.431.027-.865.054-1.3.073q-1.335.062-2.683.063-1.386,0-2.75-.067-.618-.028-1.235-.072l3.986-15.52Z" transform="translate(51.011 50.448)" fill="#3d4159"/>
      <path id="Trazado_7691" data-name="Trazado 7691" d="M557.408,543.051l-8.3,4.614-2.525-11.747,5.159-3.039" transform="translate(50.433 49.169)" fill="#2ba1cf"/>
      <path id="Trazado_7692" data-name="Trazado 7692" d="M556.493,543.051l8.3,4.614,2.525-11.747-5.159-3.039" transform="translate(51.347 49.169)" fill="#2ba1cf"/>
      <path id="Trazado_7693" data-name="Trazado 7693" d="M567.407,551.513h2.635l-4.6,11.19a57.457,57.457,0,0,1-6.49.665l8.082-27.5.061-.205,5.681,1.856Z" transform="translate(51.574 49.425)" fill="#2a2f4f"/>
      <path id="Trazado_7694" data-name="Trazado 7694" d="M555.146,563.365a56.978,56.978,0,0,1-6.495-.673l-4.6-11.179h2.634l-5.369-14L547,535.66l.062.2Z" transform="translate(49.947 49.425)" fill="#2a2f4f"/>
      <path id="Trazado_7695" data-name="Trazado 7695" d="M563.629,528.777v8.074a6.58,6.58,0,0,1-13.16,0v-8.074Z" transform="translate(50.792 48.79)" fill="#eab599"/>
      <path id="Trazado_7696" data-name="Trazado 7696" d="M563.3,535.7v.512a4.757,4.757,0,1,1-9.214.856q.66.041,1.325.04a22.725,22.725,0,0,0,7.89-1.409" transform="translate(51.125 49.429)" fill="#f6caae"/>
      <path id="Trazado_7697" data-name="Trazado 7697" d="M541,517.178a6.119,6.119,0,1,1-6.119-6.12,6.031,6.031,0,0,1,.98.08,6.121,6.121,0,0,1,5.139,6.04" transform="translate(48.789 47.155)" fill="#f6caae"/>
      <path id="Trazado_7698" data-name="Trazado 7698" d="M540.472,517.171a6.12,6.12,0,0,1-5.139,6.04,22.883,22.883,0,0,1,0-12.08,6.12,6.12,0,0,1,5.139,6.04" transform="translate(49.32 47.162)" fill="#eab599"/>
      <path id="Trazado_7699" data-name="Trazado 7699" d="M536.739,516.846a2.187,2.187,0,1,1-2.187-2.187,2.188,2.188,0,0,1,2.187,2.187" transform="translate(49.121 47.487)" fill="#eab599"/>
      <path id="Trazado_7700" data-name="Trazado 7700" d="M573.017,517.178a6.119,6.119,0,1,0,6.119-6.12,6.02,6.02,0,0,0-.98.08,6.121,6.121,0,0,0-5.139,6.04" transform="translate(52.872 47.155)" fill="#f6caae"/>
      <path id="Trazado_7701" data-name="Trazado 7701" d="M573.017,517.171a6.12,6.12,0,0,0,5.139,6.04,22.883,22.883,0,0,0,0-12.08,6.12,6.12,0,0,0-5.139,6.04" transform="translate(52.872 47.162)" fill="#eab599"/>
      <path id="Trazado_7702" data-name="Trazado 7702" d="M581.182,507.671v8.669a22.764,22.764,0,0,1-19.114,22.47l-.11.018a22.377,22.377,0,0,1-3.542.275,22.764,22.764,0,0,1-22.765-22.764v-8.669a22.754,22.754,0,0,1,22.765-22.766h0a22.749,22.749,0,0,1,22.765,22.766" transform="translate(49.424 44.742)" fill="#eab599"/>
      <path id="Trazado_7703" data-name="Trazado 7703" d="M580.99,516.846a2.187,2.187,0,1,1-2.187-2.187,2.187,2.187,0,0,1,2.187,2.187" transform="translate(53.204 47.487)" fill="#eab599"/>
      <path id="Trazado_7704" data-name="Trazado 7704" d="M580.582,507.648v8.669a22.764,22.764,0,0,1-19.113,22.47l-.111.019a22.768,22.768,0,0,1-19.217-22.489v-8.669a22.77,22.77,0,0,1,19.222-22.491,22.768,22.768,0,0,1,19.22,22.491" transform="translate(50.023 44.765)" fill="#f6caae"/>
      <path id="Trazado_7705" data-name="Trazado 7705" d="M552.49,512.688a2.583,2.583,0,1,1-2.582-2.582,2.583,2.583,0,0,1,2.582,2.582" transform="translate(50.502 47.067)" fill="#3d4159"/>
      <path id="Trazado_7706" data-name="Trazado 7706" d="M566.1,512.688a2.583,2.583,0,1,1-2.582-2.582,2.582,2.582,0,0,1,2.582,2.582" transform="translate(51.757 47.067)" fill="#3d4159"/>
      <path id="Trazado_7707" data-name="Trazado 7707" d="M551.76,512.148a1.106,1.106,0,1,1-1.106-1.108,1.108,1.108,0,0,1,1.106,1.108" transform="translate(50.707 47.154)" fill="#fff"/>
      <path id="Trazado_7708" data-name="Trazado 7708" d="M565.482,512.148a1.106,1.106,0,1,1-1.106-1.108,1.107,1.107,0,0,1,1.106,1.108" transform="translate(51.973 47.154)" fill="#fff"/>
      <path id="Trazado_7709" data-name="Trazado 7709" d="M559.388,517.685h-5.165a1.114,1.114,0,0,1,0-2.228h5.165a1.114,1.114,0,1,1,0,2.228" transform="translate(51.035 47.561)" fill="#eab599"/>
      <path id="Trazado_7710" data-name="Trazado 7710" d="M557.006,524.231a11.5,11.5,0,0,1-5.55-1.433,1.013,1.013,0,0,1,.977-1.776,9.44,9.44,0,0,0,9.148,0,1.013,1.013,0,0,1,.976,1.776,11.508,11.508,0,0,1-5.551,1.433" transform="translate(50.834 48.063)" fill="#eab599"/>
      <path id="Trazado_7711" data-name="Trazado 7711" d="M581.182,500.093v8.88h-4.237v-6.954l-30.586-5.683-6.472-1.2v13.841h-4.237v-8.88a18.327,18.327,0,0,1,18.327-18.329h8.877c.241,0,.483,0,.723.016a18.325,18.325,0,0,1,17.6,18.313" transform="translate(49.424 44.452)" fill="#2a2f4f"/>
      <path id="Trazado_7712" data-name="Trazado 7712" d="M580.278,500.092v8.88h-4.237v-6.954l-30.586-5.683a17.548,17.548,0,0,1,34.823,3.757" transform="translate(50.329 44.454)" fill="#3d4159"/>
      <path id="Trazado_7713" data-name="Trazado 7713" d="M310.669,52.225a55.194,55.194,0,1,1-55.194,55.193,55.193,55.193,0,0,1,55.194-55.193" transform="translate(23.573 4.819)" fill="#3fa9f5"/>
      <path id="Trazado_7714" data-name="Trazado 7714" d="M317.926,59.706a11.071,11.071,0,0,0-21.984,0Z" transform="translate(27.306 4.61)" fill="#373775"/>
      <path id="Trazado_7715" data-name="Trazado 7715" d="M308.849,50.125a11.065,11.065,0,0,0-12.908,9.58h3.832a11.117,11.117,0,0,1,9.077-9.58" transform="translate(27.306 4.61)" fill="#322d60"/>
      <path id="Trazado_7716" data-name="Trazado 7716" d="M359.637,62.211H327.761v7.335a.677.677,0,0,1-.676.676H293.611a.677.677,0,0,1-.676-.676V62.211H261.08a2.259,2.259,0,0,0-2.252,2.253V126.3a54.9,54.9,0,0,0,4.065,8.374h11.223v-1.586a.228.228,0,0,1,.225-.225H293.49v-7.209a.229.229,0,0,1,.226-.226h22.139a.229.229,0,0,1,.226.226v9.02h41.742a55.061,55.061,0,0,0,4.065-8.376V64.464a2.258,2.258,0,0,0-2.252-2.253" transform="translate(23.882 5.74)" fill="#b82d30"/>
      <path id="Trazado_7717" data-name="Trazado 7717" d="M261.382,64.464a2.26,2.26,0,0,1,2.253-2.253H261.08a2.26,2.26,0,0,0-2.252,2.253V126.3a54.814,54.814,0,0,0,2.554,5.657Z" transform="translate(23.882 5.74)" fill="#ab372f"/>
      <path id="Trazado_7718" data-name="Trazado 7718" d="M355.228,66.886h-27.9v2.229a.675.675,0,0,1-.675.675H293.182a.676.676,0,0,1-.676-.675V66.886H264.633a1.161,1.161,0,0,0-1.155,1.16v59.932a1.161,1.161,0,0,0,1.155,1.16h28.43v-3.914a.229.229,0,0,1,.225-.226h22.14a.228.228,0,0,1,.225.226v3.914h39.575a1.161,1.161,0,0,0,1.155-1.16V68.046a1.161,1.161,0,0,0-1.155-1.16" transform="translate(24.311 6.172)" fill="#fff"/>
      <path id="Trazado_7719" data-name="Trazado 7719" d="M267.309,127.978V68.047a1.161,1.161,0,0,1,1.155-1.161h-3.832a1.161,1.161,0,0,0-1.155,1.161v59.931a1.161,1.161,0,0,0,1.155,1.16h3.832a1.161,1.161,0,0,1-1.155-1.16" transform="translate(24.311 6.172)" fill="#cee4f7"/>
      <path id="Trazado_7720" data-name="Trazado 7720" d="M294,112.208a6.844,6.844,0,0,1,0-3.379h-7.279a6.844,6.844,0,0,1,0,3.379Z" transform="translate(26.456 10.042)" fill="#a2b8e0"/>
      <path id="Trazado_7721" data-name="Trazado 7721" d="M312.643,112.208a6.843,6.843,0,0,1,0-3.379h-7.278a6.844,6.844,0,0,1,0,3.379Z" transform="translate(28.176 10.042)" fill="#a2b8e0"/>
      <path id="Trazado_7722" data-name="Trazado 7722" d="M331.285,112.208a6.845,6.845,0,0,1,0-3.379h-7.278a6.844,6.844,0,0,1,0,3.379Z" transform="translate(29.896 10.042)" fill="#a2b8e0"/>
      <path id="Trazado_7723" data-name="Trazado 7723" d="M300.9,93.975h-8.67v3.379h8.67a6.844,6.844,0,0,1,0-3.379" transform="translate(26.964 8.671)" fill="#a2b8e0"/>
      <path id="Trazado_7724" data-name="Trazado 7724" d="M280.877,104.484a6.689,6.689,0,0,1,1.69.215V100.71h-3.379V104.7a6.69,6.69,0,0,1,1.69-.215" transform="translate(25.761 9.292)" fill="#a2b8e0"/>
      <rect id="Rectángulo_5805" data-name="Rectángulo 5805" width="3.379" height="3.713" transform="translate(304.948 94.956)" fill="#a2b8e0"/>
      <rect id="Rectángulo_5806" data-name="Rectángulo 5806" width="23.013" height="9.232" rx="0.619" transform="translate(295.131 99.72)" fill="#009e70"/>
      <path id="Trazado_7725" data-name="Trazado 7725" d="M272.031,98.981h19.635V93.128H272.031Zm20.648,3.379H271.018a2.368,2.368,0,0,1-2.366-2.366V92.116a2.369,2.369,0,0,1,2.366-2.366H292.68a2.369,2.369,0,0,1,2.366,2.366v7.879a2.368,2.368,0,0,1-2.366,2.366" transform="translate(24.788 8.281)" fill="#009f65"/>
      <rect id="Rectángulo_5807" data-name="Rectángulo 5807" width="23.013" height="9.232" rx="0.619" transform="translate(295.131 84.674)" fill="#fdc300"/>
      <path id="Trazado_7726" data-name="Trazado 7726" d="M272.031,85.206h19.635V79.354H272.031Zm20.648,3.379H271.018a2.368,2.368,0,0,1-2.366-2.366V78.341a2.369,2.369,0,0,1,2.366-2.366H292.68a2.369,2.369,0,0,1,2.366,2.366v7.879a2.368,2.368,0,0,1-2.366,2.366" transform="translate(24.788 7.01)" fill="#f6a01a"/>
      <path id="Trazado_7727" data-name="Trazado 7727" d="M321.5,80.121h-5.98V83.5h4.967V95.253h-8.336a6.81,6.81,0,0,1,0,3.379h9.35a2.369,2.369,0,0,0,2.366-2.366V82.487a2.368,2.368,0,0,0-2.366-2.366" transform="translate(28.802 7.393)" fill="#a2b8e0"/>
      <rect id="Rectángulo_5808" data-name="Rectángulo 5808" width="17.722" height="9.232" rx="0.619" transform="translate(325.547 84.674)" fill="#e72d47"/>
      <path id="Trazado_7728" data-name="Trazado 7728" d="M299.879,85.206h14.343V79.354H299.879Zm15.356,3.379h-16.37a2.368,2.368,0,0,1-2.366-2.366V78.341a2.369,2.369,0,0,1,2.366-2.366h16.37a2.369,2.369,0,0,1,2.366,2.366v7.879a2.368,2.368,0,0,1-2.366,2.366" transform="translate(27.358 7.01)" fill="#cb1b28"/>
      <path id="Trazado_7729" data-name="Trazado 7729" d="M306.633,90.342A5.657,5.657,0,1,1,301.005,96a5.643,5.643,0,0,1,5.628-5.657" transform="translate(27.774 8.336)" fill="#00b3da"/>
      <path id="Trazado_7730" data-name="Trazado 7730" d="M306.777,92.175a3.967,3.967,0,1,0,3.938,3.967,3.958,3.958,0,0,0-3.938-3.967m0,11.314a7.347,7.347,0,1,1,7.317-7.347,7.34,7.34,0,0,1-7.317,7.347" transform="translate(27.631 8.193)" fill="#0096cc"/>
      <path id="Trazado_7731" data-name="Trazado 7731" d="M281.21,105.2a5.657,5.657,0,1,1-5.628,5.657,5.643,5.643,0,0,1,5.628-5.657" transform="translate(25.428 9.707)" fill="#e72d47"/>
      <path id="Trazado_7732" data-name="Trazado 7732" d="M281.352,107.028A3.968,3.968,0,1,0,285.29,111a3.958,3.958,0,0,0-3.938-3.968m0,11.315A7.347,7.347,0,1,1,288.669,111a7.34,7.34,0,0,1-7.317,7.347" transform="translate(25.285 9.564)" fill="#cb1b28"/>
      <path id="Trazado_7733" data-name="Trazado 7733" d="M299.85,105.2a5.657,5.657,0,1,1-5.627,5.657,5.643,5.643,0,0,1,5.627-5.657" transform="translate(27.148 9.707)" fill="#fdc300"/>
      <path id="Trazado_7734" data-name="Trazado 7734" d="M299.994,107.028A3.968,3.968,0,1,0,303.932,111a3.958,3.958,0,0,0-3.938-3.968m0,11.315A7.347,7.347,0,1,1,307.311,111a7.34,7.34,0,0,1-7.317,7.347" transform="translate(27.005 9.564)" fill="#f6a01a"/>
      <path id="Trazado_7735" data-name="Trazado 7735" d="M318.493,105.2a5.657,5.657,0,1,1-5.627,5.657,5.642,5.642,0,0,1,5.627-5.657" transform="translate(28.868 9.707)" fill="#009e70"/>
      <path id="Trazado_7736" data-name="Trazado 7736" d="M318.636,107.028A3.968,3.968,0,1,0,322.574,111a3.958,3.958,0,0,0-3.938-3.968m0,11.315A7.347,7.347,0,1,1,325.953,111a7.34,7.34,0,0,1-7.317,7.347" transform="translate(28.725 9.564)" fill="#009f65"/>
      <path id="Trazado_7737" data-name="Trazado 7737" d="M337.133,105.2a5.657,5.657,0,1,1-5.628,5.657,5.643,5.643,0,0,1,5.628-5.657" transform="translate(30.588 9.707)" fill="#00b3da"/>
      <path id="Trazado_7738" data-name="Trazado 7738" d="M337.277,107.028A3.968,3.968,0,1,0,341.216,111a3.958,3.958,0,0,0-3.939-3.968m0,11.315A7.347,7.347,0,1,1,344.594,111a7.34,7.34,0,0,1-7.317,7.347" transform="translate(30.445 9.564)" fill="#0096cc"/>
      <path id="Trazado_7739" data-name="Trazado 7739" d="M335.7,85.835h-8.415a1.69,1.69,0,1,1,0-3.379H335.7a1.69,1.69,0,0,1,0,3.379" transform="translate(30.042 7.608)" fill="#385497"/>
      <path id="Trazado_7740" data-name="Trazado 7740" d="M335.7,90.52h-8.415a1.69,1.69,0,1,1,0-3.379H335.7a1.69,1.69,0,0,1,0,3.379" transform="translate(30.042 8.04)" fill="#385497"/>
      <path id="Trazado_7741" data-name="Trazado 7741" d="M335.7,95.2h-8.415a1.69,1.69,0,1,1,0-3.379H335.7a1.69,1.69,0,0,1,0,3.379" transform="translate(30.042 8.473)" fill="#385497"/>
      <path id="Trazado_7742" data-name="Trazado 7742" d="M342.2,85.835h-2.89a1.69,1.69,0,0,1,0-3.379h2.89a1.69,1.69,0,1,1,0,3.379" transform="translate(31.152 7.608)" fill="#385497"/>
      <path id="Trazado_7743" data-name="Trazado 7743" d="M342.2,90.52h-2.89a1.69,1.69,0,0,1,0-3.379h2.89a1.69,1.69,0,1,1,0,3.379" transform="translate(31.152 8.04)" fill="#385497"/>
      <path id="Trazado_7744" data-name="Trazado 7744" d="M342.2,95.2h-2.89a1.69,1.69,0,0,1,0-3.379h2.89a1.69,1.69,0,1,1,0,3.379" transform="translate(31.152 8.473)" fill="#385497"/>
      <path id="Rectángulo_5809" data-name="Rectángulo 5809" d="M1.031,0H34.7a1.031,1.031,0,0,1,1.031,1.031V11.516A1.032,1.032,0,0,1,34.7,12.548H1.031A1.031,1.031,0,0,1,0,11.517V1.031A1.031,1.031,0,0,1,1.031,0Z" transform="translate(316.367 63.864)" fill="#385497"/>
      <path id="Trazado_7745" data-name="Trazado 7745" d="M292.835,69.891V59.6a1.129,1.129,0,0,1,1.125-1.126h-3.193a1.129,1.129,0,0,0-1.125,1.126v10.3a1.129,1.129,0,0,0,1.125,1.126h3.193a1.129,1.129,0,0,1-1.125-1.126" transform="translate(26.725 5.395)" fill="#373775"/>
      <path id="Trazado_7746" data-name="Trazado 7746" d="M295.448,66.044a1.689,1.689,0,1,1,1.194-.494,1.7,1.7,0,0,1-1.194.494" transform="translate(27.105 5.782)" fill="#a2b8e0"/>
      <path id="Trazado_7747" data-name="Trazado 7747" d="M316.83,66.044a1.689,1.689,0,1,1,1.194-.494,1.708,1.708,0,0,1-1.194.494" transform="translate(29.078 5.782)" fill="#a2b8e0"/>
      <path id="Trazado_7748" data-name="Trazado 7748" d="M312.966,119.677h-22.14a.677.677,0,0,0-.675.676v7.209h3.441a.228.228,0,0,1,.226.225v15.381h19.149a.678.678,0,0,0,.676-.676V120.353a.678.678,0,0,0-.676-.676" transform="translate(26.772 11.043)" fill="#f6a01a"/>
      <path id="Trazado_7749" data-name="Trazado 7749" d="M293.343,127.561v-7.209a.679.679,0,0,1,.676-.676h-3.193a.678.678,0,0,0-.676.676v7.209Z" transform="translate(26.772 11.042)" fill="#f1881b"/>
      <path id="Trazado_7750" data-name="Trazado 7750" d="M304.346,126.245h-6.083a1.69,1.69,0,1,1,0-3.379h6.083a1.69,1.69,0,0,1,0,3.379" transform="translate(27.365 11.337)" fill="#f1881b"/>
      <path id="Trazado_7751" data-name="Trazado 7751" d="M295.228,126.483h-22.14a.678.678,0,0,0-.675.676v14.635a55.267,55.267,0,0,0,12.072,8.181h10.744a.679.679,0,0,0,.676-.676v-22.14a.679.679,0,0,0-.676-.676" transform="translate(25.135 11.671)" fill="#fdc300"/>
      <path id="Trazado_7752" data-name="Trazado 7752" d="M275.606,127.158a.679.679,0,0,1,.676-.676h-3.193a.678.678,0,0,0-.676.676v14.636q1.545,1.376,3.193,2.635Z" transform="translate(25.135 11.67)" fill="#f6a01a"/>
      <path id="Trazado_7753" data-name="Trazado 7753" d="M288.812,134.38H278.663a1.69,1.69,0,0,1,0-3.379h10.149a1.69,1.69,0,1,1,0,3.379" transform="translate(25.556 12.087)" fill="#f6a01a"/>
      <path id="Trazado_7754" data-name="Trazado 7754" d="M288.812,138.381H278.663a1.69,1.69,0,0,1,0-3.379h10.149a1.69,1.69,0,1,1,0,3.379" transform="translate(25.556 12.457)" fill="#f6a01a"/>
      <path id="Trazado_7755" data-name="Trazado 7755" d="M288.812,142.382H278.663a1.69,1.69,0,0,1,0-3.379h10.149a1.69,1.69,0,1,1,0,3.379" transform="translate(25.556 12.826)" fill="#f6a01a"/>
      <rect id="Rectángulo_5810" data-name="Rectángulo 5810" width="23.491" height="23.493" rx="0.619" transform="translate(347.442 146.418)" fill="#fdc300"/>
      <path id="Trazado_7756" data-name="Trazado 7756" d="M321.285,156.865v-22.14a.678.678,0,0,1,.676-.676h-3.194a.679.679,0,0,0-.676.676v22.14a.679.679,0,0,0,.676.676h3.194a.678.678,0,0,1-.676-.676" transform="translate(29.35 12.369)" fill="#f6a01a"/>
      <path id="Trazado_7757" data-name="Trazado 7757" d="M323.426,142.122a1.689,1.689,0,1,1,1.2-.5,1.7,1.7,0,0,1-1.2.5" transform="translate(29.687 12.802)" fill="#f6a01a"/>
      <path id="Trazado_7758" data-name="Trazado 7758" d="M323.426,146.635a1.689,1.689,0,1,1,1.2-.5,1.7,1.7,0,0,1-1.2.5" transform="translate(29.687 13.218)" fill="#f6a01a"/>
      <path id="Trazado_7759" data-name="Trazado 7759" d="M323.426,151.147a1.689,1.689,0,1,1,1.2-.5,1.7,1.7,0,0,1-1.2.5" transform="translate(29.687 13.635)" fill="#f6a01a"/>
      <path id="Trazado_7760" data-name="Trazado 7760" d="M335.084,142.122h-7.709a1.69,1.69,0,1,1,0-3.38h7.709a1.69,1.69,0,0,1,0,3.38" transform="translate(30.051 12.802)" fill="#f6a01a"/>
      <path id="Trazado_7761" data-name="Trazado 7761" d="M335.084,146.635h-7.709a1.69,1.69,0,1,1,0-3.379h7.709a1.69,1.69,0,0,1,0,3.379" transform="translate(30.051 13.218)" fill="#f6a01a"/>
      <path id="Trazado_7762" data-name="Trazado 7762" d="M335.084,151.148h-7.709a1.69,1.69,0,1,1,0-3.379h7.709a1.69,1.69,0,0,1,0,3.379" transform="translate(30.051 13.635)" fill="#f6a01a"/>
      <path id="Trazado_7763" data-name="Trazado 7763" d="M62.447,455.485A55.194,55.194,0,1,1,7.254,510.679a55.193,55.193,0,0,1,55.193-55.194" transform="translate(0.669 42.027)" fill="#3fa9f5"/>
      <rect id="Rectángulo_5811" data-name="Rectángulo 5811" width="17.732" height="9.289" transform="translate(44.806 575.805)" fill="#385497"/>
      <rect id="Rectángulo_5812" data-name="Rectángulo 5812" width="4.471" height="9.289" transform="translate(44.806 575.805)" fill="#334380"/>
      <path id="Trazado_7764" data-name="Trazado 7764" d="M71.767,535.462H29.123a1.152,1.152,0,0,0-1.149,1.149v5.761a1.152,1.152,0,0,0,1.149,1.149H71.767Z" transform="translate(2.581 49.407)" fill="#373775"/>
      <path id="Trazado_7765" data-name="Trazado 7765" d="M32.444,542.372v-5.761a1.152,1.152,0,0,1,1.149-1.149H29.122a1.153,1.153,0,0,0-1.149,1.149v5.761a1.153,1.153,0,0,0,1.149,1.149h4.471a1.152,1.152,0,0,1-1.149-1.149" transform="translate(2.581 49.407)" fill="#322d60"/>
      <path id="Trazado_7766" data-name="Trazado 7766" d="M102.978,465.378H3.865a1.153,1.153,0,0,0-1.149,1.15v65.413a1.152,1.152,0,0,0,1.149,1.149H74.1V498.676a1.579,1.579,0,0,1,1.577-1.577h28.453v-30.57a1.153,1.153,0,0,0-1.149-1.15" transform="translate(0.251 42.94)" fill="#373775"/>
      <path id="Trazado_7767" data-name="Trazado 7767" d="M7.335,520.645a.691.691,0,0,0,.689.689H73.671V497.724a1.579,1.579,0,0,1,1.577-1.577H98.655V475.7H7.335Z" transform="translate(0.677 43.893)" fill="#fff"/>
      <path id="Trazado_7768" data-name="Trazado 7768" d="M11.806,520.645V475.7H7.335v44.947a.691.691,0,0,0,.69.689h4.47a.691.691,0,0,1-.689-.689" transform="translate(0.677 43.893)" fill="#cee4f7"/>
      <path id="Trazado_7769" data-name="Trazado 7769" d="M49.4,519.565a3.1,3.1,0,1,1-3.1,3.1,3.1,3.1,0,0,1,3.1-3.1" transform="translate(4.272 47.94)" fill="#385497"/>
      <path id="Trazado_7770" data-name="Trazado 7770" d="M69.142,499.241H57.106a.677.677,0,0,0-.675.676v13.435a.677.677,0,0,0,.675.676H69.142Z" transform="translate(5.207 46.065)" fill="#b3d6ef"/>
      <path id="Trazado_7771" data-name="Trazado 7771" d="M60.9,513.352V499.916a.678.678,0,0,1,.676-.675H57.105a.677.677,0,0,0-.675.675v13.436a.678.678,0,0,0,.675.676h4.471a.679.679,0,0,1-.676-.676" transform="translate(5.207 46.065)" fill="#a2b8e0"/>
      <path id="Trazado_7772" data-name="Trazado 7772" d="M74.158,495.758h10.5V481.029a1.129,1.129,0,0,0-1.126-1.126H20.276a1.13,1.13,0,0,0-1.126,1.126v14.987a1.13,1.13,0,0,0,1.126,1.126H72.595a1.577,1.577,0,0,1,1.563-1.384" transform="translate(1.767 44.281)" fill="#b3d6ef"/>
      <path id="Trazado_7773" data-name="Trazado 7773" d="M23.621,496.015V481.028a1.13,1.13,0,0,1,1.126-1.126h-4.47a1.13,1.13,0,0,0-1.127,1.126v14.987a1.13,1.13,0,0,0,1.127,1.126h4.47a1.13,1.13,0,0,1-1.126-1.126" transform="translate(1.767 44.28)" fill="#a2b8e0"/>
      <path id="Trazado_7774" data-name="Trazado 7774" d="M97.966,470.745H8.024a.691.691,0,0,0-.689.689v4.946h91.32v-4.946a.691.691,0,0,0-.689-.689" transform="translate(0.677 43.435)" fill="#f6a01a"/>
      <path id="Trazado_7775" data-name="Trazado 7775" d="M12.495,470.745H8.024a.691.691,0,0,0-.689.689v4.946H11.8v-4.946a.693.693,0,0,1,.69-.689" transform="translate(0.677 43.435)" fill="#f08225"/>
      <path id="Trazado_7776" data-name="Trazado 7776" d="M39.834,502.791H20.872a1.69,1.69,0,1,1,0-3.379H39.834a1.69,1.69,0,1,1,0,3.379" transform="translate(1.77 46.081)" fill="#00adc4"/>
      <path id="Trazado_7777" data-name="Trazado 7777" d="M39.834,507.842H20.872a1.69,1.69,0,0,1,0-3.379H39.834a1.69,1.69,0,1,1,0,3.379" transform="translate(1.77 46.547)" fill="#00adc4"/>
      <path id="Trazado_7778" data-name="Trazado 7778" d="M39.834,512.892H20.872a1.69,1.69,0,1,1,0-3.379H39.834a1.69,1.69,0,1,1,0,3.379" transform="translate(1.77 47.013)" fill="#00adc4"/>
      <path id="Trazado_7779" data-name="Trazado 7779" d="M52.68,502.791H42.92a1.69,1.69,0,1,1,0-3.379H52.68a1.69,1.69,0,1,1,0,3.379" transform="translate(3.804 46.081)" fill="#00adc4"/>
      <path id="Trazado_7780" data-name="Trazado 7780" d="M52.68,507.842H42.92a1.69,1.69,0,1,1,0-3.379H52.68a1.69,1.69,0,1,1,0,3.379" transform="translate(3.804 46.547)" fill="#00adc4"/>
      <path id="Trazado_7781" data-name="Trazado 7781" d="M52.68,512.892H42.92a1.69,1.69,0,1,1,0-3.379H52.68a1.69,1.69,0,1,1,0,3.379" transform="translate(3.804 47.013)" fill="#00adc4"/>
      <rect id="Rectángulo_5813" data-name="Rectángulo 5813" width="44.188" height="58.071" rx="1.65" transform="translate(74.123 539.814)" fill="#385497"/>
      <path id="Rectángulo_5814" data-name="Rectángulo 5814" d="M1.031,0h34.6a1.031,1.031,0,0,1,1.031,1.031V46.489a1.032,1.032,0,0,1-1.032,1.032H1.031A1.031,1.031,0,0,1,0,46.49V1.031A1.031,1.031,0,0,1,1.031,0Z" transform="translate(77.888 543.286)" fill="#fff"/>
      <path id="Trazado_7782" data-name="Trazado 7782" d="M75.778,543.787V498.518a1.13,1.13,0,0,1,1.126-1.126h-4.47a1.13,1.13,0,0,0-1.127,1.126v45.269a1.131,1.131,0,0,0,1.127,1.126H76.9a1.13,1.13,0,0,1-1.126-1.126" transform="translate(6.579 45.894)" fill="#cee4f7"/>
      <rect id="Rectángulo_5815" data-name="Rectángulo 5815" width="6.471" height="2.691" rx="1.031" transform="translate(92.982 592.622)" fill="#385497"/>
      <path id="Trazado_7783" data-name="Trazado 7783" d="M107.967,501.738v-3.22a1.13,1.13,0,0,0-1.126-1.126H72.434a1.13,1.13,0,0,0-1.126,1.126v3.22Z" transform="translate(6.58 45.894)" fill="#f6a01a"/>
      <path id="Trazado_7784" data-name="Trazado 7784" d="M76.9,497.392H72.434a1.13,1.13,0,0,0-1.126,1.126v3.22h4.471v-3.22a1.13,1.13,0,0,1,1.126-1.126" transform="translate(6.58 45.894)" fill="#f08225"/>
      <path id="Trazado_7785" data-name="Trazado 7785" d="M96.559,520.52H81.2a1.69,1.69,0,1,1,0-3.379H96.559a1.69,1.69,0,1,1,0,3.379" transform="translate(7.337 47.716)" fill="#00adc4"/>
      <path id="Trazado_7786" data-name="Trazado 7786" d="M96.559,525.29H81.2a1.69,1.69,0,1,1,0-3.379H96.559a1.69,1.69,0,1,1,0,3.379" transform="translate(7.337 48.157)" fill="#00adc4"/>
      <path id="Trazado_7787" data-name="Trazado 7787" d="M96.559,530.06H81.2a1.69,1.69,0,0,1,0-3.38H96.559a1.69,1.69,0,0,1,0,3.38" transform="translate(7.337 48.597)" fill="#00adc4"/>
      <path id="Rectángulo_5816" data-name="Rectángulo 5816" d="M1.031,0h27.6a1.031,1.031,0,0,1,1.031,1.031v9.481a1.032,1.032,0,0,1-1.032,1.032H1.031A1.031,1.031,0,0,1,0,10.513V1.031A1.031,1.031,0,0,1,1.031,0Z" transform="translate(81.387 550.457)" fill="#b3d6ef"/>
      <path id="Trazado_7788" data-name="Trazado 7788" d="M78.982,514.375v-9.291a1.13,1.13,0,0,1,1.126-1.127h-4.47a1.13,1.13,0,0,0-1.126,1.127v9.291a1.129,1.129,0,0,0,1.126,1.126h4.47a1.129,1.129,0,0,1-1.126-1.126" transform="translate(6.875 46.5)" fill="#a2b8e0"/>
      <path id="Rectángulo_5817" data-name="Rectángulo 5817" d="M1.031,0H20.518a1.031,1.031,0,0,1,1.031,1.031v4a1.032,1.032,0,0,1-1.032,1.032H1.031A1.031,1.031,0,0,1,0,5.031v-4A1.031,1.031,0,0,1,1.031,0Z" transform="translate(85.442 582.333)" fill="#b3d6ef"/>
      <path id="Trazado_7789" data-name="Trazado 7789" d="M82.695,538.076v-3.809a1.13,1.13,0,0,1,1.126-1.127h-4.47a1.131,1.131,0,0,0-1.127,1.127v3.809a1.13,1.13,0,0,0,1.127,1.126h4.47a1.13,1.13,0,0,1-1.126-1.126" transform="translate(7.218 49.193)" fill="#a2b8e0"/>
    </g>
  </g>
</svg>
