<svg xmlns="http://www.w3.org/2000/svg" width="101.062" height="105.6" viewBox="0 0 101.062 105.6">
  <g id="Grupo_8818" data-name="Grupo 8818" transform="translate(-678.475 -2970.957)">
    <path id="Trazado_7297" data-name="Trazado 7297" d="M302.855,107.355l3.15-5.106,3.15,5.106" transform="translate(423 2921)" fill="none" stroke="#f78966" stroke-linecap="round" stroke-linejoin="round" stroke-width="2"/>
    <line id="Línea_1127" data-name="Línea 1127" y1="6" transform="translate(729.159 3023.249)" fill="none" stroke="#f78966" stroke-linecap="round" stroke-linejoin="round" stroke-width="2"/>
    <path id="Trazado_7453" data-name="Trazado 7453" d="M306.006,52.225a50.531,50.531,0,1,1-50.531,50.531,50.531,50.531,0,0,1,50.531-50.531" transform="translate(423 2921)" fill="#3fa9f5"/>
    <path id="Trazado_7454" data-name="Trazado 7454" d="M316.069,58.882a10.136,10.136,0,0,0-20.127,0Z" transform="translate(423 2921)" fill="#373775"/>
    <path id="Trazado_7455" data-name="Trazado 7455" d="M307.759,50.111a10.13,10.13,0,0,0-11.818,8.771h3.508a10.178,10.178,0,0,1,8.31-8.771" transform="translate(423 2921)" fill="#322d60"/>
    <path id="Trazado_7456" data-name="Trazado 7456" d="M351.121,62.212H321.938v6.715a.62.62,0,0,1-.619.619H290.673a.619.619,0,0,1-.619-.619V62.212H260.89a2.068,2.068,0,0,0-2.062,2.063v56.612a50.257,50.257,0,0,0,3.722,7.667h10.275V127.1a.209.209,0,0,1,.206-.206h17.531v-6.6a.21.21,0,0,1,.207-.207h20.269a.21.21,0,0,1,.207.207v8.258h38.216a50.408,50.408,0,0,0,3.722-7.668V64.275a2.067,2.067,0,0,0-2.062-2.063" transform="translate(423 2921)" fill="#b82d30"/>
    <path id="Trazado_7457" data-name="Trazado 7457" d="M261.166,64.274a2.069,2.069,0,0,1,2.063-2.063H260.89a2.069,2.069,0,0,0-2.062,2.063v56.612a50.184,50.184,0,0,0,2.338,5.179Z" transform="translate(423 2921)" fill="#ab372f"/>
    <path id="Trazado_7458" data-name="Trazado 7458" d="M347.477,66.886H321.938v2.041a.618.618,0,0,1-.618.618H290.673a.619.619,0,0,1-.619-.618V66.886H264.535a1.063,1.063,0,0,0-1.057,1.062v54.869a1.063,1.063,0,0,0,1.057,1.062h26.028V120.3a.21.21,0,0,1,.206-.207h20.27a.209.209,0,0,1,.206.207v3.583h36.232a1.063,1.063,0,0,0,1.057-1.062V67.948a1.063,1.063,0,0,0-1.057-1.062" transform="translate(423 2921)" fill="#fff"/>
    <path id="Trazado_7459" data-name="Trazado 7459" d="M266.985,122.817V67.948a1.063,1.063,0,0,1,1.057-1.062h-3.508a1.063,1.063,0,0,0-1.057,1.062v54.869a1.063,1.063,0,0,0,1.057,1.062h3.508a1.063,1.063,0,0,1-1.057-1.062" transform="translate(423 2921)" fill="#cee4f7"/>
    <path id="Trazado_7460" data-name="Trazado 7460" d="M293.387,111.923a6.265,6.265,0,0,1,0-3.094h-6.664a6.265,6.265,0,0,1,0,3.094Z" transform="translate(423 2921)" fill="#a2b8e0"/>
    <path id="Trazado_7461" data-name="Trazado 7461" d="M312.028,111.923a6.265,6.265,0,0,1,0-3.094h-6.663a6.265,6.265,0,0,1,0,3.094Z" transform="translate(423 2921)" fill="#a2b8e0"/>
    <path id="Trazado_7462" data-name="Trazado 7462" d="M330.67,111.923a6.265,6.265,0,0,1,0-3.094h-6.663a6.265,6.265,0,0,1,0,3.094Z" transform="translate(423 2921)" fill="#a2b8e0"/>
    <path id="Trazado_7463" data-name="Trazado 7463" d="M300.169,93.975h-7.938v3.094h7.938a6.265,6.265,0,0,1,0-3.094" transform="translate(423 2921)" fill="#a2b8e0"/>
    <path id="Trazado_7464" data-name="Trazado 7464" d="M280.734,104.165a6.124,6.124,0,0,1,1.547.2V100.71h-3.094v3.652a6.124,6.124,0,0,1,1.547-.2" transform="translate(423 2921)" fill="#a2b8e0"/>
    <rect id="Rectángulo_5782" data-name="Rectángulo 5782" width="3.094" height="3.399" transform="translate(702.187 3007.935)" fill="#a2b8e0"/>
    <rect id="Rectángulo_5783" data-name="Rectángulo 5783" width="21.069" height="8.452" rx="0.619" transform="translate(693.2 3012.296)" fill="#009e70"/>
    <path id="Trazado_7465" data-name="Trazado 7465" d="M271.746,98.2h17.976V92.844H271.746Zm18.9,3.094H270.818a2.168,2.168,0,0,1-2.166-2.166V91.916a2.169,2.169,0,0,1,2.166-2.166H290.65a2.169,2.169,0,0,1,2.166,2.166v7.213a2.168,2.168,0,0,1-2.166,2.166" transform="translate(423 2921)" fill="#009f65"/>
    <rect id="Rectángulo_5784" data-name="Rectángulo 5784" width="21.069" height="8.452" rx="0.619" transform="translate(693.2 2998.521)" fill="#fdc300"/>
    <path id="Trazado_7466" data-name="Trazado 7466" d="M271.746,84.426h17.976V79.069H271.746Zm18.9,3.094H270.818a2.168,2.168,0,0,1-2.166-2.166V78.141a2.169,2.169,0,0,1,2.166-2.166H290.65a2.169,2.169,0,0,1,2.166,2.166v7.213a2.168,2.168,0,0,1-2.166,2.166" transform="translate(423 2921)" fill="#f6a01a"/>
    <path id="Trazado_7467" data-name="Trazado 7467" d="M320.708,80.121h-5.475v3.094h4.547v10.76h-7.632a6.235,6.235,0,0,1,0,3.094h8.56a2.169,2.169,0,0,0,2.166-2.166V82.287a2.168,2.168,0,0,0-2.166-2.166" transform="translate(423 2921)" fill="#a2b8e0"/>
    <rect id="Rectángulo_5785" data-name="Rectángulo 5785" width="16.225" height="8.452" rx="0.619" transform="translate(721.046 2998.521)" fill="#e72d47"/>
    <path id="Trazado_7468" data-name="Trazado 7468" d="M299.594,84.426h13.131V79.069H299.594Zm14.059,3.094H298.666a2.168,2.168,0,0,1-2.166-2.166V78.141a2.169,2.169,0,0,1,2.166-2.166h14.987a2.169,2.169,0,0,1,2.166,2.166v7.213a2.168,2.168,0,0,1-2.166,2.166" transform="translate(423 2921)" fill="#cb1b28"/>
    <path id="Trazado_7469" data-name="Trazado 7469" d="M306.158,90.343a5.179,5.179,0,1,1-5.153,5.179,5.166,5.166,0,0,1,5.153-5.179" transform="translate(423 2921)" fill="#00b3da"/>
    <path id="Trazado_7470" data-name="Trazado 7470" d="M306.159,91.89a3.633,3.633,0,1,0,3.605,3.633,3.624,3.624,0,0,0-3.605-3.633m0,10.359a6.726,6.726,0,1,1,6.7-6.726,6.721,6.721,0,0,1-6.7,6.726" transform="translate(423 2921)" fill="#0096cc"/>
    <path id="Trazado_7471" data-name="Trazado 7471" d="M280.734,105.2a5.179,5.179,0,1,1-5.153,5.179,5.166,5.166,0,0,1,5.153-5.179" transform="translate(423 2921)" fill="#e72d47"/>
    <path id="Trazado_7472" data-name="Trazado 7472" d="M280.734,106.743a3.633,3.633,0,1,0,3.6,3.633,3.624,3.624,0,0,0-3.6-3.633m0,10.359a6.726,6.726,0,1,1,6.7-6.726,6.721,6.721,0,0,1-6.7,6.726" transform="translate(423 2921)" fill="#cb1b28"/>
    <path id="Trazado_7473" data-name="Trazado 7473" d="M299.375,105.2a5.179,5.179,0,1,1-5.152,5.179,5.166,5.166,0,0,1,5.152-5.179" transform="translate(423 2921)" fill="#fdc300"/>
    <path id="Trazado_7474" data-name="Trazado 7474" d="M299.376,106.743a3.633,3.633,0,1,0,3.6,3.633,3.624,3.624,0,0,0-3.6-3.633m0,10.359a6.726,6.726,0,1,1,6.7-6.726,6.721,6.721,0,0,1-6.7,6.726" transform="translate(423 2921)" fill="#f6a01a"/>
    <path id="Trazado_7475" data-name="Trazado 7475" d="M318.018,105.2a5.179,5.179,0,1,1-5.152,5.179,5.165,5.165,0,0,1,5.152-5.179" transform="translate(423 2921)" fill="#009e70"/>
    <path id="Trazado_7476" data-name="Trazado 7476" d="M318.018,106.743a3.633,3.633,0,1,0,3.6,3.633,3.623,3.623,0,0,0-3.6-3.633m0,10.359a6.726,6.726,0,1,1,6.7-6.726,6.721,6.721,0,0,1-6.7,6.726" transform="translate(423 2921)" fill="#009f65"/>
    <path id="Trazado_7477" data-name="Trazado 7477" d="M336.658,105.2a5.179,5.179,0,1,1-5.153,5.179,5.166,5.166,0,0,1,5.153-5.179" transform="translate(423 2921)" fill="#00b3da"/>
    <path id="Trazado_7478" data-name="Trazado 7478" d="M336.659,106.743a3.633,3.633,0,1,0,3.606,3.633,3.623,3.623,0,0,0-3.606-3.633m0,10.359a6.726,6.726,0,1,1,6.7-6.726,6.721,6.721,0,0,1-6.7,6.726" transform="translate(423 2921)" fill="#0096cc"/>
    <path id="Trazado_7479" data-name="Trazado 7479" d="M334.845,85.55h-7.7a1.547,1.547,0,0,1,0-3.094h7.7a1.547,1.547,0,0,1,0,3.094" transform="translate(423 2921)" fill="#385497"/>
    <path id="Trazado_7480" data-name="Trazado 7480" d="M334.845,90.235h-7.7a1.547,1.547,0,0,1,0-3.094h7.7a1.547,1.547,0,0,1,0,3.094" transform="translate(423 2921)" fill="#385497"/>
    <path id="Trazado_7481" data-name="Trazado 7481" d="M334.845,94.92h-7.7a1.547,1.547,0,0,1,0-3.094h7.7a1.547,1.547,0,0,1,0,3.094" transform="translate(423 2921)" fill="#385497"/>
    <path id="Trazado_7482" data-name="Trazado 7482" d="M341.811,85.55h-2.646a1.547,1.547,0,0,1,0-3.094h2.646a1.547,1.547,0,0,1,0,3.094" transform="translate(423 2921)" fill="#385497"/>
    <path id="Trazado_7483" data-name="Trazado 7483" d="M341.811,90.235h-2.646a1.547,1.547,0,0,1,0-3.094h2.646a1.547,1.547,0,0,1,0,3.094" transform="translate(423 2921)" fill="#385497"/>
    <path id="Trazado_7484" data-name="Trazado 7484" d="M341.811,94.92h-2.646a1.547,1.547,0,0,1,0-3.094h2.646a1.547,1.547,0,0,1,0,3.094" transform="translate(423 2921)" fill="#385497"/>
    <path id="Rectángulo_5786" data-name="Rectángulo 5786" d="M1.031,0H31.678a1.031,1.031,0,0,1,1.031,1.031v9.425a1.032,1.032,0,0,1-1.032,1.032H1.031A1.031,1.031,0,0,1,0,10.457V1.031A1.031,1.031,0,0,1,1.031,0Z" transform="translate(712.642 2979.47)" fill="#385497"/>
    <path id="Trazado_7485" data-name="Trazado 7485" d="M292.565,68.926V59.5a1.034,1.034,0,0,1,1.03-1.031h-2.923a1.033,1.033,0,0,0-1.03,1.031v9.426a1.033,1.033,0,0,0,1.03,1.031H293.6a1.034,1.034,0,0,1-1.03-1.031" transform="translate(423 2921)" fill="#373775"/>
    <path id="Trazado_7486" data-name="Trazado 7486" d="M295.3,65.76a1.547,1.547,0,1,1,1.093-.452,1.557,1.557,0,0,1-1.093.452" transform="translate(423 2921)" fill="#a2b8e0"/>
    <path id="Trazado_7487" data-name="Trazado 7487" d="M316.687,65.76a1.547,1.547,0,1,1,1.093-.452,1.564,1.564,0,0,1-1.093.452" transform="translate(423 2921)" fill="#a2b8e0"/>
    <path id="Trazado_7488" data-name="Trazado 7488" d="M311.039,119.677h-20.27a.621.621,0,0,0-.618.619v6.6h3.15a.209.209,0,0,1,.207.206v14.082h17.531a.621.621,0,0,0,.619-.618V120.3a.621.621,0,0,0-.619-.619" transform="translate(423 2921)" fill="#f6a01a"/>
    <path id="Trazado_7489" data-name="Trazado 7489" d="M293.073,126.895v-6.6a.621.621,0,0,1,.619-.619h-2.923a.621.621,0,0,0-.619.619v6.6Z" transform="translate(423 2921)" fill="#f1881b"/>
    <path id="Trazado_7490" data-name="Trazado 7490" d="M303.689,125.96H298.12a1.547,1.547,0,1,1,0-3.094h5.569a1.547,1.547,0,0,1,0,3.094" transform="translate(423 2921)" fill="#f1881b"/>
    <path id="Trazado_7491" data-name="Trazado 7491" d="M293.3,126.483h-20.27a.62.62,0,0,0-.618.619v13.4a50.6,50.6,0,0,0,11.052,7.49H293.3a.621.621,0,0,0,.619-.619V127.1a.621.621,0,0,0-.619-.619" transform="translate(423 2921)" fill="#fdc300"/>
    <path id="Trazado_7492" data-name="Trazado 7492" d="M275.336,127.1a.621.621,0,0,1,.619-.619h-2.923a.621.621,0,0,0-.619.619v13.4q1.414,1.26,2.923,2.412Z" transform="translate(423 2921)" fill="#f6a01a"/>
    <path id="Trazado_7493" data-name="Trazado 7493" d="M287.812,134.1H278.52a1.547,1.547,0,0,1,0-3.094h9.292a1.547,1.547,0,0,1,0,3.094" transform="translate(423 2921)" fill="#f6a01a"/>
    <path id="Trazado_7494" data-name="Trazado 7494" d="M287.812,138.1H278.52a1.547,1.547,0,0,1,0-3.094h9.292a1.547,1.547,0,0,1,0,3.094" transform="translate(423 2921)" fill="#f6a01a"/>
    <path id="Trazado_7495" data-name="Trazado 7495" d="M287.812,142.1H278.52a1.547,1.547,0,0,1,0-3.094h9.292a1.547,1.547,0,0,1,0,3.094" transform="translate(423 2921)" fill="#f6a01a"/>
    <rect id="Rectángulo_5787" data-name="Rectángulo 5787" width="21.507" height="21.508" rx="0.619" transform="translate(741.091 3055.049)" fill="#fdc300"/>
    <path id="Trazado_7496" data-name="Trazado 7496" d="M321.015,154.938v-20.27a.621.621,0,0,1,.619-.619H318.71a.621.621,0,0,0-.619.619v20.27a.621.621,0,0,0,.619.619h2.924a.621.621,0,0,1-.619-.619" transform="translate(423 2921)" fill="#f6a01a"/>
    <path id="Trazado_7497" data-name="Trazado 7497" d="M323.283,141.837a1.547,1.547,0,1,1,1.1-.454,1.553,1.553,0,0,1-1.1.454" transform="translate(423 2921)" fill="#f6a01a"/>
    <path id="Trazado_7498" data-name="Trazado 7498" d="M323.283,146.35a1.547,1.547,0,1,1,1.1-.454,1.556,1.556,0,0,1-1.1.454" transform="translate(423 2921)" fill="#f6a01a"/>
    <path id="Trazado_7499" data-name="Trazado 7499" d="M323.283,150.863a1.547,1.547,0,1,1,1.1-.454,1.556,1.556,0,0,1-1.1.454" transform="translate(423 2921)" fill="#f6a01a"/>
    <path id="Trazado_7500" data-name="Trazado 7500" d="M334.29,141.837h-7.058a1.547,1.547,0,0,1,0-3.094h7.058a1.547,1.547,0,0,1,0,3.094" transform="translate(423 2921)" fill="#f6a01a"/>
    <path id="Trazado_7501" data-name="Trazado 7501" d="M334.29,146.35h-7.058a1.547,1.547,0,0,1,0-3.094h7.058a1.547,1.547,0,0,1,0,3.094" transform="translate(423 2921)" fill="#f6a01a"/>
    <path id="Trazado_7502" data-name="Trazado 7502" d="M334.29,150.863h-7.058a1.547,1.547,0,0,1,0-3.094h7.058a1.547,1.547,0,0,1,0,3.094" transform="translate(423 2921)" fill="#f6a01a"/>
  </g>
</svg>
