<svg xmlns="http://www.w3.org/2000/svg" width="105.601" height="105.6" viewBox="0 0 105.601 105.6">
  <g id="Grupo_8821" data-name="Grupo 8821" transform="translate(-926.695 -3376.486)">
    <path id="Trazado_7295" data-name="Trazado 7295" d="M553.345,503.179l3.15,5.106h-6" transform="translate(423 2921)" fill="none" stroke="#f78966" stroke-linecap="round" stroke-linejoin="round" stroke-width="2"/>
    <line id="Línea_1121" data-name="Línea 1121" x1="5.148" y1="3.082" transform="translate(974.347 3426.204)" fill="none" stroke="#f78966" stroke-linecap="round" stroke-linejoin="round" stroke-width="2"/>
    <path id="Trazado_7376" data-name="Trazado 7376" d="M609.295,508.286a52.765,52.765,0,0,1-36.79,50.326,51.763,51.763,0,0,1-7.612,1.808.183.183,0,0,1-.035.005q-1.918.306-3.878.472c-.279.023-.558.045-.838.064-.4.026-.792.05-1.191.067q-1.221.059-2.456.058-1.267,0-2.517-.06-.566-.026-1.132-.067c-.282-.02-.562-.039-.843-.062-1.338-.112-2.663-.277-3.971-.487-.625-.1-1.248-.212-1.864-.335a52.05,52.05,0,0,1-7.784-2.179q-2.182-.793-4.272-1.775-.711-.334-1.414-.692-1.8-.912-3.523-1.957a52.8,52.8,0,1,1,80.12-45.186" transform="translate(423 2921)" fill="#3fa9f5"/>
    <path id="Trazado_7377" data-name="Trazado 7377" d="M546.168,524.005v36.07a52.05,52.05,0,0,1-7.784-2.179q-2.182-.795-4.272-1.775-.711-.334-1.414-.693-1.8-.91-3.523-1.957a52.956,52.956,0,0,1-20.95-23.759v-5.707a14.313,14.313,0,0,1,10.6-13.823c.224-.06.448-.116.677-.163a13.852,13.852,0,0,1,1.862-.277c.386-.029.776-.047,1.17-.047h9.32a14.2,14.2,0,0,1,3.035.324c.056.01.112.023.168.036.164.037.33.077.491.121l.013,0a14.328,14.328,0,0,1,10.606,13.825" transform="translate(423 2921)" fill="#cf3242"/>
    <path id="Trazado_7378" data-name="Trazado 7378" d="M546.168,524.005v36.07a52.05,52.05,0,0,1-7.784-2.179q-2.182-.795-4.272-1.775-.711-.334-1.414-.693-1.8-.91-3.523-1.957a53.049,53.049,0,0,1-14.808-13.354V524.005a14.312,14.312,0,0,1,10.6-13.823c.224-.06.449-.116.677-.163a13.86,13.86,0,0,1,1.861-.277c.386-.029.776-.047,1.171-.047h3.178a14.2,14.2,0,0,1,3.035.324c.056.01.112.023.168.036.164.037.33.077.491.121l.013,0a14.328,14.328,0,0,1,10.606,13.825" transform="translate(423 2921)" fill="#ed6e6f"/>
    <path id="Trazado_7379" data-name="Trazado 7379" d="M535.6,510.018l-.034.162-4.281,19.912a4.165,4.165,0,0,1-4.051,3.3h-.072a4.162,4.162,0,0,1-4.051-3.3l-4.282-19.911-.034-.163Z" transform="translate(423 2921)" fill="#f2f0ec"/>
    <path id="Trazado_7380" data-name="Trazado 7380" d="M527.2,515.554l-6.443,3.581-1.959-9.117,4-2.357" transform="translate(423 2921)" fill="#d8d5d0"/>
    <path id="Trazado_7381" data-name="Trazado 7381" d="M527.2,515.554l6.443,3.581,1.959-9.117-4-2.357" transform="translate(423 2921)" fill="#d8d5d0"/>
    <path id="Trazado_7382" data-name="Trazado 7382" d="M507.96,506.246V484.664a19.238,19.238,0,1,1,38.475,0v21.582" transform="translate(423 2921)" fill="#cc7a3b"/>
    <path id="Trazado_7383" data-name="Trazado 7383" d="M515.873,485.506c0,7.634,4.471,16.465,6.925,20.739H507.959V484.663a19.224,19.224,0,0,1,19.1-19.237c-5.915.148-11.184,9.637-11.184,20.08" transform="translate(423 2921)" fill="#a35418"/>
    <path id="Trazado_7384" data-name="Trazado 7384" d="M532.3,504.183v6.266a5.105,5.105,0,0,1-10.211,0v-6.266Z" transform="translate(423 2921)" fill="#eab599"/>
    <path id="Trazado_7385" data-name="Trazado 7385" d="M532.3,510.052v.4a3.691,3.691,0,1,1-7.149.665c.34.021.684.031,1.028.031a17.642,17.642,0,0,0,6.121-1.093" transform="translate(423 2921)" fill="#f6caae"/>
    <path id="Trazado_7386" data-name="Trazado 7386" d="M513.192,493.914A4.748,4.748,0,0,1,509.2,498.6a4.645,4.645,0,0,1-.761.062,4.749,4.749,0,1,1,4.749-4.749" transform="translate(423 2921)" fill="#f6caae"/>
    <path id="Trazado_7387" data-name="Trazado 7387" d="M513.192,493.914A4.748,4.748,0,0,1,509.2,498.6a17.75,17.75,0,0,1,0-9.374,4.749,4.749,0,0,1,3.988,4.687" transform="translate(423 2921)" fill="#eab599"/>
    <path id="Trazado_7388" data-name="Trazado 7388" d="M510.14,493.914a1.7,1.7,0,1,1-1.7-1.7,1.7,1.7,0,0,1,1.7,1.7" transform="translate(423 2921)" fill="#eab599"/>
    <path id="Trazado_7389" data-name="Trazado 7389" d="M539.388,487.851v16.321a17.6,17.6,0,0,1-9.356,4.656l-.087.014a17.4,17.4,0,0,1-2.749.214,17.665,17.665,0,0,1-17.665-17.665v-6.728a17.849,17.849,0,0,1,.18-2.537,11.2,11.2,0,0,0,14.07-.9,10.012,10.012,0,0,0,2.654-4.148,11.662,11.662,0,0,0,3.647,7.277,13.038,13.038,0,0,0,9.306,3.5" transform="translate(423 2921)" fill="#eab599"/>
    <path id="Trazado_7390" data-name="Trazado 7390" d="M539.388,487.851v16.321a17.6,17.6,0,0,1-9.356,4.656l-.087.014a17.667,17.667,0,0,1-14.913-17.451v-6.728c0-.178,0-.356.01-.534a11.066,11.066,0,0,0,8.739-2.908,10,10,0,0,0,2.654-4.147,11.662,11.662,0,0,0,3.647,7.277,13.038,13.038,0,0,0,9.306,3.5" transform="translate(423 2921)" fill="#f6caae"/>
    <path id="Trazado_7391" data-name="Trazado 7391" d="M536.685,489.9a2.935,2.935,0,0,0-5.869,0" transform="translate(423 2921)" fill="#eab599"/>
    <path id="Trazado_7392" data-name="Trazado 7392" d="M523.58,489.9a2.934,2.934,0,0,0-5.868,0" transform="translate(423 2921)" fill="#eab599"/>
    <path id="Trazado_7393" data-name="Trazado 7393" d="M522.65,491.148a2,2,0,1,1-2-2,2,2,0,0,1,2,2" transform="translate(423 2921)" fill="#3d4159"/>
    <path id="Trazado_7394" data-name="Trazado 7394" d="M535.754,491.148a2,2,0,1,1-2-2,2,2,0,0,1,2,2" transform="translate(423 2921)" fill="#3d4159"/>
    <path id="Trazado_7395" data-name="Trazado 7395" d="M529.2,496.194h-4.008a.865.865,0,1,1,0-1.729H529.2a.865.865,0,0,1,0,1.729" transform="translate(423 2921)" fill="#eab599"/>
    <path id="Trazado_7396" data-name="Trazado 7396" d="M527.2,501.663a8.934,8.934,0,0,1-4.307-1.112.786.786,0,1,1,.757-1.377,7.334,7.334,0,0,0,7.1,0,.786.786,0,1,1,.757,1.377,8.934,8.934,0,0,1-4.307,1.112" transform="translate(423 2921)" fill="#eab599"/>
    <path id="Trazado_7397" data-name="Trazado 7397" d="M522.242,490.794a.859.859,0,1,1-.859-.859.859.859,0,0,1,.859.859" transform="translate(423 2921)" fill="#fff"/>
    <path id="Trazado_7398" data-name="Trazado 7398" d="M535.444,490.794a.858.858,0,1,1-.858-.859.858.858,0,0,1,.858.859" transform="translate(423 2921)" fill="#fff"/>
    <path id="Trazado_7399" data-name="Trazado 7399" d="M539.222,496.029a2.2,2.2,0,1,1-2.2-2.2,2.2,2.2,0,0,1,2.2,2.2" transform="translate(423 2921)" fill="#eab599"/>
    <path id="Trazado_7400" data-name="Trazado 7400" d="M519.574,496.029a2.2,2.2,0,1,1-2.2-2.2,2.2,2.2,0,0,1,2.2,2.2" transform="translate(423 2921)" fill="#eab599"/>
    <path id="Trazado_7401" data-name="Trazado 7401" d="M604.556,523.57v6.61a53.009,53.009,0,0,1-25.681,25.943,52.673,52.673,0,0,1-13.982,4.3.2.2,0,0,1-.035,0V523.57a14.969,14.969,0,0,1,13.748-14.92c.406-.035.812-.049,1.224-.049h9.75a14.951,14.951,0,0,1,14.976,14.969" transform="translate(423 2921)" fill="#bfd5de"/>
    <path id="Trazado_7402" data-name="Trazado 7402" d="M604.556,523.57v6.61a53.009,53.009,0,0,1-25.681,25.943,52.271,52.271,0,0,1-6.37,2.489V523.57A14.972,14.972,0,0,1,587.479,508.6h2.1a14.971,14.971,0,0,1,14.974,14.969" transform="translate(423 2921)" fill="#dde8ed"/>
    <path id="Trazado_7403" data-name="Trazado 7403" d="M570.053,492.088a4.967,4.967,0,1,1-4.172-4.9,4.967,4.967,0,0,1,4.172,4.9" transform="translate(423 2921)" fill="#d3a489"/>
    <path id="Trazado_7404" data-name="Trazado 7404" d="M588.726,514l-4.019,6.447L580.687,514" transform="translate(423 2921)" fill="#f74f4f"/>
    <path id="Trazado_7405" data-name="Trazado 7405" d="M590.115,538.659l-5.407,6.824-5.409-6.824,5.409-19.889Z" transform="translate(423 2921)" fill="#f74f4f"/>
    <path id="Trazado_7406" data-name="Trazado 7406" d="M570.053,492.088a4.967,4.967,0,0,1-4.172,4.9,18.576,18.576,0,0,1,0-9.808,4.968,4.968,0,0,1,4.172,4.9" transform="translate(423 2921)" fill="#bf8e75"/>
    <path id="Trazado_7407" data-name="Trazado 7407" d="M566.861,492.088a1.776,1.776,0,1,1-1.776-1.775,1.776,1.776,0,0,1,1.776,1.775" transform="translate(423 2921)" fill="#bf8e75"/>
    <path id="Trazado_7408" data-name="Trazado 7408" d="M584.705,514.729l-6.74,3.747-2.051-9.539,4.188-2.467" transform="translate(423 2921)" fill="#bfd5de"/>
    <path id="Trazado_7409" data-name="Trazado 7409" d="M584.705,514.729l6.741,3.747,2.051-9.539-4.189-2.467" transform="translate(423 2921)" fill="#bfd5de"/>
    <path id="Trazado_7410" data-name="Trazado 7410" d="M599.36,492.088a4.967,4.967,0,1,0,4.172-4.9,4.968,4.968,0,0,0-4.172,4.9" transform="translate(423 2921)" fill="#d3a489"/>
    <path id="Trazado_7411" data-name="Trazado 7411" d="M599.36,492.088a4.968,4.968,0,0,0,4.172,4.9,18.576,18.576,0,0,0,0-9.808,4.969,4.969,0,0,0-4.172,4.9" transform="translate(423 2921)" fill="#bf8e75"/>
    <path id="Trazado_7412" data-name="Trazado 7412" d="M606.1,492.088a1.776,1.776,0,1,1-1.776-1.775,1.776,1.776,0,0,1,1.776,1.775" transform="translate(423 2921)" fill="#bf8e75"/>
    <path id="Trazado_7413" data-name="Trazado 7413" d="M603.19,489.448a18.484,18.484,0,0,1-15.517,18.244,18.215,18.215,0,0,1-2.966.238,18.481,18.481,0,0,1-18.483-18.482c0-4.83,1.677-12.081,4.711-15.374,3.377-3.666,8.393-3.109,13.772-3.109a18.227,18.227,0,0,1,2.966.239,18.483,18.483,0,0,1,15.517,18.244" transform="translate(423 2921)" fill="#bf8e75"/>
    <path id="Trazado_7414" data-name="Trazado 7414" d="M590.049,502.833v6.556a5.342,5.342,0,0,1-10.684,0v-6.556Z" transform="translate(423 2921)" fill="#bf8e75"/>
    <path id="Trazado_7415" data-name="Trazado 7415" d="M590.049,508.972v.416a3.862,3.862,0,1,1-7.48.7q.534.033,1.076.033a18.462,18.462,0,0,0,2.966-.238,18.163,18.163,0,0,0,3.438-.906" transform="translate(423 2921)" fill="#d3a489"/>
    <path id="Trazado_7416" data-name="Trazado 7416" d="M603.19,489.448a18.484,18.484,0,0,1-15.517,18.244,18.484,18.484,0,0,1,0-36.489,18.471,18.471,0,0,1,15.517,18.245" transform="translate(423 2921)" fill="#d3a489"/>
    <path id="Trazado_7417" data-name="Trazado 7417" d="M584.707,498.551a9.33,9.33,0,0,1-4.506-1.163.822.822,0,1,1,.792-1.441,7.675,7.675,0,0,0,7.428,0,.822.822,0,0,1,.792,1.441,9.338,9.338,0,0,1-4.506,1.163" transform="translate(423 2921)" fill="#bf8e75"/>
    <path id="Trazado_7418" data-name="Trazado 7418" d="M580.771,488.372a2.1,2.1,0,1,1-2.1-2.1,2.1,2.1,0,0,1,2.1,2.1" transform="translate(423 2921)" fill="#3d4159"/>
    <path id="Trazado_7419" data-name="Trazado 7419" d="M592.836,488.372a2.1,2.1,0,1,1-2.1-2.1,2.1,2.1,0,0,1,2.1,2.1" transform="translate(423 2921)" fill="#3d4159"/>
    <path id="Trazado_7420" data-name="Trazado 7420" d="M580.343,488a.9.9,0,1,1-.9-.9.9.9,0,0,1,.9.9" transform="translate(423 2921)" fill="#fff"/>
    <path id="Trazado_7421" data-name="Trazado 7421" d="M592.511,488a.9.9,0,1,1-.9-.9.9.9,0,0,1,.9.9" transform="translate(423 2921)" fill="#fff"/>
    <path id="Trazado_7422" data-name="Trazado 7422" d="M586.8,493.651H582.61a.9.9,0,0,1,0-1.809H586.8a.9.9,0,0,1,0,1.809" transform="translate(423 2921)" fill="#bf8e75"/>
    <rect id="Rectángulo_5781" data-name="Rectángulo 5781" width="8.058" height="2.466" transform="translate(1013.792 3444.08)" fill="#bfd5de"/>
    <path id="Trazado_7423" data-name="Trazado 7423" d="M583.625,465.685A11.2,11.2,0,0,1,594,476.3l.054,1.07h3.22l1.735,11.535,4.2-1.3-.565-11.3a11.2,11.2,0,0,0-11.231-10.646Z" transform="translate(423 2921)" fill="#2a2f4f"/>
    <path id="Trazado_7424" data-name="Trazado 7424" d="M602.295,461.223a11.417,11.417,0,0,1-16.146,16.146Z" transform="translate(423 2921)" fill="#3d4159"/>
    <path id="Trazado_7425" data-name="Trazado 7425" d="M586.148,477.369H572.136L570.4,488.9l-4.2-1.3.563-11.3a11.2,11.2,0,0,1,11.232-10.646l20.237.076,2.676,4.816" transform="translate(423 2921)" fill="#3d4159"/>
    <path id="Trazado_7426" data-name="Trazado 7426" d="M585.788,465.685A11.2,11.2,0,0,0,575.409,476.3l-.054,1.07h-3.22L570.4,488.906l-4.2-1.3.564-11.3a11.2,11.2,0,0,1,11.231-10.646Z" transform="translate(423 2921)" fill="#2a2f4f"/>
    <path id="Trazado_7427" data-name="Trazado 7427" d="M578.876,552.164v3.959a52.94,52.94,0,0,1-44.764,0v-3.957a16.888,16.888,0,0,1,12.509-16.31c.263-.07.528-.136.8-.194a16.694,16.694,0,0,1,2.2-.323c.457-.037.916-.056,1.382-.056h11a16.974,16.974,0,0,1,3.582.379c.067.013.134.028.2.044.194.045.388.092.579.144l.016,0a16.9,16.9,0,0,1,12.51,16.312" transform="translate(423 2921)" fill="#3d4159"/>
    <path id="Trazado_7428" data-name="Trazado 7428" d="M566.406,535.66l-.041.192L560.98,560.9c-.279.023-.558.045-.839.064-.4.026-.791.05-1.19.067q-1.223.059-2.456.058-1.267,0-2.517-.06-.566-.026-1.132-.067c-.282-.02-.563-.039-.843-.062l-5.383-25.043-.041-.194Z" transform="translate(423 2921)" fill="#66baed"/>
    <path id="Trazado_7429" data-name="Trazado 7429" d="M561.026,541.373l-4.533,7.269-4.531-7.269" transform="translate(423 2921)" fill="#3d4159"/>
    <path id="Trazado_7430" data-name="Trazado 7430" d="M560.142,560.961q-.593.039-1.19.067-1.223.057-2.456.058-1.269,0-2.518-.061c-.377-.017-.754-.038-1.131-.066L556.5,546.75Z" transform="translate(423 2921)" fill="#3d4159"/>
    <path id="Trazado_7431" data-name="Trazado 7431" d="M556.493,542.193l-7.6,4.224-2.312-10.755,4.723-2.782" transform="translate(423 2921)" fill="#2ba1cf"/>
    <path id="Trazado_7432" data-name="Trazado 7432" d="M556.493,542.193l7.6,4.224,2.312-10.755-4.723-2.782" transform="translate(423 2921)" fill="#2ba1cf"/>
    <path id="Trazado_7433" data-name="Trazado 7433" d="M566.693,550.175H569.1l-4.212,10.245a52.575,52.575,0,0,1-5.942.608l7.4-25.18.056-.188,5.2,1.7Z" transform="translate(423 2921)" fill="#2a2f4f"/>
    <path id="Trazado_7434" data-name="Trazado 7434" d="M553.978,561.026a52.4,52.4,0,0,1-5.946-.616l-4.207-10.235h2.411l-4.915-12.816,5.2-1.7.057.188Z" transform="translate(423 2921)" fill="#2a2f4f"/>
    <path id="Trazado_7435" data-name="Trazado 7435" d="M562.517,528.777v7.392a6.024,6.024,0,0,1-12.048,0v-7.392Z" transform="translate(423 2921)" fill="#eab599"/>
    <path id="Trazado_7436" data-name="Trazado 7436" d="M562.517,535.7v.469a4.356,4.356,0,1,1-8.436.784q.6.038,1.213.037a20.74,20.74,0,0,0,7.223-1.29" transform="translate(423 2921)" fill="#f6caae"/>
    <path id="Trazado_7437" data-name="Trazado 7437" d="M539.969,516.661a5.6,5.6,0,1,1-5.6-5.6,5.521,5.521,0,0,1,.9.073,5.6,5.6,0,0,1,4.705,5.53" transform="translate(423 2921)" fill="#f6caae"/>
    <path id="Trazado_7438" data-name="Trazado 7438" d="M539.969,516.661a5.6,5.6,0,0,1-4.705,5.53,20.951,20.951,0,0,1,0-11.06,5.6,5.6,0,0,1,4.705,5.53" transform="translate(423 2921)" fill="#eab599"/>
    <path id="Trazado_7439" data-name="Trazado 7439" d="M536.37,516.661a2,2,0,1,1-2-2,2,2,0,0,1,2,2" transform="translate(423 2921)" fill="#eab599"/>
    <path id="Trazado_7440" data-name="Trazado 7440" d="M573.017,516.661a5.6,5.6,0,1,0,5.6-5.6,5.512,5.512,0,0,0-.9.073,5.6,5.6,0,0,0-4.7,5.53" transform="translate(423 2921)" fill="#f6caae"/>
    <path id="Trazado_7441" data-name="Trazado 7441" d="M573.017,516.661a5.6,5.6,0,0,0,4.7,5.53,20.95,20.95,0,0,0,0-11.06,5.6,5.6,0,0,0-4.7,5.53" transform="translate(423 2921)" fill="#eab599"/>
    <path id="Trazado_7442" data-name="Trazado 7442" d="M577.336,505.748v7.937a20.842,20.842,0,0,1-17.5,20.572l-.1.017a20.492,20.492,0,0,1-3.243.252,20.841,20.841,0,0,1-20.842-20.841v-7.937A20.832,20.832,0,0,1,556.493,484.9h0a20.827,20.827,0,0,1,20.842,20.843" transform="translate(423 2921)" fill="#eab599"/>
    <path id="Trazado_7443" data-name="Trazado 7443" d="M580.621,516.661a2,2,0,1,1-2-2,2,2,0,0,1,2,2" transform="translate(423 2921)" fill="#eab599"/>
    <path id="Trazado_7444" data-name="Trazado 7444" d="M577.335,505.748v7.937a20.842,20.842,0,0,1-17.5,20.572l-.1.017a20.845,20.845,0,0,1-17.594-20.589v-7.937a20.846,20.846,0,0,1,17.6-20.591,20.845,20.845,0,0,1,17.6,20.591" transform="translate(423 2921)" fill="#f6caae"/>
    <path id="Trazado_7445" data-name="Trazado 7445" d="M552.054,512.47a2.365,2.365,0,1,1-2.364-2.364,2.365,2.365,0,0,1,2.364,2.364" transform="translate(423 2921)" fill="#3d4159"/>
    <path id="Trazado_7446" data-name="Trazado 7446" d="M565.661,512.47a2.365,2.365,0,1,1-2.364-2.364,2.364,2.364,0,0,1,2.364,2.364" transform="translate(423 2921)" fill="#3d4159"/>
    <path id="Trazado_7447" data-name="Trazado 7447" d="M551.573,512.054a1.013,1.013,0,1,1-1.013-1.014,1.014,1.014,0,0,1,1.013,1.014" transform="translate(423 2921)" fill="#fff"/>
    <path id="Trazado_7448" data-name="Trazado 7448" d="M565.295,512.054a1.013,1.013,0,1,1-1.013-1.014,1.014,1.014,0,0,1,1.013,1.014" transform="translate(423 2921)" fill="#fff"/>
    <path id="Trazado_7449" data-name="Trazado 7449" d="M558.858,517.5h-4.729a1.02,1.02,0,0,1,0-2.04h4.729a1.02,1.02,0,0,1,0,2.04" transform="translate(423 2921)" fill="#eab599"/>
    <path id="Trazado_7450" data-name="Trazado 7450" d="M556.493,523.949a10.526,10.526,0,0,1-5.081-1.312.927.927,0,1,1,.894-1.625,8.648,8.648,0,0,0,8.375,0,.927.927,0,0,1,.894,1.625,10.536,10.536,0,0,1-5.082,1.312" transform="translate(423 2921)" fill="#eab599"/>
    <path id="Trazado_7451" data-name="Trazado 7451" d="M577.336,498.546v8.13h-3.879v-6.367l-28-5.2L539.53,494v12.672h-3.879v-8.131a16.778,16.778,0,0,1,16.779-16.78h8.127c.221,0,.442,0,.662.015a16.776,16.776,0,0,1,16.117,16.766" transform="translate(423 2921)" fill="#2a2f4f"/>
    <path id="Trazado_7452" data-name="Trazado 7452" d="M577.336,498.546v8.13h-3.879v-6.367l-28-5.2a16.066,16.066,0,0,1,31.881,3.44" transform="translate(423 2921)" fill="#3d4159"/>
  </g>
</svg>
