<svg xmlns="http://www.w3.org/2000/svg" width="105.6" height="101.063" viewBox="0 0 105.6 101.063">
  <g id="Grupo_8820" data-name="Grupo 8820" transform="translate(-425.716 -3376.486)">
    <path id="Trazado_7296" data-name="Trazado 7296" d="M61.516,508.286h-6l3.15-5.106" transform="translate(423 2921)" fill="none" stroke="#f78966" stroke-linecap="round" stroke-linejoin="round" stroke-width="2"/>
    <line id="Línea_1124" data-name="Línea 1124" x1="5.15" y2="3.079" transform="translate(478.516 3426.207)" fill="none" stroke="#f78966" stroke-linecap="round" stroke-linejoin="round" stroke-width="2"/>
    <path id="Trazado_7503" data-name="Trazado 7503" d="M57.785,455.486A50.532,50.532,0,1,1,7.254,506.017a50.531,50.531,0,0,1,50.531-50.531" transform="translate(423 2921)" fill="#3fa9f5"/>
    <rect id="Rectángulo_5788" data-name="Rectángulo 5788" width="16.234" height="8.503" transform="translate(464.021 3448.164)" fill="#385497"/>
    <rect id="Rectángulo_5789" data-name="Rectángulo 5789" width="4.093" height="8.503" transform="translate(464.021 3448.164)" fill="#334380"/>
    <path id="Trazado_7504" data-name="Trazado 7504" d="M68.068,535.462H29.026a1.055,1.055,0,0,0-1.052,1.052v5.274a1.055,1.055,0,0,0,1.052,1.052H68.068Z" transform="translate(423 2921)" fill="#373775"/>
    <path id="Trazado_7505" data-name="Trazado 7505" d="M32.066,541.788v-5.274a1.055,1.055,0,0,1,1.052-1.053H29.025a1.056,1.056,0,0,0-1.052,1.053v5.274a1.055,1.055,0,0,0,1.052,1.052h4.093a1.055,1.055,0,0,1-1.052-1.052" transform="translate(423 2921)" fill="#322d60"/>
    <path id="Trazado_7506" data-name="Trazado 7506" d="M94.508,465.379H3.768a1.055,1.055,0,0,0-1.052,1.052v59.888a1.055,1.055,0,0,0,1.052,1.052h64.3V495.863a1.445,1.445,0,0,1,1.444-1.443H95.56V466.431a1.055,1.055,0,0,0-1.052-1.052" transform="translate(423 2921)" fill="#373775"/>
    <path id="Trazado_7507" data-name="Trazado 7507" d="M7.335,516.848a.633.633,0,0,0,.631.631h60.1V495.863a1.446,1.446,0,0,1,1.444-1.444h21.43V475.7H7.335Z" transform="translate(423 2921)" fill="#fff"/>
    <path id="Trazado_7508" data-name="Trazado 7508" d="M11.428,516.848V475.7H7.335v41.15a.633.633,0,0,0,.632.631h4.092a.633.633,0,0,1-.631-.631" transform="translate(423 2921)" fill="#cee4f7"/>
    <path id="Trazado_7509" data-name="Trazado 7509" d="M49.139,519.565a2.841,2.841,0,1,1-2.841,2.841,2.841,2.841,0,0,1,2.841-2.841" transform="translate(423 2921)" fill="#385497"/>
    <path id="Trazado_7510" data-name="Trazado 7510" d="M68.068,499.241H57.049a.621.621,0,0,0-.618.619v12.3a.62.62,0,0,0,.618.619H68.068Z" transform="translate(423 2921)" fill="#b3d6ef"/>
    <path id="Trazado_7511" data-name="Trazado 7511" d="M60.522,512.16v-12.3a.621.621,0,0,1,.619-.618H57.048a.62.62,0,0,0-.618.618v12.3a.621.621,0,0,0,.618.619h4.093a.621.621,0,0,1-.619-.619" transform="translate(423 2921)" fill="#a2b8e0"/>
    <path id="Trazado_7512" data-name="Trazado 7512" d="M69.511,494.419h9.615V480.934A1.034,1.034,0,0,0,78.1,479.9H20.181a1.034,1.034,0,0,0-1.031,1.031v13.721a1.034,1.034,0,0,0,1.031,1.031h47.9a1.444,1.444,0,0,1,1.431-1.267" transform="translate(423 2921)" fill="#b3d6ef"/>
    <path id="Trazado_7513" data-name="Trazado 7513" d="M23.243,494.655V480.934a1.034,1.034,0,0,1,1.031-1.031H20.182a1.035,1.035,0,0,0-1.032,1.031v13.721a1.035,1.035,0,0,0,1.032,1.031h4.092a1.034,1.034,0,0,1-1.031-1.031" transform="translate(423 2921)" fill="#a2b8e0"/>
    <path id="Trazado_7514" data-name="Trazado 7514" d="M90.31,470.745H7.966a.633.633,0,0,0-.631.632V475.9H90.941v-4.528a.633.633,0,0,0-.631-.632" transform="translate(423 2921)" fill="#f6a01a"/>
    <path id="Trazado_7515" data-name="Trazado 7515" d="M12.059,470.745H7.966a.633.633,0,0,0-.631.632V475.9h4.092v-4.528a.635.635,0,0,1,.632-.632" transform="translate(423 2921)" fill="#f08225"/>
    <path id="Trazado_7516" data-name="Trazado 7516" d="M38.089,502.506H20.729a1.547,1.547,0,0,1,0-3.094h17.36a1.547,1.547,0,0,1,0,3.094" transform="translate(423 2921)" fill="#00adc4"/>
    <path id="Trazado_7517" data-name="Trazado 7517" d="M38.089,507.557H20.729a1.547,1.547,0,1,1,0-3.094h17.36a1.547,1.547,0,1,1,0,3.094" transform="translate(423 2921)" fill="#00adc4"/>
    <path id="Trazado_7518" data-name="Trazado 7518" d="M38.089,512.608H20.729a1.547,1.547,0,1,1,0-3.094h17.36a1.547,1.547,0,1,1,0,3.094" transform="translate(423 2921)" fill="#00adc4"/>
    <path id="Trazado_7519" data-name="Trazado 7519" d="M51.713,502.506H42.777a1.547,1.547,0,0,1,0-3.094h8.936a1.547,1.547,0,0,1,0,3.094" transform="translate(423 2921)" fill="#00adc4"/>
    <path id="Trazado_7520" data-name="Trazado 7520" d="M51.713,507.557H42.777a1.547,1.547,0,1,1,0-3.094h8.936a1.547,1.547,0,0,1,0,3.094" transform="translate(423 2921)" fill="#00adc4"/>
    <path id="Trazado_7521" data-name="Trazado 7521" d="M51.713,512.608H42.777a1.547,1.547,0,1,1,0-3.094h8.936a1.547,1.547,0,1,1,0,3.094" transform="translate(423 2921)" fill="#00adc4"/>
    <rect id="Rectángulo_5790" data-name="Rectángulo 5790" width="40.455" height="53.165" rx="1.65" transform="translate(490.861 3415.213)" fill="#385497"/>
    <path id="Rectángulo_5791" data-name="Rectángulo 5791" d="M1.031,0h31.5a1.031,1.031,0,0,1,1.031,1.031V42.475a1.032,1.032,0,0,1-1.032,1.032H1.031A1.031,1.031,0,0,1,0,42.476V1.031A1.031,1.031,0,0,1,1.031,0Z" transform="translate(494.308 3418.392)" fill="#fff"/>
    <path id="Trazado_7522" data-name="Trazado 7522" d="M75.4,539.868V498.423a1.034,1.034,0,0,1,1.031-1.031H72.339a1.035,1.035,0,0,0-1.032,1.031v41.445a1.035,1.035,0,0,0,1.032,1.031h4.092a1.034,1.034,0,0,1-1.031-1.031" transform="translate(423 2921)" fill="#cee4f7"/>
    <rect id="Rectángulo_5792" data-name="Rectángulo 5792" width="5.924" height="2.463" rx="1.031" transform="translate(508.127 3463.561)" fill="#385497"/>
    <path id="Trazado_7523" data-name="Trazado 7523" d="M104.87,501.371v-2.948a1.034,1.034,0,0,0-1.031-1.031h-31.5a1.034,1.034,0,0,0-1.031,1.031v2.948Z" transform="translate(423 2921)" fill="#f6a01a"/>
    <path id="Trazado_7524" data-name="Trazado 7524" d="M76.432,497.392H72.339a1.034,1.034,0,0,0-1.031,1.031v2.948H75.4v-2.948a1.034,1.034,0,0,1,1.031-1.031" transform="translate(423 2921)" fill="#f08225"/>
    <path id="Trazado_7525" data-name="Trazado 7525" d="M95.119,520.235H81.059a1.547,1.547,0,0,1,0-3.094h14.06a1.547,1.547,0,0,1,0,3.094" transform="translate(423 2921)" fill="#00adc4"/>
    <path id="Trazado_7526" data-name="Trazado 7526" d="M95.119,525.005H81.059a1.547,1.547,0,0,1,0-3.094h14.06a1.547,1.547,0,0,1,0,3.094" transform="translate(423 2921)" fill="#00adc4"/>
    <path id="Trazado_7527" data-name="Trazado 7527" d="M95.119,529.774H81.059a1.547,1.547,0,0,1,0-3.094h14.06a1.547,1.547,0,0,1,0,3.094" transform="translate(423 2921)" fill="#00adc4"/>
    <rect id="Rectángulo_5793" data-name="Rectángulo 5793" width="27.154" height="10.569" rx="1.031" transform="translate(497.512 3424.957)" fill="#b3d6ef"/>
    <path id="Trazado_7528" data-name="Trazado 7528" d="M78.6,513.495v-8.507a1.034,1.034,0,0,1,1.031-1.031H75.543a1.035,1.035,0,0,0-1.032,1.031v8.507a1.035,1.035,0,0,0,1.032,1.031h4.092a1.034,1.034,0,0,1-1.031-1.031" transform="translate(423 2921)" fill="#a2b8e0"/>
    <rect id="Rectángulo_5794" data-name="Rectángulo 5794" width="19.729" height="5.55" rx="1.031" transform="translate(501.224 3454.14)" fill="#b3d6ef"/>
    <path id="Trazado_7529" data-name="Trazado 7529" d="M82.317,537.659v-3.488a1.034,1.034,0,0,1,1.031-1.031H79.256a1.035,1.035,0,0,0-1.032,1.031v3.488a1.035,1.035,0,0,0,1.032,1.031h4.092a1.034,1.034,0,0,1-1.031-1.031" transform="translate(423 2921)" fill="#a2b8e0"/>
  </g>
</svg>
