<svg id="Grupo_8817" data-name="Grupo 8817" xmlns="http://www.w3.org/2000/svg" xmlns:xlink="http://www.w3.org/1999/xlink" width="101.22" height="117.416" viewBox="0 0 101.22 117.416">
  <defs>
    <clipPath id="clip-path">
      <rect id="Rectángulo_5796" data-name="Rectángulo 5796" width="101.22" height="117.416" fill="none"/>
    </clipPath>
  </defs>
  <g id="Grupo_8816" data-name="Grupo 8816" clip-path="url(#clip-path)">
    <path id="Trazado_7530" data-name="Trazado 7530" d="M110.213,309.75H79.881V293.62a2.024,2.024,0,0,0-4.049,0v16.13h-30.4A10.134,10.134,0,0,0,35.31,319.872v12.147a2.024,2.024,0,0,0,4.049,0V319.872a6.08,6.08,0,0,1,6.073-6.073h30.4v18.22a2.024,2.024,0,0,0,4.049,0V313.8h30.332a6.08,6.08,0,0,1,6.073,6.073v12.147a2.024,2.024,0,0,0,4.049,0V319.872a10.134,10.134,0,0,0-10.122-10.122" transform="translate(-27.212 -224.725)" fill="#92e1ff"/>
    <path id="Trazado_7531" data-name="Trazado 7531" d="M195.283,185.69v-8.371H173.757v8.371l10.763,9.567Z" transform="translate(-133.91 -136.655)" fill="#e9b578"/>
    <path id="Trazado_7532" data-name="Trazado 7532" d="M143.6,217.218l-14.8-3.482a2.381,2.381,0,0,1-.621-.25L116.2,220.478l-11.518-7.33a2.383,2.383,0,0,1-1.089.588l-14.8,3.482a4.784,4.784,0,0,0-3.688,4.656v9.366a2.392,2.392,0,0,0,2.392,2.392h57.4a2.392,2.392,0,0,0,2.392-2.392v-9.366a4.784,4.784,0,0,0-3.688-4.656" transform="translate(-65.589 -164.267)" fill="#76768a"/>
    <path id="Trazado_7533" data-name="Trazado 7533" d="M173.757,177.318v8.832c13.558,4.885,21.526-7.341,21.526-7.341v-1.492H173.757Z" transform="translate(-133.91 -136.654)" fill="#d7a06b"/>
    <path id="Trazado_7534" data-name="Trazado 7534" d="M152.9,57.379l1.042,22.927A7.177,7.177,0,0,0,156.8,85.72l4.945,3.708a7.175,7.175,0,0,0,4.305,1.435h4.784a7.175,7.175,0,0,0,4.305-1.435l4.945-3.708a7.176,7.176,0,0,0,2.863-5.415l1.042-22.927Z" transform="translate(-117.833 -44.22)" fill="#f3c689"/>
    <path id="Trazado_7535" data-name="Trazado 7535" d="M164.856,62.163c4.784,0,11.959-1.2,13.661-4.784H152.9l1.042,22.927A7.177,7.177,0,0,0,156.8,85.72l4.945,3.708a7.175,7.175,0,0,0,4.305,1.435h2.392c-2.392,0-7.175-4.784-7.175-10.763V65.75a3.819,3.819,0,0,1,3.588-3.588" transform="translate(-117.833 -44.22)" fill="#e9b578"/>
    <path id="Trazado_7536" data-name="Trazado 7536" d="M311.325,245.236l7.749-6.961a4.775,4.775,0,0,1,1.03,2.965v9.366A2.392,2.392,0,0,1,317.712,253h-8.371v-3.313a5.98,5.98,0,0,1,1.984-4.449" transform="translate(-238.401 -183.632)" fill="#5f5e6f"/>
    <path id="Trazado_7537" data-name="Trazado 7537" d="M93.885,245.236l-7.749-6.961a4.774,4.774,0,0,0-1.03,2.965v9.366A2.392,2.392,0,0,0,87.5,253h8.371v-3.313a5.98,5.98,0,0,0-1.984-4.449" transform="translate(-65.589 -183.632)" fill="#5f5e6f"/>
    <path id="Trazado_7538" data-name="Trazado 7538" d="M213.632,266.3h-5.98l.748-10.763h4.484Z" transform="translate(-160.032 -196.938)" fill="#5f5e6f"/>
    <path id="Trazado_7539" data-name="Trazado 7539" d="M213.633,245.111h-5.979v1.324a2.263,2.263,0,0,0,2.263,2.263h1.453a2.263,2.263,0,0,0,2.263-2.263Z" transform="translate(-160.033 -188.9)" fill="#555363"/>
    <path id="Trazado_7540" data-name="Trazado 7540" d="M161.532,201.18l10.931,9.838a41.234,41.234,0,0,0-6.839,4.66,1.535,1.535,0,0,1-2.376-.537l-5.136-11.3,1.625-2.437a1.2,1.2,0,0,1,1.8-.226" transform="translate(-121.853 -154.807)" fill="#5f5e6f"/>
    <path id="Trazado_7541" data-name="Trazado 7541" d="M231.621,201.18l-10.931,9.838a41.238,41.238,0,0,1,6.839,4.66,1.535,1.535,0,0,0,2.376-.537l5.136-11.3-1.625-2.437a1.2,1.2,0,0,0-1.8-.226" transform="translate(-170.08 -154.807)" fill="#5f5e6f"/>
    <path id="Trazado_7542" data-name="Trazado 7542" d="M252.3,20.334l1.121,7.923c5.118,1.023,5.855,9.055,5.962,11.349a2.359,2.359,0,0,0,.378,1.169l1.953,3.029s-.668-5.008,2.392-8.371c0,0,1.05-19.882-11.805-15.1" transform="translate(-194.444 -15.099)" fill="#815850"/>
    <path id="Trazado_7543" data-name="Trazado 7543" d="M282.176,112.6l-1.351,5.4a1.438,1.438,0,0,1-2.821-.17l-.691-5.525a2.475,2.475,0,0,1,2.456-2.782h0a2.475,2.475,0,0,1,2.4,3.076" transform="translate(-213.703 -84.409)" fill="#f3c689"/>
    <path id="Trazado_7544" data-name="Trazado 7544" d="M141.614,3.093,143.383,4.3c-8,5.9-6.5,16.032-6.5,16.032,2.392,2.392,2.392,8.371,2.392,8.371l2.392-2.392s-.923-6.909,3.588-9.567c4.186-2.466,7.848-1.2,11.585-1.2,10.015,0,12.819-3.775,12.333-8.371C168.918,4.8,165.282-.154,156.015,0c-3.74.064-10.763,1.2-14.4,3.09" transform="translate(-105.404 0)" fill="#724e4c"/>
    <path id="Trazado_7545" data-name="Trazado 7545" d="M140.918,28.96a13.137,13.137,0,0,1,2.466-10.2c-8,5.9-6.5,16.032-6.5,16.032,2.392,2.392,2.392,8.371,2.392,8.371l2.392-2.392s-.923-6.909,3.588-9.567c4.186-2.466,7.848-1.2,11.585-1.2a29.388,29.388,0,0,0,4.313-.3c-7.713.259-12.26-5.584-20.233-.75" transform="translate(-105.405 -14.455)" fill="#634448"/>
    <path id="Trazado_7546" data-name="Trazado 7546" d="M142.543,112.6l1.351,5.4a1.438,1.438,0,0,0,2.822-.17l.69-5.525a2.475,2.475,0,0,0-2.456-2.782h0a2.475,2.475,0,0,0-2.4,3.076" transform="translate(-109.796 -84.409)" fill="#e9b578"/>
    <path id="Trazado_7547" data-name="Trazado 7547" d="M255.657,292.044h-7.026a1.869,1.869,0,0,0-1.869,1.869v.523h10.763v-.523a1.869,1.869,0,0,0-1.869-1.869" transform="translate(-190.173 -225.07)" fill="#5f5e6f"/>
    <path id="Trazado_7548" data-name="Trazado 7548" d="M194.772,471.182h-16.2a2.024,2.024,0,0,1-2.024-2.025v-8.1a2.024,2.024,0,0,1,2.024-2.025h16.2a2.025,2.025,0,0,1,2.025,2.025v8.1a2.025,2.025,0,0,1-2.025,2.025" transform="translate(-136.064 -353.766)" fill="#f8c852"/>
    <path id="Trazado_7549" data-name="Trazado 7549" d="M204.329,480.739h-8.1a2.024,2.024,0,0,1,0-4.049h8.1a2.024,2.024,0,0,1,0,4.049" transform="translate(-149.67 -367.372)" fill="#fcae27"/>
    <path id="Trazado_7550" data-name="Trazado 7550" d="M371.323,471.182h-16.2a2.025,2.025,0,0,1-2.025-2.025v-8.1a2.025,2.025,0,0,1,2.025-2.025h16.2a2.024,2.024,0,0,1,2.024,2.025v8.1a2.024,2.024,0,0,1-2.024,2.025" transform="translate(-272.127 -353.766)" fill="#d0e345"/>
    <path id="Trazado_7551" data-name="Trazado 7551" d="M380.881,480.739h-8.1a2.024,2.024,0,0,1,0-4.049h8.1a2.024,2.024,0,0,1,0,4.049" transform="translate(-285.734 -367.372)" fill="#b1cf62"/>
    <path id="Trazado_7552" data-name="Trazado 7552" d="M18.22,471.182H2.024A2.024,2.024,0,0,1,0,469.157v-8.1a2.024,2.024,0,0,1,2.024-2.025h16.2a2.025,2.025,0,0,1,2.025,2.025v8.1a2.025,2.025,0,0,1-2.025,2.025" transform="translate(0 -353.766)" fill="#f15d61"/>
    <path id="Trazado_7553" data-name="Trazado 7553" d="M27.777,480.739h-8.1a2.024,2.024,0,1,1,0-4.049h8.1a2.024,2.024,0,1,1,0,4.049" transform="translate(-13.606 -367.372)" fill="#e5424a"/>
  </g>
</svg>
