<svg xmlns="http://www.w3.org/2000/svg" width="119.554" height="119.555" viewBox="0 0 119.554 119.555">
  <g id="Grupo_8827" data-name="Grupo 8827" transform="translate(-325 -4256)">
    <path id="Trazado_7790" data-name="Trazado 7790" d="M118.345,40.206l-4.083-29.267a2.492,2.492,0,0,0-4.228-1.417l-8,8,.026-.05A59.684,59.684,0,0,0,55.148.178a2.509,2.509,0,0,0-2.175,1.736L50.2,10.438a2.473,2.473,0,0,0,2.716,3.216,46.5,46.5,0,0,1,39.878,13.1L84.848,34.7a2.492,2.492,0,0,0,1.416,4.23l29.267,4.083a2.49,2.49,0,0,0,2.814-2.81" transform="translate(325 4256)" fill="#ed1a68"/>
    <path id="Trazado_7791" data-name="Trazado 7791" d="M66.621,105.919A46.55,46.55,0,0,1,26.758,92.8L34.7,84.85a2.49,2.49,0,0,0-1.417-4.227L3.994,76.538A2.491,2.491,0,0,0,1.185,79.35L5.29,108.621a2.491,2.491,0,0,0,4.228,1.415l7.948-7.948A59.767,59.767,0,0,0,64.4,119.377a2.513,2.513,0,0,0,2.177-1.738l2.755-8.507a2.473,2.473,0,0,0-2.715-3.213" transform="translate(325 4256)" fill="#ffb700"/>
    <path id="Trazado_7792" data-name="Trazado 7792" d="M40.2,1.209,10.937,5.292A2.493,2.493,0,0,0,9.52,9.523l7.946,7.946A59.745,59.745,0,0,0,.179,64.411a2.508,2.508,0,0,0,1.733,2.175l7.739,2.521c2.532.823,4.253-.641,3.984-2.464a46.624,46.624,0,0,1,13.1-39.883L34.7,34.716A2.491,2.491,0,0,0,38.931,33.3L43.016,4.022A2.493,2.493,0,0,0,40.2,1.209" transform="translate(325 4256)" fill="#76d902"/>
    <path id="Trazado_7793" data-name="Trazado 7793" d="M102.061,102.087v-.024a59.64,59.64,0,0,0,17.314-46.911,2.5,2.5,0,0,0-1.738-2.175l-8.526-2.76a2.471,2.471,0,0,0-3.211,2.715A46.565,46.565,0,0,1,92.8,92.795l-7.948-7.948a2.49,2.49,0,0,0-4.227,1.415l-4.1,29.269a2.49,2.49,0,0,0,2.809,2.813l29.284-4.083a2.491,2.491,0,0,0,1.415-4.23Z" transform="translate(325 4256)" fill="#69c9cb"/>
  </g>
</svg>
