<svg xmlns="http://www.w3.org/2000/svg" width="119.555" height="119.555" viewBox="0 0 119.555 119.555">
  <g id="Grupo_8828" data-name="Grupo 8828" transform="translate(-193 -4347.999)">
    <path id="Trazado_7794" data-name="Trazado 7794" d="M97.023,59.583V53.171H80.537v6.411L88.78,66.91Z" transform="translate(184.61 4342.461)" fill="#e9b578"/>
    <path id="Trazado_7795" data-name="Trazado 7795" d="M107.958,63.313,96.625,60.647a1.817,1.817,0,0,1-.477-.191L86.97,65.809,78.149,60.2a1.826,1.826,0,0,1-.834.451L65.982,63.313a3.662,3.662,0,0,0-2.825,3.565v9L86.97,80.477l23.813-4.593v-9a3.664,3.664,0,0,0-2.825-3.565" transform="translate(186.421 4341.729)" fill="#c5e5fa"/>
    <path id="Trazado_7796" data-name="Trazado 7796" d="M80.537,53.172v6.764c10.384,3.741,16.486-5.622,16.486-5.622V53.172Z" transform="translate(184.61 4342.461)" fill="#d7a06b"/>
    <path id="Trazado_7797" data-name="Trazado 7797" d="M76.448,29.657l.8,17.558a5.5,5.5,0,0,0,2.192,4.147L83.225,54.2a5.5,5.5,0,0,0,3.3,1.1h3.663a5.5,5.5,0,0,0,3.3-1.1l3.787-2.841a5.5,5.5,0,0,0,2.192-4.147l.8-17.558Z" transform="translate(185.036 4344.911)" fill="#f3c689"/>
    <path id="Trazado_7798" data-name="Trazado 7798" d="M85.606,33.32c3.664,0,9.159-.915,10.462-3.662H76.447l.8,17.557a5.5,5.5,0,0,0,2.192,4.147L83.225,54.2a5.5,5.5,0,0,0,3.3,1.1h1.832c-1.831,0-5.5-3.663-5.5-8.243V36.068a2.926,2.926,0,0,1,2.748-2.748" transform="translate(185.036 4344.911)" fill="#e9b578"/>
    <path id="Trazado_7799" data-name="Trazado 7799" d="M108.638,70.453l5.935-5.331a3.657,3.657,0,0,1,.789,2.27v7.174A1.832,1.832,0,0,1,113.53,76.4h-6.411V73.859a4.581,4.581,0,0,1,1.519-3.406" transform="translate(181.841 4341.216)" fill="#b1d7f3"/>
    <path id="Trazado_7800" data-name="Trazado 7800" d="M69.88,70.453l-5.935-5.331a3.656,3.656,0,0,0-.788,2.27v7.174A1.831,1.831,0,0,0,64.988,76.4H71.4V73.859a4.581,4.581,0,0,0-1.519-3.406" transform="translate(186.421 4341.216)" fill="#b1d7f3"/>
    <path id="Trazado_7801" data-name="Trazado 7801" d="M91.762,80.873H87.182l.572-12.365h3.435Z" transform="translate(183.918 4340.863)" fill="#5f5e6f"/>
    <path id="Trazado_7802" data-name="Trazado 7802" d="M91.761,66.462H87.182v1.08A1.668,1.668,0,0,0,88.85,69.21h1.243a1.667,1.667,0,0,0,1.668-1.667Z" transform="translate(183.918 4341.077)" fill="#555363"/>
    <path id="Trazado_7803" data-name="Trazado 7803" d="M80.089,58.025l8.371,7.534a31.637,31.637,0,0,0-5.238,3.57,1.175,1.175,0,0,1-1.819-.412L77.47,60.064,78.713,58.2a.917.917,0,0,1,1.376-.173" transform="translate(184.93 4341.98)" fill="#b1d7f3"/>
    <path id="Trazado_7804" data-name="Trazado 7804" d="M98.111,58.025l-8.372,7.534a31.68,31.68,0,0,1,5.238,3.57,1.175,1.175,0,0,0,1.819-.412l3.933-8.653L99.485,58.2a.915.915,0,0,0-1.374-.173" transform="translate(183.652 4341.98)" fill="#b1d7f3"/>
    <path id="Trazado_7805" data-name="Trazado 7805" d="M95.937,22.817l.858,6.068c3.92.784,4.485,6.934,4.566,8.692a1.816,1.816,0,0,0,.289.895l1.5,2.319s-.512-3.835,1.832-6.411c0,0,.8-15.226-9.042-11.563" transform="translate(183.006 4345.683)" fill="#815850"/>
    <path id="Trazado_7806" data-name="Trazado 7806" d="M104.575,42.236l-1.035,4.137a1.1,1.1,0,0,1-2.16-.13l-.529-4.232a1.9,1.9,0,0,1,1.881-2.131h0a1.9,1.9,0,0,1,1.839,2.356" transform="translate(182.496 4343.846)" fill="#f3c689"/>
    <path id="Trazado_7807" data-name="Trazado 7807" d="M77,20.777l1.354.925c-6.125,4.522-4.98,12.279-4.98,12.279C75.2,35.812,75.2,40.392,75.2,40.392l1.832-1.831s-.708-5.292,2.748-7.328c3.205-1.888,6.01-.916,8.872-.916,7.671,0,9.817-2.891,9.446-6.411-.193-1.821-2.978-5.616-10.075-5.5-2.864.048-8.243.916-11.029,2.366" transform="translate(185.366 4346.082)" fill="#724e4c"/>
    <path id="Trazado_7808" data-name="Trazado 7808" d="M76.462,29.9a10.063,10.063,0,0,1,1.888-7.813c-6.125,4.522-4.98,12.278-4.98,12.278C75.2,36.2,75.2,40.775,75.2,40.775l1.832-1.832s-.707-5.292,2.748-7.327c3.205-1.889,6.011-.916,8.872-.916a22.482,22.482,0,0,0,3.3-.227c-5.907.2-9.389-4.277-15.5-.575" transform="translate(185.366 4345.699)" fill="#634448"/>
    <path id="Trazado_7809" data-name="Trazado 7809" d="M74.46,42.236l1.035,4.137a1.1,1.1,0,0,0,2.16-.13l.529-4.232A1.9,1.9,0,0,0,76.3,39.88h0a1.9,1.9,0,0,0-1.839,2.356" transform="translate(185.249 4343.846)" fill="#e9b578"/>
    <path id="Trazado_7810" data-name="Trazado 7810" d="M101.76,75.664H96.184A1.334,1.334,0,0,0,94.85,77v3.029h8.243V77a1.334,1.334,0,0,0-1.334-1.335" transform="translate(183.119 4340.118)" fill="#b1d7f3"/>
    <rect id="Rectángulo_5819" data-name="Rectángulo 5819" width="18.948" height="7.458" transform="matrix(0.707, -0.707, 0.707, 0.707, 231.587, 4423.693)" fill="#e1e6f3"/>
    <path id="Trazado_7811" data-name="Trazado 7811" d="M52.768,74.254a43.639,43.639,0,0,0,5.274,5.274l4.717-4.717-5.274-5.274Z" transform="translate(187.503 4340.756)" fill="#d3d8e9"/>
    <path id="Trazado_7812" data-name="Trazado 7812" d="M85.185,72.145a32.981,32.981,0,1,1,32.981-32.981A32.981,32.981,0,0,1,85.185,72.145M85.185,0A39.165,39.165,0,1,0,124.35,39.164,39.165,39.165,0,0,0,85.185,0" transform="translate(188.206 4348)" fill="#e1e6f3"/>
    <path id="Trazado_7813" data-name="Trazado 7813" d="M5.581,126.736l-4.373-4.373a4.123,4.123,0,0,1,0-5.83L36,81.742a4.123,4.123,0,0,1,5.83,0L46.2,86.113a4.122,4.122,0,0,1,0,5.831L11.411,126.736a4.123,4.123,0,0,1-5.83,0" transform="translate(193 4339.61)" fill="#76768a"/>
    <path id="Trazado_7814" data-name="Trazado 7814" d="M5.33,120.656,40.122,85.864a4.122,4.122,0,0,1,5.829,0l.255.255,0-.005L41.83,81.742a4.123,4.123,0,0,0-5.83,0L1.208,116.534a4.124,4.124,0,0,0,0,5.831l4.12,4.118a4.122,4.122,0,0,1,0-5.826" transform="translate(193 4339.61)" fill="#5f5e6f"/>
    <path id="Trazado_7815" data-name="Trazado 7815" d="M47.554,94.485l2.54-2.54a4.122,4.122,0,0,0,0-5.831l-4.373-4.372a4.123,4.123,0,0,0-5.83,0l-2.54,2.54,10.2,10.2" transform="translate(189.109 4339.61)" fill="#d3d8e9"/>
    <path id="Trazado_7816" data-name="Trazado 7816" d="M41.712,89.079l-2.061-2.061Z" transform="translate(188.87 4338.935)" fill="#b8bed7"/>
    <path id="Trazado_7817" data-name="Trazado 7817" d="M40.186,81.742a4.119,4.119,0,0,1,3.359-1.183c-.092-.01-.185-.017-.278-.021h-.012c-.052,0-.1,0-.155,0a4.107,4.107,0,0,0-2.915,1.208" transform="translate(188.814 4339.611)" fill="#bec4db"/>
    <path id="Trazado_7818" data-name="Trazado 7818" d="M37.351,84.281h0l2.54-2.54a4.11,4.11,0,0,1,2.915-1.207l.154,0-.154,0a4.107,4.107,0,0,0-2.751,1.052c-.056.05-.111.1-.164.155l-.27.271-2.27,2.269m5.621-3.744h0m-.006,0h0" transform="translate(189.109 4339.61)" fill="#b9c0d8"/>
    <path id="Trazado_7819" data-name="Trazado 7819" d="M50.094,86.115h0L45.72,81.743a4.121,4.121,0,0,0-5.665-.155,4.1,4.1,0,0,1,2.751-1.053l.154,0h.013c.092,0,.185.01.277.021a4.1,4.1,0,0,1,2.471,1.183l4.373,4.373h0M37.351,84.282h0l2.27-2.27-2.27,2.27" transform="translate(189.109 4339.61)" fill="#b8bed7"/>
    <path id="Trazado_7820" data-name="Trazado 7820" d="M41.474,88.4l-2.061-2.061-2.061-2.061,2.27-2.269.27-.271c.054-.053.108-.1.164-.155a4.124,4.124,0,0,1,5.666.155l4.373,4.373h0l0,0-.254-.254a4.122,4.122,0,0,0-5.83,0l-2.54,2.54" transform="translate(189.109 4339.61)" fill="#bcc2db"/>
  </g>
</svg>
